G75*
%MOIN*%
%OFA0B0*%
%FSLAX25Y25*%
%IPPOS*%
%LPD*%
%AMOC8*
5,1,8,0,0,1.08239X$1,22.5*
%
%ADD10C,0.02400*%
%ADD11C,0.02381*%
%ADD12C,0.01200*%
D10*
X0064055Y0012850D03*
X0067805Y0012850D03*
X0071555Y0012850D03*
X0075305Y0012850D03*
X0077805Y0015350D03*
X0077805Y0019100D03*
X0077805Y0022850D03*
X0075305Y0025350D03*
X0071555Y0025350D03*
X0067805Y0025350D03*
X0064055Y0025350D03*
X0082805Y0027850D03*
X0069055Y0034100D03*
X0081555Y0035350D03*
X0081555Y0040350D03*
X0081555Y0045350D03*
X0074055Y0045350D03*
X0064055Y0045350D03*
X0082805Y0051600D03*
X0082805Y0055350D03*
X0082805Y0060350D03*
X0074055Y0061600D03*
X0064055Y0061600D03*
X0079055Y0070350D03*
X0085305Y0069100D03*
X0095305Y0069100D03*
X0095305Y0072850D03*
X0086555Y0077850D03*
X0071555Y0081600D03*
X0067805Y0081600D03*
X0064055Y0081600D03*
X0077805Y0087850D03*
X0077805Y0091600D03*
X0075305Y0094100D03*
X0071555Y0094100D03*
X0067805Y0094100D03*
X0064055Y0094100D03*
X0069055Y0074100D03*
X0085305Y0065350D03*
X0095305Y0065350D03*
X0095305Y0061600D03*
X0099055Y0061600D03*
X0106555Y0064100D03*
X0115930Y0062850D03*
X0117805Y0059725D03*
X0122805Y0061600D03*
X0117805Y0055975D03*
X0118430Y0052225D03*
X0115305Y0050350D03*
X0105305Y0050350D03*
X0099055Y0050350D03*
X0095305Y0049100D03*
X0105305Y0035350D03*
X0116555Y0031600D03*
X0106555Y0025350D03*
X0114055Y0019100D03*
X0114055Y0015350D03*
X0111555Y0012850D03*
X0107805Y0012850D03*
X0137805Y0016600D03*
X0152805Y0016600D03*
X0161555Y0014725D03*
X0165305Y0014100D03*
X0172805Y0012300D03*
X0200305Y0020350D03*
X0206555Y0016600D03*
X0210305Y0016600D03*
X0210305Y0020350D03*
X0204055Y0024100D03*
X0200305Y0024100D03*
X0199055Y0041600D03*
X0202805Y0041600D03*
X0206555Y0041600D03*
X0206555Y0045350D03*
X0210305Y0045350D03*
X0210305Y0049100D03*
X0206555Y0049100D03*
X0202805Y0045350D03*
X0210305Y0052850D03*
X0197805Y0057850D03*
X0197805Y0061600D03*
X0201555Y0061600D03*
X0201555Y0065350D03*
X0205305Y0065350D03*
X0197805Y0065350D03*
X0197805Y0070350D03*
X0207805Y0070350D03*
X0207805Y0075350D03*
X0202805Y0075350D03*
X0197805Y0075350D03*
X0172805Y0085350D03*
X0169055Y0085350D03*
X0165305Y0085350D03*
X0165305Y0089100D03*
X0169055Y0089100D03*
X0172805Y0089100D03*
X0172805Y0092850D03*
X0169055Y0092850D03*
X0165305Y0092850D03*
X0161555Y0092850D03*
X0161555Y0089100D03*
X0135305Y0074100D03*
X0125305Y0075350D03*
X0114055Y0071600D03*
X0135305Y0064100D03*
X0139055Y0064100D03*
X0135305Y0060350D03*
X0135305Y0056600D03*
X0126555Y0052850D03*
X0149055Y0055350D03*
X0155305Y0062850D03*
X0162810Y0063272D03*
X0133430Y0044100D03*
X0130305Y0041600D03*
X0127805Y0044100D03*
X0146555Y0036600D03*
D11*
X0142799Y0031606D03*
X0132805Y0027850D03*
X0160305Y0026600D03*
X0170305Y0029100D03*
X0177805Y0029100D03*
X0174055Y0025350D03*
X0170305Y0021600D03*
X0177805Y0021600D03*
X0187805Y0026600D03*
X0191555Y0026656D03*
X0191555Y0023475D03*
X0187805Y0016562D03*
X0214123Y0029100D03*
X0214055Y0032850D03*
X0230305Y0031600D03*
X0234055Y0031600D03*
X0237805Y0031600D03*
X0241555Y0031600D03*
X0245305Y0030350D03*
X0249055Y0030350D03*
X0252805Y0030350D03*
X0252805Y0034100D03*
X0249055Y0034100D03*
X0245305Y0034100D03*
X0241555Y0036600D03*
X0237805Y0036600D03*
X0234055Y0036600D03*
X0230305Y0036600D03*
X0245305Y0037850D03*
X0249055Y0037850D03*
X0252805Y0037850D03*
X0214123Y0041600D03*
X0187805Y0037850D03*
X0187805Y0034100D03*
X0191555Y0030350D03*
X0172805Y0039100D03*
X0176555Y0040350D03*
X0174055Y0042850D03*
X0176555Y0045350D03*
X0214123Y0056600D03*
X0221555Y0061600D03*
X0215305Y0065350D03*
X0230305Y0064100D03*
X0234055Y0064100D03*
X0237805Y0064100D03*
X0241555Y0064100D03*
X0245305Y0065350D03*
X0249055Y0065350D03*
X0252805Y0065350D03*
X0252805Y0061600D03*
X0249055Y0061600D03*
X0245305Y0061600D03*
X0241555Y0059100D03*
X0237805Y0059100D03*
X0234055Y0059100D03*
X0230305Y0059100D03*
X0245305Y0057850D03*
X0249055Y0057850D03*
X0252805Y0057850D03*
X0193430Y0081600D03*
X0190305Y0081600D03*
X0190305Y0085350D03*
X0193430Y0085350D03*
X0194055Y0089100D03*
X0197805Y0089100D03*
X0201555Y0089100D03*
X0201555Y0092850D03*
X0197805Y0092850D03*
X0194055Y0092850D03*
X0190305Y0092850D03*
X0190305Y0089100D03*
X0214123Y0084100D03*
X0222805Y0085418D03*
X0230305Y0086600D03*
X0234055Y0086600D03*
X0237805Y0086600D03*
X0241555Y0086600D03*
X0245305Y0085350D03*
X0249055Y0085350D03*
X0252805Y0085350D03*
X0252805Y0089100D03*
X0249055Y0089100D03*
X0245305Y0089100D03*
X0241555Y0091600D03*
X0237805Y0091600D03*
X0234055Y0091600D03*
X0230305Y0091600D03*
X0245305Y0092850D03*
X0249055Y0092850D03*
X0252805Y0092850D03*
X0154055Y0066600D03*
X0085305Y0045350D03*
X0085305Y0037850D03*
X0091555Y0037850D03*
X0095305Y0037850D03*
X0085305Y0030350D03*
X0089055Y0025350D03*
X0092805Y0025350D03*
X0221555Y0014100D03*
D12*
X0229055Y0013894D02*
X0254556Y0013894D01*
X0254556Y0012696D02*
X0229055Y0012696D01*
X0229055Y0011700D02*
X0229055Y0080350D01*
X0182805Y0080350D01*
X0182805Y0095083D01*
X0254556Y0095083D01*
X0254556Y0011700D01*
X0229055Y0011700D01*
X0229055Y0015093D02*
X0254556Y0015093D01*
X0254556Y0016291D02*
X0229055Y0016291D01*
X0229055Y0017490D02*
X0254556Y0017490D01*
X0254556Y0018688D02*
X0229055Y0018688D01*
X0229055Y0019887D02*
X0254556Y0019887D01*
X0254556Y0021085D02*
X0229055Y0021085D01*
X0229055Y0022284D02*
X0254556Y0022284D01*
X0254556Y0023482D02*
X0229055Y0023482D01*
X0229055Y0024681D02*
X0254556Y0024681D01*
X0254556Y0025879D02*
X0229055Y0025879D01*
X0229055Y0027078D02*
X0254556Y0027078D01*
X0254556Y0028276D02*
X0229055Y0028276D01*
X0229055Y0029475D02*
X0254556Y0029475D01*
X0254556Y0030673D02*
X0229055Y0030673D01*
X0229055Y0031872D02*
X0254556Y0031872D01*
X0254556Y0033070D02*
X0229055Y0033070D01*
X0229055Y0034269D02*
X0254556Y0034269D01*
X0254556Y0035467D02*
X0229055Y0035467D01*
X0229055Y0036666D02*
X0254556Y0036666D01*
X0254556Y0037864D02*
X0229055Y0037864D01*
X0229055Y0039063D02*
X0254556Y0039063D01*
X0254556Y0040261D02*
X0229055Y0040261D01*
X0229055Y0041460D02*
X0254556Y0041460D01*
X0254556Y0042658D02*
X0229055Y0042658D01*
X0229055Y0043857D02*
X0254556Y0043857D01*
X0254556Y0045055D02*
X0229055Y0045055D01*
X0229055Y0046254D02*
X0254556Y0046254D01*
X0254556Y0047452D02*
X0229055Y0047452D01*
X0229055Y0048651D02*
X0254556Y0048651D01*
X0254556Y0049849D02*
X0229055Y0049849D01*
X0229055Y0051048D02*
X0254556Y0051048D01*
X0254556Y0052246D02*
X0229055Y0052246D01*
X0229055Y0053445D02*
X0254556Y0053445D01*
X0254556Y0054643D02*
X0229055Y0054643D01*
X0229055Y0055842D02*
X0254556Y0055842D01*
X0254556Y0057040D02*
X0229055Y0057040D01*
X0229055Y0058239D02*
X0254556Y0058239D01*
X0254556Y0059437D02*
X0229055Y0059437D01*
X0229055Y0060636D02*
X0254556Y0060636D01*
X0254556Y0061834D02*
X0229055Y0061834D01*
X0229055Y0063033D02*
X0254556Y0063033D01*
X0254556Y0064232D02*
X0229055Y0064232D01*
X0229055Y0065430D02*
X0254556Y0065430D01*
X0254556Y0066629D02*
X0229055Y0066629D01*
X0229055Y0067827D02*
X0254556Y0067827D01*
X0254556Y0069026D02*
X0229055Y0069026D01*
X0229055Y0070224D02*
X0254556Y0070224D01*
X0254556Y0071423D02*
X0229055Y0071423D01*
X0229055Y0072621D02*
X0254556Y0072621D01*
X0254556Y0073820D02*
X0229055Y0073820D01*
X0229055Y0075018D02*
X0254556Y0075018D01*
X0254556Y0076217D02*
X0229055Y0076217D01*
X0229055Y0077415D02*
X0254556Y0077415D01*
X0254556Y0078614D02*
X0229055Y0078614D01*
X0229055Y0079812D02*
X0254556Y0079812D01*
X0254556Y0081011D02*
X0182805Y0081011D01*
X0180305Y0081011D02*
X0073909Y0081011D01*
X0073955Y0081123D02*
X0073590Y0080241D01*
X0072915Y0079565D01*
X0072033Y0079200D01*
X0071078Y0079200D01*
X0070196Y0079565D01*
X0069680Y0080081D01*
X0069165Y0079565D01*
X0068283Y0079200D01*
X0067328Y0079200D01*
X0066446Y0079565D01*
X0065930Y0080081D01*
X0065415Y0079565D01*
X0064533Y0079200D01*
X0063578Y0079200D01*
X0062905Y0079479D01*
X0062905Y0032850D01*
X0076555Y0032850D01*
X0076555Y0065350D01*
X0090305Y0079100D01*
X0135305Y0079100D01*
X0144055Y0070350D01*
X0180305Y0070350D01*
X0180305Y0095083D01*
X0077496Y0095083D01*
X0077705Y0094577D01*
X0077705Y0094000D01*
X0078283Y0094000D01*
X0079165Y0093635D01*
X0079840Y0092959D01*
X0080205Y0092077D01*
X0080205Y0091123D01*
X0079840Y0090241D01*
X0079324Y0089725D01*
X0079840Y0089209D01*
X0080205Y0088327D01*
X0080205Y0087373D01*
X0079840Y0086491D01*
X0079165Y0085815D01*
X0078283Y0085450D01*
X0077328Y0085450D01*
X0076446Y0085815D01*
X0075770Y0086491D01*
X0075405Y0087373D01*
X0075405Y0088327D01*
X0075770Y0089209D01*
X0076286Y0089725D01*
X0075770Y0090241D01*
X0075405Y0091123D01*
X0075405Y0091700D01*
X0074828Y0091700D01*
X0073946Y0092065D01*
X0073430Y0092581D01*
X0072915Y0092065D01*
X0072033Y0091700D01*
X0071078Y0091700D01*
X0070196Y0092065D01*
X0069680Y0092581D01*
X0069165Y0092065D01*
X0068283Y0091700D01*
X0067328Y0091700D01*
X0066446Y0092065D01*
X0065930Y0092581D01*
X0065415Y0092065D01*
X0064533Y0091700D01*
X0063578Y0091700D01*
X0062905Y0091979D01*
X0062905Y0083721D01*
X0063578Y0084000D01*
X0064533Y0084000D01*
X0065415Y0083635D01*
X0065930Y0083119D01*
X0066446Y0083635D01*
X0067328Y0084000D01*
X0068283Y0084000D01*
X0069165Y0083635D01*
X0069680Y0083119D01*
X0070196Y0083635D01*
X0071078Y0084000D01*
X0072033Y0084000D01*
X0072915Y0083635D01*
X0073590Y0082959D01*
X0073955Y0082077D01*
X0073955Y0081123D01*
X0073901Y0082209D02*
X0180305Y0082209D01*
X0180305Y0083408D02*
X0073142Y0083408D01*
X0069969Y0083408D02*
X0069392Y0083408D01*
X0066219Y0083408D02*
X0065642Y0083408D01*
X0062905Y0084606D02*
X0180305Y0084606D01*
X0180305Y0085805D02*
X0079139Y0085805D01*
X0080052Y0087003D02*
X0180305Y0087003D01*
X0180305Y0088202D02*
X0080205Y0088202D01*
X0079649Y0089400D02*
X0180305Y0089400D01*
X0180305Y0090599D02*
X0079988Y0090599D01*
X0080205Y0091797D02*
X0180305Y0091797D01*
X0180305Y0092996D02*
X0079803Y0092996D01*
X0077705Y0094194D02*
X0180305Y0094194D01*
X0182805Y0094194D02*
X0254556Y0094194D01*
X0254556Y0092996D02*
X0182805Y0092996D01*
X0182805Y0091797D02*
X0254556Y0091797D01*
X0254556Y0090599D02*
X0182805Y0090599D01*
X0182805Y0089400D02*
X0254556Y0089400D01*
X0254556Y0088202D02*
X0182805Y0088202D01*
X0182805Y0087003D02*
X0221009Y0087003D01*
X0220779Y0086772D02*
X0220415Y0085894D01*
X0220415Y0084943D01*
X0220779Y0084064D01*
X0221451Y0083391D01*
X0222330Y0083028D01*
X0223281Y0083028D01*
X0224159Y0083391D01*
X0224832Y0084064D01*
X0225196Y0084943D01*
X0225196Y0085894D01*
X0224832Y0086772D01*
X0224159Y0087445D01*
X0223281Y0087809D01*
X0222330Y0087809D01*
X0221451Y0087445D01*
X0220779Y0086772D01*
X0220415Y0085805D02*
X0215799Y0085805D01*
X0215477Y0086127D02*
X0214599Y0086491D01*
X0213648Y0086491D01*
X0212769Y0086127D01*
X0212097Y0085454D01*
X0211733Y0084576D01*
X0211733Y0083624D01*
X0212097Y0082746D01*
X0212769Y0082073D01*
X0213648Y0081709D01*
X0214599Y0081709D01*
X0215477Y0082073D01*
X0216150Y0082746D01*
X0216514Y0083624D01*
X0216514Y0084576D01*
X0216150Y0085454D01*
X0215477Y0086127D01*
X0216501Y0084606D02*
X0220554Y0084606D01*
X0221435Y0083408D02*
X0216424Y0083408D01*
X0215613Y0082209D02*
X0254556Y0082209D01*
X0254556Y0083408D02*
X0224175Y0083408D01*
X0225056Y0084606D02*
X0254556Y0084606D01*
X0254556Y0085805D02*
X0225196Y0085805D01*
X0224601Y0087003D02*
X0254556Y0087003D01*
X0212447Y0085805D02*
X0182805Y0085805D01*
X0182805Y0084606D02*
X0211745Y0084606D01*
X0211822Y0083408D02*
X0182805Y0083408D01*
X0182805Y0082209D02*
X0212633Y0082209D01*
X0180305Y0079812D02*
X0073161Y0079812D01*
X0069949Y0079812D02*
X0069411Y0079812D01*
X0066199Y0079812D02*
X0065661Y0079812D01*
X0062905Y0078614D02*
X0089819Y0078614D01*
X0088620Y0077415D02*
X0062905Y0077415D01*
X0062905Y0076217D02*
X0087422Y0076217D01*
X0086223Y0075018D02*
X0062905Y0075018D01*
X0062905Y0073820D02*
X0085025Y0073820D01*
X0083826Y0072621D02*
X0062905Y0072621D01*
X0062905Y0071423D02*
X0082628Y0071423D01*
X0081429Y0070224D02*
X0062905Y0070224D01*
X0062905Y0069026D02*
X0080231Y0069026D01*
X0079032Y0067827D02*
X0062905Y0067827D01*
X0062905Y0066629D02*
X0077834Y0066629D01*
X0076635Y0065430D02*
X0062905Y0065430D01*
X0062905Y0064232D02*
X0076555Y0064232D01*
X0076555Y0063033D02*
X0062905Y0063033D01*
X0062905Y0061834D02*
X0076555Y0061834D01*
X0076555Y0060636D02*
X0062905Y0060636D01*
X0062905Y0059437D02*
X0076555Y0059437D01*
X0076555Y0058239D02*
X0062905Y0058239D01*
X0062905Y0057040D02*
X0076555Y0057040D01*
X0076555Y0055842D02*
X0062905Y0055842D01*
X0062905Y0054643D02*
X0076555Y0054643D01*
X0076555Y0053445D02*
X0062905Y0053445D01*
X0062905Y0052246D02*
X0076555Y0052246D01*
X0076555Y0051048D02*
X0062905Y0051048D01*
X0062905Y0049849D02*
X0076555Y0049849D01*
X0076555Y0048651D02*
X0062905Y0048651D01*
X0062905Y0047452D02*
X0076555Y0047452D01*
X0076555Y0046254D02*
X0062905Y0046254D01*
X0062905Y0045055D02*
X0076555Y0045055D01*
X0076555Y0043857D02*
X0062905Y0043857D01*
X0062905Y0042658D02*
X0076555Y0042658D01*
X0076555Y0041460D02*
X0062905Y0041460D01*
X0062905Y0040261D02*
X0076555Y0040261D01*
X0076555Y0039063D02*
X0062905Y0039063D01*
X0062905Y0037864D02*
X0076555Y0037864D01*
X0076555Y0036666D02*
X0062905Y0036666D01*
X0062905Y0035467D02*
X0076555Y0035467D01*
X0076555Y0034269D02*
X0062905Y0034269D01*
X0062905Y0033070D02*
X0076555Y0033070D01*
X0079055Y0033070D02*
X0080787Y0033070D01*
X0081078Y0032950D02*
X0082033Y0032950D01*
X0082915Y0033315D01*
X0083590Y0033991D01*
X0083955Y0034873D01*
X0083955Y0035822D01*
X0084830Y0035459D01*
X0085781Y0035459D01*
X0086659Y0035823D01*
X0087332Y0036496D01*
X0087696Y0037374D01*
X0087696Y0038326D01*
X0087332Y0039204D01*
X0086659Y0039877D01*
X0085781Y0040241D01*
X0084830Y0040241D01*
X0083955Y0039878D01*
X0083955Y0040827D01*
X0083590Y0041709D01*
X0082915Y0042385D01*
X0082033Y0042750D01*
X0081078Y0042750D01*
X0080196Y0042385D01*
X0079520Y0041709D01*
X0079155Y0040827D01*
X0079155Y0039873D01*
X0079520Y0038991D01*
X0080196Y0038315D01*
X0081078Y0037950D01*
X0082033Y0037950D01*
X0082915Y0038315D01*
X0082915Y0037385D01*
X0082033Y0037750D01*
X0081078Y0037750D01*
X0080196Y0037385D01*
X0079520Y0036709D01*
X0079155Y0035827D01*
X0079155Y0034873D01*
X0079520Y0033991D01*
X0080196Y0033315D01*
X0081078Y0032950D01*
X0082323Y0033070D02*
X0104537Y0033070D01*
X0104828Y0032950D02*
X0105783Y0032950D01*
X0106665Y0033315D01*
X0107340Y0033991D01*
X0107705Y0034873D01*
X0107705Y0035827D01*
X0107340Y0036709D01*
X0106665Y0037385D01*
X0105783Y0037750D01*
X0104828Y0037750D01*
X0103946Y0037385D01*
X0103270Y0036709D01*
X0102905Y0035827D01*
X0102905Y0034873D01*
X0103270Y0033991D01*
X0103946Y0033315D01*
X0104828Y0032950D01*
X0106073Y0033070D02*
X0114631Y0033070D01*
X0114520Y0032959D02*
X0114155Y0032077D01*
X0114155Y0031123D01*
X0114520Y0030241D01*
X0115196Y0029565D01*
X0116078Y0029200D01*
X0117033Y0029200D01*
X0117915Y0029565D01*
X0118590Y0030241D01*
X0118955Y0031123D01*
X0118955Y0032077D01*
X0118590Y0032959D01*
X0117915Y0033635D01*
X0117033Y0034000D01*
X0116078Y0034000D01*
X0115196Y0033635D01*
X0114520Y0032959D01*
X0114155Y0031872D02*
X0087164Y0031872D01*
X0087332Y0031704D02*
X0086659Y0032377D01*
X0085781Y0032741D01*
X0084830Y0032741D01*
X0083951Y0032377D01*
X0083279Y0031704D01*
X0082915Y0030826D01*
X0082915Y0029874D01*
X0083279Y0028996D01*
X0083951Y0028323D01*
X0084830Y0027959D01*
X0085781Y0027959D01*
X0086659Y0028323D01*
X0087332Y0028996D01*
X0087696Y0029874D01*
X0087696Y0030826D01*
X0087332Y0031704D01*
X0087696Y0030673D02*
X0114341Y0030673D01*
X0115415Y0029475D02*
X0087530Y0029475D01*
X0086545Y0028276D02*
X0130415Y0028276D01*
X0130415Y0028326D02*
X0130415Y0027374D01*
X0130779Y0026496D01*
X0131451Y0025823D01*
X0132330Y0025459D01*
X0133281Y0025459D01*
X0134159Y0025823D01*
X0134832Y0026496D01*
X0135196Y0027374D01*
X0135196Y0028326D01*
X0134832Y0029204D01*
X0134159Y0029877D01*
X0133281Y0030241D01*
X0132330Y0030241D01*
X0131451Y0029877D01*
X0130779Y0029204D01*
X0130415Y0028326D01*
X0130537Y0027078D02*
X0094458Y0027078D01*
X0094159Y0027377D02*
X0093281Y0027741D01*
X0092330Y0027741D01*
X0091451Y0027377D01*
X0090930Y0026856D01*
X0090409Y0027377D01*
X0089531Y0027741D01*
X0088580Y0027741D01*
X0087701Y0027377D01*
X0087029Y0026704D01*
X0086665Y0025826D01*
X0086665Y0024874D01*
X0087029Y0023996D01*
X0087701Y0023323D01*
X0088580Y0022959D01*
X0089531Y0022959D01*
X0090409Y0023323D01*
X0090930Y0023844D01*
X0091451Y0023323D01*
X0092330Y0022959D01*
X0093281Y0022959D01*
X0094159Y0023323D01*
X0094832Y0023996D01*
X0095196Y0024874D01*
X0095196Y0025826D01*
X0094832Y0026704D01*
X0094159Y0027377D01*
X0095173Y0025879D02*
X0131395Y0025879D01*
X0134215Y0025879D02*
X0158016Y0025879D01*
X0157915Y0026124D02*
X0158279Y0025246D01*
X0158951Y0024573D01*
X0159830Y0024209D01*
X0160781Y0024209D01*
X0161659Y0024573D01*
X0162332Y0025246D01*
X0162696Y0026124D01*
X0162696Y0027076D01*
X0162332Y0027954D01*
X0161659Y0028627D01*
X0160781Y0028991D01*
X0159830Y0028991D01*
X0158951Y0028627D01*
X0158279Y0027954D01*
X0157915Y0027076D01*
X0157915Y0026124D01*
X0157915Y0027078D02*
X0135073Y0027078D01*
X0135196Y0028276D02*
X0158601Y0028276D01*
X0162010Y0028276D02*
X0186101Y0028276D01*
X0185779Y0027954D02*
X0186451Y0028627D01*
X0187330Y0028991D01*
X0188281Y0028991D01*
X0189159Y0028627D01*
X0189652Y0028134D01*
X0190021Y0028503D01*
X0189529Y0028996D01*
X0189165Y0029874D01*
X0189165Y0030826D01*
X0189529Y0031704D01*
X0190201Y0032377D01*
X0191080Y0032741D01*
X0192031Y0032741D01*
X0192909Y0032377D01*
X0193582Y0031704D01*
X0193946Y0030826D01*
X0193946Y0029874D01*
X0193582Y0028996D01*
X0193089Y0028503D01*
X0193582Y0028010D01*
X0193946Y0027132D01*
X0193946Y0026181D01*
X0193582Y0025302D01*
X0193345Y0025066D01*
X0193582Y0024829D01*
X0193946Y0023951D01*
X0193946Y0022999D01*
X0193582Y0022121D01*
X0192909Y0021448D01*
X0192031Y0021084D01*
X0191080Y0021084D01*
X0190201Y0021448D01*
X0189529Y0022121D01*
X0189165Y0022999D01*
X0189165Y0023951D01*
X0189529Y0024829D01*
X0189765Y0025066D01*
X0189708Y0025122D01*
X0189159Y0024573D01*
X0188281Y0024209D01*
X0187330Y0024209D01*
X0186451Y0024573D01*
X0185779Y0025246D01*
X0185415Y0026124D01*
X0185415Y0027076D01*
X0185779Y0027954D01*
X0185415Y0027078D02*
X0162695Y0027078D01*
X0162594Y0025879D02*
X0185516Y0025879D01*
X0186344Y0024681D02*
X0161767Y0024681D01*
X0158844Y0024681D02*
X0095115Y0024681D01*
X0094318Y0023482D02*
X0189165Y0023482D01*
X0189461Y0022284D02*
X0080168Y0022284D01*
X0080205Y0022373D02*
X0080205Y0023327D01*
X0079840Y0024209D01*
X0079165Y0024885D01*
X0079055Y0024930D01*
X0079055Y0046600D01*
X0075305Y0046600D01*
X0075305Y0060350D01*
X0079055Y0060350D01*
X0079055Y0064100D01*
X0083102Y0068147D01*
X0083270Y0067741D01*
X0083786Y0067225D01*
X0083270Y0066709D01*
X0082905Y0065827D01*
X0082905Y0064873D01*
X0083270Y0063991D01*
X0083946Y0063315D01*
X0084828Y0062950D01*
X0085783Y0062950D01*
X0086665Y0063315D01*
X0087340Y0063991D01*
X0087705Y0064873D01*
X0087705Y0065827D01*
X0087340Y0066709D01*
X0086824Y0067225D01*
X0087340Y0067741D01*
X0087705Y0068623D01*
X0087705Y0069577D01*
X0087340Y0070459D01*
X0086665Y0071135D01*
X0086258Y0071303D01*
X0091555Y0076600D01*
X0134055Y0076600D01*
X0134352Y0076303D01*
X0133946Y0076135D01*
X0133270Y0075459D01*
X0132905Y0074577D01*
X0132905Y0073623D01*
X0133270Y0072741D01*
X0133946Y0072065D01*
X0134828Y0071700D01*
X0135783Y0071700D01*
X0136665Y0072065D01*
X0137340Y0072741D01*
X0137508Y0073147D01*
X0142805Y0067850D01*
X0151985Y0067850D01*
X0151665Y0067076D01*
X0151665Y0066124D01*
X0152029Y0065246D01*
X0152701Y0064573D01*
X0153580Y0064209D01*
X0154531Y0064209D01*
X0155409Y0064573D01*
X0156082Y0065246D01*
X0156446Y0066124D01*
X0156446Y0067076D01*
X0156125Y0067850D01*
X0167805Y0067850D01*
X0194055Y0041600D01*
X0194055Y0011700D01*
X0175154Y0011700D01*
X0175205Y0011823D01*
X0175205Y0012777D01*
X0174840Y0013659D01*
X0174165Y0014335D01*
X0173283Y0014700D01*
X0172328Y0014700D01*
X0171446Y0014335D01*
X0170770Y0013659D01*
X0170405Y0012777D01*
X0170405Y0011823D01*
X0170456Y0011700D01*
X0079055Y0011700D01*
X0079055Y0013270D01*
X0079165Y0013315D01*
X0079840Y0013991D01*
X0080205Y0014873D01*
X0080205Y0015827D01*
X0079840Y0016709D01*
X0079324Y0017225D01*
X0079840Y0017741D01*
X0080205Y0018623D01*
X0080205Y0019577D01*
X0079840Y0020459D01*
X0079324Y0020975D01*
X0079840Y0021491D01*
X0080205Y0022373D01*
X0080141Y0023482D02*
X0087542Y0023482D01*
X0086745Y0024681D02*
X0079369Y0024681D01*
X0079055Y0025879D02*
X0086687Y0025879D01*
X0087402Y0027078D02*
X0079055Y0027078D01*
X0079055Y0028276D02*
X0084065Y0028276D01*
X0083080Y0029475D02*
X0079055Y0029475D01*
X0079055Y0030673D02*
X0082915Y0030673D01*
X0083446Y0031872D02*
X0079055Y0031872D01*
X0079055Y0034269D02*
X0079405Y0034269D01*
X0079155Y0035467D02*
X0079055Y0035467D01*
X0079055Y0036666D02*
X0079502Y0036666D01*
X0079055Y0037864D02*
X0082915Y0037864D01*
X0087402Y0036666D02*
X0089458Y0036666D01*
X0089529Y0036496D02*
X0090201Y0035823D01*
X0091080Y0035459D01*
X0092031Y0035459D01*
X0092909Y0035823D01*
X0093430Y0036344D01*
X0093951Y0035823D01*
X0094830Y0035459D01*
X0095781Y0035459D01*
X0096659Y0035823D01*
X0097332Y0036496D01*
X0097696Y0037374D01*
X0097696Y0038326D01*
X0097332Y0039204D01*
X0096659Y0039877D01*
X0095781Y0040241D01*
X0094830Y0040241D01*
X0093951Y0039877D01*
X0093430Y0039356D01*
X0092909Y0039877D01*
X0092031Y0040241D01*
X0091080Y0040241D01*
X0090201Y0039877D01*
X0089529Y0039204D01*
X0089165Y0038326D01*
X0089165Y0037374D01*
X0089529Y0036496D01*
X0089165Y0037864D02*
X0087696Y0037864D01*
X0087390Y0039063D02*
X0089470Y0039063D01*
X0083955Y0040261D02*
X0170699Y0040261D01*
X0170779Y0040454D02*
X0170415Y0039576D01*
X0170415Y0038624D01*
X0170779Y0037746D01*
X0171451Y0037073D01*
X0172330Y0036709D01*
X0173281Y0036709D01*
X0174159Y0037073D01*
X0174832Y0037746D01*
X0175109Y0038415D01*
X0175201Y0038323D01*
X0176080Y0037959D01*
X0177031Y0037959D01*
X0177909Y0038323D01*
X0178582Y0038996D01*
X0178946Y0039874D01*
X0178946Y0040826D01*
X0178582Y0041704D01*
X0177909Y0042377D01*
X0177031Y0042741D01*
X0176446Y0042741D01*
X0176446Y0042959D01*
X0177031Y0042959D01*
X0177909Y0043323D01*
X0178582Y0043996D01*
X0178946Y0044874D01*
X0178946Y0045826D01*
X0178582Y0046704D01*
X0177909Y0047377D01*
X0177031Y0047741D01*
X0176080Y0047741D01*
X0175201Y0047377D01*
X0174529Y0046704D01*
X0174165Y0045826D01*
X0174165Y0045241D01*
X0173580Y0045241D01*
X0172701Y0044877D01*
X0172029Y0044204D01*
X0171665Y0043326D01*
X0171665Y0042374D01*
X0172029Y0041496D01*
X0172120Y0041404D01*
X0171451Y0041127D01*
X0170779Y0040454D01*
X0170415Y0039063D02*
X0097390Y0039063D01*
X0097696Y0037864D02*
X0170729Y0037864D01*
X0174881Y0037864D02*
X0185415Y0037864D01*
X0185415Y0038326D02*
X0185415Y0037374D01*
X0185779Y0036496D01*
X0186299Y0035975D01*
X0185779Y0035454D01*
X0185415Y0034576D01*
X0185415Y0033624D01*
X0185779Y0032746D01*
X0186451Y0032073D01*
X0187330Y0031709D01*
X0188281Y0031709D01*
X0189159Y0032073D01*
X0189832Y0032746D01*
X0190196Y0033624D01*
X0190196Y0034576D01*
X0189832Y0035454D01*
X0189311Y0035975D01*
X0189832Y0036496D01*
X0190196Y0037374D01*
X0190196Y0038326D01*
X0189832Y0039204D01*
X0189159Y0039877D01*
X0188281Y0040241D01*
X0187330Y0040241D01*
X0186451Y0039877D01*
X0185779Y0039204D01*
X0185415Y0038326D01*
X0185720Y0039063D02*
X0178609Y0039063D01*
X0178946Y0040261D02*
X0194055Y0040261D01*
X0194055Y0039063D02*
X0189890Y0039063D01*
X0190196Y0037864D02*
X0194055Y0037864D01*
X0194055Y0036666D02*
X0189902Y0036666D01*
X0189819Y0035467D02*
X0194055Y0035467D01*
X0194055Y0034269D02*
X0190196Y0034269D01*
X0189966Y0033070D02*
X0194055Y0033070D01*
X0194055Y0031872D02*
X0193414Y0031872D01*
X0189696Y0031872D02*
X0188672Y0031872D01*
X0186938Y0031872D02*
X0145189Y0031872D01*
X0145189Y0032082D02*
X0144825Y0032960D01*
X0144153Y0033633D01*
X0143274Y0033997D01*
X0142323Y0033997D01*
X0141445Y0033633D01*
X0140772Y0032960D01*
X0140408Y0032082D01*
X0140408Y0031131D01*
X0140772Y0030252D01*
X0141445Y0029580D01*
X0142323Y0029216D01*
X0143274Y0029216D01*
X0144153Y0029580D01*
X0144825Y0030252D01*
X0145189Y0031131D01*
X0145189Y0032082D01*
X0144716Y0033070D02*
X0185644Y0033070D01*
X0185415Y0034269D02*
X0107455Y0034269D01*
X0107705Y0035467D02*
X0185792Y0035467D01*
X0185708Y0036666D02*
X0107358Y0036666D01*
X0103252Y0036666D02*
X0097402Y0036666D01*
X0095799Y0035467D02*
X0102905Y0035467D01*
X0103155Y0034269D02*
X0083705Y0034269D01*
X0083955Y0035467D02*
X0084811Y0035467D01*
X0085799Y0035467D02*
X0091061Y0035467D01*
X0092049Y0035467D02*
X0094811Y0035467D01*
X0083693Y0041460D02*
X0172065Y0041460D01*
X0171665Y0042658D02*
X0135383Y0042658D01*
X0135465Y0042741D02*
X0135830Y0043623D01*
X0135830Y0044577D01*
X0135465Y0045459D01*
X0134790Y0046135D01*
X0133908Y0046500D01*
X0132953Y0046500D01*
X0132071Y0046135D01*
X0131395Y0045459D01*
X0131030Y0044577D01*
X0131030Y0043623D01*
X0131395Y0042741D01*
X0132071Y0042065D01*
X0132953Y0041700D01*
X0133908Y0041700D01*
X0134790Y0042065D01*
X0135465Y0042741D01*
X0135830Y0043857D02*
X0171885Y0043857D01*
X0173132Y0045055D02*
X0135632Y0045055D01*
X0134502Y0046254D02*
X0174342Y0046254D01*
X0175384Y0047452D02*
X0086476Y0047452D01*
X0086659Y0047377D02*
X0085781Y0047741D01*
X0084830Y0047741D01*
X0083951Y0047377D01*
X0083437Y0046862D01*
X0082915Y0047385D01*
X0082033Y0047750D01*
X0081078Y0047750D01*
X0080196Y0047385D01*
X0079520Y0046709D01*
X0079155Y0045827D01*
X0079155Y0044873D01*
X0079520Y0043991D01*
X0080196Y0043315D01*
X0081078Y0042950D01*
X0082033Y0042950D01*
X0082915Y0043315D01*
X0083437Y0043838D01*
X0083951Y0043323D01*
X0084830Y0042959D01*
X0085781Y0042959D01*
X0086659Y0043323D01*
X0087332Y0043996D01*
X0087696Y0044874D01*
X0087696Y0045826D01*
X0087332Y0046704D01*
X0086659Y0047377D01*
X0087518Y0046254D02*
X0126734Y0046254D01*
X0126446Y0046135D02*
X0127328Y0046500D01*
X0128283Y0046500D01*
X0129165Y0046135D01*
X0129840Y0045459D01*
X0130205Y0044577D01*
X0130205Y0043623D01*
X0129840Y0042741D01*
X0129165Y0042065D01*
X0128283Y0041700D01*
X0127328Y0041700D01*
X0126446Y0042065D01*
X0125770Y0042741D01*
X0125405Y0043623D01*
X0125405Y0044577D01*
X0125770Y0045459D01*
X0126446Y0046135D01*
X0125603Y0045055D02*
X0087696Y0045055D01*
X0087193Y0043857D02*
X0125405Y0043857D01*
X0125853Y0042658D02*
X0082254Y0042658D01*
X0080856Y0042658D02*
X0079055Y0042658D01*
X0079055Y0041460D02*
X0079417Y0041460D01*
X0079155Y0040261D02*
X0079055Y0040261D01*
X0079055Y0039063D02*
X0079491Y0039063D01*
X0079654Y0043857D02*
X0079055Y0043857D01*
X0079055Y0045055D02*
X0079155Y0045055D01*
X0079055Y0046254D02*
X0079332Y0046254D01*
X0080359Y0047452D02*
X0075305Y0047452D01*
X0075305Y0048651D02*
X0113610Y0048651D01*
X0113946Y0048315D02*
X0114828Y0047950D01*
X0115783Y0047950D01*
X0116665Y0048315D01*
X0117340Y0048991D01*
X0117705Y0049873D01*
X0117705Y0049928D01*
X0117953Y0049825D01*
X0118908Y0049825D01*
X0119790Y0050190D01*
X0120465Y0050866D01*
X0120830Y0051748D01*
X0120830Y0052702D01*
X0120465Y0053584D01*
X0119790Y0054260D01*
X0119573Y0054349D01*
X0119840Y0054616D01*
X0120205Y0055498D01*
X0120205Y0056452D01*
X0119840Y0057334D01*
X0119324Y0057850D01*
X0119840Y0058366D01*
X0120205Y0059248D01*
X0120205Y0060202D01*
X0119840Y0061084D01*
X0119165Y0061760D01*
X0118283Y0062125D01*
X0118228Y0062125D01*
X0118330Y0062373D01*
X0118330Y0063327D01*
X0117965Y0064209D01*
X0117290Y0064885D01*
X0116408Y0065250D01*
X0115453Y0065250D01*
X0114571Y0064885D01*
X0113895Y0064209D01*
X0113530Y0063327D01*
X0113530Y0062373D01*
X0113895Y0061491D01*
X0114571Y0060815D01*
X0115453Y0060450D01*
X0115508Y0060450D01*
X0115405Y0060202D01*
X0115405Y0059248D01*
X0115770Y0058366D01*
X0116286Y0057850D01*
X0115770Y0057334D01*
X0115405Y0056452D01*
X0115405Y0055498D01*
X0115770Y0054616D01*
X0116446Y0053940D01*
X0116662Y0053851D01*
X0116395Y0053584D01*
X0116030Y0052702D01*
X0116030Y0052647D01*
X0115783Y0052750D01*
X0114828Y0052750D01*
X0113946Y0052385D01*
X0113270Y0051709D01*
X0112905Y0050827D01*
X0112905Y0049873D01*
X0113270Y0048991D01*
X0113946Y0048315D01*
X0112915Y0049849D02*
X0084449Y0049849D01*
X0084165Y0049565D02*
X0084840Y0050241D01*
X0085205Y0051123D01*
X0085205Y0052077D01*
X0084840Y0052959D01*
X0084324Y0053475D01*
X0084840Y0053991D01*
X0085205Y0054873D01*
X0085205Y0055827D01*
X0084840Y0056709D01*
X0084165Y0057385D01*
X0083283Y0057750D01*
X0082328Y0057750D01*
X0081446Y0057385D01*
X0080770Y0056709D01*
X0080405Y0055827D01*
X0080405Y0054873D01*
X0080770Y0053991D01*
X0081286Y0053475D01*
X0080770Y0052959D01*
X0080405Y0052077D01*
X0080405Y0051123D01*
X0080770Y0050241D01*
X0081446Y0049565D01*
X0082328Y0049200D01*
X0083283Y0049200D01*
X0084165Y0049565D01*
X0085174Y0051048D02*
X0112996Y0051048D01*
X0113807Y0052246D02*
X0085135Y0052246D01*
X0080475Y0052246D02*
X0075305Y0052246D01*
X0075305Y0051048D02*
X0080436Y0051048D01*
X0081162Y0049849D02*
X0075305Y0049849D01*
X0082751Y0047452D02*
X0084134Y0047452D01*
X0084354Y0053445D02*
X0116338Y0053445D01*
X0115759Y0054643D02*
X0085110Y0054643D01*
X0085199Y0055842D02*
X0115405Y0055842D01*
X0115649Y0057040D02*
X0084509Y0057040D01*
X0083980Y0058239D02*
X0115897Y0058239D01*
X0115405Y0059437D02*
X0085025Y0059437D01*
X0085205Y0059873D02*
X0084840Y0058991D01*
X0084165Y0058315D01*
X0083283Y0057950D01*
X0082328Y0057950D01*
X0081446Y0058315D01*
X0080770Y0058991D01*
X0080405Y0059873D01*
X0080405Y0060827D01*
X0080770Y0061709D01*
X0081446Y0062385D01*
X0082328Y0062750D01*
X0083283Y0062750D01*
X0084165Y0062385D01*
X0084840Y0061709D01*
X0085205Y0060827D01*
X0085205Y0059873D01*
X0085205Y0060636D02*
X0115004Y0060636D01*
X0113753Y0061834D02*
X0107357Y0061834D01*
X0107033Y0061700D02*
X0107915Y0062065D01*
X0108590Y0062741D01*
X0108955Y0063623D01*
X0108955Y0064577D01*
X0108590Y0065459D01*
X0107915Y0066135D01*
X0107033Y0066500D01*
X0106078Y0066500D01*
X0105196Y0066135D01*
X0104520Y0065459D01*
X0104155Y0064577D01*
X0104155Y0063623D01*
X0104520Y0062741D01*
X0105196Y0062065D01*
X0106078Y0061700D01*
X0107033Y0061700D01*
X0105753Y0061834D02*
X0084715Y0061834D01*
X0084627Y0063033D02*
X0079055Y0063033D01*
X0079055Y0061834D02*
X0080896Y0061834D01*
X0080405Y0060636D02*
X0079055Y0060636D01*
X0080585Y0059437D02*
X0075305Y0059437D01*
X0075305Y0058239D02*
X0081630Y0058239D01*
X0081101Y0057040D02*
X0075305Y0057040D01*
X0075305Y0055842D02*
X0080411Y0055842D01*
X0080500Y0054643D02*
X0075305Y0054643D01*
X0075305Y0053445D02*
X0081256Y0053445D01*
X0085983Y0063033D02*
X0094627Y0063033D01*
X0094828Y0062950D02*
X0095783Y0062950D01*
X0096665Y0063315D01*
X0097340Y0063991D01*
X0097705Y0064873D01*
X0097705Y0065827D01*
X0097340Y0066709D01*
X0096824Y0067225D01*
X0097340Y0067741D01*
X0097705Y0068623D01*
X0097705Y0069577D01*
X0097340Y0070459D01*
X0096824Y0070975D01*
X0097340Y0071491D01*
X0097705Y0072373D01*
X0097705Y0073327D01*
X0097340Y0074209D01*
X0096665Y0074885D01*
X0095783Y0075250D01*
X0094828Y0075250D01*
X0093946Y0074885D01*
X0093270Y0074209D01*
X0092905Y0073327D01*
X0092905Y0072373D01*
X0093270Y0071491D01*
X0093786Y0070975D01*
X0093270Y0070459D01*
X0092905Y0069577D01*
X0092905Y0068623D01*
X0093270Y0067741D01*
X0093786Y0067225D01*
X0093270Y0066709D01*
X0092905Y0065827D01*
X0092905Y0064873D01*
X0093270Y0063991D01*
X0093946Y0063315D01*
X0094828Y0062950D01*
X0095983Y0063033D02*
X0104399Y0063033D01*
X0104155Y0064232D02*
X0097440Y0064232D01*
X0097705Y0065430D02*
X0104508Y0065430D01*
X0108602Y0065430D02*
X0133258Y0065430D01*
X0133270Y0065459D02*
X0132905Y0064577D01*
X0132905Y0063623D01*
X0133270Y0062741D01*
X0133786Y0062225D01*
X0133270Y0061709D01*
X0132905Y0060827D01*
X0132905Y0059873D01*
X0133270Y0058991D01*
X0133786Y0058475D01*
X0133270Y0057959D01*
X0132905Y0057077D01*
X0132905Y0056123D01*
X0133270Y0055241D01*
X0133946Y0054565D01*
X0134828Y0054200D01*
X0135783Y0054200D01*
X0136665Y0054565D01*
X0137340Y0055241D01*
X0137705Y0056123D01*
X0137705Y0057077D01*
X0137340Y0057959D01*
X0136824Y0058475D01*
X0137340Y0058991D01*
X0137705Y0059873D01*
X0137705Y0060827D01*
X0137340Y0061709D01*
X0136824Y0062225D01*
X0137180Y0062581D01*
X0137696Y0062065D01*
X0138578Y0061700D01*
X0139533Y0061700D01*
X0140415Y0062065D01*
X0141090Y0062741D01*
X0141455Y0063623D01*
X0141455Y0064577D01*
X0141090Y0065459D01*
X0140415Y0066135D01*
X0139533Y0066500D01*
X0138578Y0066500D01*
X0137696Y0066135D01*
X0137180Y0065619D01*
X0136665Y0066135D01*
X0135783Y0066500D01*
X0134828Y0066500D01*
X0133946Y0066135D01*
X0133270Y0065459D01*
X0132905Y0064232D02*
X0117943Y0064232D01*
X0118330Y0063033D02*
X0120844Y0063033D01*
X0120770Y0062959D02*
X0120405Y0062077D01*
X0120405Y0061123D01*
X0120770Y0060241D01*
X0121446Y0059565D01*
X0122328Y0059200D01*
X0123283Y0059200D01*
X0124165Y0059565D01*
X0124840Y0060241D01*
X0125205Y0061123D01*
X0125205Y0062077D01*
X0124840Y0062959D01*
X0124165Y0063635D01*
X0123283Y0064000D01*
X0122328Y0064000D01*
X0121446Y0063635D01*
X0120770Y0062959D01*
X0120405Y0061834D02*
X0118984Y0061834D01*
X0120026Y0060636D02*
X0120607Y0060636D01*
X0120205Y0059437D02*
X0121754Y0059437D01*
X0123856Y0059437D02*
X0133085Y0059437D01*
X0133550Y0058239D02*
X0119713Y0058239D01*
X0119962Y0057040D02*
X0132905Y0057040D01*
X0133021Y0055842D02*
X0120205Y0055842D01*
X0119851Y0054643D02*
X0133868Y0054643D01*
X0136743Y0054643D02*
X0181012Y0054643D01*
X0182210Y0053445D02*
X0120523Y0053445D01*
X0120830Y0052246D02*
X0183409Y0052246D01*
X0184607Y0051048D02*
X0120540Y0051048D01*
X0118966Y0049849D02*
X0185806Y0049849D01*
X0187004Y0048651D02*
X0117000Y0048651D01*
X0117695Y0049849D02*
X0117894Y0049849D01*
X0128877Y0046254D02*
X0132359Y0046254D01*
X0131228Y0045055D02*
X0130007Y0045055D01*
X0130205Y0043857D02*
X0131030Y0043857D01*
X0131478Y0042658D02*
X0129758Y0042658D01*
X0140882Y0033070D02*
X0118479Y0033070D01*
X0118955Y0031872D02*
X0140408Y0031872D01*
X0140598Y0030673D02*
X0118769Y0030673D01*
X0117696Y0029475D02*
X0131049Y0029475D01*
X0134561Y0029475D02*
X0141698Y0029475D01*
X0143900Y0029475D02*
X0189330Y0029475D01*
X0189165Y0030673D02*
X0145000Y0030673D01*
X0177229Y0042658D02*
X0192997Y0042658D01*
X0194055Y0041460D02*
X0178683Y0041460D01*
X0178443Y0043857D02*
X0191798Y0043857D01*
X0190600Y0045055D02*
X0178946Y0045055D01*
X0178768Y0046254D02*
X0189401Y0046254D01*
X0188203Y0047452D02*
X0177726Y0047452D01*
X0179813Y0055842D02*
X0137589Y0055842D01*
X0137705Y0057040D02*
X0178615Y0057040D01*
X0177416Y0058239D02*
X0137060Y0058239D01*
X0137525Y0059437D02*
X0176218Y0059437D01*
X0175019Y0060636D02*
X0137705Y0060636D01*
X0137215Y0061834D02*
X0138253Y0061834D01*
X0139857Y0061834D02*
X0160854Y0061834D01*
X0160776Y0061913D02*
X0161451Y0061237D01*
X0162333Y0060872D01*
X0163288Y0060872D01*
X0164170Y0061237D01*
X0164845Y0061913D01*
X0165210Y0062795D01*
X0165210Y0063749D01*
X0164845Y0064632D01*
X0164170Y0065307D01*
X0163288Y0065672D01*
X0162333Y0065672D01*
X0161451Y0065307D01*
X0160776Y0064632D01*
X0160410Y0063749D01*
X0160410Y0062795D01*
X0160776Y0061913D01*
X0160410Y0063033D02*
X0141211Y0063033D01*
X0141455Y0064232D02*
X0153526Y0064232D01*
X0154584Y0064232D02*
X0160610Y0064232D01*
X0161749Y0065430D02*
X0156158Y0065430D01*
X0156446Y0066629D02*
X0169027Y0066629D01*
X0170225Y0065430D02*
X0163872Y0065430D01*
X0165010Y0064232D02*
X0171424Y0064232D01*
X0172622Y0063033D02*
X0165210Y0063033D01*
X0164767Y0061834D02*
X0173821Y0061834D01*
X0167828Y0067827D02*
X0156134Y0067827D01*
X0151976Y0067827D02*
X0097376Y0067827D01*
X0097705Y0069026D02*
X0141630Y0069026D01*
X0140431Y0070224D02*
X0116073Y0070224D01*
X0116090Y0070241D02*
X0116455Y0071123D01*
X0116455Y0072077D01*
X0116090Y0072959D01*
X0115415Y0073635D01*
X0114533Y0074000D01*
X0113578Y0074000D01*
X0112696Y0073635D01*
X0112020Y0072959D01*
X0111655Y0072077D01*
X0111655Y0071123D01*
X0112020Y0070241D01*
X0112696Y0069565D01*
X0113578Y0069200D01*
X0114533Y0069200D01*
X0115415Y0069565D01*
X0116090Y0070241D01*
X0116455Y0071423D02*
X0139233Y0071423D01*
X0138034Y0072621D02*
X0137220Y0072621D01*
X0140586Y0073820D02*
X0180305Y0073820D01*
X0180305Y0072621D02*
X0141784Y0072621D01*
X0142983Y0071423D02*
X0180305Y0071423D01*
X0180305Y0075018D02*
X0139387Y0075018D01*
X0138188Y0076217D02*
X0180305Y0076217D01*
X0180305Y0077415D02*
X0136990Y0077415D01*
X0135791Y0078614D02*
X0180305Y0078614D01*
X0151665Y0066629D02*
X0097373Y0066629D01*
X0093237Y0066629D02*
X0087373Y0066629D01*
X0087705Y0065430D02*
X0092905Y0065430D01*
X0093171Y0064232D02*
X0087440Y0064232D01*
X0083171Y0064232D02*
X0079187Y0064232D01*
X0080385Y0065430D02*
X0082905Y0065430D01*
X0083237Y0066629D02*
X0081584Y0066629D01*
X0082782Y0067827D02*
X0083235Y0067827D01*
X0087376Y0067827D02*
X0093235Y0067827D01*
X0092905Y0069026D02*
X0087705Y0069026D01*
X0087437Y0070224D02*
X0093173Y0070224D01*
X0093338Y0071423D02*
X0086378Y0071423D01*
X0087576Y0072621D02*
X0092905Y0072621D01*
X0093109Y0073820D02*
X0088775Y0073820D01*
X0089973Y0075018D02*
X0094268Y0075018D01*
X0096342Y0075018D02*
X0133088Y0075018D01*
X0134144Y0076217D02*
X0091172Y0076217D01*
X0097501Y0073820D02*
X0113142Y0073820D01*
X0111880Y0072621D02*
X0097705Y0072621D01*
X0097272Y0071423D02*
X0111655Y0071423D01*
X0112037Y0070224D02*
X0097437Y0070224D01*
X0108955Y0064232D02*
X0113918Y0064232D01*
X0113530Y0063033D02*
X0108711Y0063033D01*
X0124766Y0063033D02*
X0133149Y0063033D01*
X0133396Y0061834D02*
X0125205Y0061834D01*
X0125004Y0060636D02*
X0132905Y0060636D01*
X0141102Y0065430D02*
X0151952Y0065430D01*
X0133390Y0072621D02*
X0116230Y0072621D01*
X0114968Y0073820D02*
X0132905Y0073820D01*
X0076471Y0085805D02*
X0062905Y0085805D01*
X0062905Y0087003D02*
X0075558Y0087003D01*
X0075405Y0088202D02*
X0062905Y0088202D01*
X0062905Y0089400D02*
X0075961Y0089400D01*
X0075622Y0090599D02*
X0062905Y0090599D01*
X0062905Y0091797D02*
X0063343Y0091797D01*
X0064767Y0091797D02*
X0067093Y0091797D01*
X0068517Y0091797D02*
X0070843Y0091797D01*
X0072267Y0091797D02*
X0074593Y0091797D01*
X0193946Y0030673D02*
X0194055Y0030673D01*
X0194055Y0029475D02*
X0193780Y0029475D01*
X0194055Y0028276D02*
X0193316Y0028276D01*
X0193946Y0027078D02*
X0194055Y0027078D01*
X0194055Y0025879D02*
X0193821Y0025879D01*
X0193643Y0024681D02*
X0194055Y0024681D01*
X0194055Y0023482D02*
X0193946Y0023482D01*
X0194055Y0022284D02*
X0193649Y0022284D01*
X0194055Y0021085D02*
X0192032Y0021085D01*
X0191078Y0021085D02*
X0079434Y0021085D01*
X0080077Y0019887D02*
X0194055Y0019887D01*
X0194055Y0018688D02*
X0188919Y0018688D01*
X0189159Y0018588D02*
X0188281Y0018952D01*
X0187330Y0018952D01*
X0186451Y0018588D01*
X0185779Y0017916D01*
X0185415Y0017037D01*
X0185415Y0016086D01*
X0185779Y0015208D01*
X0186451Y0014535D01*
X0187330Y0014171D01*
X0188281Y0014171D01*
X0189159Y0014535D01*
X0189832Y0015208D01*
X0190196Y0016086D01*
X0190196Y0017037D01*
X0189832Y0017916D01*
X0189159Y0018588D01*
X0190008Y0017490D02*
X0194055Y0017490D01*
X0194055Y0016291D02*
X0190196Y0016291D01*
X0189717Y0015093D02*
X0194055Y0015093D01*
X0194055Y0013894D02*
X0174605Y0013894D01*
X0175205Y0012696D02*
X0194055Y0012696D01*
X0185894Y0015093D02*
X0167492Y0015093D01*
X0167340Y0015459D02*
X0167705Y0014577D01*
X0167705Y0013623D01*
X0167340Y0012741D01*
X0166665Y0012065D01*
X0165783Y0011700D01*
X0164828Y0011700D01*
X0163946Y0012065D01*
X0163270Y0012741D01*
X0163181Y0012957D01*
X0162915Y0012690D01*
X0162033Y0012325D01*
X0161078Y0012325D01*
X0160196Y0012690D01*
X0159520Y0013366D01*
X0159155Y0014248D01*
X0159155Y0015202D01*
X0159520Y0016084D01*
X0160196Y0016760D01*
X0161078Y0017125D01*
X0162033Y0017125D01*
X0162915Y0016760D01*
X0163590Y0016084D01*
X0163679Y0015868D01*
X0163946Y0016135D01*
X0164828Y0016500D01*
X0165783Y0016500D01*
X0166665Y0016135D01*
X0167340Y0015459D01*
X0166287Y0016291D02*
X0185415Y0016291D01*
X0185602Y0017490D02*
X0079589Y0017490D01*
X0080205Y0018688D02*
X0186692Y0018688D01*
X0189267Y0024681D02*
X0189467Y0024681D01*
X0189510Y0028276D02*
X0189794Y0028276D01*
X0164323Y0016291D02*
X0163383Y0016291D01*
X0159727Y0016291D02*
X0080013Y0016291D01*
X0080205Y0015093D02*
X0159155Y0015093D01*
X0159302Y0013894D02*
X0079743Y0013894D01*
X0079055Y0012696D02*
X0160190Y0012696D01*
X0162920Y0012696D02*
X0163315Y0012696D01*
X0167295Y0012696D02*
X0170405Y0012696D01*
X0171005Y0013894D02*
X0167705Y0013894D01*
X0091292Y0023482D02*
X0090568Y0023482D01*
X0090708Y0027078D02*
X0091152Y0027078D01*
M02*
