%
M48
M72
T01C0.01181
T02C0.01200
%
T01
X85305Y30350
X89055Y25350
X92805Y25350
X91555Y37850
X95305Y37850
X85305Y37850
X85305Y45350
X132805Y27850
X142799Y31606
X160305Y26600
X170305Y29100
X177805Y29100
X174055Y25350
X170305Y21600
X177805Y21600
X187805Y26600
X191555Y26656
X191555Y23475
X187805Y16562
X214123Y29100
X214055Y32850
X230305Y31600
X234055Y31600
X237805Y31600
X241555Y31600
X245305Y30350
X249055Y30350
X252805Y30350
X252805Y34100
X249055Y34100
X245305Y34100
X241555Y36600
X237805Y36600
X234055Y36600
X230305Y36600
X245305Y37850
X249055Y37850
X252805Y37850
X214123Y41600
X187805Y37850
X187805Y34100
X191555Y30350
X172805Y39100
X176555Y40350
X174055Y42850
X176555Y45350
X214123Y56600
X221555Y61600
X215305Y65350
X230305Y64100
X234055Y64100
X237805Y64100
X241555Y64100
X245305Y65350
X249055Y65350
X252805Y65350
X252805Y61600
X249055Y61600
X245305Y61600
X241555Y59100
X237805Y59100
X234055Y59100
X230305Y59100
X245305Y57850
X249055Y57850
X252805Y57850
X193430Y81600
X190305Y81600
X190305Y85350
X193430Y85350
X194055Y89100
X197805Y89100
X201555Y89100
X201555Y92850
X197805Y92850
X194055Y92850
X190305Y92850
X190305Y89100
X214123Y84100
X222805Y85418
X230305Y86600
X234055Y86600
X237805Y86600
X241555Y86600
X245305Y85350
X249055Y85350
X252805Y85350
X252805Y89100
X249055Y89100
X245305Y89100
X241555Y91600
X237805Y91600
X234055Y91600
X230305Y91600
X245305Y92850
X249055Y92850
X252805Y92850
X154055Y66600
X221555Y14100
T02
X64055Y12850
X67805Y12850
X71555Y12850
X75305Y12850
X77805Y15350
X77805Y19100
X77805Y22850
X75305Y25350
X71555Y25350
X67805Y25350
X64055Y25350
X82805Y27850
X69055Y34100
X81555Y35350
X81555Y40350
X81555Y45350
X74055Y45350
X64055Y45350
X82805Y51600
X82805Y55350
X82805Y60350
X74055Y61600
X64055Y61600
X79055Y70350
X85305Y69100
X95305Y69100
X95305Y72850
X86555Y77850
X71555Y81600
X67805Y81600
X64055Y81600
X77805Y87850
X77805Y91600
X75305Y94100
X71555Y94100
X67805Y94100
X64055Y94100
X69055Y74100
X85305Y65350
X95305Y65350
X95305Y61600
X99055Y61600
X106555Y64100
X115930Y62850
X117805Y59725
X122805Y61600
X117805Y55975
X118430Y52225
X115305Y50350
X105305Y50350
X99055Y50350
X95305Y49100
X105305Y35350
X116555Y31600
X106555Y25350
X114055Y19100
X114055Y15350
X111555Y12850
X107805Y12850
X137805Y16600
X152805Y16600
X161555Y14725
X165305Y14100
X172805Y12300
X200305Y20350
X206555Y16600
X210305Y16600
X210305Y20350
X204055Y24100
X200305Y24100
X199055Y41600
X202805Y41600
X206555Y41600
X206555Y45350
X210305Y45350
X210305Y49100
X206555Y49100
X202805Y45350
X210305Y52850
X197805Y57850
X197805Y61600
X201555Y61600
X201555Y65350
X205305Y65350
X197805Y65350
X197805Y70350
X207805Y70350
X207805Y75350
X202805Y75350
X197805Y75350
X172805Y85350
X169055Y85350
X165305Y85350
X165305Y89100
X169055Y89100
X172805Y89100
X172805Y92850
X169055Y92850
X165305Y92850
X161555Y92850
X161555Y89100
X135305Y74100
X125305Y75350
X114055Y71600
X135305Y64100
X139055Y64100
X135305Y60350
X135305Y56600
X126555Y52850
X149055Y55350
X155305Y62850
X162810Y63272
X133430Y44100
X130305Y41600
X127805Y44100
X146555Y36600
M30
