G75*
%MOIN*%
%OFA0B0*%
%FSLAX25Y25*%
%IPPOS*%
%LPD*%
%AMOC8*
5,1,8,0,0,1.08239X$1,22.5*
%
%ADD10C,0.05906*%
%ADD11R,0.05906X0.05906*%
%ADD12OC8,0.02400*%
%ADD13C,0.01200*%
%ADD14OC8,0.02381*%
%ADD15C,0.01000*%
D10*
X0122805Y0037850D03*
X0130305Y0047850D03*
X0122805Y0057850D03*
X0122805Y0067850D03*
X0130305Y0067850D03*
D11*
X0130305Y0057850D03*
X0122805Y0047850D03*
D12*
X0115305Y0050350D03*
X0118430Y0052225D03*
X0117805Y0055975D03*
X0117805Y0059725D03*
X0122805Y0061600D03*
X0115930Y0062850D03*
X0106555Y0064100D03*
X0099055Y0061600D03*
X0095305Y0061600D03*
X0095305Y0065350D03*
X0085305Y0065350D03*
X0085305Y0069100D03*
X0079055Y0070350D03*
X0069055Y0074100D03*
X0067805Y0081600D03*
X0071555Y0081600D03*
X0064055Y0081600D03*
X0077805Y0087850D03*
X0077805Y0091600D03*
X0075305Y0094100D03*
X0071555Y0094100D03*
X0067805Y0094100D03*
X0064055Y0094100D03*
X0086555Y0077850D03*
X0095305Y0072850D03*
X0095305Y0069100D03*
X0114055Y0071600D03*
X0125305Y0075350D03*
X0135305Y0074100D03*
X0135305Y0064100D03*
X0139055Y0064100D03*
X0135305Y0060350D03*
X0135305Y0056600D03*
X0126555Y0052850D03*
X0149055Y0055350D03*
X0155305Y0062850D03*
X0162810Y0063272D03*
X0197805Y0061600D03*
X0201555Y0061600D03*
X0197805Y0057850D03*
X0210305Y0052850D03*
X0210305Y0049100D03*
X0206555Y0049100D03*
X0206555Y0045350D03*
X0210305Y0045350D03*
X0202805Y0045350D03*
X0202805Y0041600D03*
X0199055Y0041600D03*
X0206555Y0041600D03*
X0204055Y0024100D03*
X0200305Y0024100D03*
X0200305Y0020350D03*
X0206555Y0016600D03*
X0210305Y0016600D03*
X0210305Y0020350D03*
X0172805Y0012300D03*
X0165305Y0014100D03*
X0161555Y0014725D03*
X0152805Y0016600D03*
X0137805Y0016600D03*
X0114055Y0015350D03*
X0111555Y0012850D03*
X0107805Y0012850D03*
X0114055Y0019100D03*
X0106555Y0025350D03*
X0116555Y0031600D03*
X0105305Y0035350D03*
X0082805Y0027850D03*
X0075305Y0025350D03*
X0077805Y0022850D03*
X0071555Y0025350D03*
X0067805Y0025350D03*
X0064055Y0025350D03*
X0077805Y0019100D03*
X0077805Y0015350D03*
X0075305Y0012850D03*
X0071555Y0012850D03*
X0067805Y0012850D03*
X0064055Y0012850D03*
X0069055Y0034100D03*
X0081555Y0035350D03*
X0081555Y0040350D03*
X0081555Y0045350D03*
X0074055Y0045350D03*
X0064055Y0045350D03*
X0082805Y0051600D03*
X0082805Y0055350D03*
X0082805Y0060350D03*
X0074055Y0061600D03*
X0064055Y0061600D03*
X0095305Y0049100D03*
X0099055Y0050350D03*
X0105305Y0050350D03*
X0127805Y0044100D03*
X0130305Y0041600D03*
X0133430Y0044100D03*
X0146555Y0036600D03*
X0197805Y0065350D03*
X0201555Y0065350D03*
X0205305Y0065350D03*
X0207805Y0070350D03*
X0197805Y0070350D03*
X0197805Y0075350D03*
X0202805Y0075350D03*
X0207805Y0075350D03*
X0172805Y0085350D03*
X0169055Y0085350D03*
X0165305Y0085350D03*
X0165305Y0089100D03*
X0169055Y0089100D03*
X0172805Y0089100D03*
X0172805Y0092850D03*
X0169055Y0092850D03*
X0165305Y0092850D03*
X0161555Y0092850D03*
X0161555Y0089100D03*
D13*
X0062905Y0043106D02*
X0062905Y0011700D01*
X0079055Y0011700D01*
X0079055Y0067850D01*
X0079155Y0067950D01*
X0078061Y0067950D01*
X0076655Y0069356D01*
X0076655Y0071344D01*
X0078061Y0072750D01*
X0080049Y0072750D01*
X0081455Y0071344D01*
X0081455Y0070250D01*
X0086655Y0075450D01*
X0085561Y0075450D01*
X0084155Y0076856D01*
X0084155Y0078844D01*
X0085561Y0080250D01*
X0087549Y0080250D01*
X0088955Y0078844D01*
X0088955Y0077750D01*
X0090305Y0079100D01*
X0135305Y0079100D01*
X0144055Y0070350D01*
X0159055Y0070350D01*
X0163733Y0065672D01*
X0163804Y0065672D01*
X0165210Y0064266D01*
X0165210Y0064195D01*
X0182255Y0047150D01*
X0190810Y0047150D01*
X0211555Y0067896D01*
X0211555Y0078550D01*
X0182060Y0078550D01*
X0181005Y0079604D01*
X0181005Y0095083D01*
X0173967Y0095083D01*
X0175205Y0093844D01*
X0175205Y0091856D01*
X0174324Y0090975D01*
X0175205Y0090094D01*
X0175205Y0088106D01*
X0174324Y0087225D01*
X0175205Y0086344D01*
X0175205Y0084356D01*
X0173799Y0082950D01*
X0171811Y0082950D01*
X0170930Y0083831D01*
X0170049Y0082950D01*
X0168061Y0082950D01*
X0167180Y0083831D01*
X0166299Y0082950D01*
X0164311Y0082950D01*
X0162905Y0084356D01*
X0162905Y0086344D01*
X0163786Y0087225D01*
X0163430Y0087581D01*
X0162549Y0086700D01*
X0160561Y0086700D01*
X0159155Y0088106D01*
X0159155Y0090094D01*
X0160036Y0090975D01*
X0159155Y0091856D01*
X0159155Y0093844D01*
X0160394Y0095083D01*
X0062905Y0095083D01*
X0062905Y0063844D01*
X0063061Y0064000D01*
X0065049Y0064000D01*
X0066455Y0062594D01*
X0066455Y0060606D01*
X0065049Y0059200D01*
X0063061Y0059200D01*
X0062905Y0059356D01*
X0062905Y0047594D01*
X0063061Y0047750D01*
X0065049Y0047750D01*
X0066455Y0046344D01*
X0066455Y0044356D01*
X0065049Y0042950D01*
X0063061Y0042950D01*
X0062905Y0043106D01*
X0062905Y0042658D02*
X0079055Y0042658D01*
X0079055Y0041460D02*
X0062905Y0041460D01*
X0062905Y0040261D02*
X0079055Y0040261D01*
X0079055Y0039063D02*
X0062905Y0039063D01*
X0062905Y0037864D02*
X0079055Y0037864D01*
X0079055Y0036666D02*
X0062905Y0036666D01*
X0062905Y0035467D02*
X0067028Y0035467D01*
X0066655Y0035094D02*
X0066655Y0033106D01*
X0068061Y0031700D01*
X0070049Y0031700D01*
X0071455Y0033106D01*
X0071455Y0035094D01*
X0070049Y0036500D01*
X0068061Y0036500D01*
X0066655Y0035094D01*
X0066655Y0034269D02*
X0062905Y0034269D01*
X0062905Y0033070D02*
X0066691Y0033070D01*
X0067889Y0031872D02*
X0062905Y0031872D01*
X0062905Y0030673D02*
X0079055Y0030673D01*
X0079055Y0029475D02*
X0062905Y0029475D01*
X0062905Y0028276D02*
X0079055Y0028276D01*
X0079055Y0027078D02*
X0062905Y0027078D01*
X0062905Y0025879D02*
X0079055Y0025879D01*
X0079055Y0024681D02*
X0062905Y0024681D01*
X0062905Y0023482D02*
X0079055Y0023482D01*
X0079055Y0022284D02*
X0062905Y0022284D01*
X0062905Y0021085D02*
X0079055Y0021085D01*
X0079055Y0019887D02*
X0062905Y0019887D01*
X0062905Y0018688D02*
X0079055Y0018688D01*
X0079055Y0017490D02*
X0062905Y0017490D01*
X0062905Y0016291D02*
X0079055Y0016291D01*
X0079055Y0015093D02*
X0062905Y0015093D01*
X0062905Y0013894D02*
X0079055Y0013894D01*
X0079055Y0012696D02*
X0062905Y0012696D01*
X0070221Y0031872D02*
X0079055Y0031872D01*
X0079055Y0033070D02*
X0071419Y0033070D01*
X0071455Y0034269D02*
X0079055Y0034269D01*
X0079055Y0035467D02*
X0071082Y0035467D01*
X0081555Y0035350D02*
X0100305Y0035350D01*
X0115305Y0050350D01*
X0117805Y0052850D02*
X0118430Y0052225D01*
X0117805Y0052850D02*
X0112805Y0052850D01*
X0102805Y0042850D01*
X0084055Y0042850D01*
X0081555Y0040350D01*
X0076455Y0044356D02*
X0075049Y0042950D01*
X0073061Y0042950D01*
X0071655Y0044356D01*
X0071655Y0046344D01*
X0073061Y0047750D01*
X0075049Y0047750D01*
X0076455Y0046344D01*
X0076455Y0044356D01*
X0076455Y0045055D02*
X0079055Y0045055D01*
X0079055Y0043857D02*
X0075956Y0043857D01*
X0072154Y0043857D02*
X0065956Y0043857D01*
X0066455Y0045055D02*
X0071655Y0045055D01*
X0071655Y0046254D02*
X0066455Y0046254D01*
X0065347Y0047452D02*
X0072763Y0047452D01*
X0075347Y0047452D02*
X0079055Y0047452D01*
X0079055Y0046254D02*
X0076455Y0046254D01*
X0079055Y0048651D02*
X0062905Y0048651D01*
X0062905Y0049849D02*
X0079055Y0049849D01*
X0079055Y0051048D02*
X0062905Y0051048D01*
X0062905Y0052246D02*
X0079055Y0052246D01*
X0079055Y0053445D02*
X0062905Y0053445D01*
X0062905Y0054643D02*
X0079055Y0054643D01*
X0079055Y0055842D02*
X0062905Y0055842D01*
X0062905Y0057040D02*
X0079055Y0057040D01*
X0079055Y0058239D02*
X0062905Y0058239D01*
X0065287Y0059437D02*
X0072824Y0059437D01*
X0073061Y0059200D02*
X0075049Y0059200D01*
X0076455Y0060606D01*
X0076455Y0062594D01*
X0075049Y0064000D01*
X0073061Y0064000D01*
X0071655Y0062594D01*
X0071655Y0060606D01*
X0073061Y0059200D01*
X0075287Y0059437D02*
X0079055Y0059437D01*
X0079055Y0060636D02*
X0076455Y0060636D01*
X0076455Y0061834D02*
X0079055Y0061834D01*
X0079055Y0063033D02*
X0076016Y0063033D01*
X0079055Y0064232D02*
X0062905Y0064232D01*
X0062905Y0065430D02*
X0079055Y0065430D01*
X0079055Y0066629D02*
X0062905Y0066629D01*
X0062905Y0067827D02*
X0079055Y0067827D01*
X0076985Y0069026D02*
X0062905Y0069026D01*
X0062905Y0070224D02*
X0076655Y0070224D01*
X0076734Y0071423D02*
X0062905Y0071423D01*
X0062905Y0072621D02*
X0067140Y0072621D01*
X0066655Y0073106D02*
X0068061Y0071700D01*
X0070049Y0071700D01*
X0071455Y0073106D01*
X0071455Y0075094D01*
X0070049Y0076500D01*
X0068061Y0076500D01*
X0066655Y0075094D01*
X0066655Y0073106D01*
X0066655Y0073820D02*
X0062905Y0073820D01*
X0062905Y0075018D02*
X0066655Y0075018D01*
X0067778Y0076217D02*
X0062905Y0076217D01*
X0062905Y0077415D02*
X0084155Y0077415D01*
X0084155Y0078614D02*
X0062905Y0078614D01*
X0062905Y0079812D02*
X0085123Y0079812D01*
X0087987Y0079812D02*
X0181005Y0079812D01*
X0181005Y0081011D02*
X0062905Y0081011D01*
X0062905Y0082209D02*
X0181005Y0082209D01*
X0181005Y0083408D02*
X0174257Y0083408D01*
X0175205Y0084606D02*
X0181005Y0084606D01*
X0181005Y0085805D02*
X0175205Y0085805D01*
X0174546Y0087003D02*
X0181005Y0087003D01*
X0181005Y0088202D02*
X0175205Y0088202D01*
X0175205Y0089400D02*
X0181005Y0089400D01*
X0181005Y0090599D02*
X0174700Y0090599D01*
X0175147Y0091797D02*
X0181005Y0091797D01*
X0181005Y0092996D02*
X0175205Y0092996D01*
X0174855Y0094194D02*
X0181005Y0094194D01*
X0182805Y0094194D02*
X0254556Y0094194D01*
X0254556Y0095083D02*
X0254556Y0011700D01*
X0229055Y0011700D01*
X0229055Y0080350D01*
X0223355Y0080350D01*
X0223355Y0083028D01*
X0223795Y0083028D01*
X0225196Y0084428D01*
X0225196Y0086408D01*
X0223795Y0087809D01*
X0221815Y0087809D01*
X0220415Y0086408D01*
X0220415Y0085573D01*
X0219755Y0084914D01*
X0219755Y0080350D01*
X0215855Y0080350D01*
X0215855Y0082451D01*
X0216514Y0083110D01*
X0216514Y0085090D01*
X0215113Y0086491D01*
X0213133Y0086491D01*
X0211733Y0085090D01*
X0211733Y0083110D01*
X0212255Y0082587D01*
X0212255Y0080350D01*
X0182805Y0080350D01*
X0182805Y0095083D01*
X0254556Y0095083D01*
X0254556Y0092996D02*
X0182805Y0092996D01*
X0182805Y0091797D02*
X0254556Y0091797D01*
X0254556Y0090599D02*
X0182805Y0090599D01*
X0182805Y0089400D02*
X0254556Y0089400D01*
X0254556Y0088202D02*
X0182805Y0088202D01*
X0182805Y0087003D02*
X0221010Y0087003D01*
X0220415Y0085805D02*
X0215799Y0085805D01*
X0216514Y0084606D02*
X0219755Y0084606D01*
X0219755Y0083408D02*
X0216514Y0083408D01*
X0215855Y0082209D02*
X0219755Y0082209D01*
X0221555Y0084168D02*
X0222805Y0085418D01*
X0224601Y0087003D02*
X0254556Y0087003D01*
X0254556Y0085805D02*
X0225196Y0085805D01*
X0225196Y0084606D02*
X0254556Y0084606D01*
X0254556Y0083408D02*
X0224175Y0083408D01*
X0223355Y0082209D02*
X0254556Y0082209D01*
X0254556Y0081011D02*
X0223355Y0081011D01*
X0219755Y0081011D02*
X0215855Y0081011D01*
X0212255Y0081011D02*
X0182805Y0081011D01*
X0182805Y0082209D02*
X0212255Y0082209D01*
X0211733Y0083408D02*
X0182805Y0083408D01*
X0182805Y0084606D02*
X0211733Y0084606D01*
X0212447Y0085805D02*
X0182805Y0085805D01*
X0171353Y0083408D02*
X0170507Y0083408D01*
X0167603Y0083408D02*
X0166757Y0083408D01*
X0163853Y0083408D02*
X0062905Y0083408D01*
X0062905Y0084606D02*
X0162905Y0084606D01*
X0162905Y0085805D02*
X0062905Y0085805D01*
X0062905Y0087003D02*
X0160258Y0087003D01*
X0159155Y0088202D02*
X0062905Y0088202D01*
X0062905Y0089400D02*
X0159155Y0089400D01*
X0159660Y0090599D02*
X0062905Y0090599D01*
X0062905Y0091797D02*
X0159214Y0091797D01*
X0159155Y0092996D02*
X0062905Y0092996D01*
X0062905Y0094194D02*
X0159505Y0094194D01*
X0162852Y0087003D02*
X0163564Y0087003D01*
X0181996Y0078614D02*
X0135791Y0078614D01*
X0136990Y0077415D02*
X0211555Y0077415D01*
X0211555Y0076217D02*
X0138188Y0076217D01*
X0139387Y0075018D02*
X0211555Y0075018D01*
X0211555Y0073820D02*
X0140586Y0073820D01*
X0141784Y0072621D02*
X0211555Y0072621D01*
X0211555Y0071423D02*
X0142983Y0071423D01*
X0142805Y0066600D02*
X0135305Y0074100D01*
X0135305Y0067850D02*
X0130305Y0067850D01*
X0135305Y0067850D02*
X0139055Y0064100D01*
X0135305Y0064100D02*
X0140305Y0059100D01*
X0140305Y0036600D01*
X0137805Y0034100D01*
X0130305Y0034100D01*
X0127805Y0031600D01*
X0127805Y0025350D01*
X0131555Y0021600D01*
X0151555Y0021600D01*
X0158430Y0014725D01*
X0161555Y0014725D01*
X0163430Y0012225D02*
X0165305Y0014100D01*
X0163430Y0012225D02*
X0152180Y0012225D01*
X0145305Y0019100D01*
X0130305Y0019100D01*
X0125305Y0024100D01*
X0125305Y0032850D01*
X0129055Y0036600D01*
X0136555Y0036600D01*
X0137805Y0037850D01*
X0137805Y0057850D01*
X0135305Y0060350D01*
X0130305Y0057850D02*
X0126555Y0054100D01*
X0126555Y0052850D01*
X0126555Y0051600D01*
X0122805Y0047850D01*
X0127805Y0044100D02*
X0130305Y0046600D01*
X0130305Y0047850D01*
X0135930Y0040975D02*
X0135930Y0055975D01*
X0135305Y0056600D01*
X0122805Y0057850D02*
X0122805Y0061600D01*
X0117805Y0059725D02*
X0107180Y0059725D01*
X0102805Y0055350D01*
X0086555Y0055350D01*
X0082805Y0051600D01*
X0081555Y0045350D02*
X0089680Y0053475D01*
X0104055Y0053475D01*
X0106555Y0055975D01*
X0117805Y0055975D01*
X0114680Y0061600D02*
X0105930Y0061600D01*
X0105305Y0060975D01*
X0104993Y0060662D01*
X0101555Y0057225D01*
X0084680Y0057225D01*
X0082805Y0055350D01*
X0092805Y0060350D02*
X0094055Y0059100D01*
X0100305Y0059100D01*
X0105305Y0064100D01*
X0106555Y0064100D01*
X0114680Y0061600D02*
X0115930Y0062850D01*
X0122805Y0067850D02*
X0119055Y0071600D01*
X0114055Y0071600D01*
X0089819Y0078614D02*
X0088955Y0078614D01*
X0084794Y0076217D02*
X0070333Y0076217D01*
X0071455Y0075018D02*
X0086223Y0075018D01*
X0085025Y0073820D02*
X0071455Y0073820D01*
X0070970Y0072621D02*
X0077932Y0072621D01*
X0080178Y0072621D02*
X0083826Y0072621D01*
X0082628Y0071423D02*
X0081377Y0071423D01*
X0072094Y0063033D02*
X0066016Y0063033D01*
X0066455Y0061834D02*
X0071655Y0061834D01*
X0071655Y0060636D02*
X0066455Y0060636D01*
X0082805Y0060350D02*
X0092805Y0060350D01*
X0134055Y0039100D02*
X0135930Y0040975D01*
X0134055Y0039100D02*
X0124055Y0039100D01*
X0122805Y0037850D01*
X0130305Y0030350D02*
X0131555Y0031600D01*
X0139055Y0031600D01*
X0142805Y0035350D01*
X0142805Y0066600D01*
X0159181Y0070224D02*
X0211555Y0070224D01*
X0211555Y0069026D02*
X0160380Y0069026D01*
X0161578Y0067827D02*
X0211487Y0067827D01*
X0214055Y0067850D02*
X0214055Y0084032D01*
X0214123Y0084100D01*
X0221555Y0084168D02*
X0221555Y0067850D01*
X0194055Y0040350D01*
X0186555Y0040350D01*
X0184055Y0037850D01*
X0174055Y0037850D01*
X0172805Y0039100D01*
X0172805Y0042850D02*
X0160305Y0030350D01*
X0160305Y0026600D01*
X0159055Y0024100D02*
X0161555Y0024100D01*
X0171555Y0034100D01*
X0187805Y0034100D01*
X0206623Y0034100D01*
X0214123Y0041600D01*
X0210016Y0043857D02*
X0200108Y0043857D01*
X0201306Y0045055D02*
X0211215Y0045055D01*
X0211555Y0045396D02*
X0211555Y0055304D01*
X0195901Y0039650D01*
X0205810Y0039650D01*
X0211555Y0045396D01*
X0211555Y0046254D02*
X0202505Y0046254D01*
X0203703Y0047452D02*
X0211555Y0047452D01*
X0211555Y0048651D02*
X0204902Y0048651D01*
X0206100Y0049849D02*
X0211555Y0049849D01*
X0211555Y0051048D02*
X0207299Y0051048D01*
X0208497Y0052246D02*
X0211555Y0052246D01*
X0211555Y0053445D02*
X0209696Y0053445D01*
X0210894Y0054643D02*
X0211555Y0054643D01*
X0214055Y0056532D02*
X0214123Y0056600D01*
X0214055Y0056532D02*
X0214055Y0046600D01*
X0214055Y0045350D01*
X0206555Y0037850D01*
X0187805Y0037850D01*
X0196512Y0040261D02*
X0206421Y0040261D01*
X0207619Y0041460D02*
X0197710Y0041460D01*
X0198909Y0042658D02*
X0208818Y0042658D01*
X0207805Y0030350D02*
X0221555Y0044100D01*
X0221555Y0061600D01*
X0229055Y0061834D02*
X0254556Y0061834D01*
X0254556Y0060636D02*
X0229055Y0060636D01*
X0229055Y0059437D02*
X0254556Y0059437D01*
X0254556Y0058239D02*
X0229055Y0058239D01*
X0229055Y0057040D02*
X0254556Y0057040D01*
X0254556Y0055842D02*
X0229055Y0055842D01*
X0229055Y0054643D02*
X0254556Y0054643D01*
X0254556Y0053445D02*
X0229055Y0053445D01*
X0229055Y0052246D02*
X0254556Y0052246D01*
X0254556Y0051048D02*
X0229055Y0051048D01*
X0229055Y0049849D02*
X0254556Y0049849D01*
X0254556Y0048651D02*
X0229055Y0048651D01*
X0229055Y0047452D02*
X0254556Y0047452D01*
X0254556Y0046254D02*
X0229055Y0046254D01*
X0229055Y0045055D02*
X0254556Y0045055D01*
X0254556Y0043857D02*
X0229055Y0043857D01*
X0229055Y0042658D02*
X0254556Y0042658D01*
X0254556Y0041460D02*
X0229055Y0041460D01*
X0229055Y0040261D02*
X0254556Y0040261D01*
X0254556Y0039063D02*
X0229055Y0039063D01*
X0229055Y0037864D02*
X0254556Y0037864D01*
X0254556Y0036666D02*
X0229055Y0036666D01*
X0229055Y0035467D02*
X0254556Y0035467D01*
X0254556Y0034269D02*
X0229055Y0034269D01*
X0229055Y0033070D02*
X0254556Y0033070D01*
X0254556Y0031872D02*
X0229055Y0031872D01*
X0229055Y0030673D02*
X0254556Y0030673D01*
X0254556Y0029475D02*
X0229055Y0029475D01*
X0229055Y0028276D02*
X0254556Y0028276D01*
X0254556Y0027078D02*
X0229055Y0027078D01*
X0229055Y0025879D02*
X0254556Y0025879D01*
X0254556Y0024681D02*
X0229055Y0024681D01*
X0229055Y0023482D02*
X0254556Y0023482D01*
X0254556Y0022284D02*
X0229055Y0022284D01*
X0229055Y0021085D02*
X0254556Y0021085D01*
X0254556Y0019887D02*
X0229055Y0019887D01*
X0229055Y0018688D02*
X0254556Y0018688D01*
X0254556Y0017490D02*
X0229055Y0017490D01*
X0229055Y0016291D02*
X0254556Y0016291D01*
X0254556Y0015093D02*
X0229055Y0015093D01*
X0229055Y0013894D02*
X0254556Y0013894D01*
X0254556Y0012696D02*
X0229055Y0012696D01*
X0221555Y0014100D02*
X0186555Y0014100D01*
X0185305Y0015350D01*
X0185305Y0017850D01*
X0170305Y0017850D01*
X0167805Y0020350D01*
X0159680Y0020350D01*
X0152180Y0027850D01*
X0132805Y0027850D01*
X0130305Y0026600D02*
X0130305Y0030350D01*
X0130305Y0026600D02*
X0132805Y0024100D01*
X0152805Y0024100D01*
X0159055Y0017850D01*
X0167255Y0017850D01*
X0172805Y0012300D01*
X0185305Y0017850D02*
X0190930Y0023475D01*
X0191555Y0023475D01*
X0196555Y0023482D02*
X0205960Y0023482D01*
X0204761Y0022284D02*
X0196555Y0022284D01*
X0196555Y0021085D02*
X0203563Y0021085D01*
X0202364Y0019887D02*
X0196555Y0019887D01*
X0196555Y0018688D02*
X0201166Y0018688D01*
X0200839Y0018362D02*
X0196555Y0018362D01*
X0196555Y0024856D01*
X0207334Y0024856D01*
X0200839Y0018362D01*
X0201585Y0016562D02*
X0214123Y0029100D01*
X0207805Y0030350D02*
X0191555Y0030350D01*
X0191555Y0026656D02*
X0207861Y0026656D01*
X0214055Y0032850D01*
X0207158Y0024681D02*
X0196555Y0024681D01*
X0208654Y0021085D02*
X0211555Y0021085D01*
X0211555Y0019887D02*
X0207455Y0019887D01*
X0206257Y0018688D02*
X0211555Y0018688D01*
X0211555Y0017490D02*
X0205058Y0017490D01*
X0201585Y0016562D02*
X0187805Y0016562D01*
X0203469Y0015900D02*
X0211555Y0023986D01*
X0211555Y0015900D01*
X0203469Y0015900D01*
X0203860Y0016291D02*
X0211555Y0016291D01*
X0211555Y0022284D02*
X0209852Y0022284D01*
X0211051Y0023482D02*
X0211555Y0023482D01*
X0192805Y0042850D02*
X0174055Y0042850D01*
X0172805Y0042850D01*
X0176555Y0045350D02*
X0191555Y0045350D01*
X0214055Y0067850D01*
X0210288Y0066629D02*
X0162777Y0066629D01*
X0164046Y0065430D02*
X0209090Y0065430D01*
X0207891Y0064232D02*
X0165210Y0064232D01*
X0166372Y0063033D02*
X0206693Y0063033D01*
X0205494Y0061834D02*
X0167571Y0061834D01*
X0168769Y0060636D02*
X0204296Y0060636D01*
X0203097Y0059437D02*
X0169968Y0059437D01*
X0171166Y0058239D02*
X0201899Y0058239D01*
X0200700Y0057040D02*
X0172365Y0057040D01*
X0173563Y0055842D02*
X0199501Y0055842D01*
X0198303Y0054643D02*
X0174762Y0054643D01*
X0175960Y0053445D02*
X0197104Y0053445D01*
X0195906Y0052246D02*
X0177159Y0052246D01*
X0178357Y0051048D02*
X0194707Y0051048D01*
X0193509Y0049849D02*
X0179556Y0049849D01*
X0180754Y0048651D02*
X0192310Y0048651D01*
X0191112Y0047452D02*
X0181953Y0047452D01*
X0192805Y0042850D02*
X0215305Y0065350D01*
X0229055Y0065430D02*
X0254556Y0065430D01*
X0254556Y0064232D02*
X0229055Y0064232D01*
X0229055Y0063033D02*
X0254556Y0063033D01*
X0254556Y0066629D02*
X0229055Y0066629D01*
X0229055Y0067827D02*
X0254556Y0067827D01*
X0254556Y0069026D02*
X0229055Y0069026D01*
X0229055Y0070224D02*
X0254556Y0070224D01*
X0254556Y0071423D02*
X0229055Y0071423D01*
X0229055Y0072621D02*
X0254556Y0072621D01*
X0254556Y0073820D02*
X0229055Y0073820D01*
X0229055Y0075018D02*
X0254556Y0075018D01*
X0254556Y0076217D02*
X0229055Y0076217D01*
X0229055Y0077415D02*
X0254556Y0077415D01*
X0254556Y0078614D02*
X0229055Y0078614D01*
X0229055Y0079812D02*
X0254556Y0079812D01*
X0159055Y0024100D02*
X0151549Y0031606D01*
X0142799Y0031606D01*
D14*
X0142799Y0031606D03*
X0132805Y0027850D03*
X0160305Y0026600D03*
X0170305Y0029100D03*
X0177805Y0029100D03*
X0174055Y0025350D03*
X0170305Y0021600D03*
X0177805Y0021600D03*
X0187805Y0026600D03*
X0191555Y0026656D03*
X0191555Y0023475D03*
X0187805Y0016562D03*
X0214123Y0029100D03*
X0214055Y0032850D03*
X0230305Y0031600D03*
X0234055Y0031600D03*
X0237805Y0031600D03*
X0241555Y0031600D03*
X0245305Y0030350D03*
X0249055Y0030350D03*
X0252805Y0030350D03*
X0252805Y0034100D03*
X0249055Y0034100D03*
X0245305Y0034100D03*
X0241555Y0036600D03*
X0237805Y0036600D03*
X0234055Y0036600D03*
X0230305Y0036600D03*
X0245305Y0037850D03*
X0249055Y0037850D03*
X0252805Y0037850D03*
X0214123Y0041600D03*
X0187805Y0037850D03*
X0187805Y0034100D03*
X0191555Y0030350D03*
X0172805Y0039100D03*
X0176555Y0040350D03*
X0174055Y0042850D03*
X0176555Y0045350D03*
X0214123Y0056600D03*
X0221555Y0061600D03*
X0215305Y0065350D03*
X0230305Y0064100D03*
X0234055Y0064100D03*
X0237805Y0064100D03*
X0241555Y0064100D03*
X0245305Y0065350D03*
X0249055Y0065350D03*
X0252805Y0065350D03*
X0252805Y0061600D03*
X0249055Y0061600D03*
X0245305Y0061600D03*
X0241555Y0059100D03*
X0237805Y0059100D03*
X0234055Y0059100D03*
X0230305Y0059100D03*
X0245305Y0057850D03*
X0249055Y0057850D03*
X0252805Y0057850D03*
X0193430Y0081600D03*
X0190305Y0081600D03*
X0190305Y0085350D03*
X0193430Y0085350D03*
X0194055Y0089100D03*
X0197805Y0089100D03*
X0201555Y0089100D03*
X0201555Y0092850D03*
X0197805Y0092850D03*
X0194055Y0092850D03*
X0190305Y0092850D03*
X0190305Y0089100D03*
X0214123Y0084100D03*
X0222805Y0085418D03*
X0230305Y0086600D03*
X0234055Y0086600D03*
X0237805Y0086600D03*
X0241555Y0086600D03*
X0245305Y0085350D03*
X0249055Y0085350D03*
X0252805Y0085350D03*
X0252805Y0089100D03*
X0249055Y0089100D03*
X0245305Y0089100D03*
X0241555Y0091600D03*
X0237805Y0091600D03*
X0234055Y0091600D03*
X0230305Y0091600D03*
X0245305Y0092850D03*
X0249055Y0092850D03*
X0252805Y0092850D03*
X0154055Y0066600D03*
X0085305Y0045350D03*
X0085305Y0037850D03*
X0091555Y0037850D03*
X0095305Y0037850D03*
X0085305Y0030350D03*
X0089055Y0025350D03*
X0092805Y0025350D03*
X0221555Y0014100D03*
D15*
X0202805Y0075350D02*
X0204055Y0076600D01*
M02*
