G75*
%MOIN*%
%OFA0B0*%
%FSLAX25Y25*%
%IPPOS*%
%LPD*%
%AMOC8*
5,1,8,0,0,1.08239X$1,22.5*
%
%ADD10R,0.04252X0.04134*%
%ADD11R,0.07874X0.05906*%
%ADD12R,0.05906X0.07874*%
%ADD13R,0.04134X0.04252*%
%ADD14R,0.01181X0.04724*%
%ADD15R,0.04724X0.01181*%
%ADD16C,0.00591*%
%ADD17C,0.02362*%
%ADD18R,0.05906X0.03937*%
%ADD19R,0.07874X0.03937*%
%ADD20C,0.08661*%
%ADD21R,0.03937X0.04331*%
%ADD22R,0.04331X0.03937*%
%ADD23R,0.15748X0.07874*%
%ADD24R,0.03937X0.03937*%
%ADD25R,0.05906X0.11811*%
%ADD26R,0.05906X0.02756*%
%ADD27R,0.05512X0.02756*%
%ADD28R,0.16929X0.19685*%
%ADD29R,0.02756X0.05512*%
%ADD30R,0.19685X0.16929*%
%ADD31C,0.01200*%
%ADD32OC8,0.02400*%
%ADD33OC8,0.02381*%
%ADD34C,0.03200*%
%ADD35C,0.00600*%
%ADD36C,0.15748*%
%ADD37C,0.01000*%
D10*
X0090305Y0013155D03*
X0090305Y0020045D03*
X0127805Y0021295D03*
X0141555Y0021295D03*
X0141555Y0014405D03*
X0127805Y0014405D03*
X0156555Y0014405D03*
X0156555Y0021295D03*
X0150305Y0035655D03*
X0150305Y0042545D03*
X0150305Y0059405D03*
X0150305Y0066295D03*
X0185305Y0066295D03*
X0185305Y0059405D03*
X0191555Y0041295D03*
X0191555Y0034405D03*
X0191555Y0020045D03*
X0191555Y0013155D03*
X0105305Y0039405D03*
X0099055Y0037530D03*
X0099055Y0044420D03*
X0105305Y0046295D03*
D11*
X0091555Y0043756D03*
X0091555Y0031944D03*
D12*
X0090650Y0070350D03*
X0102461Y0070350D03*
D13*
X0114360Y0075350D03*
X0121250Y0075350D03*
X0161860Y0041600D03*
X0168750Y0041600D03*
X0105625Y0030975D03*
X0098735Y0030975D03*
D14*
X0116978Y0036118D03*
X0118947Y0036118D03*
X0120915Y0036118D03*
X0122884Y0036118D03*
X0124852Y0036118D03*
X0126821Y0036118D03*
X0128789Y0036118D03*
X0130758Y0036118D03*
X0132726Y0036118D03*
X0134695Y0036118D03*
X0136663Y0036118D03*
X0138632Y0036118D03*
X0138632Y0069582D03*
X0136663Y0069582D03*
X0134695Y0069582D03*
X0132726Y0069582D03*
X0130758Y0069582D03*
X0128789Y0069582D03*
X0126821Y0069582D03*
X0124852Y0069582D03*
X0122884Y0069582D03*
X0120915Y0069582D03*
X0118947Y0069582D03*
X0116978Y0069582D03*
D15*
X0111073Y0063677D03*
X0111073Y0061708D03*
X0111073Y0059740D03*
X0111073Y0057771D03*
X0111073Y0055803D03*
X0111073Y0053834D03*
X0111073Y0051866D03*
X0111073Y0049897D03*
X0111073Y0047929D03*
X0111073Y0045960D03*
X0111073Y0043992D03*
X0111073Y0042023D03*
X0144537Y0042023D03*
X0144537Y0043992D03*
X0144537Y0045960D03*
X0144537Y0047929D03*
X0144537Y0049897D03*
X0144537Y0051866D03*
X0144537Y0053834D03*
X0144537Y0055803D03*
X0144537Y0057771D03*
X0144537Y0059740D03*
X0144537Y0061708D03*
X0144537Y0063677D03*
D16*
X0167952Y0036866D02*
X0167952Y0033520D01*
X0167362Y0033520D01*
X0167362Y0036866D01*
X0167952Y0036866D01*
X0167952Y0034110D02*
X0167362Y0034110D01*
X0167362Y0034700D02*
X0167952Y0034700D01*
X0167952Y0035290D02*
X0167362Y0035290D01*
X0167362Y0035880D02*
X0167952Y0035880D01*
X0167952Y0036470D02*
X0167362Y0036470D01*
X0170512Y0036866D02*
X0170512Y0033520D01*
X0169922Y0033520D01*
X0169922Y0036866D01*
X0170512Y0036866D01*
X0170512Y0034110D02*
X0169922Y0034110D01*
X0169922Y0034700D02*
X0170512Y0034700D01*
X0170512Y0035290D02*
X0169922Y0035290D01*
X0169922Y0035880D02*
X0170512Y0035880D01*
X0170512Y0036470D02*
X0169922Y0036470D01*
X0173071Y0036866D02*
X0173071Y0033520D01*
X0172481Y0033520D01*
X0172481Y0036866D01*
X0173071Y0036866D01*
X0173071Y0034110D02*
X0172481Y0034110D01*
X0172481Y0034700D02*
X0173071Y0034700D01*
X0173071Y0035290D02*
X0172481Y0035290D01*
X0172481Y0035880D02*
X0173071Y0035880D01*
X0173071Y0036470D02*
X0172481Y0036470D01*
X0175630Y0036866D02*
X0175630Y0033520D01*
X0175040Y0033520D01*
X0175040Y0036866D01*
X0175630Y0036866D01*
X0175630Y0034110D02*
X0175040Y0034110D01*
X0175040Y0034700D02*
X0175630Y0034700D01*
X0175630Y0035290D02*
X0175040Y0035290D01*
X0175040Y0035880D02*
X0175630Y0035880D01*
X0175630Y0036470D02*
X0175040Y0036470D01*
X0178189Y0036866D02*
X0178189Y0033520D01*
X0177599Y0033520D01*
X0177599Y0036866D01*
X0178189Y0036866D01*
X0178189Y0034110D02*
X0177599Y0034110D01*
X0177599Y0034700D02*
X0178189Y0034700D01*
X0178189Y0035290D02*
X0177599Y0035290D01*
X0177599Y0035880D02*
X0178189Y0035880D01*
X0178189Y0036470D02*
X0177599Y0036470D01*
X0180748Y0036866D02*
X0180748Y0033520D01*
X0180158Y0033520D01*
X0180158Y0036866D01*
X0180748Y0036866D01*
X0180748Y0034110D02*
X0180158Y0034110D01*
X0180158Y0034700D02*
X0180748Y0034700D01*
X0180748Y0035290D02*
X0180158Y0035290D01*
X0180158Y0035880D02*
X0180748Y0035880D01*
X0180748Y0036470D02*
X0180158Y0036470D01*
X0182225Y0031453D02*
X0185571Y0031453D01*
X0182225Y0031453D02*
X0182225Y0032043D01*
X0185571Y0032043D01*
X0185571Y0031453D01*
X0185571Y0032043D02*
X0182225Y0032043D01*
X0182225Y0028894D02*
X0185571Y0028894D01*
X0182225Y0028894D02*
X0182225Y0029484D01*
X0185571Y0029484D01*
X0185571Y0028894D01*
X0185571Y0029484D02*
X0182225Y0029484D01*
X0182225Y0026335D02*
X0185571Y0026335D01*
X0182225Y0026335D02*
X0182225Y0026925D01*
X0185571Y0026925D01*
X0185571Y0026335D01*
X0185571Y0026925D02*
X0182225Y0026925D01*
X0182225Y0023775D02*
X0185571Y0023775D01*
X0182225Y0023775D02*
X0182225Y0024365D01*
X0185571Y0024365D01*
X0185571Y0023775D01*
X0185571Y0024365D02*
X0182225Y0024365D01*
X0182225Y0021216D02*
X0185571Y0021216D01*
X0182225Y0021216D02*
X0182225Y0021806D01*
X0185571Y0021806D01*
X0185571Y0021216D01*
X0185571Y0021806D02*
X0182225Y0021806D01*
X0182225Y0018657D02*
X0185571Y0018657D01*
X0182225Y0018657D02*
X0182225Y0019247D01*
X0185571Y0019247D01*
X0185571Y0018657D01*
X0185571Y0019247D02*
X0182225Y0019247D01*
X0180748Y0017180D02*
X0180748Y0013834D01*
X0180158Y0013834D01*
X0180158Y0017180D01*
X0180748Y0017180D01*
X0180748Y0014424D02*
X0180158Y0014424D01*
X0180158Y0015014D02*
X0180748Y0015014D01*
X0180748Y0015604D02*
X0180158Y0015604D01*
X0180158Y0016194D02*
X0180748Y0016194D01*
X0180748Y0016784D02*
X0180158Y0016784D01*
X0178189Y0017180D02*
X0178189Y0013834D01*
X0177599Y0013834D01*
X0177599Y0017180D01*
X0178189Y0017180D01*
X0178189Y0014424D02*
X0177599Y0014424D01*
X0177599Y0015014D02*
X0178189Y0015014D01*
X0178189Y0015604D02*
X0177599Y0015604D01*
X0177599Y0016194D02*
X0178189Y0016194D01*
X0178189Y0016784D02*
X0177599Y0016784D01*
X0175630Y0017180D02*
X0175630Y0013834D01*
X0175040Y0013834D01*
X0175040Y0017180D01*
X0175630Y0017180D01*
X0175630Y0014424D02*
X0175040Y0014424D01*
X0175040Y0015014D02*
X0175630Y0015014D01*
X0175630Y0015604D02*
X0175040Y0015604D01*
X0175040Y0016194D02*
X0175630Y0016194D01*
X0175630Y0016784D02*
X0175040Y0016784D01*
X0173071Y0017180D02*
X0173071Y0013834D01*
X0172481Y0013834D01*
X0172481Y0017180D01*
X0173071Y0017180D01*
X0173071Y0014424D02*
X0172481Y0014424D01*
X0172481Y0015014D02*
X0173071Y0015014D01*
X0173071Y0015604D02*
X0172481Y0015604D01*
X0172481Y0016194D02*
X0173071Y0016194D01*
X0173071Y0016784D02*
X0172481Y0016784D01*
X0170512Y0017180D02*
X0170512Y0013834D01*
X0169922Y0013834D01*
X0169922Y0017180D01*
X0170512Y0017180D01*
X0170512Y0014424D02*
X0169922Y0014424D01*
X0169922Y0015014D02*
X0170512Y0015014D01*
X0170512Y0015604D02*
X0169922Y0015604D01*
X0169922Y0016194D02*
X0170512Y0016194D01*
X0170512Y0016784D02*
X0169922Y0016784D01*
X0167952Y0017180D02*
X0167952Y0013834D01*
X0167362Y0013834D01*
X0167362Y0017180D01*
X0167952Y0017180D01*
X0167952Y0014424D02*
X0167362Y0014424D01*
X0167362Y0015014D02*
X0167952Y0015014D01*
X0167952Y0015604D02*
X0167362Y0015604D01*
X0167362Y0016194D02*
X0167952Y0016194D01*
X0167952Y0016784D02*
X0167362Y0016784D01*
X0165886Y0018657D02*
X0162540Y0018657D01*
X0162540Y0019247D01*
X0165886Y0019247D01*
X0165886Y0018657D01*
X0165886Y0019247D02*
X0162540Y0019247D01*
X0162540Y0021216D02*
X0165886Y0021216D01*
X0162540Y0021216D02*
X0162540Y0021806D01*
X0165886Y0021806D01*
X0165886Y0021216D01*
X0165886Y0021806D02*
X0162540Y0021806D01*
X0162540Y0023775D02*
X0165886Y0023775D01*
X0162540Y0023775D02*
X0162540Y0024365D01*
X0165886Y0024365D01*
X0165886Y0023775D01*
X0165886Y0024365D02*
X0162540Y0024365D01*
X0162540Y0026335D02*
X0165886Y0026335D01*
X0162540Y0026335D02*
X0162540Y0026925D01*
X0165886Y0026925D01*
X0165886Y0026335D01*
X0165886Y0026925D02*
X0162540Y0026925D01*
X0162540Y0028894D02*
X0165886Y0028894D01*
X0162540Y0028894D02*
X0162540Y0029484D01*
X0165886Y0029484D01*
X0165886Y0028894D01*
X0165886Y0029484D02*
X0162540Y0029484D01*
X0162540Y0031453D02*
X0165886Y0031453D01*
X0162540Y0031453D02*
X0162540Y0032043D01*
X0165886Y0032043D01*
X0165886Y0031453D01*
X0165886Y0032043D02*
X0162540Y0032043D01*
D17*
X0169331Y0020626D02*
X0178779Y0020626D01*
X0169331Y0020626D02*
X0169331Y0030074D01*
X0178779Y0030074D01*
X0178779Y0020626D01*
X0178779Y0022987D02*
X0169331Y0022987D01*
X0169331Y0025348D02*
X0178779Y0025348D01*
X0178779Y0027709D02*
X0169331Y0027709D01*
X0169331Y0030070D02*
X0178779Y0030070D01*
D18*
X0096881Y0025002D03*
X0096881Y0013198D03*
X0088756Y0050698D03*
X0088756Y0062502D03*
D19*
X0089756Y0056600D03*
X0097881Y0019100D03*
D20*
X0105428Y0019100D02*
X0105428Y0019100D01*
X0111334Y0019100D01*
X0111334Y0019100D01*
X0105428Y0019100D01*
X0097303Y0056600D02*
X0097303Y0056600D01*
X0103209Y0056600D01*
X0103209Y0056600D01*
X0097303Y0056600D01*
D21*
X0121959Y0027850D03*
X0128652Y0027850D03*
X0136959Y0027850D03*
X0143652Y0027850D03*
X0149459Y0027850D03*
X0156152Y0027850D03*
X0184459Y0050350D03*
X0191152Y0050350D03*
D22*
X0191555Y0059504D03*
X0179055Y0059504D03*
X0171555Y0059504D03*
X0165305Y0059504D03*
X0159055Y0059504D03*
X0159055Y0066196D03*
X0165305Y0066196D03*
X0171555Y0066196D03*
X0179055Y0066196D03*
X0191555Y0066196D03*
X0156555Y0042446D03*
X0156555Y0035754D03*
X0149055Y0021196D03*
X0149055Y0014504D03*
X0134055Y0014504D03*
X0121555Y0014504D03*
X0121555Y0021196D03*
X0134055Y0021196D03*
X0112805Y0027004D03*
X0112805Y0033696D03*
D23*
X0068179Y0039100D03*
X0068179Y0019100D03*
X0068179Y0067850D03*
X0068179Y0087850D03*
D24*
X0079055Y0065350D03*
X0079055Y0060350D03*
X0079055Y0055350D03*
X0079055Y0050350D03*
X0079055Y0045350D03*
X0079055Y0040350D03*
X0079055Y0035350D03*
X0079055Y0030350D03*
D25*
X0177421Y0087506D03*
X0185689Y0087506D03*
D26*
X0185689Y0078254D03*
X0177421Y0078254D03*
D27*
X0218238Y0079100D03*
X0218238Y0084100D03*
X0218238Y0074100D03*
X0218238Y0069100D03*
X0218238Y0056600D03*
X0218238Y0051600D03*
X0218238Y0046600D03*
X0218238Y0041600D03*
X0218238Y0029100D03*
X0218238Y0024100D03*
X0218238Y0019100D03*
X0218238Y0014100D03*
D28*
X0203868Y0021600D03*
X0203868Y0049100D03*
X0203868Y0076600D03*
D29*
X0225305Y0089533D03*
X0230305Y0089533D03*
X0235305Y0089533D03*
X0240305Y0089533D03*
X0240305Y0062033D03*
X0235305Y0062033D03*
X0230305Y0062033D03*
X0225305Y0062033D03*
X0225305Y0034533D03*
X0230305Y0034533D03*
X0235305Y0034533D03*
X0240305Y0034533D03*
D30*
X0232805Y0047663D03*
X0232805Y0075163D03*
X0232805Y0020163D03*
D31*
X0243145Y0029828D02*
X0243622Y0029350D01*
X0254556Y0029350D01*
X0254556Y0038850D01*
X0243848Y0038850D01*
X0243848Y0038701D01*
X0243145Y0037998D01*
X0229055Y0037998D01*
X0229055Y0029828D01*
X0243145Y0029828D01*
X0243498Y0029475D02*
X0254556Y0029475D01*
X0254556Y0030673D02*
X0229055Y0030673D01*
X0229055Y0031872D02*
X0254556Y0031872D01*
X0254556Y0033070D02*
X0229055Y0033070D01*
X0229055Y0034269D02*
X0254556Y0034269D01*
X0254556Y0035467D02*
X0229055Y0035467D01*
X0229055Y0036666D02*
X0254556Y0036666D01*
X0254556Y0037864D02*
X0229055Y0037864D01*
X0225305Y0034533D02*
X0215738Y0034533D01*
X0214055Y0032850D01*
X0214123Y0029100D02*
X0218238Y0029100D01*
X0191555Y0030350D02*
X0190394Y0029189D01*
X0183898Y0029189D01*
X0183898Y0031748D02*
X0185453Y0031748D01*
X0187805Y0034100D01*
X0188110Y0034405D01*
X0191555Y0034405D01*
X0187805Y0037850D02*
X0181555Y0037850D01*
X0180453Y0036748D01*
X0180453Y0035193D01*
X0177894Y0035193D02*
X0177894Y0037939D01*
X0181250Y0041295D01*
X0191555Y0041295D01*
X0176555Y0040350D02*
X0175335Y0039130D01*
X0175335Y0035193D01*
X0172805Y0035222D02*
X0172805Y0039100D01*
X0170000Y0042850D02*
X0168750Y0041600D01*
X0167657Y0040507D01*
X0167657Y0035193D01*
X0170217Y0035193D02*
X0170217Y0029189D01*
X0170305Y0029100D01*
X0174055Y0025350D01*
X0172776Y0026630D01*
X0164213Y0026630D01*
X0160305Y0026600D02*
X0159055Y0027850D01*
X0156152Y0027850D01*
X0160305Y0030350D02*
X0161467Y0029189D01*
X0164213Y0029189D01*
X0160305Y0030350D02*
X0160305Y0032850D01*
X0161860Y0034405D01*
X0161860Y0041600D01*
X0165305Y0044100D02*
X0166555Y0045350D01*
X0176555Y0045350D01*
X0174055Y0042850D02*
X0170000Y0042850D01*
X0165305Y0044100D02*
X0165305Y0032840D01*
X0164213Y0031748D01*
X0156555Y0035754D02*
X0150404Y0035754D01*
X0150305Y0035655D01*
X0147500Y0035655D01*
X0146555Y0036600D01*
X0143287Y0036118D02*
X0138632Y0036118D01*
X0136663Y0036118D02*
X0136663Y0028145D01*
X0136959Y0027850D01*
X0136959Y0021600D01*
X0136555Y0021196D01*
X0141457Y0021196D01*
X0141555Y0021295D01*
X0136555Y0021196D02*
X0134055Y0021196D01*
X0127805Y0021295D02*
X0121654Y0021295D01*
X0121555Y0021196D01*
X0121959Y0021600D01*
X0121959Y0027850D01*
X0125709Y0031600D01*
X0134055Y0031600D01*
X0134695Y0032240D01*
X0134695Y0036118D01*
X0132726Y0036118D02*
X0132726Y0043396D01*
X0133430Y0044100D01*
X0130758Y0041147D02*
X0130305Y0041600D01*
X0130758Y0041147D02*
X0130758Y0036118D01*
X0128789Y0036118D02*
X0128789Y0039366D01*
X0127805Y0040350D01*
X0115305Y0040350D01*
X0114055Y0039100D01*
X0111555Y0039100D01*
X0109055Y0036600D01*
X0109055Y0030754D01*
X0108834Y0030975D01*
X0105625Y0030975D01*
X0109055Y0030754D02*
X0112805Y0027004D01*
X0116555Y0031600D02*
X0116555Y0033696D01*
X0112805Y0033696D01*
X0116555Y0031600D02*
X0116978Y0032023D01*
X0116978Y0036118D01*
X0111073Y0042023D02*
X0107923Y0042023D01*
X0105305Y0039405D01*
X0105305Y0035350D01*
X0098735Y0030975D02*
X0101555Y0028155D01*
X0101555Y0019100D01*
X0108381Y0019100D02*
X0114055Y0019100D01*
X0121457Y0014405D02*
X0121555Y0014504D01*
X0127707Y0014504D01*
X0127805Y0014405D01*
X0133957Y0014405D01*
X0134055Y0014504D01*
X0137805Y0014504D01*
X0137805Y0016600D01*
X0137805Y0014504D02*
X0141457Y0014504D01*
X0141555Y0014405D01*
X0148957Y0014405D01*
X0149055Y0014504D01*
X0152805Y0014504D01*
X0152805Y0016600D01*
X0152805Y0014504D02*
X0156457Y0014504D01*
X0156555Y0014405D01*
X0160305Y0015975D02*
X0161555Y0014725D01*
X0160305Y0015975D02*
X0160305Y0020350D01*
X0161467Y0021511D01*
X0164213Y0021511D01*
X0156555Y0021295D02*
X0156457Y0021196D01*
X0149055Y0021196D01*
X0149459Y0021600D01*
X0149459Y0027850D01*
X0146820Y0030489D01*
X0146820Y0030512D01*
X0146555Y0030777D01*
X0146555Y0032850D01*
X0143287Y0036118D01*
X0142799Y0031606D02*
X0142799Y0029909D01*
X0142801Y0029805D01*
X0142806Y0029701D01*
X0142816Y0029598D01*
X0142829Y0029495D01*
X0142845Y0029392D01*
X0142866Y0029290D01*
X0142889Y0029189D01*
X0142917Y0029089D01*
X0142948Y0028990D01*
X0142983Y0028892D01*
X0143021Y0028795D01*
X0143062Y0028700D01*
X0143107Y0028606D01*
X0143155Y0028514D01*
X0143206Y0028424D01*
X0143261Y0028335D01*
X0143319Y0028249D01*
X0143380Y0028165D01*
X0143443Y0028082D01*
X0143510Y0028003D01*
X0143579Y0027925D01*
X0143652Y0027851D01*
X0132805Y0027850D02*
X0128652Y0027850D01*
X0126555Y0042850D02*
X0117805Y0042850D01*
X0114695Y0045960D01*
X0111073Y0045960D01*
X0111073Y0043992D02*
X0107608Y0043992D01*
X0105305Y0046295D01*
X0105305Y0050350D01*
X0105305Y0049897D01*
X0111073Y0049897D01*
X0113789Y0051866D02*
X0115305Y0050350D01*
X0113789Y0051866D02*
X0111073Y0051866D01*
X0111073Y0053834D02*
X0116346Y0053834D01*
X0117956Y0052225D01*
X0118430Y0052225D01*
X0117633Y0055803D02*
X0111073Y0055803D01*
X0111073Y0057771D02*
X0115851Y0057771D01*
X0117805Y0059725D01*
X0115248Y0061330D02*
X0115930Y0062240D01*
X0115930Y0062850D01*
X0114680Y0065350D02*
X0113007Y0063677D01*
X0111073Y0063677D01*
X0114680Y0065350D02*
X0119055Y0065350D01*
X0119055Y0065304D01*
X0120810Y0063550D01*
X0120855Y0063550D01*
X0122805Y0061600D01*
X0128789Y0064366D02*
X0132805Y0060350D01*
X0135305Y0060350D01*
X0135305Y0056600D02*
X0132805Y0056600D01*
X0124055Y0065350D01*
X0121555Y0065350D01*
X0120915Y0065990D01*
X0120915Y0069582D01*
X0118947Y0069582D02*
X0118947Y0073047D01*
X0121250Y0075350D01*
X0125305Y0075350D01*
X0126821Y0073116D02*
X0127805Y0074100D01*
X0135305Y0074100D01*
X0139387Y0075018D02*
X0171640Y0075018D01*
X0172839Y0076217D02*
X0138188Y0076217D01*
X0136990Y0077415D02*
X0173269Y0077415D01*
X0173269Y0076646D02*
X0169755Y0073133D01*
X0169755Y0070350D01*
X0144055Y0070350D01*
X0135305Y0079100D01*
X0090305Y0079100D01*
X0079724Y0068518D01*
X0076590Y0068518D01*
X0075887Y0067816D01*
X0075887Y0062884D01*
X0075921Y0062850D01*
X0075887Y0062816D01*
X0075887Y0057884D01*
X0075921Y0057850D01*
X0075887Y0057816D01*
X0075887Y0052884D01*
X0075921Y0052850D01*
X0075887Y0052816D01*
X0075887Y0047884D01*
X0075921Y0047850D01*
X0075887Y0047816D01*
X0075887Y0042884D01*
X0075921Y0042850D01*
X0075887Y0042816D01*
X0075887Y0037884D01*
X0075921Y0037850D01*
X0075887Y0037816D01*
X0075887Y0032884D01*
X0075921Y0032850D01*
X0062905Y0032850D01*
X0062905Y0079046D01*
X0063498Y0078800D01*
X0072112Y0078800D01*
X0073141Y0079226D01*
X0075016Y0081101D01*
X0075804Y0081889D01*
X0079374Y0085459D01*
X0079391Y0085476D01*
X0080179Y0086264D01*
X0080605Y0087293D01*
X0080605Y0092140D01*
X0080179Y0093169D01*
X0080162Y0093186D01*
X0079374Y0093974D01*
X0079374Y0093974D01*
X0078265Y0095083D01*
X0180305Y0095083D01*
X0180305Y0080831D01*
X0173971Y0080831D01*
X0173269Y0080129D01*
X0173269Y0076646D01*
X0173269Y0078614D02*
X0135791Y0078614D01*
X0140586Y0073820D02*
X0170442Y0073820D01*
X0169755Y0072621D02*
X0141784Y0072621D01*
X0142983Y0071423D02*
X0169755Y0071423D01*
X0171555Y0072387D02*
X0177421Y0078254D01*
X0173269Y0079812D02*
X0073727Y0079812D01*
X0074926Y0081011D02*
X0180305Y0081011D01*
X0182805Y0081011D02*
X0194204Y0081011D01*
X0194204Y0080350D02*
X0189620Y0080350D01*
X0189139Y0080831D01*
X0182805Y0080831D01*
X0182805Y0095083D01*
X0254556Y0095083D01*
X0254556Y0084350D01*
X0243622Y0084350D01*
X0243145Y0084828D01*
X0225196Y0084828D01*
X0225196Y0085263D01*
X0225510Y0085577D01*
X0227180Y0085577D01*
X0227883Y0086280D01*
X0227883Y0092786D01*
X0227180Y0093489D01*
X0223430Y0093489D01*
X0222727Y0092786D01*
X0222727Y0087886D01*
X0222650Y0087809D01*
X0221815Y0087809D01*
X0220684Y0086678D01*
X0214985Y0086678D01*
X0214798Y0086491D01*
X0213533Y0086491D01*
X0213533Y0086940D01*
X0212830Y0087643D01*
X0194906Y0087643D01*
X0194204Y0086940D01*
X0194204Y0080350D01*
X0194204Y0082209D02*
X0182805Y0082209D01*
X0182805Y0083408D02*
X0194204Y0083408D01*
X0194204Y0084606D02*
X0182805Y0084606D01*
X0182805Y0085805D02*
X0194204Y0085805D01*
X0194267Y0087003D02*
X0182805Y0087003D01*
X0182805Y0088202D02*
X0222727Y0088202D01*
X0221010Y0087003D02*
X0213469Y0087003D01*
X0214123Y0084100D02*
X0218238Y0084100D01*
X0222805Y0085418D02*
X0225305Y0087918D01*
X0225305Y0089533D01*
X0222727Y0089400D02*
X0182805Y0089400D01*
X0182805Y0090599D02*
X0222727Y0090599D01*
X0222727Y0091797D02*
X0182805Y0091797D01*
X0182805Y0092996D02*
X0222937Y0092996D01*
X0227673Y0092996D02*
X0254556Y0092996D01*
X0254556Y0094194D02*
X0182805Y0094194D01*
X0180305Y0094194D02*
X0079153Y0094194D01*
X0080250Y0092996D02*
X0180305Y0092996D01*
X0180305Y0091797D02*
X0080605Y0091797D01*
X0080605Y0090599D02*
X0180305Y0090599D01*
X0180305Y0089400D02*
X0080605Y0089400D01*
X0080605Y0088202D02*
X0180305Y0088202D01*
X0180305Y0087003D02*
X0080485Y0087003D01*
X0079720Y0085805D02*
X0180305Y0085805D01*
X0180305Y0084606D02*
X0078521Y0084606D01*
X0079374Y0085459D02*
X0079374Y0085459D01*
X0077323Y0083408D02*
X0180305Y0083408D01*
X0180305Y0082209D02*
X0076124Y0082209D01*
X0075804Y0081889D02*
X0075804Y0081889D01*
X0075016Y0081101D02*
X0075016Y0081101D01*
X0068179Y0086974D02*
X0064680Y0083475D01*
X0068179Y0086974D02*
X0068179Y0087850D01*
X0062905Y0078614D02*
X0089819Y0078614D01*
X0088620Y0077415D02*
X0062905Y0077415D01*
X0062905Y0076217D02*
X0087422Y0076217D01*
X0086223Y0075018D02*
X0062905Y0075018D01*
X0062905Y0073820D02*
X0085025Y0073820D01*
X0083826Y0072621D02*
X0062905Y0072621D01*
X0062905Y0071423D02*
X0082628Y0071423D01*
X0081429Y0070224D02*
X0062905Y0070224D01*
X0062905Y0069026D02*
X0080231Y0069026D01*
X0075898Y0067827D02*
X0062905Y0067827D01*
X0062905Y0066629D02*
X0075887Y0066629D01*
X0075887Y0065430D02*
X0062905Y0065430D01*
X0062905Y0064232D02*
X0075887Y0064232D01*
X0075887Y0063033D02*
X0062905Y0063033D01*
X0062905Y0061834D02*
X0075887Y0061834D01*
X0075887Y0060636D02*
X0062905Y0060636D01*
X0062905Y0059437D02*
X0075887Y0059437D01*
X0075887Y0058239D02*
X0062905Y0058239D01*
X0062905Y0057040D02*
X0075887Y0057040D01*
X0075887Y0055842D02*
X0062905Y0055842D01*
X0062905Y0054643D02*
X0075887Y0054643D01*
X0075887Y0053445D02*
X0062905Y0053445D01*
X0062905Y0052246D02*
X0075887Y0052246D01*
X0075887Y0051048D02*
X0062905Y0051048D01*
X0062905Y0049849D02*
X0075887Y0049849D01*
X0075887Y0048651D02*
X0062905Y0048651D01*
X0062905Y0047452D02*
X0075887Y0047452D01*
X0075887Y0046254D02*
X0062905Y0046254D01*
X0062905Y0045055D02*
X0075887Y0045055D01*
X0075887Y0043857D02*
X0062905Y0043857D01*
X0062905Y0042658D02*
X0075887Y0042658D01*
X0075887Y0041460D02*
X0062905Y0041460D01*
X0062905Y0040261D02*
X0075887Y0040261D01*
X0075887Y0039063D02*
X0062905Y0039063D01*
X0062905Y0037864D02*
X0075907Y0037864D01*
X0075887Y0036666D02*
X0062905Y0036666D01*
X0062905Y0035467D02*
X0075887Y0035467D01*
X0075887Y0034269D02*
X0062905Y0034269D01*
X0062905Y0033070D02*
X0075887Y0033070D01*
X0079055Y0035350D02*
X0081555Y0035350D01*
X0081555Y0040350D02*
X0079055Y0040350D01*
X0079055Y0045350D02*
X0081555Y0045350D01*
X0079055Y0050350D02*
X0080305Y0051600D01*
X0082805Y0051600D01*
X0082805Y0055350D02*
X0079055Y0055350D01*
X0079055Y0060350D02*
X0082805Y0060350D01*
X0106555Y0062850D02*
X0107697Y0061708D01*
X0111073Y0061708D01*
X0114055Y0059740D02*
X0115248Y0061330D01*
X0114055Y0059740D02*
X0111073Y0059740D01*
X0106555Y0062850D02*
X0106555Y0064100D01*
X0116978Y0069582D02*
X0116978Y0072732D01*
X0114360Y0075350D01*
X0114360Y0071600D01*
X0114055Y0071600D01*
X0126821Y0073116D02*
X0126821Y0069582D01*
X0128789Y0069582D02*
X0128789Y0064366D01*
X0130758Y0066147D02*
X0132805Y0064100D01*
X0135305Y0064100D01*
X0139055Y0064100D02*
X0139055Y0050350D01*
X0135305Y0046600D01*
X0126555Y0046600D01*
X0125305Y0045350D01*
X0119055Y0045350D01*
X0116476Y0047929D01*
X0111073Y0047929D01*
X0126555Y0042850D02*
X0127805Y0044100D01*
X0144537Y0043992D02*
X0150856Y0043992D01*
X0150856Y0043096D01*
X0150305Y0042545D01*
X0150856Y0043992D02*
X0156762Y0043992D01*
X0156762Y0042653D01*
X0156555Y0042446D01*
X0156762Y0043992D02*
X0158189Y0043992D01*
X0164636Y0050439D01*
X0183937Y0050439D01*
X0184459Y0050350D01*
X0191152Y0050350D02*
X0202618Y0050350D01*
X0214123Y0056600D02*
X0218238Y0056600D01*
X0221555Y0061600D02*
X0221988Y0062033D01*
X0225305Y0062033D01*
X0229055Y0061834D02*
X0254556Y0061834D01*
X0254556Y0060636D02*
X0229055Y0060636D01*
X0229055Y0059437D02*
X0254556Y0059437D01*
X0254556Y0058239D02*
X0229055Y0058239D01*
X0229055Y0057328D02*
X0229055Y0065498D01*
X0243145Y0065498D01*
X0243848Y0066201D01*
X0243848Y0066350D01*
X0254556Y0066350D01*
X0254556Y0056850D01*
X0243622Y0056850D01*
X0243145Y0057328D01*
X0229055Y0057328D01*
X0229055Y0063033D02*
X0254556Y0063033D01*
X0254556Y0064232D02*
X0229055Y0064232D01*
X0229055Y0065430D02*
X0254556Y0065430D01*
X0254556Y0057040D02*
X0243432Y0057040D01*
X0218238Y0068283D02*
X0215305Y0065350D01*
X0191555Y0066196D02*
X0191555Y0072387D01*
X0185689Y0078254D01*
X0171555Y0072387D02*
X0171555Y0066196D01*
X0165305Y0066196D02*
X0165305Y0065767D01*
X0162810Y0063272D01*
X0159055Y0066196D02*
X0155709Y0062850D01*
X0155305Y0062850D01*
X0153750Y0066295D02*
X0150305Y0066295D01*
X0147687Y0063677D01*
X0144537Y0063677D01*
X0144537Y0061708D02*
X0148002Y0061708D01*
X0150305Y0059405D01*
X0150305Y0056600D01*
X0149055Y0055350D01*
X0155930Y0055350D02*
X0174055Y0055350D01*
X0175305Y0056600D01*
X0175305Y0062446D01*
X0179055Y0066196D01*
X0179154Y0066295D01*
X0185305Y0066295D01*
X0185404Y0059504D02*
X0185305Y0059405D01*
X0179154Y0059405D01*
X0179055Y0059504D01*
X0179055Y0056600D01*
X0175305Y0052850D01*
X0156555Y0052850D01*
X0149665Y0045960D01*
X0144537Y0045960D01*
X0144537Y0047929D02*
X0148509Y0047929D01*
X0155930Y0055350D01*
X0156959Y0059504D02*
X0147352Y0049897D01*
X0144537Y0049897D01*
X0156959Y0059504D02*
X0159055Y0059504D01*
X0165305Y0059504D01*
X0171555Y0059504D01*
X0185404Y0059504D02*
X0191555Y0059504D01*
X0154055Y0066600D02*
X0153750Y0066295D01*
X0130758Y0066147D02*
X0130758Y0069582D01*
X0117805Y0055975D02*
X0117633Y0055803D01*
X0172776Y0035193D02*
X0172805Y0035222D01*
X0183898Y0026630D02*
X0187776Y0026630D01*
X0187805Y0026600D01*
X0188770Y0024070D02*
X0190565Y0025866D01*
X0190765Y0025866D01*
X0191555Y0026656D01*
X0188770Y0024070D02*
X0183898Y0024070D01*
X0183898Y0021511D02*
X0177894Y0021511D01*
X0177805Y0021600D01*
X0174055Y0025350D01*
X0183898Y0018952D02*
X0190463Y0018952D01*
X0191555Y0020045D01*
X0191555Y0023475D01*
X0187805Y0016562D02*
X0186751Y0015507D01*
X0180453Y0015507D01*
X0177894Y0015507D02*
X0177894Y0012939D01*
X0177805Y0012850D01*
X0178955Y0011700D01*
X0181655Y0011700D01*
X0183110Y0013155D01*
X0191555Y0013155D01*
X0172805Y0012300D02*
X0172805Y0015478D01*
X0172776Y0015507D01*
X0167657Y0015507D02*
X0166250Y0014100D01*
X0165305Y0014100D01*
X0082805Y0027850D02*
X0080305Y0030350D01*
X0079055Y0030350D01*
X0227408Y0085805D02*
X0254556Y0085805D01*
X0254556Y0087003D02*
X0227883Y0087003D01*
X0227883Y0088202D02*
X0254556Y0088202D01*
X0254556Y0089400D02*
X0227883Y0089400D01*
X0227883Y0090599D02*
X0254556Y0090599D01*
X0254556Y0091797D02*
X0227883Y0091797D01*
X0243366Y0084606D02*
X0254556Y0084606D01*
D32*
X0064055Y0012850D03*
X0067805Y0012850D03*
X0071555Y0012850D03*
X0075305Y0012850D03*
X0077805Y0015350D03*
X0077805Y0019100D03*
X0077805Y0022850D03*
X0075305Y0025350D03*
X0071555Y0025350D03*
X0067805Y0025350D03*
X0064055Y0025350D03*
X0082805Y0027850D03*
X0069055Y0034100D03*
X0081555Y0035350D03*
X0081555Y0040350D03*
X0081555Y0045350D03*
X0074055Y0045350D03*
X0064055Y0045350D03*
X0082805Y0051600D03*
X0082805Y0055350D03*
X0082805Y0060350D03*
X0074055Y0061600D03*
X0064055Y0061600D03*
X0079055Y0070350D03*
X0085305Y0069100D03*
X0095305Y0069100D03*
X0095305Y0072850D03*
X0086555Y0077850D03*
X0071555Y0081600D03*
X0067805Y0081600D03*
X0064055Y0081600D03*
X0077805Y0087850D03*
X0077805Y0091600D03*
X0075305Y0094100D03*
X0071555Y0094100D03*
X0067805Y0094100D03*
X0064055Y0094100D03*
X0069055Y0074100D03*
X0085305Y0065350D03*
X0095305Y0065350D03*
X0095305Y0061600D03*
X0099055Y0061600D03*
X0106555Y0064100D03*
X0115930Y0062850D03*
X0117805Y0059725D03*
X0122805Y0061600D03*
X0117805Y0055975D03*
X0118430Y0052225D03*
X0115305Y0050350D03*
X0105305Y0050350D03*
X0099055Y0050350D03*
X0095305Y0049100D03*
X0105305Y0035350D03*
X0116555Y0031600D03*
X0106555Y0025350D03*
X0114055Y0019100D03*
X0114055Y0015350D03*
X0111555Y0012850D03*
X0107805Y0012850D03*
X0137805Y0016600D03*
X0152805Y0016600D03*
X0161555Y0014725D03*
X0165305Y0014100D03*
X0172805Y0012300D03*
X0200305Y0020350D03*
X0206555Y0016600D03*
X0210305Y0016600D03*
X0210305Y0020350D03*
X0204055Y0024100D03*
X0200305Y0024100D03*
X0199055Y0041600D03*
X0202805Y0041600D03*
X0206555Y0041600D03*
X0206555Y0045350D03*
X0210305Y0045350D03*
X0210305Y0049100D03*
X0206555Y0049100D03*
X0202805Y0045350D03*
X0210305Y0052850D03*
X0197805Y0057850D03*
X0197805Y0061600D03*
X0201555Y0061600D03*
X0201555Y0065350D03*
X0205305Y0065350D03*
X0197805Y0065350D03*
X0197805Y0070350D03*
X0207805Y0070350D03*
X0207805Y0075350D03*
X0202805Y0075350D03*
X0197805Y0075350D03*
X0172805Y0085350D03*
X0169055Y0085350D03*
X0165305Y0085350D03*
X0165305Y0089100D03*
X0169055Y0089100D03*
X0172805Y0089100D03*
X0172805Y0092850D03*
X0169055Y0092850D03*
X0165305Y0092850D03*
X0161555Y0092850D03*
X0161555Y0089100D03*
X0135305Y0074100D03*
X0125305Y0075350D03*
X0114055Y0071600D03*
X0135305Y0064100D03*
X0139055Y0064100D03*
X0135305Y0060350D03*
X0135305Y0056600D03*
X0126555Y0052850D03*
X0149055Y0055350D03*
X0155305Y0062850D03*
X0162810Y0063272D03*
X0133430Y0044100D03*
X0130305Y0041600D03*
X0127805Y0044100D03*
X0146555Y0036600D03*
D33*
X0142799Y0031606D03*
X0132805Y0027850D03*
X0160305Y0026600D03*
X0170305Y0029100D03*
X0177805Y0029100D03*
X0174055Y0025350D03*
X0170305Y0021600D03*
X0177805Y0021600D03*
X0187805Y0026600D03*
X0191555Y0026656D03*
X0191555Y0023475D03*
X0187805Y0016562D03*
X0214123Y0029100D03*
X0214055Y0032850D03*
X0230305Y0031600D03*
X0234055Y0031600D03*
X0237805Y0031600D03*
X0241555Y0031600D03*
X0245305Y0030350D03*
X0249055Y0030350D03*
X0252805Y0030350D03*
X0252805Y0034100D03*
X0249055Y0034100D03*
X0245305Y0034100D03*
X0241555Y0036600D03*
X0237805Y0036600D03*
X0234055Y0036600D03*
X0230305Y0036600D03*
X0245305Y0037850D03*
X0249055Y0037850D03*
X0252805Y0037850D03*
X0214123Y0041600D03*
X0187805Y0037850D03*
X0187805Y0034100D03*
X0191555Y0030350D03*
X0172805Y0039100D03*
X0176555Y0040350D03*
X0174055Y0042850D03*
X0176555Y0045350D03*
X0214123Y0056600D03*
X0221555Y0061600D03*
X0215305Y0065350D03*
X0230305Y0064100D03*
X0234055Y0064100D03*
X0237805Y0064100D03*
X0241555Y0064100D03*
X0245305Y0065350D03*
X0249055Y0065350D03*
X0252805Y0065350D03*
X0252805Y0061600D03*
X0249055Y0061600D03*
X0245305Y0061600D03*
X0241555Y0059100D03*
X0237805Y0059100D03*
X0234055Y0059100D03*
X0230305Y0059100D03*
X0245305Y0057850D03*
X0249055Y0057850D03*
X0252805Y0057850D03*
X0193430Y0081600D03*
X0190305Y0081600D03*
X0190305Y0085350D03*
X0193430Y0085350D03*
X0194055Y0089100D03*
X0197805Y0089100D03*
X0201555Y0089100D03*
X0201555Y0092850D03*
X0197805Y0092850D03*
X0194055Y0092850D03*
X0190305Y0092850D03*
X0190305Y0089100D03*
X0214123Y0084100D03*
X0222805Y0085418D03*
X0230305Y0086600D03*
X0234055Y0086600D03*
X0237805Y0086600D03*
X0241555Y0086600D03*
X0245305Y0085350D03*
X0249055Y0085350D03*
X0252805Y0085350D03*
X0252805Y0089100D03*
X0249055Y0089100D03*
X0245305Y0089100D03*
X0241555Y0091600D03*
X0237805Y0091600D03*
X0234055Y0091600D03*
X0230305Y0091600D03*
X0245305Y0092850D03*
X0249055Y0092850D03*
X0252805Y0092850D03*
X0154055Y0066600D03*
X0085305Y0045350D03*
X0085305Y0037850D03*
X0091555Y0037850D03*
X0095305Y0037850D03*
X0085305Y0030350D03*
X0089055Y0025350D03*
X0092805Y0025350D03*
X0221555Y0014100D03*
D34*
X0114055Y0015350D02*
X0111555Y0012850D01*
X0107805Y0012850D01*
X0106555Y0014100D01*
X0106555Y0025350D01*
X0106555Y0019100D01*
X0108381Y0019100D01*
X0106555Y0019100D02*
X0101555Y0019100D01*
X0097881Y0019100D01*
X0091250Y0019100D01*
X0090305Y0020045D01*
X0077805Y0022850D02*
X0077805Y0015350D01*
X0080000Y0013155D01*
X0090305Y0013155D01*
X0096838Y0013155D01*
X0096881Y0013198D01*
X0106555Y0014100D02*
X0110305Y0014100D01*
X0111555Y0015350D01*
X0114055Y0015350D02*
X0114055Y0019100D01*
X0096881Y0025002D02*
X0096532Y0025350D01*
X0089055Y0025350D01*
X0091555Y0027850D02*
X0094404Y0025002D01*
X0096881Y0025002D01*
X0091555Y0027850D02*
X0091555Y0031944D01*
X0091555Y0037530D01*
X0086875Y0037530D01*
X0085305Y0039100D01*
X0085305Y0049100D01*
X0086904Y0050698D01*
X0088756Y0050698D01*
X0095305Y0049100D02*
X0095305Y0061600D01*
X0099055Y0061600D01*
X0102461Y0061600D01*
X0102461Y0058805D01*
X0100256Y0056600D01*
X0105305Y0056600D01*
X0100256Y0056600D02*
X0097805Y0054149D01*
X0097805Y0049100D01*
X0099055Y0049100D01*
X0099055Y0055350D01*
X0097805Y0056600D01*
X0100256Y0056600D01*
X0097805Y0056600D02*
X0089756Y0056600D01*
X0088756Y0062502D02*
X0088756Y0066600D01*
X0087805Y0066600D01*
X0085305Y0069100D01*
X0089055Y0072850D01*
X0095305Y0072850D01*
X0093150Y0072850D01*
X0090650Y0070350D01*
X0088756Y0068456D01*
X0088756Y0066600D01*
X0085305Y0065350D02*
X0079055Y0065350D01*
X0085305Y0065350D02*
X0085305Y0069100D01*
X0092805Y0067900D02*
X0092805Y0072850D01*
X0095305Y0072850D01*
X0095305Y0065400D01*
X0092805Y0067900D01*
X0093731Y0065400D02*
X0093681Y0065350D01*
X0085305Y0065350D01*
X0093731Y0065400D02*
X0095305Y0065400D01*
X0102461Y0061600D02*
X0102461Y0070350D01*
X0073430Y0083475D02*
X0071555Y0081600D01*
X0064055Y0081600D01*
X0064055Y0084100D01*
X0064680Y0083475D01*
X0073430Y0083475D01*
X0077788Y0087833D01*
X0077788Y0091600D01*
X0077805Y0091583D01*
X0077805Y0087850D01*
X0075305Y0090350D01*
X0075305Y0091600D01*
X0077788Y0091600D01*
X0075305Y0094083D01*
X0075305Y0094100D02*
X0064055Y0094100D01*
X0064055Y0091600D01*
X0075305Y0091600D01*
X0077805Y0087850D02*
X0077788Y0087833D01*
X0064055Y0084100D02*
X0064055Y0091600D01*
X0095305Y0049100D02*
X0097805Y0049100D01*
X0099055Y0049100D02*
X0099055Y0044420D01*
X0092219Y0044420D01*
X0091555Y0043756D01*
X0091555Y0037530D02*
X0099055Y0037530D01*
X0085305Y0037850D02*
X0085305Y0030350D01*
X0077180Y0023475D02*
X0075305Y0025350D01*
X0072805Y0022850D01*
X0064055Y0022850D01*
X0064055Y0025350D01*
X0075305Y0025350D01*
X0077180Y0023475D02*
X0072554Y0023475D01*
X0068179Y0019100D01*
X0074055Y0015350D02*
X0077180Y0018475D01*
X0077180Y0023475D01*
X0077805Y0022850D01*
X0064055Y0022850D02*
X0064055Y0012850D01*
X0066555Y0015350D01*
X0074055Y0015350D01*
X0075305Y0012850D02*
X0064055Y0012850D01*
X0075305Y0012850D02*
X0077805Y0015350D01*
D35*
X0215305Y0015085D02*
X0254856Y0015085D01*
X0254856Y0014487D02*
X0215305Y0014487D01*
X0215305Y0013888D02*
X0254856Y0013888D01*
X0254856Y0013290D02*
X0215305Y0013290D01*
X0215305Y0012850D02*
X0254856Y0012850D01*
X0254856Y0027850D01*
X0224055Y0027850D01*
X0221555Y0025350D01*
X0215305Y0025350D01*
X0215305Y0012850D01*
X0215305Y0015684D02*
X0254856Y0015684D01*
X0254856Y0016282D02*
X0215305Y0016282D01*
X0215305Y0016881D02*
X0254856Y0016881D01*
X0254856Y0017479D02*
X0215305Y0017479D01*
X0215305Y0018078D02*
X0254856Y0018078D01*
X0254856Y0018676D02*
X0215305Y0018676D01*
X0215305Y0019275D02*
X0254856Y0019275D01*
X0254856Y0019873D02*
X0215305Y0019873D01*
X0215305Y0020472D02*
X0254856Y0020472D01*
X0254856Y0021070D02*
X0215305Y0021070D01*
X0215305Y0021669D02*
X0254856Y0021669D01*
X0254856Y0022267D02*
X0215305Y0022267D01*
X0215305Y0022866D02*
X0254856Y0022866D01*
X0254856Y0023464D02*
X0215305Y0023464D01*
X0215305Y0024063D02*
X0254856Y0024063D01*
X0254856Y0024661D02*
X0215305Y0024661D01*
X0215305Y0025260D02*
X0254856Y0025260D01*
X0254856Y0025858D02*
X0222063Y0025858D01*
X0222662Y0026457D02*
X0254856Y0026457D01*
X0254856Y0027055D02*
X0223260Y0027055D01*
X0223859Y0027654D02*
X0254856Y0027654D01*
X0254856Y0040350D02*
X0215305Y0040350D01*
X0215305Y0052850D01*
X0221555Y0052850D01*
X0224055Y0055350D01*
X0254856Y0055350D01*
X0254856Y0040350D01*
X0254856Y0040821D02*
X0215305Y0040821D01*
X0215305Y0041420D02*
X0254856Y0041420D01*
X0254856Y0042018D02*
X0215305Y0042018D01*
X0215305Y0042617D02*
X0254856Y0042617D01*
X0254856Y0043215D02*
X0215305Y0043215D01*
X0215305Y0043814D02*
X0254856Y0043814D01*
X0254856Y0044412D02*
X0215305Y0044412D01*
X0215305Y0045011D02*
X0254856Y0045011D01*
X0254856Y0045609D02*
X0215305Y0045609D01*
X0215305Y0046208D02*
X0254856Y0046208D01*
X0254856Y0046806D02*
X0215305Y0046806D01*
X0215305Y0047405D02*
X0254856Y0047405D01*
X0254856Y0048003D02*
X0215305Y0048003D01*
X0215305Y0048602D02*
X0254856Y0048602D01*
X0254856Y0049200D02*
X0215305Y0049200D01*
X0215305Y0049799D02*
X0254856Y0049799D01*
X0254856Y0050397D02*
X0215305Y0050397D01*
X0215305Y0050996D02*
X0254856Y0050996D01*
X0254856Y0051594D02*
X0215305Y0051594D01*
X0215305Y0052193D02*
X0254856Y0052193D01*
X0254856Y0052791D02*
X0215305Y0052791D01*
X0222095Y0053390D02*
X0254856Y0053390D01*
X0254856Y0053988D02*
X0222693Y0053988D01*
X0223292Y0054587D02*
X0254856Y0054587D01*
X0254856Y0055185D02*
X0223890Y0055185D01*
X0215305Y0067850D02*
X0254856Y0067850D01*
X0254856Y0082850D01*
X0224055Y0082850D01*
X0221555Y0080350D01*
X0215305Y0080350D01*
X0215305Y0067850D01*
X0215305Y0068353D02*
X0254856Y0068353D01*
X0254856Y0068951D02*
X0215305Y0068951D01*
X0215305Y0069550D02*
X0254856Y0069550D01*
X0254856Y0070148D02*
X0215305Y0070148D01*
X0215305Y0070747D02*
X0254856Y0070747D01*
X0254856Y0071345D02*
X0215305Y0071345D01*
X0215305Y0071944D02*
X0254856Y0071944D01*
X0254856Y0072542D02*
X0215305Y0072542D01*
X0215305Y0073141D02*
X0254856Y0073141D01*
X0254856Y0073739D02*
X0215305Y0073739D01*
X0215305Y0074338D02*
X0254856Y0074338D01*
X0254856Y0074936D02*
X0215305Y0074936D01*
X0215305Y0075535D02*
X0254856Y0075535D01*
X0254856Y0076133D02*
X0215305Y0076133D01*
X0215305Y0076732D02*
X0254856Y0076732D01*
X0254856Y0077330D02*
X0215305Y0077330D01*
X0215305Y0077929D02*
X0254856Y0077929D01*
X0254856Y0078527D02*
X0215305Y0078527D01*
X0215305Y0079126D02*
X0254856Y0079126D01*
X0254856Y0079724D02*
X0215305Y0079724D01*
X0215305Y0080323D02*
X0254856Y0080323D01*
X0254856Y0080921D02*
X0222126Y0080921D01*
X0222725Y0081520D02*
X0254856Y0081520D01*
X0254856Y0082118D02*
X0223323Y0082118D01*
X0223922Y0082717D02*
X0254856Y0082717D01*
D36*
X0203868Y0076600D02*
X0203868Y0049100D01*
X0203868Y0021600D01*
D37*
X0203868Y0049100D02*
X0202618Y0050350D01*
X0205118Y0075350D02*
X0207805Y0075350D01*
X0205118Y0075350D02*
X0203868Y0076600D01*
M02*
