G75*
%MOIN*%
%OFA0B0*%
%FSLAX25Y25*%
%IPPOS*%
%LPD*%
%AMOC8*
5,1,8,0,0,1.08239X$1,22.5*
%
%ADD10C,0.00000*%
%ADD11C,0.00400*%
D10*
X0060305Y0009100D02*
X0060305Y0097683D01*
X0257156Y0097683D01*
X0257156Y0009100D01*
X0060305Y0009100D01*
D11*
X0112066Y0035550D02*
X0113088Y0035550D01*
X0112577Y0035550D02*
X0112577Y0040150D01*
X0113088Y0040150D02*
X0112066Y0040150D01*
X0110255Y0038872D02*
X0110255Y0036828D01*
X0110253Y0036758D01*
X0110247Y0036687D01*
X0110238Y0036618D01*
X0110224Y0036549D01*
X0110207Y0036480D01*
X0110186Y0036413D01*
X0110161Y0036347D01*
X0110133Y0036283D01*
X0110101Y0036220D01*
X0110066Y0036159D01*
X0110027Y0036100D01*
X0109986Y0036043D01*
X0109941Y0035989D01*
X0109893Y0035937D01*
X0109843Y0035888D01*
X0109789Y0035841D01*
X0109734Y0035798D01*
X0109676Y0035758D01*
X0109616Y0035721D01*
X0109554Y0035688D01*
X0109490Y0035658D01*
X0109425Y0035631D01*
X0109359Y0035608D01*
X0109291Y0035589D01*
X0109222Y0035574D01*
X0109153Y0035562D01*
X0109083Y0035554D01*
X0109012Y0035550D01*
X0108942Y0035550D01*
X0108871Y0035554D01*
X0108801Y0035562D01*
X0108732Y0035574D01*
X0108663Y0035589D01*
X0108595Y0035608D01*
X0108529Y0035631D01*
X0108464Y0035658D01*
X0108400Y0035688D01*
X0108338Y0035721D01*
X0108278Y0035758D01*
X0108220Y0035798D01*
X0108165Y0035841D01*
X0108111Y0035888D01*
X0108061Y0035937D01*
X0108013Y0035989D01*
X0107968Y0036043D01*
X0107927Y0036100D01*
X0107888Y0036159D01*
X0107853Y0036220D01*
X0107821Y0036283D01*
X0107793Y0036347D01*
X0107768Y0036413D01*
X0107747Y0036480D01*
X0107730Y0036549D01*
X0107716Y0036618D01*
X0107707Y0036687D01*
X0107701Y0036758D01*
X0107699Y0036828D01*
X0107700Y0036828D02*
X0107700Y0038872D01*
X0107699Y0038872D02*
X0107701Y0038942D01*
X0107707Y0039013D01*
X0107716Y0039082D01*
X0107730Y0039151D01*
X0107747Y0039220D01*
X0107768Y0039287D01*
X0107793Y0039353D01*
X0107821Y0039417D01*
X0107853Y0039480D01*
X0107888Y0039541D01*
X0107927Y0039600D01*
X0107968Y0039657D01*
X0108013Y0039711D01*
X0108061Y0039763D01*
X0108111Y0039812D01*
X0108165Y0039859D01*
X0108220Y0039902D01*
X0108278Y0039942D01*
X0108338Y0039979D01*
X0108400Y0040012D01*
X0108464Y0040042D01*
X0108529Y0040069D01*
X0108595Y0040092D01*
X0108663Y0040111D01*
X0108732Y0040126D01*
X0108801Y0040138D01*
X0108871Y0040146D01*
X0108942Y0040150D01*
X0109012Y0040150D01*
X0109083Y0040146D01*
X0109153Y0040138D01*
X0109222Y0040126D01*
X0109291Y0040111D01*
X0109359Y0040092D01*
X0109425Y0040069D01*
X0109490Y0040042D01*
X0109554Y0040012D01*
X0109616Y0039979D01*
X0109676Y0039942D01*
X0109734Y0039902D01*
X0109789Y0039859D01*
X0109843Y0039812D01*
X0109893Y0039763D01*
X0109941Y0039711D01*
X0109986Y0039657D01*
X0110027Y0039600D01*
X0110066Y0039541D01*
X0110101Y0039480D01*
X0110133Y0039417D01*
X0110161Y0039353D01*
X0110186Y0039287D01*
X0110207Y0039220D01*
X0110224Y0039151D01*
X0110238Y0039082D01*
X0110247Y0039013D01*
X0110253Y0038942D01*
X0110255Y0038872D01*
X0115050Y0038872D02*
X0115050Y0036828D01*
X0115049Y0036828D02*
X0115051Y0036759D01*
X0115056Y0036690D01*
X0115066Y0036621D01*
X0115079Y0036553D01*
X0115096Y0036486D01*
X0115116Y0036420D01*
X0115140Y0036355D01*
X0115167Y0036291D01*
X0115198Y0036229D01*
X0115232Y0036169D01*
X0115269Y0036111D01*
X0115310Y0036055D01*
X0115353Y0036001D01*
X0115399Y0035949D01*
X0115448Y0035900D01*
X0115500Y0035854D01*
X0115554Y0035811D01*
X0115610Y0035770D01*
X0115668Y0035733D01*
X0115728Y0035699D01*
X0115790Y0035668D01*
X0115854Y0035641D01*
X0115919Y0035617D01*
X0115985Y0035597D01*
X0116052Y0035580D01*
X0116120Y0035567D01*
X0116189Y0035557D01*
X0116258Y0035552D01*
X0116327Y0035550D01*
X0117605Y0035550D01*
X0117605Y0040150D01*
X0116327Y0040150D01*
X0116258Y0040148D01*
X0116189Y0040143D01*
X0116120Y0040133D01*
X0116052Y0040120D01*
X0115985Y0040103D01*
X0115919Y0040083D01*
X0115854Y0040059D01*
X0115790Y0040032D01*
X0115728Y0040001D01*
X0115668Y0039967D01*
X0115610Y0039930D01*
X0115554Y0039889D01*
X0115500Y0039846D01*
X0115448Y0039800D01*
X0115399Y0039751D01*
X0115353Y0039699D01*
X0115310Y0039645D01*
X0115269Y0039589D01*
X0115232Y0039531D01*
X0115198Y0039471D01*
X0115167Y0039409D01*
X0115140Y0039345D01*
X0115116Y0039280D01*
X0115096Y0039214D01*
X0115079Y0039147D01*
X0115066Y0039079D01*
X0115056Y0039010D01*
X0115051Y0038941D01*
X0115049Y0038872D01*
X0115050Y0045550D02*
X0116583Y0045550D01*
X0116645Y0045552D01*
X0116706Y0045557D01*
X0116767Y0045567D01*
X0116828Y0045580D01*
X0116887Y0045596D01*
X0116945Y0045616D01*
X0117002Y0045640D01*
X0117058Y0045667D01*
X0117112Y0045697D01*
X0117164Y0045731D01*
X0117213Y0045767D01*
X0117261Y0045807D01*
X0117306Y0045849D01*
X0117348Y0045894D01*
X0117388Y0045942D01*
X0117424Y0045991D01*
X0117458Y0046043D01*
X0117488Y0046097D01*
X0117515Y0046153D01*
X0117539Y0046210D01*
X0117559Y0046268D01*
X0117575Y0046327D01*
X0117588Y0046388D01*
X0117598Y0046449D01*
X0117603Y0046510D01*
X0117605Y0046572D01*
X0117605Y0049128D01*
X0117603Y0049190D01*
X0117598Y0049251D01*
X0117588Y0049312D01*
X0117575Y0049373D01*
X0117559Y0049432D01*
X0117539Y0049490D01*
X0117515Y0049547D01*
X0117488Y0049603D01*
X0117458Y0049657D01*
X0117424Y0049709D01*
X0117388Y0049758D01*
X0117348Y0049806D01*
X0117306Y0049851D01*
X0117261Y0049893D01*
X0117213Y0049933D01*
X0117164Y0049969D01*
X0117112Y0050003D01*
X0117058Y0050033D01*
X0117002Y0050060D01*
X0116945Y0050084D01*
X0116887Y0050104D01*
X0116828Y0050120D01*
X0116767Y0050133D01*
X0116706Y0050143D01*
X0116645Y0050148D01*
X0116583Y0050150D01*
X0115050Y0050150D01*
X0112805Y0050150D02*
X0110250Y0045550D01*
X0110250Y0050150D01*
X0108005Y0050150D02*
X0106727Y0050150D01*
X0106658Y0050148D01*
X0106589Y0050143D01*
X0106520Y0050133D01*
X0106452Y0050120D01*
X0106385Y0050103D01*
X0106319Y0050083D01*
X0106254Y0050059D01*
X0106190Y0050032D01*
X0106128Y0050001D01*
X0106068Y0049967D01*
X0106010Y0049930D01*
X0105954Y0049889D01*
X0105900Y0049846D01*
X0105848Y0049800D01*
X0105799Y0049751D01*
X0105753Y0049699D01*
X0105710Y0049645D01*
X0105669Y0049589D01*
X0105632Y0049531D01*
X0105598Y0049471D01*
X0105567Y0049409D01*
X0105540Y0049345D01*
X0105516Y0049280D01*
X0105496Y0049214D01*
X0105479Y0049147D01*
X0105466Y0049079D01*
X0105456Y0049010D01*
X0105451Y0048941D01*
X0105449Y0048872D01*
X0105450Y0048872D02*
X0105450Y0046828D01*
X0105449Y0046828D02*
X0105451Y0046759D01*
X0105456Y0046690D01*
X0105466Y0046621D01*
X0105479Y0046553D01*
X0105496Y0046486D01*
X0105516Y0046420D01*
X0105540Y0046355D01*
X0105567Y0046291D01*
X0105598Y0046229D01*
X0105632Y0046169D01*
X0105669Y0046111D01*
X0105710Y0046055D01*
X0105753Y0046001D01*
X0105799Y0045949D01*
X0105848Y0045900D01*
X0105900Y0045854D01*
X0105954Y0045811D01*
X0106010Y0045770D01*
X0106068Y0045733D01*
X0106128Y0045699D01*
X0106190Y0045668D01*
X0106254Y0045641D01*
X0106319Y0045617D01*
X0106385Y0045597D01*
X0106452Y0045580D01*
X0106520Y0045567D01*
X0106589Y0045557D01*
X0106658Y0045552D01*
X0106727Y0045550D01*
X0108005Y0045550D01*
X0108005Y0050150D01*
X0112805Y0050150D02*
X0112805Y0045550D01*
X0115050Y0045550D02*
X0115050Y0048106D01*
X0115816Y0048106D01*
X0115561Y0055550D02*
X0116583Y0055550D01*
X0116645Y0055552D01*
X0116706Y0055557D01*
X0116767Y0055567D01*
X0116828Y0055580D01*
X0116887Y0055596D01*
X0116945Y0055616D01*
X0117002Y0055640D01*
X0117058Y0055667D01*
X0117112Y0055697D01*
X0117164Y0055731D01*
X0117213Y0055767D01*
X0117261Y0055807D01*
X0117306Y0055849D01*
X0117348Y0055894D01*
X0117388Y0055942D01*
X0117424Y0055991D01*
X0117458Y0056043D01*
X0117488Y0056097D01*
X0117515Y0056153D01*
X0117539Y0056210D01*
X0117559Y0056268D01*
X0117575Y0056327D01*
X0117588Y0056388D01*
X0117598Y0056449D01*
X0117603Y0056510D01*
X0117605Y0056572D01*
X0117605Y0059128D01*
X0117603Y0059190D01*
X0117598Y0059251D01*
X0117588Y0059312D01*
X0117575Y0059373D01*
X0117559Y0059432D01*
X0117539Y0059490D01*
X0117515Y0059547D01*
X0117488Y0059603D01*
X0117458Y0059657D01*
X0117424Y0059709D01*
X0117388Y0059758D01*
X0117348Y0059806D01*
X0117306Y0059851D01*
X0117261Y0059893D01*
X0117213Y0059933D01*
X0117164Y0059969D01*
X0117112Y0060003D01*
X0117058Y0060033D01*
X0117002Y0060060D01*
X0116945Y0060084D01*
X0116887Y0060104D01*
X0116828Y0060120D01*
X0116767Y0060133D01*
X0116706Y0060143D01*
X0116645Y0060148D01*
X0116583Y0060150D01*
X0115561Y0060150D01*
X0113683Y0060150D02*
X0113683Y0055550D01*
X0111639Y0055550D01*
X0109725Y0055550D02*
X0109725Y0060150D01*
X0107170Y0060150D02*
X0109725Y0057339D01*
X0108703Y0058361D02*
X0107170Y0055550D01*
X0106772Y0065550D02*
X0105238Y0070150D01*
X0103550Y0070150D02*
X0102016Y0070150D01*
X0101953Y0070148D01*
X0101890Y0070142D01*
X0101828Y0070133D01*
X0101767Y0070119D01*
X0101706Y0070102D01*
X0101647Y0070081D01*
X0101589Y0070056D01*
X0101532Y0070028D01*
X0101478Y0069997D01*
X0101426Y0069962D01*
X0101375Y0069924D01*
X0101327Y0069883D01*
X0101282Y0069839D01*
X0101240Y0069793D01*
X0101200Y0069744D01*
X0101164Y0069693D01*
X0101131Y0069639D01*
X0101101Y0069584D01*
X0101075Y0069526D01*
X0101052Y0069468D01*
X0101033Y0069408D01*
X0101018Y0069347D01*
X0101006Y0069285D01*
X0100998Y0069222D01*
X0100994Y0069159D01*
X0100994Y0069097D01*
X0100998Y0069034D01*
X0101006Y0068971D01*
X0101018Y0068909D01*
X0101033Y0068848D01*
X0101052Y0068788D01*
X0101075Y0068730D01*
X0101101Y0068672D01*
X0101131Y0068617D01*
X0101164Y0068563D01*
X0101200Y0068512D01*
X0101240Y0068463D01*
X0101282Y0068417D01*
X0101327Y0068373D01*
X0101375Y0068332D01*
X0101426Y0068294D01*
X0101478Y0068259D01*
X0101532Y0068228D01*
X0101589Y0068200D01*
X0101647Y0068175D01*
X0101706Y0068154D01*
X0101767Y0068137D01*
X0101828Y0068123D01*
X0101890Y0068114D01*
X0101953Y0068108D01*
X0102016Y0068106D01*
X0103038Y0068106D01*
X0102272Y0068106D02*
X0102202Y0068104D01*
X0102131Y0068098D01*
X0102062Y0068089D01*
X0101993Y0068075D01*
X0101924Y0068058D01*
X0101857Y0068037D01*
X0101791Y0068012D01*
X0101727Y0067984D01*
X0101664Y0067952D01*
X0101603Y0067917D01*
X0101544Y0067878D01*
X0101487Y0067837D01*
X0101433Y0067792D01*
X0101381Y0067744D01*
X0101332Y0067694D01*
X0101285Y0067640D01*
X0101242Y0067585D01*
X0101202Y0067527D01*
X0101165Y0067467D01*
X0101132Y0067405D01*
X0101102Y0067341D01*
X0101075Y0067276D01*
X0101052Y0067210D01*
X0101033Y0067142D01*
X0101018Y0067073D01*
X0101006Y0067004D01*
X0100998Y0066934D01*
X0100994Y0066863D01*
X0100994Y0066793D01*
X0100998Y0066722D01*
X0101006Y0066652D01*
X0101018Y0066583D01*
X0101033Y0066514D01*
X0101052Y0066446D01*
X0101075Y0066380D01*
X0101102Y0066315D01*
X0101132Y0066251D01*
X0101165Y0066189D01*
X0101202Y0066129D01*
X0101242Y0066071D01*
X0101285Y0066016D01*
X0101332Y0065962D01*
X0101381Y0065912D01*
X0101433Y0065864D01*
X0101487Y0065819D01*
X0101544Y0065778D01*
X0101603Y0065739D01*
X0101664Y0065704D01*
X0101727Y0065672D01*
X0101791Y0065644D01*
X0101857Y0065619D01*
X0101924Y0065598D01*
X0101993Y0065581D01*
X0102062Y0065567D01*
X0102131Y0065558D01*
X0102202Y0065552D01*
X0102272Y0065550D01*
X0103550Y0065550D01*
X0106772Y0065550D02*
X0108305Y0070150D01*
X0111016Y0070150D02*
X0112550Y0070150D01*
X0111016Y0070150D02*
X0110953Y0070148D01*
X0110890Y0070142D01*
X0110828Y0070133D01*
X0110767Y0070119D01*
X0110706Y0070102D01*
X0110647Y0070081D01*
X0110589Y0070056D01*
X0110532Y0070028D01*
X0110478Y0069997D01*
X0110426Y0069962D01*
X0110375Y0069924D01*
X0110327Y0069883D01*
X0110282Y0069839D01*
X0110240Y0069793D01*
X0110200Y0069744D01*
X0110164Y0069693D01*
X0110131Y0069639D01*
X0110101Y0069584D01*
X0110075Y0069526D01*
X0110052Y0069468D01*
X0110033Y0069408D01*
X0110018Y0069347D01*
X0110006Y0069285D01*
X0109998Y0069222D01*
X0109994Y0069159D01*
X0109994Y0069097D01*
X0109998Y0069034D01*
X0110006Y0068971D01*
X0110018Y0068909D01*
X0110033Y0068848D01*
X0110052Y0068788D01*
X0110075Y0068730D01*
X0110101Y0068672D01*
X0110131Y0068617D01*
X0110164Y0068563D01*
X0110200Y0068512D01*
X0110240Y0068463D01*
X0110282Y0068417D01*
X0110327Y0068373D01*
X0110375Y0068332D01*
X0110426Y0068294D01*
X0110478Y0068259D01*
X0110532Y0068228D01*
X0110589Y0068200D01*
X0110647Y0068175D01*
X0110706Y0068154D01*
X0110767Y0068137D01*
X0110828Y0068123D01*
X0110890Y0068114D01*
X0110953Y0068108D01*
X0111016Y0068106D01*
X0112038Y0068106D01*
X0111272Y0068106D02*
X0111202Y0068104D01*
X0111131Y0068098D01*
X0111062Y0068089D01*
X0110993Y0068075D01*
X0110924Y0068058D01*
X0110857Y0068037D01*
X0110791Y0068012D01*
X0110727Y0067984D01*
X0110664Y0067952D01*
X0110603Y0067917D01*
X0110544Y0067878D01*
X0110487Y0067837D01*
X0110433Y0067792D01*
X0110381Y0067744D01*
X0110332Y0067694D01*
X0110285Y0067640D01*
X0110242Y0067585D01*
X0110202Y0067527D01*
X0110165Y0067467D01*
X0110132Y0067405D01*
X0110102Y0067341D01*
X0110075Y0067276D01*
X0110052Y0067210D01*
X0110033Y0067142D01*
X0110018Y0067073D01*
X0110006Y0067004D01*
X0109998Y0066934D01*
X0109994Y0066863D01*
X0109994Y0066793D01*
X0109998Y0066722D01*
X0110006Y0066652D01*
X0110018Y0066583D01*
X0110033Y0066514D01*
X0110052Y0066446D01*
X0110075Y0066380D01*
X0110102Y0066315D01*
X0110132Y0066251D01*
X0110165Y0066189D01*
X0110202Y0066129D01*
X0110242Y0066071D01*
X0110285Y0066016D01*
X0110332Y0065962D01*
X0110381Y0065912D01*
X0110433Y0065864D01*
X0110487Y0065819D01*
X0110544Y0065778D01*
X0110603Y0065739D01*
X0110664Y0065704D01*
X0110727Y0065672D01*
X0110791Y0065644D01*
X0110857Y0065619D01*
X0110924Y0065598D01*
X0110993Y0065581D01*
X0111062Y0065567D01*
X0111131Y0065558D01*
X0111202Y0065552D01*
X0111272Y0065550D01*
X0112550Y0065550D01*
X0116072Y0065806D02*
X0116072Y0068872D01*
X0117605Y0067339D02*
X0114538Y0067339D01*
X0123188Y0073689D02*
X0122422Y0075094D01*
X0120506Y0074583D02*
X0120508Y0074493D01*
X0120513Y0074404D01*
X0120523Y0074315D01*
X0120536Y0074226D01*
X0120552Y0074138D01*
X0120573Y0074050D01*
X0120597Y0073964D01*
X0120624Y0073878D01*
X0120655Y0073794D01*
X0120690Y0073711D01*
X0120728Y0073630D01*
X0120769Y0073550D01*
X0120813Y0073473D01*
X0120861Y0073397D01*
X0120912Y0073323D01*
X0120966Y0073251D01*
X0121023Y0073182D01*
X0121082Y0073114D01*
X0121145Y0073050D01*
X0122421Y0075094D02*
X0122387Y0075148D01*
X0122350Y0075199D01*
X0122310Y0075248D01*
X0122267Y0075295D01*
X0122221Y0075338D01*
X0122173Y0075379D01*
X0122122Y0075417D01*
X0122069Y0075452D01*
X0122014Y0075484D01*
X0121957Y0075512D01*
X0121899Y0075536D01*
X0121839Y0075557D01*
X0121778Y0075574D01*
X0121716Y0075588D01*
X0121653Y0075597D01*
X0121590Y0075603D01*
X0121527Y0075605D01*
X0121465Y0075603D01*
X0121404Y0075598D01*
X0121343Y0075588D01*
X0121282Y0075575D01*
X0121223Y0075559D01*
X0121165Y0075539D01*
X0121108Y0075515D01*
X0121052Y0075488D01*
X0120998Y0075458D01*
X0120946Y0075424D01*
X0120897Y0075388D01*
X0120849Y0075348D01*
X0120804Y0075306D01*
X0120762Y0075261D01*
X0120722Y0075213D01*
X0120686Y0075164D01*
X0120652Y0075112D01*
X0120622Y0075058D01*
X0120595Y0075002D01*
X0120571Y0074945D01*
X0120551Y0074887D01*
X0120535Y0074828D01*
X0120522Y0074767D01*
X0120512Y0074706D01*
X0120507Y0074645D01*
X0120505Y0074583D01*
X0124722Y0075350D02*
X0124770Y0075283D01*
X0124815Y0075215D01*
X0124857Y0075144D01*
X0124895Y0075071D01*
X0124931Y0074997D01*
X0124964Y0074922D01*
X0124993Y0074845D01*
X0125019Y0074767D01*
X0125042Y0074688D01*
X0125061Y0074608D01*
X0125077Y0074527D01*
X0125089Y0074446D01*
X0125098Y0074364D01*
X0125103Y0074282D01*
X0125105Y0074200D01*
X0125103Y0074138D01*
X0125098Y0074077D01*
X0125088Y0074016D01*
X0125075Y0073955D01*
X0125059Y0073896D01*
X0125039Y0073838D01*
X0125015Y0073781D01*
X0124988Y0073725D01*
X0124958Y0073671D01*
X0124924Y0073619D01*
X0124888Y0073570D01*
X0124848Y0073522D01*
X0124806Y0073477D01*
X0124761Y0073435D01*
X0124713Y0073396D01*
X0124664Y0073359D01*
X0124612Y0073325D01*
X0124558Y0073295D01*
X0124502Y0073268D01*
X0124445Y0073244D01*
X0124387Y0073224D01*
X0124328Y0073208D01*
X0124267Y0073195D01*
X0124206Y0073185D01*
X0124145Y0073180D01*
X0124083Y0073178D01*
X0124020Y0073180D01*
X0123957Y0073186D01*
X0123894Y0073195D01*
X0123832Y0073209D01*
X0123771Y0073226D01*
X0123711Y0073247D01*
X0123653Y0073271D01*
X0123596Y0073299D01*
X0123541Y0073331D01*
X0123488Y0073366D01*
X0123437Y0073404D01*
X0123389Y0073445D01*
X0123343Y0073488D01*
X0123300Y0073535D01*
X0123260Y0073584D01*
X0123223Y0073635D01*
X0123189Y0073689D01*
X0128005Y0074328D02*
X0128005Y0073050D01*
X0132605Y0073050D01*
X0132605Y0074328D01*
X0132603Y0074397D01*
X0132598Y0074466D01*
X0132588Y0074535D01*
X0132575Y0074603D01*
X0132558Y0074670D01*
X0132538Y0074736D01*
X0132514Y0074801D01*
X0132487Y0074865D01*
X0132456Y0074927D01*
X0132422Y0074987D01*
X0132385Y0075045D01*
X0132344Y0075101D01*
X0132301Y0075155D01*
X0132255Y0075207D01*
X0132206Y0075256D01*
X0132154Y0075302D01*
X0132100Y0075345D01*
X0132044Y0075386D01*
X0131986Y0075423D01*
X0131926Y0075457D01*
X0131864Y0075488D01*
X0131800Y0075515D01*
X0131735Y0075539D01*
X0131669Y0075559D01*
X0131602Y0075576D01*
X0131534Y0075589D01*
X0131465Y0075599D01*
X0131396Y0075604D01*
X0131327Y0075606D01*
X0129283Y0075606D01*
X0129214Y0075604D01*
X0129145Y0075599D01*
X0129076Y0075589D01*
X0129008Y0075576D01*
X0128941Y0075559D01*
X0128875Y0075539D01*
X0128810Y0075515D01*
X0128746Y0075488D01*
X0128684Y0075457D01*
X0128624Y0075423D01*
X0128566Y0075386D01*
X0128510Y0075345D01*
X0128456Y0075302D01*
X0128404Y0075256D01*
X0128355Y0075207D01*
X0128309Y0075155D01*
X0128266Y0075101D01*
X0128225Y0075045D01*
X0128188Y0074987D01*
X0128154Y0074927D01*
X0128123Y0074865D01*
X0128096Y0074801D01*
X0128072Y0074736D01*
X0128052Y0074670D01*
X0128035Y0074603D01*
X0128022Y0074535D01*
X0128012Y0074466D01*
X0128007Y0074397D01*
X0128005Y0074328D01*
X0128005Y0077917D02*
X0132605Y0077917D01*
X0132605Y0079194D01*
X0132603Y0079257D01*
X0132597Y0079320D01*
X0132588Y0079382D01*
X0132574Y0079443D01*
X0132557Y0079504D01*
X0132536Y0079563D01*
X0132511Y0079621D01*
X0132483Y0079678D01*
X0132452Y0079732D01*
X0132417Y0079784D01*
X0132379Y0079835D01*
X0132338Y0079883D01*
X0132294Y0079928D01*
X0132248Y0079970D01*
X0132199Y0080010D01*
X0132148Y0080046D01*
X0132094Y0080079D01*
X0132039Y0080109D01*
X0131981Y0080135D01*
X0131923Y0080158D01*
X0131863Y0080177D01*
X0131802Y0080192D01*
X0131740Y0080204D01*
X0131677Y0080212D01*
X0131614Y0080216D01*
X0131552Y0080216D01*
X0131489Y0080212D01*
X0131426Y0080204D01*
X0131364Y0080192D01*
X0131303Y0080177D01*
X0131243Y0080158D01*
X0131185Y0080135D01*
X0131127Y0080109D01*
X0131072Y0080079D01*
X0131018Y0080046D01*
X0130967Y0080010D01*
X0130918Y0079970D01*
X0130872Y0079928D01*
X0130828Y0079883D01*
X0130787Y0079835D01*
X0130749Y0079784D01*
X0130714Y0079732D01*
X0130683Y0079678D01*
X0130655Y0079621D01*
X0130630Y0079563D01*
X0130609Y0079504D01*
X0130592Y0079443D01*
X0130578Y0079382D01*
X0130569Y0079320D01*
X0130563Y0079257D01*
X0130561Y0079194D01*
X0130561Y0077917D01*
X0128005Y0077917D02*
X0128005Y0079194D01*
X0128007Y0079264D01*
X0128013Y0079335D01*
X0128022Y0079404D01*
X0128036Y0079473D01*
X0128053Y0079542D01*
X0128074Y0079609D01*
X0128099Y0079675D01*
X0128127Y0079739D01*
X0128159Y0079802D01*
X0128194Y0079863D01*
X0128233Y0079922D01*
X0128274Y0079979D01*
X0128319Y0080033D01*
X0128367Y0080085D01*
X0128417Y0080134D01*
X0128471Y0080181D01*
X0128526Y0080224D01*
X0128584Y0080264D01*
X0128644Y0080301D01*
X0128706Y0080334D01*
X0128770Y0080364D01*
X0128835Y0080391D01*
X0128901Y0080414D01*
X0128969Y0080433D01*
X0129038Y0080448D01*
X0129107Y0080460D01*
X0129177Y0080468D01*
X0129248Y0080472D01*
X0129318Y0080472D01*
X0129389Y0080468D01*
X0129459Y0080460D01*
X0129528Y0080448D01*
X0129597Y0080433D01*
X0129665Y0080414D01*
X0129731Y0080391D01*
X0129796Y0080364D01*
X0129860Y0080334D01*
X0129922Y0080301D01*
X0129982Y0080264D01*
X0130040Y0080224D01*
X0130095Y0080181D01*
X0130149Y0080134D01*
X0130199Y0080085D01*
X0130247Y0080033D01*
X0130292Y0079979D01*
X0130333Y0079922D01*
X0130372Y0079863D01*
X0130407Y0079802D01*
X0130439Y0079739D01*
X0130467Y0079675D01*
X0130492Y0079609D01*
X0130513Y0079542D01*
X0130530Y0079473D01*
X0130544Y0079404D01*
X0130553Y0079335D01*
X0130559Y0079264D01*
X0130561Y0079194D01*
X0125105Y0077233D02*
X0120505Y0078256D01*
X0123572Y0079278D01*
X0120505Y0080300D01*
X0125105Y0081322D01*
X0129027Y0082350D02*
X0131583Y0082350D01*
X0131645Y0082352D01*
X0131706Y0082357D01*
X0131767Y0082367D01*
X0131828Y0082380D01*
X0131887Y0082396D01*
X0131945Y0082416D01*
X0132002Y0082440D01*
X0132058Y0082467D01*
X0132112Y0082497D01*
X0132164Y0082531D01*
X0132213Y0082567D01*
X0132261Y0082607D01*
X0132306Y0082649D01*
X0132348Y0082694D01*
X0132387Y0082742D01*
X0132424Y0082791D01*
X0132458Y0082843D01*
X0132488Y0082897D01*
X0132515Y0082953D01*
X0132539Y0083010D01*
X0132559Y0083068D01*
X0132575Y0083127D01*
X0132588Y0083188D01*
X0132598Y0083249D01*
X0132603Y0083310D01*
X0132605Y0083372D01*
X0132605Y0084906D01*
X0130561Y0084906D02*
X0130561Y0084139D01*
X0130561Y0084906D02*
X0128005Y0084906D01*
X0128005Y0083372D01*
X0128007Y0083310D01*
X0128012Y0083249D01*
X0128022Y0083188D01*
X0128035Y0083127D01*
X0128051Y0083068D01*
X0128071Y0083010D01*
X0128095Y0082953D01*
X0128122Y0082897D01*
X0128152Y0082843D01*
X0128186Y0082791D01*
X0128222Y0082742D01*
X0128262Y0082694D01*
X0128304Y0082649D01*
X0128349Y0082607D01*
X0128397Y0082567D01*
X0128446Y0082531D01*
X0128498Y0082497D01*
X0128552Y0082467D01*
X0128608Y0082440D01*
X0128665Y0082416D01*
X0128723Y0082396D01*
X0128782Y0082380D01*
X0128843Y0082367D01*
X0128904Y0082357D01*
X0128965Y0082352D01*
X0129027Y0082350D01*
X0125105Y0083250D02*
X0125105Y0084528D01*
X0125103Y0084597D01*
X0125098Y0084666D01*
X0125088Y0084735D01*
X0125075Y0084803D01*
X0125058Y0084870D01*
X0125038Y0084936D01*
X0125014Y0085001D01*
X0124987Y0085065D01*
X0124956Y0085127D01*
X0124922Y0085187D01*
X0124885Y0085245D01*
X0124844Y0085301D01*
X0124801Y0085355D01*
X0124755Y0085407D01*
X0124706Y0085456D01*
X0124654Y0085502D01*
X0124600Y0085545D01*
X0124544Y0085586D01*
X0124486Y0085623D01*
X0124426Y0085657D01*
X0124364Y0085688D01*
X0124300Y0085715D01*
X0124235Y0085739D01*
X0124169Y0085759D01*
X0124102Y0085776D01*
X0124034Y0085789D01*
X0123965Y0085799D01*
X0123896Y0085804D01*
X0123827Y0085806D01*
X0121783Y0085806D01*
X0121714Y0085804D01*
X0121645Y0085799D01*
X0121576Y0085789D01*
X0121508Y0085776D01*
X0121441Y0085759D01*
X0121375Y0085739D01*
X0121310Y0085715D01*
X0121246Y0085688D01*
X0121184Y0085657D01*
X0121124Y0085623D01*
X0121066Y0085586D01*
X0121010Y0085545D01*
X0120956Y0085502D01*
X0120904Y0085456D01*
X0120855Y0085407D01*
X0120809Y0085355D01*
X0120766Y0085301D01*
X0120725Y0085245D01*
X0120688Y0085187D01*
X0120654Y0085127D01*
X0120623Y0085065D01*
X0120596Y0085001D01*
X0120572Y0084936D01*
X0120552Y0084870D01*
X0120535Y0084803D01*
X0120522Y0084735D01*
X0120512Y0084666D01*
X0120507Y0084597D01*
X0120505Y0084528D01*
X0120505Y0083250D01*
X0125105Y0083250D01*
X0135505Y0070150D02*
X0138572Y0065550D01*
X0140232Y0065550D02*
X0141254Y0067594D01*
X0141509Y0067594D02*
X0142787Y0067594D01*
X0141509Y0067594D02*
X0141439Y0067596D01*
X0141368Y0067602D01*
X0141299Y0067611D01*
X0141230Y0067625D01*
X0141161Y0067642D01*
X0141094Y0067663D01*
X0141028Y0067688D01*
X0140964Y0067716D01*
X0140901Y0067748D01*
X0140840Y0067783D01*
X0140781Y0067822D01*
X0140724Y0067863D01*
X0140670Y0067908D01*
X0140618Y0067956D01*
X0140569Y0068006D01*
X0140522Y0068060D01*
X0140479Y0068115D01*
X0140439Y0068173D01*
X0140402Y0068233D01*
X0140369Y0068295D01*
X0140339Y0068359D01*
X0140312Y0068424D01*
X0140289Y0068490D01*
X0140270Y0068558D01*
X0140255Y0068627D01*
X0140243Y0068696D01*
X0140235Y0068766D01*
X0140231Y0068837D01*
X0140231Y0068907D01*
X0140235Y0068978D01*
X0140243Y0069048D01*
X0140255Y0069117D01*
X0140270Y0069186D01*
X0140289Y0069254D01*
X0140312Y0069320D01*
X0140339Y0069385D01*
X0140369Y0069449D01*
X0140402Y0069511D01*
X0140439Y0069571D01*
X0140479Y0069629D01*
X0140522Y0069684D01*
X0140569Y0069738D01*
X0140618Y0069788D01*
X0140670Y0069836D01*
X0140724Y0069881D01*
X0140781Y0069922D01*
X0140840Y0069961D01*
X0140901Y0069996D01*
X0140964Y0070028D01*
X0141028Y0070056D01*
X0141094Y0070081D01*
X0141161Y0070102D01*
X0141230Y0070119D01*
X0141299Y0070133D01*
X0141368Y0070142D01*
X0141439Y0070148D01*
X0141509Y0070150D01*
X0142787Y0070150D01*
X0142787Y0065550D01*
X0138572Y0070150D02*
X0135505Y0065550D01*
X0136783Y0060150D02*
X0138061Y0060150D01*
X0138061Y0055550D01*
X0136783Y0055550D01*
X0136714Y0055552D01*
X0136645Y0055557D01*
X0136576Y0055567D01*
X0136508Y0055580D01*
X0136441Y0055597D01*
X0136375Y0055617D01*
X0136310Y0055641D01*
X0136246Y0055668D01*
X0136184Y0055699D01*
X0136124Y0055733D01*
X0136066Y0055770D01*
X0136010Y0055811D01*
X0135956Y0055854D01*
X0135904Y0055900D01*
X0135855Y0055949D01*
X0135809Y0056001D01*
X0135766Y0056055D01*
X0135725Y0056111D01*
X0135688Y0056169D01*
X0135654Y0056229D01*
X0135623Y0056291D01*
X0135596Y0056355D01*
X0135572Y0056420D01*
X0135552Y0056486D01*
X0135535Y0056553D01*
X0135522Y0056621D01*
X0135512Y0056690D01*
X0135507Y0056759D01*
X0135505Y0056828D01*
X0135505Y0058872D01*
X0135507Y0058941D01*
X0135512Y0059010D01*
X0135522Y0059079D01*
X0135535Y0059147D01*
X0135552Y0059214D01*
X0135572Y0059280D01*
X0135596Y0059345D01*
X0135623Y0059409D01*
X0135654Y0059471D01*
X0135688Y0059531D01*
X0135725Y0059589D01*
X0135766Y0059645D01*
X0135809Y0059699D01*
X0135855Y0059751D01*
X0135904Y0059800D01*
X0135956Y0059846D01*
X0136010Y0059889D01*
X0136066Y0059930D01*
X0136124Y0059967D01*
X0136184Y0060001D01*
X0136246Y0060032D01*
X0136310Y0060059D01*
X0136375Y0060083D01*
X0136441Y0060103D01*
X0136508Y0060120D01*
X0136576Y0060133D01*
X0136645Y0060143D01*
X0136714Y0060148D01*
X0136783Y0060150D01*
X0140305Y0060150D02*
X0140305Y0055550D01*
X0142861Y0060150D01*
X0142861Y0055550D01*
X0145105Y0055550D02*
X0146638Y0055550D01*
X0146700Y0055552D01*
X0146761Y0055557D01*
X0146822Y0055567D01*
X0146883Y0055580D01*
X0146942Y0055596D01*
X0147000Y0055616D01*
X0147057Y0055640D01*
X0147113Y0055667D01*
X0147167Y0055697D01*
X0147219Y0055731D01*
X0147268Y0055767D01*
X0147316Y0055807D01*
X0147361Y0055849D01*
X0147403Y0055894D01*
X0147443Y0055942D01*
X0147479Y0055991D01*
X0147513Y0056043D01*
X0147543Y0056097D01*
X0147570Y0056153D01*
X0147594Y0056210D01*
X0147614Y0056268D01*
X0147630Y0056327D01*
X0147643Y0056388D01*
X0147653Y0056449D01*
X0147658Y0056510D01*
X0147660Y0056572D01*
X0147661Y0056572D02*
X0147661Y0059128D01*
X0147660Y0059128D02*
X0147658Y0059190D01*
X0147653Y0059251D01*
X0147643Y0059312D01*
X0147630Y0059373D01*
X0147614Y0059432D01*
X0147594Y0059490D01*
X0147570Y0059547D01*
X0147543Y0059603D01*
X0147513Y0059657D01*
X0147479Y0059709D01*
X0147443Y0059758D01*
X0147403Y0059806D01*
X0147361Y0059851D01*
X0147316Y0059893D01*
X0147268Y0059933D01*
X0147219Y0059969D01*
X0147167Y0060003D01*
X0147113Y0060033D01*
X0147057Y0060060D01*
X0147000Y0060084D01*
X0146942Y0060104D01*
X0146883Y0060120D01*
X0146822Y0060133D01*
X0146761Y0060143D01*
X0146700Y0060148D01*
X0146638Y0060150D01*
X0145105Y0060150D01*
X0145105Y0058106D02*
X0145105Y0055550D01*
X0145105Y0058106D02*
X0145872Y0058106D01*
X0142516Y0050150D02*
X0139961Y0050150D01*
X0141238Y0050150D02*
X0141238Y0045550D01*
X0138572Y0045550D02*
X0135505Y0050150D01*
X0138572Y0050150D02*
X0135505Y0045550D01*
M02*
