G75*
%MOIN*%
%OFA0B0*%
%FSLAX25Y25*%
%IPPOS*%
%LPD*%
%AMOC8*
5,1,8,0,0,1.08239X$1,22.5*
%
%ADD10C,0.00000*%
%ADD11C,0.00600*%
%ADD12C,0.00400*%
%ADD13C,0.00300*%
%ADD14C,0.00200*%
%ADD15C,0.00500*%
%ADD16R,0.59055X0.07874*%
%ADD17C,0.00800*%
D10*
X0060305Y0009100D02*
X0060305Y0097683D01*
X0257156Y0097683D01*
X0257156Y0009100D01*
X0060305Y0009100D01*
D11*
X0065238Y0009756D02*
X0065238Y0014022D01*
X0063105Y0011889D02*
X0067372Y0011889D01*
X0067372Y0031889D02*
X0063105Y0031889D01*
X0063105Y0074389D02*
X0067372Y0074389D01*
X0083105Y0088150D02*
X0083105Y0094550D01*
X0084883Y0094550D01*
X0084957Y0094548D01*
X0085032Y0094542D01*
X0085105Y0094532D01*
X0085179Y0094519D01*
X0085251Y0094502D01*
X0085322Y0094480D01*
X0085393Y0094456D01*
X0085461Y0094427D01*
X0085529Y0094395D01*
X0085594Y0094359D01*
X0085657Y0094321D01*
X0085719Y0094278D01*
X0085778Y0094233D01*
X0085835Y0094185D01*
X0085889Y0094134D01*
X0085940Y0094080D01*
X0085988Y0094023D01*
X0086033Y0093964D01*
X0086076Y0093902D01*
X0086114Y0093839D01*
X0086150Y0093774D01*
X0086182Y0093706D01*
X0086211Y0093638D01*
X0086235Y0093567D01*
X0086257Y0093496D01*
X0086274Y0093424D01*
X0086287Y0093350D01*
X0086297Y0093277D01*
X0086303Y0093202D01*
X0086305Y0093128D01*
X0086303Y0093054D01*
X0086297Y0092979D01*
X0086287Y0092906D01*
X0086274Y0092832D01*
X0086257Y0092760D01*
X0086235Y0092689D01*
X0086211Y0092618D01*
X0086182Y0092550D01*
X0086150Y0092482D01*
X0086114Y0092417D01*
X0086076Y0092354D01*
X0086033Y0092292D01*
X0085988Y0092233D01*
X0085940Y0092176D01*
X0085889Y0092122D01*
X0085835Y0092071D01*
X0085778Y0092023D01*
X0085719Y0091978D01*
X0085657Y0091935D01*
X0085594Y0091897D01*
X0085529Y0091861D01*
X0085461Y0091829D01*
X0085393Y0091800D01*
X0085322Y0091776D01*
X0085251Y0091754D01*
X0085179Y0091737D01*
X0085105Y0091724D01*
X0085032Y0091714D01*
X0084957Y0091708D01*
X0084883Y0091706D01*
X0083105Y0091706D01*
X0084883Y0091706D02*
X0084966Y0091704D01*
X0085049Y0091698D01*
X0085132Y0091688D01*
X0085215Y0091675D01*
X0085296Y0091657D01*
X0085377Y0091636D01*
X0085456Y0091611D01*
X0085534Y0091582D01*
X0085611Y0091550D01*
X0085686Y0091514D01*
X0085760Y0091475D01*
X0085831Y0091432D01*
X0085901Y0091386D01*
X0085968Y0091336D01*
X0086033Y0091284D01*
X0086095Y0091229D01*
X0086155Y0091170D01*
X0086212Y0091109D01*
X0086266Y0091046D01*
X0086317Y0090980D01*
X0086364Y0090911D01*
X0086409Y0090841D01*
X0086450Y0090768D01*
X0086487Y0090694D01*
X0086522Y0090618D01*
X0086552Y0090540D01*
X0086579Y0090462D01*
X0086602Y0090381D01*
X0086622Y0090300D01*
X0086637Y0090218D01*
X0086649Y0090136D01*
X0086657Y0090053D01*
X0086661Y0089970D01*
X0086661Y0089886D01*
X0086657Y0089803D01*
X0086649Y0089720D01*
X0086637Y0089638D01*
X0086622Y0089556D01*
X0086602Y0089475D01*
X0086579Y0089394D01*
X0086552Y0089316D01*
X0086522Y0089238D01*
X0086487Y0089162D01*
X0086450Y0089088D01*
X0086409Y0089015D01*
X0086364Y0088945D01*
X0086317Y0088876D01*
X0086266Y0088810D01*
X0086212Y0088747D01*
X0086155Y0088686D01*
X0086095Y0088627D01*
X0086033Y0088572D01*
X0085968Y0088520D01*
X0085901Y0088470D01*
X0085831Y0088424D01*
X0085760Y0088381D01*
X0085686Y0088342D01*
X0085611Y0088306D01*
X0085534Y0088274D01*
X0085456Y0088245D01*
X0085377Y0088220D01*
X0085296Y0088199D01*
X0085215Y0088181D01*
X0085132Y0088168D01*
X0085049Y0088158D01*
X0084966Y0088152D01*
X0084883Y0088150D01*
X0083105Y0088150D01*
X0089188Y0088150D02*
X0092032Y0088150D01*
X0094510Y0088150D02*
X0096287Y0088150D01*
X0094510Y0088150D02*
X0094510Y0094550D01*
X0096287Y0094550D01*
X0096369Y0094548D01*
X0096451Y0094542D01*
X0096533Y0094533D01*
X0096614Y0094520D01*
X0096694Y0094503D01*
X0096774Y0094482D01*
X0096852Y0094458D01*
X0096929Y0094430D01*
X0097005Y0094399D01*
X0097080Y0094364D01*
X0097152Y0094325D01*
X0097223Y0094284D01*
X0097292Y0094239D01*
X0097358Y0094191D01*
X0097423Y0094140D01*
X0097485Y0094086D01*
X0097544Y0094029D01*
X0097601Y0093970D01*
X0097655Y0093908D01*
X0097706Y0093843D01*
X0097754Y0093777D01*
X0097799Y0093708D01*
X0097840Y0093637D01*
X0097879Y0093565D01*
X0097914Y0093490D01*
X0097945Y0093414D01*
X0097973Y0093337D01*
X0097997Y0093259D01*
X0098018Y0093179D01*
X0098035Y0093099D01*
X0098048Y0093018D01*
X0098057Y0092936D01*
X0098063Y0092854D01*
X0098065Y0092772D01*
X0098065Y0089928D01*
X0098063Y0089846D01*
X0098057Y0089764D01*
X0098048Y0089682D01*
X0098035Y0089601D01*
X0098018Y0089521D01*
X0097997Y0089441D01*
X0097973Y0089363D01*
X0097945Y0089286D01*
X0097914Y0089210D01*
X0097879Y0089135D01*
X0097840Y0089063D01*
X0097799Y0088992D01*
X0097754Y0088923D01*
X0097706Y0088857D01*
X0097655Y0088792D01*
X0097601Y0088730D01*
X0097544Y0088671D01*
X0097485Y0088614D01*
X0097423Y0088560D01*
X0097358Y0088509D01*
X0097292Y0088461D01*
X0097223Y0088416D01*
X0097152Y0088375D01*
X0097080Y0088336D01*
X0097005Y0088301D01*
X0096929Y0088270D01*
X0096852Y0088242D01*
X0096774Y0088218D01*
X0096694Y0088197D01*
X0096614Y0088180D01*
X0096533Y0088167D01*
X0096451Y0088158D01*
X0096369Y0088152D01*
X0096287Y0088150D01*
X0100853Y0089572D02*
X0100853Y0093128D01*
X0100855Y0093202D01*
X0100861Y0093277D01*
X0100871Y0093350D01*
X0100884Y0093424D01*
X0100901Y0093496D01*
X0100923Y0093567D01*
X0100947Y0093638D01*
X0100976Y0093706D01*
X0101008Y0093774D01*
X0101044Y0093839D01*
X0101082Y0093902D01*
X0101125Y0093964D01*
X0101170Y0094023D01*
X0101218Y0094079D01*
X0101269Y0094134D01*
X0101323Y0094185D01*
X0101380Y0094233D01*
X0101439Y0094278D01*
X0101501Y0094321D01*
X0101564Y0094359D01*
X0101629Y0094395D01*
X0101697Y0094427D01*
X0101765Y0094456D01*
X0101836Y0094480D01*
X0101907Y0094502D01*
X0101979Y0094519D01*
X0102053Y0094532D01*
X0102126Y0094542D01*
X0102201Y0094548D01*
X0102275Y0094550D01*
X0103698Y0094550D01*
X0109484Y0094550D02*
X0111262Y0094550D01*
X0109484Y0094550D02*
X0109484Y0088150D01*
X0111262Y0088150D01*
X0116027Y0088150D02*
X0116027Y0092417D01*
X0118161Y0092417D01*
X0118161Y0091706D01*
X0120083Y0092417D02*
X0120083Y0088150D01*
X0123775Y0088150D02*
X0125198Y0092417D01*
X0122353Y0092417D02*
X0123775Y0088150D01*
X0127481Y0089217D02*
X0127481Y0090994D01*
X0127481Y0090283D02*
X0130326Y0090283D01*
X0130326Y0090994D01*
X0130324Y0091068D01*
X0130318Y0091143D01*
X0130308Y0091216D01*
X0130295Y0091290D01*
X0130278Y0091362D01*
X0130256Y0091433D01*
X0130232Y0091504D01*
X0130203Y0091572D01*
X0130171Y0091640D01*
X0130135Y0091705D01*
X0130097Y0091768D01*
X0130054Y0091830D01*
X0130009Y0091889D01*
X0129961Y0091946D01*
X0129910Y0092000D01*
X0129856Y0092051D01*
X0129799Y0092099D01*
X0129740Y0092144D01*
X0129678Y0092187D01*
X0129615Y0092225D01*
X0129550Y0092261D01*
X0129482Y0092293D01*
X0129414Y0092322D01*
X0129343Y0092346D01*
X0129272Y0092368D01*
X0129200Y0092385D01*
X0129126Y0092398D01*
X0129053Y0092408D01*
X0128978Y0092414D01*
X0128904Y0092416D01*
X0128830Y0092414D01*
X0128755Y0092408D01*
X0128682Y0092398D01*
X0128608Y0092385D01*
X0128536Y0092368D01*
X0128465Y0092346D01*
X0128394Y0092322D01*
X0128326Y0092293D01*
X0128258Y0092261D01*
X0128193Y0092225D01*
X0128130Y0092187D01*
X0128068Y0092144D01*
X0128009Y0092099D01*
X0127952Y0092051D01*
X0127898Y0092000D01*
X0127847Y0091946D01*
X0127799Y0091889D01*
X0127754Y0091830D01*
X0127711Y0091768D01*
X0127673Y0091705D01*
X0127637Y0091640D01*
X0127605Y0091572D01*
X0127576Y0091504D01*
X0127552Y0091433D01*
X0127530Y0091362D01*
X0127513Y0091290D01*
X0127500Y0091216D01*
X0127490Y0091143D01*
X0127484Y0091068D01*
X0127482Y0090994D01*
X0127481Y0089217D02*
X0127483Y0089153D01*
X0127489Y0089088D01*
X0127498Y0089025D01*
X0127512Y0088962D01*
X0127529Y0088900D01*
X0127550Y0088839D01*
X0127575Y0088779D01*
X0127603Y0088721D01*
X0127635Y0088665D01*
X0127670Y0088611D01*
X0127708Y0088559D01*
X0127749Y0088509D01*
X0127794Y0088463D01*
X0127840Y0088418D01*
X0127890Y0088377D01*
X0127942Y0088339D01*
X0127996Y0088304D01*
X0128052Y0088272D01*
X0128110Y0088244D01*
X0128170Y0088219D01*
X0128231Y0088198D01*
X0128293Y0088181D01*
X0128356Y0088167D01*
X0128419Y0088158D01*
X0128484Y0088152D01*
X0128548Y0088150D01*
X0130326Y0088150D01*
X0133053Y0088150D02*
X0133053Y0092417D01*
X0135187Y0092417D01*
X0135187Y0091706D01*
X0120261Y0094194D02*
X0119905Y0094194D01*
X0119905Y0094550D01*
X0120261Y0094550D01*
X0120261Y0094194D01*
X0113040Y0092772D02*
X0113040Y0089928D01*
X0113038Y0089846D01*
X0113032Y0089764D01*
X0113023Y0089682D01*
X0113010Y0089601D01*
X0112993Y0089521D01*
X0112972Y0089441D01*
X0112948Y0089363D01*
X0112920Y0089286D01*
X0112889Y0089210D01*
X0112854Y0089135D01*
X0112815Y0089063D01*
X0112774Y0088992D01*
X0112729Y0088923D01*
X0112681Y0088857D01*
X0112630Y0088792D01*
X0112576Y0088730D01*
X0112519Y0088671D01*
X0112460Y0088614D01*
X0112398Y0088560D01*
X0112333Y0088509D01*
X0112267Y0088461D01*
X0112198Y0088416D01*
X0112127Y0088375D01*
X0112055Y0088336D01*
X0111980Y0088301D01*
X0111904Y0088270D01*
X0111827Y0088242D01*
X0111749Y0088218D01*
X0111669Y0088197D01*
X0111589Y0088180D01*
X0111508Y0088167D01*
X0111426Y0088158D01*
X0111344Y0088152D01*
X0111262Y0088150D01*
X0103698Y0088150D02*
X0102275Y0088150D01*
X0102201Y0088152D01*
X0102126Y0088158D01*
X0102053Y0088168D01*
X0101979Y0088181D01*
X0101907Y0088198D01*
X0101836Y0088220D01*
X0101765Y0088244D01*
X0101697Y0088273D01*
X0101629Y0088305D01*
X0101564Y0088341D01*
X0101501Y0088379D01*
X0101439Y0088422D01*
X0101380Y0088467D01*
X0101323Y0088515D01*
X0101269Y0088566D01*
X0101218Y0088620D01*
X0101170Y0088677D01*
X0101125Y0088736D01*
X0101082Y0088798D01*
X0101044Y0088861D01*
X0101008Y0088926D01*
X0100976Y0088994D01*
X0100947Y0089062D01*
X0100923Y0089133D01*
X0100901Y0089204D01*
X0100884Y0089276D01*
X0100871Y0089350D01*
X0100861Y0089423D01*
X0100855Y0089498D01*
X0100853Y0089572D01*
X0111262Y0094550D02*
X0111344Y0094548D01*
X0111426Y0094542D01*
X0111508Y0094533D01*
X0111589Y0094520D01*
X0111669Y0094503D01*
X0111749Y0094482D01*
X0111827Y0094458D01*
X0111904Y0094430D01*
X0111980Y0094399D01*
X0112055Y0094364D01*
X0112127Y0094325D01*
X0112198Y0094284D01*
X0112267Y0094239D01*
X0112333Y0094191D01*
X0112398Y0094140D01*
X0112460Y0094086D01*
X0112519Y0094029D01*
X0112576Y0093970D01*
X0112630Y0093908D01*
X0112681Y0093843D01*
X0112729Y0093777D01*
X0112774Y0093708D01*
X0112815Y0093637D01*
X0112854Y0093565D01*
X0112889Y0093490D01*
X0112920Y0093414D01*
X0112948Y0093337D01*
X0112972Y0093259D01*
X0112993Y0093179D01*
X0113010Y0093099D01*
X0113023Y0093018D01*
X0113032Y0092936D01*
X0113038Y0092854D01*
X0113040Y0092772D01*
X0089188Y0094550D02*
X0089188Y0088150D01*
X0067372Y0094389D02*
X0063105Y0094389D01*
X0065238Y0092256D02*
X0065238Y0096522D01*
D12*
X0244255Y0088900D02*
X0244255Y0084300D01*
X0244255Y0086344D02*
X0245533Y0086344D01*
X0245603Y0086346D01*
X0245674Y0086352D01*
X0245743Y0086361D01*
X0245812Y0086375D01*
X0245881Y0086392D01*
X0245948Y0086413D01*
X0246014Y0086438D01*
X0246078Y0086466D01*
X0246141Y0086498D01*
X0246202Y0086533D01*
X0246261Y0086572D01*
X0246318Y0086613D01*
X0246372Y0086658D01*
X0246424Y0086706D01*
X0246473Y0086756D01*
X0246520Y0086810D01*
X0246563Y0086865D01*
X0246603Y0086923D01*
X0246640Y0086983D01*
X0246673Y0087045D01*
X0246703Y0087109D01*
X0246730Y0087174D01*
X0246753Y0087240D01*
X0246772Y0087308D01*
X0246787Y0087377D01*
X0246799Y0087446D01*
X0246807Y0087516D01*
X0246811Y0087587D01*
X0246811Y0087657D01*
X0246807Y0087728D01*
X0246799Y0087798D01*
X0246787Y0087867D01*
X0246772Y0087936D01*
X0246753Y0088004D01*
X0246730Y0088070D01*
X0246703Y0088135D01*
X0246673Y0088199D01*
X0246640Y0088261D01*
X0246603Y0088321D01*
X0246563Y0088379D01*
X0246520Y0088434D01*
X0246473Y0088488D01*
X0246424Y0088538D01*
X0246372Y0088586D01*
X0246318Y0088631D01*
X0246261Y0088672D01*
X0246202Y0088711D01*
X0246141Y0088746D01*
X0246078Y0088778D01*
X0246014Y0088806D01*
X0245948Y0088831D01*
X0245881Y0088852D01*
X0245812Y0088869D01*
X0245743Y0088883D01*
X0245674Y0088892D01*
X0245603Y0088898D01*
X0245533Y0088900D01*
X0244255Y0088900D01*
X0248644Y0088900D02*
X0248644Y0084300D01*
X0250688Y0084300D02*
X0250688Y0086600D01*
X0250689Y0086600D02*
X0250687Y0086655D01*
X0250681Y0086709D01*
X0250671Y0086763D01*
X0250658Y0086816D01*
X0250641Y0086868D01*
X0250620Y0086919D01*
X0250595Y0086968D01*
X0250567Y0087015D01*
X0250536Y0087060D01*
X0250502Y0087102D01*
X0250464Y0087142D01*
X0250424Y0087180D01*
X0250382Y0087214D01*
X0250337Y0087245D01*
X0250290Y0087273D01*
X0250241Y0087298D01*
X0250190Y0087319D01*
X0250138Y0087336D01*
X0250085Y0087349D01*
X0250031Y0087359D01*
X0249977Y0087365D01*
X0249922Y0087367D01*
X0248644Y0087367D01*
X0252738Y0088900D02*
X0254272Y0088900D01*
X0254335Y0088898D01*
X0254398Y0088892D01*
X0254460Y0088883D01*
X0254521Y0088869D01*
X0254582Y0088852D01*
X0254641Y0088831D01*
X0254699Y0088806D01*
X0254756Y0088778D01*
X0254810Y0088747D01*
X0254862Y0088712D01*
X0254913Y0088674D01*
X0254961Y0088633D01*
X0255006Y0088589D01*
X0255048Y0088543D01*
X0255088Y0088494D01*
X0255124Y0088443D01*
X0255157Y0088389D01*
X0255187Y0088334D01*
X0255213Y0088276D01*
X0255236Y0088218D01*
X0255255Y0088158D01*
X0255270Y0088097D01*
X0255282Y0088035D01*
X0255290Y0087972D01*
X0255294Y0087909D01*
X0255294Y0087847D01*
X0255290Y0087784D01*
X0255282Y0087721D01*
X0255270Y0087659D01*
X0255255Y0087598D01*
X0255236Y0087538D01*
X0255213Y0087480D01*
X0255187Y0087422D01*
X0255157Y0087367D01*
X0255124Y0087313D01*
X0255088Y0087262D01*
X0255048Y0087213D01*
X0255006Y0087167D01*
X0254961Y0087123D01*
X0254913Y0087082D01*
X0254862Y0087044D01*
X0254810Y0087009D01*
X0254756Y0086978D01*
X0254699Y0086950D01*
X0254641Y0086925D01*
X0254582Y0086904D01*
X0254521Y0086887D01*
X0254460Y0086873D01*
X0254398Y0086864D01*
X0254335Y0086858D01*
X0254272Y0086856D01*
X0253250Y0086856D01*
X0254016Y0086856D02*
X0254086Y0086854D01*
X0254157Y0086848D01*
X0254226Y0086839D01*
X0254295Y0086825D01*
X0254364Y0086808D01*
X0254431Y0086787D01*
X0254497Y0086762D01*
X0254561Y0086734D01*
X0254624Y0086702D01*
X0254685Y0086667D01*
X0254744Y0086628D01*
X0254801Y0086587D01*
X0254855Y0086542D01*
X0254907Y0086494D01*
X0254956Y0086444D01*
X0255003Y0086390D01*
X0255046Y0086335D01*
X0255086Y0086277D01*
X0255123Y0086217D01*
X0255156Y0086155D01*
X0255186Y0086091D01*
X0255213Y0086026D01*
X0255236Y0085960D01*
X0255255Y0085892D01*
X0255270Y0085823D01*
X0255282Y0085754D01*
X0255290Y0085684D01*
X0255294Y0085613D01*
X0255294Y0085543D01*
X0255290Y0085472D01*
X0255282Y0085402D01*
X0255270Y0085333D01*
X0255255Y0085264D01*
X0255236Y0085196D01*
X0255213Y0085130D01*
X0255186Y0085065D01*
X0255156Y0085001D01*
X0255123Y0084939D01*
X0255086Y0084879D01*
X0255046Y0084821D01*
X0255003Y0084766D01*
X0254956Y0084712D01*
X0254907Y0084662D01*
X0254855Y0084614D01*
X0254801Y0084569D01*
X0254744Y0084528D01*
X0254685Y0084489D01*
X0254624Y0084454D01*
X0254561Y0084422D01*
X0254497Y0084394D01*
X0254431Y0084369D01*
X0254364Y0084348D01*
X0254295Y0084331D01*
X0254226Y0084317D01*
X0254157Y0084308D01*
X0254086Y0084302D01*
X0254016Y0084300D01*
X0252738Y0084300D01*
X0248644Y0061400D02*
X0248644Y0056800D01*
X0250688Y0056800D02*
X0250688Y0059100D01*
X0250689Y0059100D02*
X0250687Y0059155D01*
X0250681Y0059209D01*
X0250671Y0059263D01*
X0250658Y0059316D01*
X0250641Y0059368D01*
X0250620Y0059419D01*
X0250595Y0059468D01*
X0250567Y0059515D01*
X0250536Y0059560D01*
X0250502Y0059602D01*
X0250464Y0059642D01*
X0250424Y0059680D01*
X0250382Y0059714D01*
X0250337Y0059745D01*
X0250290Y0059773D01*
X0250241Y0059798D01*
X0250190Y0059819D01*
X0250138Y0059836D01*
X0250085Y0059849D01*
X0250031Y0059859D01*
X0249977Y0059865D01*
X0249922Y0059867D01*
X0248644Y0059867D01*
X0245533Y0058844D02*
X0245603Y0058846D01*
X0245674Y0058852D01*
X0245743Y0058861D01*
X0245812Y0058875D01*
X0245881Y0058892D01*
X0245948Y0058913D01*
X0246014Y0058938D01*
X0246078Y0058966D01*
X0246141Y0058998D01*
X0246202Y0059033D01*
X0246261Y0059072D01*
X0246318Y0059113D01*
X0246372Y0059158D01*
X0246424Y0059206D01*
X0246473Y0059256D01*
X0246520Y0059310D01*
X0246563Y0059365D01*
X0246603Y0059423D01*
X0246640Y0059483D01*
X0246673Y0059545D01*
X0246703Y0059609D01*
X0246730Y0059674D01*
X0246753Y0059740D01*
X0246772Y0059808D01*
X0246787Y0059877D01*
X0246799Y0059946D01*
X0246807Y0060016D01*
X0246811Y0060087D01*
X0246811Y0060157D01*
X0246807Y0060228D01*
X0246799Y0060298D01*
X0246787Y0060367D01*
X0246772Y0060436D01*
X0246753Y0060504D01*
X0246730Y0060570D01*
X0246703Y0060635D01*
X0246673Y0060699D01*
X0246640Y0060761D01*
X0246603Y0060821D01*
X0246563Y0060879D01*
X0246520Y0060934D01*
X0246473Y0060988D01*
X0246424Y0061038D01*
X0246372Y0061086D01*
X0246318Y0061131D01*
X0246261Y0061172D01*
X0246202Y0061211D01*
X0246141Y0061246D01*
X0246078Y0061278D01*
X0246014Y0061306D01*
X0245948Y0061331D01*
X0245881Y0061352D01*
X0245812Y0061369D01*
X0245743Y0061383D01*
X0245674Y0061392D01*
X0245603Y0061398D01*
X0245533Y0061400D01*
X0244255Y0061400D01*
X0244255Y0056800D01*
X0244255Y0058844D02*
X0245533Y0058844D01*
X0252738Y0056800D02*
X0255294Y0056800D01*
X0252738Y0056800D02*
X0254911Y0059356D01*
X0254144Y0061400D02*
X0254070Y0061398D01*
X0253996Y0061393D01*
X0253922Y0061383D01*
X0253849Y0061370D01*
X0253776Y0061354D01*
X0253705Y0061333D01*
X0253635Y0061309D01*
X0253566Y0061282D01*
X0253498Y0061251D01*
X0253432Y0061217D01*
X0253368Y0061180D01*
X0253306Y0061139D01*
X0253246Y0061095D01*
X0253188Y0061049D01*
X0253132Y0060999D01*
X0253079Y0060947D01*
X0253029Y0060892D01*
X0252982Y0060835D01*
X0252938Y0060775D01*
X0252896Y0060713D01*
X0252858Y0060650D01*
X0252823Y0060584D01*
X0252792Y0060517D01*
X0252764Y0060448D01*
X0252739Y0060378D01*
X0254911Y0059356D02*
X0254958Y0059403D01*
X0255002Y0059453D01*
X0255044Y0059505D01*
X0255083Y0059559D01*
X0255118Y0059615D01*
X0255151Y0059673D01*
X0255181Y0059733D01*
X0255207Y0059794D01*
X0255230Y0059857D01*
X0255249Y0059921D01*
X0255265Y0059985D01*
X0255278Y0060051D01*
X0255287Y0060117D01*
X0255292Y0060183D01*
X0255294Y0060250D01*
X0255292Y0060317D01*
X0255286Y0060384D01*
X0255277Y0060450D01*
X0255263Y0060515D01*
X0255246Y0060580D01*
X0255225Y0060643D01*
X0255200Y0060705D01*
X0255172Y0060766D01*
X0255140Y0060825D01*
X0255105Y0060882D01*
X0255066Y0060937D01*
X0255025Y0060989D01*
X0254980Y0061039D01*
X0254933Y0061086D01*
X0254883Y0061131D01*
X0254831Y0061172D01*
X0254776Y0061211D01*
X0254719Y0061246D01*
X0254660Y0061278D01*
X0254599Y0061306D01*
X0254537Y0061331D01*
X0254474Y0061352D01*
X0254409Y0061369D01*
X0254344Y0061383D01*
X0254278Y0061392D01*
X0254211Y0061398D01*
X0254144Y0061400D01*
X0254016Y0033900D02*
X0254016Y0029300D01*
X0252738Y0029300D02*
X0255294Y0029300D01*
X0250688Y0029300D02*
X0250688Y0031600D01*
X0250689Y0031600D02*
X0250687Y0031655D01*
X0250681Y0031709D01*
X0250671Y0031763D01*
X0250658Y0031816D01*
X0250641Y0031868D01*
X0250620Y0031919D01*
X0250595Y0031968D01*
X0250567Y0032015D01*
X0250536Y0032060D01*
X0250502Y0032102D01*
X0250464Y0032142D01*
X0250424Y0032180D01*
X0250382Y0032214D01*
X0250337Y0032245D01*
X0250290Y0032273D01*
X0250241Y0032298D01*
X0250190Y0032319D01*
X0250138Y0032336D01*
X0250085Y0032349D01*
X0250031Y0032359D01*
X0249977Y0032365D01*
X0249922Y0032367D01*
X0248644Y0032367D01*
X0245533Y0031344D02*
X0245603Y0031346D01*
X0245674Y0031352D01*
X0245743Y0031361D01*
X0245812Y0031375D01*
X0245881Y0031392D01*
X0245948Y0031413D01*
X0246014Y0031438D01*
X0246078Y0031466D01*
X0246141Y0031498D01*
X0246202Y0031533D01*
X0246261Y0031572D01*
X0246318Y0031613D01*
X0246372Y0031658D01*
X0246424Y0031706D01*
X0246473Y0031756D01*
X0246520Y0031810D01*
X0246563Y0031865D01*
X0246603Y0031923D01*
X0246640Y0031983D01*
X0246673Y0032045D01*
X0246703Y0032109D01*
X0246730Y0032174D01*
X0246753Y0032240D01*
X0246772Y0032308D01*
X0246787Y0032377D01*
X0246799Y0032446D01*
X0246807Y0032516D01*
X0246811Y0032587D01*
X0246811Y0032657D01*
X0246807Y0032728D01*
X0246799Y0032798D01*
X0246787Y0032867D01*
X0246772Y0032936D01*
X0246753Y0033004D01*
X0246730Y0033070D01*
X0246703Y0033135D01*
X0246673Y0033199D01*
X0246640Y0033261D01*
X0246603Y0033321D01*
X0246563Y0033379D01*
X0246520Y0033434D01*
X0246473Y0033488D01*
X0246424Y0033538D01*
X0246372Y0033586D01*
X0246318Y0033631D01*
X0246261Y0033672D01*
X0246202Y0033711D01*
X0246141Y0033746D01*
X0246078Y0033778D01*
X0246014Y0033806D01*
X0245948Y0033831D01*
X0245881Y0033852D01*
X0245812Y0033869D01*
X0245743Y0033883D01*
X0245674Y0033892D01*
X0245603Y0033898D01*
X0245533Y0033900D01*
X0244255Y0033900D01*
X0244255Y0029300D01*
X0244255Y0031344D02*
X0245533Y0031344D01*
X0248644Y0029300D02*
X0248644Y0033900D01*
X0252738Y0032878D02*
X0254016Y0033900D01*
D13*
X0222360Y0033000D02*
X0220749Y0033000D01*
X0222118Y0034611D01*
X0221635Y0035900D02*
X0221576Y0035898D01*
X0221518Y0035893D01*
X0221460Y0035883D01*
X0221403Y0035871D01*
X0221347Y0035854D01*
X0221292Y0035835D01*
X0221238Y0035811D01*
X0221186Y0035785D01*
X0221136Y0035755D01*
X0221087Y0035722D01*
X0221041Y0035686D01*
X0220997Y0035647D01*
X0220956Y0035606D01*
X0220917Y0035562D01*
X0220881Y0035516D01*
X0220849Y0035467D01*
X0220819Y0035417D01*
X0220792Y0035365D01*
X0220769Y0035311D01*
X0220749Y0035256D01*
X0222118Y0034611D02*
X0222155Y0034648D01*
X0222189Y0034688D01*
X0222221Y0034730D01*
X0222249Y0034775D01*
X0222275Y0034821D01*
X0222297Y0034868D01*
X0222316Y0034917D01*
X0222332Y0034967D01*
X0222344Y0035018D01*
X0222353Y0035070D01*
X0222358Y0035122D01*
X0222360Y0035175D01*
X0222358Y0035227D01*
X0222353Y0035278D01*
X0222343Y0035329D01*
X0222331Y0035379D01*
X0222314Y0035428D01*
X0222294Y0035476D01*
X0222271Y0035522D01*
X0222245Y0035567D01*
X0222215Y0035609D01*
X0222183Y0035650D01*
X0222148Y0035688D01*
X0222110Y0035723D01*
X0222069Y0035755D01*
X0222027Y0035785D01*
X0221982Y0035811D01*
X0221936Y0035834D01*
X0221888Y0035854D01*
X0221839Y0035871D01*
X0221789Y0035883D01*
X0221738Y0035893D01*
X0221687Y0035898D01*
X0221635Y0035900D01*
X0219566Y0035094D02*
X0219566Y0033806D01*
X0219244Y0033644D02*
X0219888Y0033000D01*
X0219567Y0033806D02*
X0219565Y0033751D01*
X0219559Y0033696D01*
X0219550Y0033642D01*
X0219537Y0033589D01*
X0219520Y0033536D01*
X0219500Y0033485D01*
X0219477Y0033435D01*
X0219450Y0033387D01*
X0219419Y0033341D01*
X0219386Y0033297D01*
X0219350Y0033256D01*
X0219311Y0033217D01*
X0219270Y0033181D01*
X0219226Y0033148D01*
X0219180Y0033117D01*
X0219132Y0033090D01*
X0219082Y0033067D01*
X0219031Y0033047D01*
X0218978Y0033030D01*
X0218925Y0033017D01*
X0218871Y0033008D01*
X0218816Y0033002D01*
X0218761Y0033000D01*
X0218706Y0033002D01*
X0218651Y0033008D01*
X0218597Y0033017D01*
X0218544Y0033030D01*
X0218491Y0033047D01*
X0218440Y0033067D01*
X0218390Y0033090D01*
X0218342Y0033117D01*
X0218296Y0033148D01*
X0218252Y0033181D01*
X0218211Y0033217D01*
X0218172Y0033256D01*
X0218136Y0033297D01*
X0218103Y0033341D01*
X0218072Y0033387D01*
X0218045Y0033435D01*
X0218022Y0033485D01*
X0218002Y0033536D01*
X0217985Y0033589D01*
X0217972Y0033642D01*
X0217963Y0033696D01*
X0217957Y0033751D01*
X0217955Y0033806D01*
X0217955Y0035094D01*
X0217957Y0035149D01*
X0217963Y0035204D01*
X0217972Y0035258D01*
X0217985Y0035311D01*
X0218002Y0035364D01*
X0218022Y0035415D01*
X0218045Y0035465D01*
X0218072Y0035513D01*
X0218103Y0035559D01*
X0218136Y0035603D01*
X0218172Y0035644D01*
X0218211Y0035683D01*
X0218252Y0035719D01*
X0218296Y0035752D01*
X0218342Y0035783D01*
X0218390Y0035810D01*
X0218440Y0035833D01*
X0218491Y0035853D01*
X0218544Y0035870D01*
X0218597Y0035883D01*
X0218651Y0035892D01*
X0218706Y0035898D01*
X0218761Y0035900D01*
X0218816Y0035898D01*
X0218871Y0035892D01*
X0218925Y0035883D01*
X0218978Y0035870D01*
X0219031Y0035853D01*
X0219082Y0035833D01*
X0219132Y0035810D01*
X0219180Y0035783D01*
X0219226Y0035752D01*
X0219270Y0035719D01*
X0219311Y0035683D01*
X0219350Y0035644D01*
X0219386Y0035603D01*
X0219419Y0035559D01*
X0219450Y0035513D01*
X0219477Y0035465D01*
X0219500Y0035415D01*
X0219520Y0035364D01*
X0219537Y0035311D01*
X0219550Y0035258D01*
X0219559Y0035204D01*
X0219565Y0035149D01*
X0219567Y0035094D01*
X0211405Y0032300D02*
X0209794Y0032300D01*
X0210600Y0032300D02*
X0210600Y0035200D01*
X0209794Y0034556D01*
X0208612Y0034394D02*
X0208612Y0033106D01*
X0208289Y0032944D02*
X0208934Y0032300D01*
X0208612Y0033106D02*
X0208610Y0033051D01*
X0208604Y0032996D01*
X0208595Y0032942D01*
X0208582Y0032889D01*
X0208565Y0032836D01*
X0208545Y0032785D01*
X0208522Y0032735D01*
X0208495Y0032687D01*
X0208464Y0032641D01*
X0208431Y0032597D01*
X0208395Y0032556D01*
X0208356Y0032517D01*
X0208315Y0032481D01*
X0208271Y0032448D01*
X0208225Y0032417D01*
X0208177Y0032390D01*
X0208127Y0032367D01*
X0208076Y0032347D01*
X0208023Y0032330D01*
X0207970Y0032317D01*
X0207916Y0032308D01*
X0207861Y0032302D01*
X0207806Y0032300D01*
X0207751Y0032302D01*
X0207696Y0032308D01*
X0207642Y0032317D01*
X0207589Y0032330D01*
X0207536Y0032347D01*
X0207485Y0032367D01*
X0207435Y0032390D01*
X0207387Y0032417D01*
X0207341Y0032448D01*
X0207297Y0032481D01*
X0207256Y0032517D01*
X0207217Y0032556D01*
X0207181Y0032597D01*
X0207148Y0032641D01*
X0207117Y0032687D01*
X0207090Y0032735D01*
X0207067Y0032785D01*
X0207047Y0032836D01*
X0207030Y0032889D01*
X0207017Y0032942D01*
X0207008Y0032996D01*
X0207002Y0033051D01*
X0207000Y0033106D01*
X0207001Y0033106D02*
X0207001Y0034394D01*
X0207000Y0034394D02*
X0207002Y0034449D01*
X0207008Y0034504D01*
X0207017Y0034558D01*
X0207030Y0034611D01*
X0207047Y0034664D01*
X0207067Y0034715D01*
X0207090Y0034765D01*
X0207117Y0034813D01*
X0207148Y0034859D01*
X0207181Y0034903D01*
X0207217Y0034944D01*
X0207256Y0034983D01*
X0207297Y0035019D01*
X0207341Y0035052D01*
X0207387Y0035083D01*
X0207435Y0035110D01*
X0207485Y0035133D01*
X0207536Y0035153D01*
X0207589Y0035170D01*
X0207642Y0035183D01*
X0207696Y0035192D01*
X0207751Y0035198D01*
X0207806Y0035200D01*
X0207861Y0035198D01*
X0207916Y0035192D01*
X0207970Y0035183D01*
X0208023Y0035170D01*
X0208076Y0035153D01*
X0208127Y0035133D01*
X0208177Y0035110D01*
X0208225Y0035083D01*
X0208271Y0035052D01*
X0208315Y0035019D01*
X0208356Y0034983D01*
X0208395Y0034944D01*
X0208431Y0034903D01*
X0208464Y0034859D01*
X0208495Y0034813D01*
X0208522Y0034765D01*
X0208545Y0034715D01*
X0208565Y0034664D01*
X0208582Y0034611D01*
X0208595Y0034558D01*
X0208604Y0034504D01*
X0208610Y0034449D01*
X0208612Y0034394D01*
X0192596Y0029695D02*
X0192596Y0028889D01*
X0192597Y0029695D02*
X0192595Y0029750D01*
X0192589Y0029805D01*
X0192580Y0029859D01*
X0192567Y0029912D01*
X0192550Y0029965D01*
X0192530Y0030016D01*
X0192507Y0030066D01*
X0192480Y0030114D01*
X0192449Y0030160D01*
X0192416Y0030204D01*
X0192380Y0030245D01*
X0192341Y0030284D01*
X0192300Y0030320D01*
X0192256Y0030353D01*
X0192210Y0030384D01*
X0192162Y0030411D01*
X0192112Y0030434D01*
X0192061Y0030454D01*
X0192008Y0030471D01*
X0191955Y0030484D01*
X0191901Y0030493D01*
X0191846Y0030499D01*
X0191791Y0030501D01*
X0191736Y0030499D01*
X0191681Y0030493D01*
X0191627Y0030484D01*
X0191574Y0030471D01*
X0191521Y0030454D01*
X0191470Y0030434D01*
X0191420Y0030411D01*
X0191372Y0030384D01*
X0191326Y0030353D01*
X0191282Y0030320D01*
X0191241Y0030284D01*
X0191202Y0030245D01*
X0191166Y0030204D01*
X0191133Y0030160D01*
X0191102Y0030114D01*
X0191075Y0030066D01*
X0191052Y0030016D01*
X0191032Y0029965D01*
X0191015Y0029912D01*
X0191002Y0029859D01*
X0190993Y0029805D01*
X0190987Y0029750D01*
X0190985Y0029695D01*
X0190985Y0029856D02*
X0190985Y0029212D01*
X0190985Y0029856D02*
X0190983Y0029905D01*
X0190977Y0029954D01*
X0190968Y0030003D01*
X0190955Y0030050D01*
X0190938Y0030097D01*
X0190918Y0030142D01*
X0190895Y0030185D01*
X0190868Y0030227D01*
X0190838Y0030266D01*
X0190805Y0030303D01*
X0190769Y0030337D01*
X0190731Y0030368D01*
X0190691Y0030397D01*
X0190649Y0030422D01*
X0190604Y0030444D01*
X0190559Y0030462D01*
X0190512Y0030477D01*
X0190464Y0030488D01*
X0190415Y0030496D01*
X0190366Y0030500D01*
X0190316Y0030500D01*
X0190267Y0030496D01*
X0190218Y0030488D01*
X0190170Y0030477D01*
X0190123Y0030462D01*
X0190078Y0030444D01*
X0190033Y0030422D01*
X0189991Y0030397D01*
X0189951Y0030368D01*
X0189913Y0030337D01*
X0189877Y0030303D01*
X0189844Y0030266D01*
X0189814Y0030227D01*
X0189787Y0030185D01*
X0189764Y0030142D01*
X0189744Y0030097D01*
X0189727Y0030050D01*
X0189714Y0030003D01*
X0189705Y0029954D01*
X0189699Y0029905D01*
X0189697Y0029856D01*
X0189696Y0029856D02*
X0189696Y0028889D01*
X0189696Y0026815D02*
X0192596Y0026815D01*
X0192596Y0026009D02*
X0192596Y0027621D01*
X0190341Y0026009D02*
X0189696Y0026815D01*
X0189696Y0024889D02*
X0189696Y0024245D01*
X0189697Y0024245D02*
X0189699Y0024194D01*
X0189705Y0024144D01*
X0189715Y0024095D01*
X0189729Y0024046D01*
X0189746Y0023999D01*
X0189767Y0023953D01*
X0189792Y0023908D01*
X0189820Y0023866D01*
X0189851Y0023827D01*
X0189886Y0023790D01*
X0189923Y0023755D01*
X0189962Y0023724D01*
X0190005Y0023696D01*
X0190049Y0023671D01*
X0190095Y0023650D01*
X0190142Y0023633D01*
X0190191Y0023619D01*
X0190240Y0023609D01*
X0190290Y0023603D01*
X0190341Y0023601D01*
X0190341Y0023600D02*
X0191952Y0023600D01*
X0191952Y0023601D02*
X0192000Y0023603D01*
X0192048Y0023608D01*
X0192095Y0023617D01*
X0192142Y0023630D01*
X0192187Y0023646D01*
X0192231Y0023665D01*
X0192274Y0023687D01*
X0192315Y0023713D01*
X0192354Y0023742D01*
X0192390Y0023773D01*
X0192424Y0023807D01*
X0192455Y0023843D01*
X0192484Y0023882D01*
X0192510Y0023923D01*
X0192532Y0023966D01*
X0192551Y0024010D01*
X0192567Y0024055D01*
X0192580Y0024102D01*
X0192589Y0024149D01*
X0192594Y0024197D01*
X0192596Y0024245D01*
X0192596Y0024889D01*
X0187770Y0033949D02*
X0186159Y0033949D01*
X0186159Y0033950D02*
X0186108Y0033952D01*
X0186058Y0033958D01*
X0186009Y0033968D01*
X0185960Y0033982D01*
X0185913Y0033999D01*
X0185867Y0034020D01*
X0185823Y0034045D01*
X0185780Y0034073D01*
X0185741Y0034104D01*
X0185704Y0034139D01*
X0185669Y0034176D01*
X0185638Y0034215D01*
X0185610Y0034257D01*
X0185585Y0034302D01*
X0185564Y0034348D01*
X0185547Y0034395D01*
X0185533Y0034444D01*
X0185523Y0034493D01*
X0185517Y0034543D01*
X0185515Y0034594D01*
X0185514Y0034594D02*
X0185514Y0035238D01*
X0186159Y0036358D02*
X0185514Y0037164D01*
X0188414Y0037164D01*
X0188414Y0036358D02*
X0188414Y0037970D01*
X0187770Y0039238D02*
X0185514Y0039883D01*
X0187125Y0040366D02*
X0188414Y0040366D01*
X0187770Y0040850D02*
X0187770Y0039238D01*
X0186176Y0043000D02*
X0184565Y0043000D01*
X0185934Y0044611D01*
X0185451Y0045900D02*
X0185392Y0045898D01*
X0185334Y0045893D01*
X0185276Y0045883D01*
X0185219Y0045871D01*
X0185163Y0045854D01*
X0185108Y0045835D01*
X0185054Y0045811D01*
X0185002Y0045785D01*
X0184952Y0045755D01*
X0184903Y0045722D01*
X0184857Y0045686D01*
X0184813Y0045647D01*
X0184772Y0045606D01*
X0184733Y0045562D01*
X0184697Y0045516D01*
X0184665Y0045467D01*
X0184635Y0045417D01*
X0184608Y0045365D01*
X0184585Y0045311D01*
X0184565Y0045256D01*
X0185934Y0044611D02*
X0185971Y0044648D01*
X0186005Y0044688D01*
X0186037Y0044730D01*
X0186065Y0044775D01*
X0186091Y0044821D01*
X0186113Y0044868D01*
X0186132Y0044917D01*
X0186148Y0044967D01*
X0186160Y0045018D01*
X0186169Y0045070D01*
X0186174Y0045122D01*
X0186176Y0045175D01*
X0186174Y0045227D01*
X0186169Y0045278D01*
X0186159Y0045329D01*
X0186147Y0045379D01*
X0186130Y0045428D01*
X0186110Y0045476D01*
X0186087Y0045522D01*
X0186061Y0045567D01*
X0186031Y0045609D01*
X0185999Y0045650D01*
X0185964Y0045688D01*
X0185926Y0045723D01*
X0185885Y0045755D01*
X0185843Y0045785D01*
X0185798Y0045811D01*
X0185752Y0045834D01*
X0185704Y0045854D01*
X0185655Y0045871D01*
X0185605Y0045883D01*
X0185554Y0045893D01*
X0185503Y0045898D01*
X0185451Y0045900D01*
X0182511Y0045900D02*
X0181705Y0045900D01*
X0181705Y0043000D01*
X0183316Y0043000D02*
X0182672Y0044289D01*
X0182511Y0044289D02*
X0181705Y0044289D01*
X0182511Y0044288D02*
X0182566Y0044290D01*
X0182621Y0044296D01*
X0182675Y0044305D01*
X0182728Y0044318D01*
X0182781Y0044335D01*
X0182832Y0044355D01*
X0182882Y0044378D01*
X0182930Y0044405D01*
X0182976Y0044436D01*
X0183020Y0044469D01*
X0183061Y0044505D01*
X0183100Y0044544D01*
X0183136Y0044585D01*
X0183169Y0044629D01*
X0183200Y0044675D01*
X0183227Y0044723D01*
X0183250Y0044773D01*
X0183270Y0044824D01*
X0183287Y0044877D01*
X0183300Y0044930D01*
X0183309Y0044984D01*
X0183315Y0045039D01*
X0183317Y0045094D01*
X0183315Y0045149D01*
X0183309Y0045204D01*
X0183300Y0045258D01*
X0183287Y0045311D01*
X0183270Y0045364D01*
X0183250Y0045415D01*
X0183227Y0045465D01*
X0183200Y0045513D01*
X0183169Y0045559D01*
X0183136Y0045603D01*
X0183100Y0045644D01*
X0183061Y0045683D01*
X0183020Y0045719D01*
X0182976Y0045752D01*
X0182930Y0045783D01*
X0182882Y0045810D01*
X0182832Y0045833D01*
X0182781Y0045853D01*
X0182728Y0045870D01*
X0182675Y0045883D01*
X0182621Y0045892D01*
X0182566Y0045898D01*
X0182511Y0045900D01*
X0178834Y0042317D02*
X0178190Y0040062D01*
X0179801Y0040062D01*
X0179317Y0040706D02*
X0179317Y0039417D01*
X0177069Y0039417D02*
X0176425Y0039417D01*
X0176425Y0039418D02*
X0176377Y0039420D01*
X0176329Y0039425D01*
X0176282Y0039434D01*
X0176235Y0039447D01*
X0176190Y0039463D01*
X0176146Y0039482D01*
X0176103Y0039504D01*
X0176062Y0039530D01*
X0176023Y0039559D01*
X0175987Y0039590D01*
X0175953Y0039624D01*
X0175922Y0039660D01*
X0175893Y0039699D01*
X0175867Y0039740D01*
X0175845Y0039783D01*
X0175826Y0039827D01*
X0175810Y0039872D01*
X0175797Y0039919D01*
X0175788Y0039966D01*
X0175783Y0040014D01*
X0175781Y0040062D01*
X0175780Y0040062D02*
X0175780Y0041673D01*
X0175781Y0041673D02*
X0175783Y0041724D01*
X0175789Y0041774D01*
X0175799Y0041823D01*
X0175813Y0041872D01*
X0175830Y0041919D01*
X0175851Y0041965D01*
X0175876Y0042009D01*
X0175904Y0042052D01*
X0175935Y0042091D01*
X0175970Y0042128D01*
X0176007Y0042163D01*
X0176046Y0042194D01*
X0176089Y0042222D01*
X0176133Y0042247D01*
X0176179Y0042268D01*
X0176226Y0042285D01*
X0176275Y0042299D01*
X0176324Y0042309D01*
X0176374Y0042315D01*
X0176425Y0042317D01*
X0177069Y0042317D01*
X0174613Y0042317D02*
X0173969Y0042317D01*
X0174291Y0042317D02*
X0174291Y0039417D01*
X0173969Y0039417D02*
X0174613Y0039417D01*
X0169206Y0044953D02*
X0169206Y0045276D01*
X0169205Y0045276D02*
X0169203Y0045324D01*
X0169198Y0045372D01*
X0169189Y0045419D01*
X0169176Y0045466D01*
X0169160Y0045511D01*
X0169141Y0045555D01*
X0169119Y0045598D01*
X0169093Y0045639D01*
X0169064Y0045678D01*
X0169033Y0045714D01*
X0168999Y0045748D01*
X0168963Y0045779D01*
X0168924Y0045808D01*
X0168883Y0045834D01*
X0168840Y0045856D01*
X0168796Y0045875D01*
X0168751Y0045891D01*
X0168704Y0045904D01*
X0168657Y0045913D01*
X0168609Y0045918D01*
X0168561Y0045920D01*
X0167595Y0045920D01*
X0167595Y0047209D01*
X0169206Y0047209D01*
X0165520Y0047209D02*
X0165520Y0044309D01*
X0164715Y0044309D02*
X0166326Y0044309D01*
X0167595Y0044309D02*
X0168561Y0044309D01*
X0168609Y0044311D01*
X0168657Y0044316D01*
X0168704Y0044325D01*
X0168751Y0044338D01*
X0168796Y0044354D01*
X0168840Y0044373D01*
X0168883Y0044395D01*
X0168924Y0044421D01*
X0168963Y0044450D01*
X0168999Y0044481D01*
X0169033Y0044515D01*
X0169064Y0044551D01*
X0169093Y0044590D01*
X0169119Y0044631D01*
X0169141Y0044674D01*
X0169160Y0044718D01*
X0169176Y0044763D01*
X0169189Y0044810D01*
X0169198Y0044857D01*
X0169203Y0044905D01*
X0169205Y0044953D01*
X0165520Y0047209D02*
X0164715Y0046565D01*
X0163594Y0047209D02*
X0162950Y0047209D01*
X0162899Y0047207D01*
X0162849Y0047201D01*
X0162800Y0047191D01*
X0162751Y0047177D01*
X0162704Y0047160D01*
X0162658Y0047139D01*
X0162614Y0047114D01*
X0162571Y0047086D01*
X0162532Y0047055D01*
X0162495Y0047020D01*
X0162460Y0046983D01*
X0162429Y0046944D01*
X0162401Y0046901D01*
X0162376Y0046857D01*
X0162355Y0046811D01*
X0162338Y0046764D01*
X0162324Y0046715D01*
X0162314Y0046666D01*
X0162308Y0046616D01*
X0162306Y0046565D01*
X0162306Y0044953D01*
X0162308Y0044905D01*
X0162313Y0044857D01*
X0162322Y0044810D01*
X0162335Y0044763D01*
X0162351Y0044718D01*
X0162370Y0044674D01*
X0162392Y0044631D01*
X0162418Y0044590D01*
X0162447Y0044551D01*
X0162478Y0044515D01*
X0162512Y0044481D01*
X0162548Y0044450D01*
X0162587Y0044421D01*
X0162628Y0044395D01*
X0162671Y0044373D01*
X0162715Y0044354D01*
X0162760Y0044338D01*
X0162807Y0044325D01*
X0162854Y0044316D01*
X0162902Y0044311D01*
X0162950Y0044309D01*
X0163594Y0044309D01*
X0160155Y0045500D02*
X0157255Y0045500D01*
X0157255Y0046306D01*
X0157257Y0046361D01*
X0157263Y0046416D01*
X0157272Y0046470D01*
X0157285Y0046523D01*
X0157302Y0046576D01*
X0157322Y0046627D01*
X0157345Y0046677D01*
X0157372Y0046725D01*
X0157403Y0046771D01*
X0157436Y0046815D01*
X0157472Y0046856D01*
X0157511Y0046895D01*
X0157552Y0046931D01*
X0157596Y0046964D01*
X0157642Y0046995D01*
X0157690Y0047022D01*
X0157740Y0047045D01*
X0157791Y0047065D01*
X0157844Y0047082D01*
X0157897Y0047095D01*
X0157951Y0047104D01*
X0158006Y0047110D01*
X0158061Y0047112D01*
X0158116Y0047110D01*
X0158171Y0047104D01*
X0158225Y0047095D01*
X0158278Y0047082D01*
X0158331Y0047065D01*
X0158382Y0047045D01*
X0158432Y0047022D01*
X0158480Y0046995D01*
X0158526Y0046964D01*
X0158570Y0046931D01*
X0158611Y0046895D01*
X0158650Y0046856D01*
X0158686Y0046815D01*
X0158719Y0046771D01*
X0158750Y0046725D01*
X0158777Y0046677D01*
X0158800Y0046627D01*
X0158820Y0046576D01*
X0158837Y0046523D01*
X0158850Y0046470D01*
X0158859Y0046416D01*
X0158865Y0046361D01*
X0158867Y0046306D01*
X0158866Y0046306D02*
X0158866Y0045500D01*
X0158866Y0046467D02*
X0160155Y0047111D01*
X0160155Y0048360D02*
X0160155Y0049165D01*
X0160156Y0049165D02*
X0160154Y0049220D01*
X0160148Y0049275D01*
X0160139Y0049329D01*
X0160126Y0049382D01*
X0160109Y0049435D01*
X0160089Y0049486D01*
X0160066Y0049536D01*
X0160039Y0049584D01*
X0160008Y0049630D01*
X0159975Y0049674D01*
X0159939Y0049715D01*
X0159900Y0049754D01*
X0159859Y0049790D01*
X0159815Y0049823D01*
X0159769Y0049854D01*
X0159721Y0049881D01*
X0159671Y0049904D01*
X0159620Y0049924D01*
X0159567Y0049941D01*
X0159514Y0049954D01*
X0159460Y0049963D01*
X0159405Y0049969D01*
X0159350Y0049971D01*
X0159295Y0049969D01*
X0159240Y0049963D01*
X0159186Y0049954D01*
X0159133Y0049941D01*
X0159080Y0049924D01*
X0159029Y0049904D01*
X0158979Y0049881D01*
X0158931Y0049854D01*
X0158885Y0049823D01*
X0158841Y0049790D01*
X0158800Y0049754D01*
X0158761Y0049715D01*
X0158725Y0049674D01*
X0158692Y0049630D01*
X0158661Y0049584D01*
X0158634Y0049536D01*
X0158611Y0049486D01*
X0158591Y0049435D01*
X0158574Y0049382D01*
X0158561Y0049329D01*
X0158552Y0049275D01*
X0158546Y0049220D01*
X0158544Y0049165D01*
X0158544Y0049327D02*
X0158544Y0048682D01*
X0158544Y0049327D02*
X0158542Y0049376D01*
X0158536Y0049425D01*
X0158527Y0049474D01*
X0158514Y0049521D01*
X0158497Y0049568D01*
X0158477Y0049613D01*
X0158454Y0049656D01*
X0158427Y0049698D01*
X0158397Y0049737D01*
X0158364Y0049774D01*
X0158328Y0049808D01*
X0158290Y0049839D01*
X0158250Y0049868D01*
X0158208Y0049893D01*
X0158163Y0049915D01*
X0158118Y0049933D01*
X0158071Y0049948D01*
X0158023Y0049959D01*
X0157974Y0049967D01*
X0157925Y0049971D01*
X0157875Y0049971D01*
X0157826Y0049967D01*
X0157777Y0049959D01*
X0157729Y0049948D01*
X0157682Y0049933D01*
X0157637Y0049915D01*
X0157592Y0049893D01*
X0157550Y0049868D01*
X0157510Y0049839D01*
X0157472Y0049808D01*
X0157436Y0049774D01*
X0157403Y0049737D01*
X0157373Y0049698D01*
X0157346Y0049656D01*
X0157323Y0049613D01*
X0157303Y0049568D01*
X0157286Y0049521D01*
X0157273Y0049474D01*
X0157264Y0049425D01*
X0157258Y0049376D01*
X0157256Y0049327D01*
X0157255Y0049327D02*
X0157255Y0048360D01*
X0154650Y0048459D02*
X0153845Y0047815D01*
X0154650Y0048459D02*
X0154650Y0045559D01*
X0153845Y0045559D02*
X0155456Y0045559D01*
X0152576Y0045559D02*
X0150965Y0045559D01*
X0151770Y0045559D02*
X0151770Y0048459D01*
X0150965Y0047815D01*
X0149844Y0048459D02*
X0149200Y0048459D01*
X0149149Y0048457D01*
X0149099Y0048451D01*
X0149050Y0048441D01*
X0149001Y0048427D01*
X0148954Y0048410D01*
X0148908Y0048389D01*
X0148864Y0048364D01*
X0148821Y0048336D01*
X0148782Y0048305D01*
X0148745Y0048270D01*
X0148710Y0048233D01*
X0148679Y0048194D01*
X0148651Y0048151D01*
X0148626Y0048107D01*
X0148605Y0048061D01*
X0148588Y0048014D01*
X0148574Y0047965D01*
X0148564Y0047916D01*
X0148558Y0047866D01*
X0148556Y0047815D01*
X0148556Y0046203D01*
X0148558Y0046155D01*
X0148563Y0046107D01*
X0148572Y0046060D01*
X0148585Y0046013D01*
X0148601Y0045968D01*
X0148620Y0045924D01*
X0148642Y0045881D01*
X0148668Y0045840D01*
X0148697Y0045801D01*
X0148728Y0045765D01*
X0148762Y0045731D01*
X0148798Y0045700D01*
X0148837Y0045671D01*
X0148878Y0045645D01*
X0148921Y0045623D01*
X0148965Y0045604D01*
X0149010Y0045588D01*
X0149057Y0045575D01*
X0149104Y0045566D01*
X0149152Y0045561D01*
X0149200Y0045559D01*
X0149844Y0045559D01*
X0149909Y0051829D02*
X0151520Y0051829D01*
X0151520Y0051830D02*
X0151568Y0051832D01*
X0151616Y0051837D01*
X0151663Y0051846D01*
X0151710Y0051859D01*
X0151755Y0051875D01*
X0151799Y0051894D01*
X0151842Y0051916D01*
X0151883Y0051942D01*
X0151922Y0051971D01*
X0151958Y0052002D01*
X0151992Y0052036D01*
X0152023Y0052072D01*
X0152052Y0052111D01*
X0152078Y0052152D01*
X0152100Y0052195D01*
X0152119Y0052239D01*
X0152135Y0052284D01*
X0152148Y0052331D01*
X0152157Y0052378D01*
X0152162Y0052426D01*
X0152164Y0052474D01*
X0152164Y0053118D01*
X0152164Y0054238D02*
X0152164Y0055044D01*
X0152165Y0055044D02*
X0152163Y0055099D01*
X0152157Y0055154D01*
X0152148Y0055208D01*
X0152135Y0055261D01*
X0152118Y0055314D01*
X0152098Y0055365D01*
X0152075Y0055415D01*
X0152048Y0055463D01*
X0152017Y0055509D01*
X0151984Y0055553D01*
X0151948Y0055594D01*
X0151909Y0055633D01*
X0151868Y0055669D01*
X0151824Y0055702D01*
X0151778Y0055733D01*
X0151730Y0055760D01*
X0151680Y0055783D01*
X0151629Y0055803D01*
X0151576Y0055820D01*
X0151523Y0055833D01*
X0151469Y0055842D01*
X0151414Y0055848D01*
X0151359Y0055850D01*
X0151304Y0055848D01*
X0151249Y0055842D01*
X0151195Y0055833D01*
X0151142Y0055820D01*
X0151089Y0055803D01*
X0151038Y0055783D01*
X0150988Y0055760D01*
X0150940Y0055733D01*
X0150894Y0055702D01*
X0150850Y0055669D01*
X0150809Y0055633D01*
X0150770Y0055594D01*
X0150734Y0055553D01*
X0150701Y0055509D01*
X0150670Y0055463D01*
X0150643Y0055415D01*
X0150620Y0055365D01*
X0150600Y0055314D01*
X0150583Y0055261D01*
X0150570Y0055208D01*
X0150561Y0055154D01*
X0150555Y0055099D01*
X0150553Y0055044D01*
X0150553Y0055205D02*
X0150553Y0054561D01*
X0150553Y0055205D02*
X0150551Y0055254D01*
X0150545Y0055303D01*
X0150536Y0055352D01*
X0150523Y0055399D01*
X0150506Y0055446D01*
X0150486Y0055491D01*
X0150463Y0055534D01*
X0150436Y0055576D01*
X0150406Y0055615D01*
X0150373Y0055652D01*
X0150337Y0055686D01*
X0150299Y0055717D01*
X0150259Y0055746D01*
X0150217Y0055771D01*
X0150172Y0055793D01*
X0150127Y0055811D01*
X0150080Y0055826D01*
X0150032Y0055837D01*
X0149983Y0055845D01*
X0149934Y0055849D01*
X0149884Y0055849D01*
X0149835Y0055845D01*
X0149786Y0055837D01*
X0149738Y0055826D01*
X0149691Y0055811D01*
X0149646Y0055793D01*
X0149601Y0055771D01*
X0149559Y0055746D01*
X0149519Y0055717D01*
X0149481Y0055686D01*
X0149445Y0055652D01*
X0149412Y0055615D01*
X0149382Y0055576D01*
X0149355Y0055534D01*
X0149332Y0055491D01*
X0149312Y0055446D01*
X0149295Y0055399D01*
X0149282Y0055352D01*
X0149273Y0055303D01*
X0149267Y0055254D01*
X0149265Y0055205D01*
X0149264Y0055205D02*
X0149264Y0054238D01*
X0149264Y0053118D02*
X0149264Y0052474D01*
X0149265Y0052474D02*
X0149267Y0052423D01*
X0149273Y0052373D01*
X0149283Y0052324D01*
X0149297Y0052275D01*
X0149314Y0052228D01*
X0149335Y0052182D01*
X0149360Y0052137D01*
X0149388Y0052095D01*
X0149419Y0052056D01*
X0149454Y0052019D01*
X0149491Y0051984D01*
X0149530Y0051953D01*
X0149573Y0051925D01*
X0149617Y0051900D01*
X0149663Y0051879D01*
X0149710Y0051862D01*
X0149759Y0051848D01*
X0149808Y0051838D01*
X0149858Y0051832D01*
X0149909Y0051830D01*
X0157955Y0051979D02*
X0157955Y0052785D01*
X0157957Y0052840D01*
X0157963Y0052895D01*
X0157972Y0052949D01*
X0157985Y0053002D01*
X0158002Y0053055D01*
X0158022Y0053106D01*
X0158045Y0053156D01*
X0158072Y0053204D01*
X0158103Y0053250D01*
X0158136Y0053294D01*
X0158172Y0053335D01*
X0158211Y0053374D01*
X0158252Y0053410D01*
X0158296Y0053443D01*
X0158342Y0053474D01*
X0158390Y0053501D01*
X0158440Y0053524D01*
X0158491Y0053544D01*
X0158544Y0053561D01*
X0158597Y0053574D01*
X0158651Y0053583D01*
X0158706Y0053589D01*
X0158761Y0053591D01*
X0158816Y0053589D01*
X0158871Y0053583D01*
X0158925Y0053574D01*
X0158978Y0053561D01*
X0159031Y0053544D01*
X0159082Y0053524D01*
X0159132Y0053501D01*
X0159180Y0053474D01*
X0159226Y0053443D01*
X0159270Y0053410D01*
X0159311Y0053374D01*
X0159350Y0053335D01*
X0159386Y0053294D01*
X0159419Y0053250D01*
X0159450Y0053204D01*
X0159477Y0053156D01*
X0159500Y0053106D01*
X0159520Y0053055D01*
X0159537Y0053002D01*
X0159550Y0052949D01*
X0159559Y0052895D01*
X0159565Y0052840D01*
X0159567Y0052785D01*
X0159566Y0052785D02*
X0159566Y0051979D01*
X0159566Y0052946D02*
X0160855Y0053590D01*
X0164205Y0052785D02*
X0164205Y0051979D01*
X0167105Y0051979D01*
X0165816Y0051979D02*
X0165816Y0052785D01*
X0165816Y0052946D02*
X0167105Y0053590D01*
X0165817Y0052785D02*
X0165815Y0052840D01*
X0165809Y0052895D01*
X0165800Y0052949D01*
X0165787Y0053002D01*
X0165770Y0053055D01*
X0165750Y0053106D01*
X0165727Y0053156D01*
X0165700Y0053204D01*
X0165669Y0053250D01*
X0165636Y0053294D01*
X0165600Y0053335D01*
X0165561Y0053374D01*
X0165520Y0053410D01*
X0165476Y0053443D01*
X0165430Y0053474D01*
X0165382Y0053501D01*
X0165332Y0053524D01*
X0165281Y0053544D01*
X0165228Y0053561D01*
X0165175Y0053574D01*
X0165121Y0053583D01*
X0165066Y0053589D01*
X0165011Y0053591D01*
X0164956Y0053589D01*
X0164901Y0053583D01*
X0164847Y0053574D01*
X0164794Y0053561D01*
X0164741Y0053544D01*
X0164690Y0053524D01*
X0164640Y0053501D01*
X0164592Y0053474D01*
X0164546Y0053443D01*
X0164502Y0053410D01*
X0164461Y0053374D01*
X0164422Y0053335D01*
X0164386Y0053294D01*
X0164353Y0053250D01*
X0164322Y0053204D01*
X0164295Y0053156D01*
X0164272Y0053106D01*
X0164252Y0053055D01*
X0164235Y0053002D01*
X0164222Y0052949D01*
X0164213Y0052895D01*
X0164207Y0052840D01*
X0164205Y0052785D01*
X0160855Y0051979D02*
X0157955Y0051979D01*
X0164205Y0054839D02*
X0164205Y0056450D01*
X0167105Y0055644D01*
X0164527Y0054839D02*
X0164205Y0054839D01*
X0160050Y0054838D02*
X0160105Y0054840D01*
X0160160Y0054846D01*
X0160214Y0054855D01*
X0160267Y0054868D01*
X0160320Y0054885D01*
X0160371Y0054905D01*
X0160421Y0054928D01*
X0160469Y0054955D01*
X0160515Y0054986D01*
X0160559Y0055019D01*
X0160600Y0055055D01*
X0160639Y0055094D01*
X0160675Y0055135D01*
X0160708Y0055179D01*
X0160739Y0055225D01*
X0160766Y0055273D01*
X0160789Y0055323D01*
X0160809Y0055374D01*
X0160826Y0055427D01*
X0160839Y0055480D01*
X0160848Y0055534D01*
X0160854Y0055589D01*
X0160856Y0055644D01*
X0160854Y0055699D01*
X0160848Y0055754D01*
X0160839Y0055808D01*
X0160826Y0055861D01*
X0160809Y0055914D01*
X0160789Y0055965D01*
X0160766Y0056015D01*
X0160739Y0056063D01*
X0160708Y0056109D01*
X0160675Y0056153D01*
X0160639Y0056194D01*
X0160600Y0056233D01*
X0160559Y0056269D01*
X0160515Y0056302D01*
X0160469Y0056333D01*
X0160421Y0056360D01*
X0160371Y0056383D01*
X0160320Y0056403D01*
X0160267Y0056420D01*
X0160214Y0056433D01*
X0160160Y0056442D01*
X0160105Y0056448D01*
X0160050Y0056450D01*
X0159995Y0056448D01*
X0159940Y0056442D01*
X0159886Y0056433D01*
X0159833Y0056420D01*
X0159780Y0056403D01*
X0159729Y0056383D01*
X0159679Y0056360D01*
X0159631Y0056333D01*
X0159585Y0056302D01*
X0159541Y0056269D01*
X0159500Y0056233D01*
X0159461Y0056194D01*
X0159425Y0056153D01*
X0159392Y0056109D01*
X0159361Y0056063D01*
X0159334Y0056015D01*
X0159311Y0055965D01*
X0159291Y0055914D01*
X0159274Y0055861D01*
X0159261Y0055808D01*
X0159252Y0055754D01*
X0159246Y0055699D01*
X0159244Y0055644D01*
X0159246Y0055589D01*
X0159252Y0055534D01*
X0159261Y0055480D01*
X0159274Y0055427D01*
X0159291Y0055374D01*
X0159311Y0055323D01*
X0159334Y0055273D01*
X0159361Y0055225D01*
X0159392Y0055179D01*
X0159425Y0055135D01*
X0159461Y0055094D01*
X0159500Y0055055D01*
X0159541Y0055019D01*
X0159585Y0054986D01*
X0159631Y0054955D01*
X0159679Y0054928D01*
X0159729Y0054905D01*
X0159780Y0054885D01*
X0159833Y0054868D01*
X0159886Y0054855D01*
X0159940Y0054846D01*
X0159995Y0054840D01*
X0160050Y0054838D01*
X0158600Y0055000D02*
X0158649Y0055002D01*
X0158698Y0055008D01*
X0158747Y0055017D01*
X0158794Y0055030D01*
X0158841Y0055047D01*
X0158886Y0055067D01*
X0158929Y0055090D01*
X0158971Y0055117D01*
X0159010Y0055147D01*
X0159047Y0055180D01*
X0159081Y0055216D01*
X0159112Y0055254D01*
X0159141Y0055294D01*
X0159166Y0055336D01*
X0159188Y0055381D01*
X0159206Y0055426D01*
X0159221Y0055473D01*
X0159232Y0055521D01*
X0159240Y0055570D01*
X0159244Y0055619D01*
X0159244Y0055669D01*
X0159240Y0055718D01*
X0159232Y0055767D01*
X0159221Y0055815D01*
X0159206Y0055862D01*
X0159188Y0055907D01*
X0159166Y0055952D01*
X0159141Y0055994D01*
X0159112Y0056034D01*
X0159081Y0056072D01*
X0159047Y0056108D01*
X0159010Y0056141D01*
X0158971Y0056171D01*
X0158929Y0056198D01*
X0158886Y0056221D01*
X0158841Y0056241D01*
X0158794Y0056258D01*
X0158747Y0056271D01*
X0158698Y0056280D01*
X0158649Y0056286D01*
X0158600Y0056288D01*
X0158551Y0056286D01*
X0158502Y0056280D01*
X0158453Y0056271D01*
X0158406Y0056258D01*
X0158359Y0056241D01*
X0158314Y0056221D01*
X0158271Y0056198D01*
X0158229Y0056171D01*
X0158190Y0056141D01*
X0158153Y0056108D01*
X0158119Y0056072D01*
X0158088Y0056034D01*
X0158059Y0055994D01*
X0158034Y0055952D01*
X0158012Y0055907D01*
X0157994Y0055862D01*
X0157979Y0055815D01*
X0157968Y0055767D01*
X0157960Y0055718D01*
X0157956Y0055669D01*
X0157956Y0055619D01*
X0157960Y0055570D01*
X0157968Y0055521D01*
X0157979Y0055473D01*
X0157994Y0055426D01*
X0158012Y0055381D01*
X0158034Y0055336D01*
X0158059Y0055294D01*
X0158088Y0055254D01*
X0158119Y0055216D01*
X0158153Y0055180D01*
X0158190Y0055147D01*
X0158229Y0055117D01*
X0158271Y0055090D01*
X0158314Y0055067D01*
X0158359Y0055047D01*
X0158406Y0055030D01*
X0158453Y0055017D01*
X0158502Y0055008D01*
X0158551Y0055002D01*
X0158600Y0055000D01*
X0170455Y0054839D02*
X0170455Y0056450D01*
X0171744Y0055806D02*
X0171744Y0054839D01*
X0170455Y0054839D01*
X0171744Y0055806D02*
X0171746Y0055857D01*
X0171752Y0055907D01*
X0171762Y0055956D01*
X0171776Y0056005D01*
X0171793Y0056052D01*
X0171814Y0056098D01*
X0171839Y0056142D01*
X0171867Y0056185D01*
X0171898Y0056224D01*
X0171933Y0056261D01*
X0171970Y0056296D01*
X0172009Y0056327D01*
X0172052Y0056355D01*
X0172096Y0056380D01*
X0172142Y0056401D01*
X0172189Y0056418D01*
X0172238Y0056432D01*
X0172287Y0056442D01*
X0172337Y0056448D01*
X0172388Y0056450D01*
X0172711Y0056450D01*
X0172759Y0056448D01*
X0172807Y0056443D01*
X0172854Y0056434D01*
X0172901Y0056421D01*
X0172946Y0056405D01*
X0172990Y0056386D01*
X0173033Y0056364D01*
X0173074Y0056338D01*
X0173113Y0056309D01*
X0173149Y0056278D01*
X0173183Y0056244D01*
X0173214Y0056208D01*
X0173243Y0056169D01*
X0173269Y0056128D01*
X0173291Y0056085D01*
X0173310Y0056041D01*
X0173326Y0055996D01*
X0173339Y0055949D01*
X0173348Y0055902D01*
X0173353Y0055854D01*
X0173355Y0055806D01*
X0173355Y0054839D01*
X0173355Y0053590D02*
X0172066Y0052946D01*
X0172066Y0052785D02*
X0172066Y0051979D01*
X0172067Y0052785D02*
X0172065Y0052840D01*
X0172059Y0052895D01*
X0172050Y0052949D01*
X0172037Y0053002D01*
X0172020Y0053055D01*
X0172000Y0053106D01*
X0171977Y0053156D01*
X0171950Y0053204D01*
X0171919Y0053250D01*
X0171886Y0053294D01*
X0171850Y0053335D01*
X0171811Y0053374D01*
X0171770Y0053410D01*
X0171726Y0053443D01*
X0171680Y0053474D01*
X0171632Y0053501D01*
X0171582Y0053524D01*
X0171531Y0053544D01*
X0171478Y0053561D01*
X0171425Y0053574D01*
X0171371Y0053583D01*
X0171316Y0053589D01*
X0171261Y0053591D01*
X0171206Y0053589D01*
X0171151Y0053583D01*
X0171097Y0053574D01*
X0171044Y0053561D01*
X0170991Y0053544D01*
X0170940Y0053524D01*
X0170890Y0053501D01*
X0170842Y0053474D01*
X0170796Y0053443D01*
X0170752Y0053410D01*
X0170711Y0053374D01*
X0170672Y0053335D01*
X0170636Y0053294D01*
X0170603Y0053250D01*
X0170572Y0053204D01*
X0170545Y0053156D01*
X0170522Y0053106D01*
X0170502Y0053055D01*
X0170485Y0053002D01*
X0170472Y0052949D01*
X0170463Y0052895D01*
X0170457Y0052840D01*
X0170455Y0052785D01*
X0170455Y0051979D01*
X0173355Y0051979D01*
X0177955Y0051979D02*
X0177955Y0052785D01*
X0177957Y0052840D01*
X0177963Y0052895D01*
X0177972Y0052949D01*
X0177985Y0053002D01*
X0178002Y0053055D01*
X0178022Y0053106D01*
X0178045Y0053156D01*
X0178072Y0053204D01*
X0178103Y0053250D01*
X0178136Y0053294D01*
X0178172Y0053335D01*
X0178211Y0053374D01*
X0178252Y0053410D01*
X0178296Y0053443D01*
X0178342Y0053474D01*
X0178390Y0053501D01*
X0178440Y0053524D01*
X0178491Y0053544D01*
X0178544Y0053561D01*
X0178597Y0053574D01*
X0178651Y0053583D01*
X0178706Y0053589D01*
X0178761Y0053591D01*
X0178816Y0053589D01*
X0178871Y0053583D01*
X0178925Y0053574D01*
X0178978Y0053561D01*
X0179031Y0053544D01*
X0179082Y0053524D01*
X0179132Y0053501D01*
X0179180Y0053474D01*
X0179226Y0053443D01*
X0179270Y0053410D01*
X0179311Y0053374D01*
X0179350Y0053335D01*
X0179386Y0053294D01*
X0179419Y0053250D01*
X0179450Y0053204D01*
X0179477Y0053156D01*
X0179500Y0053106D01*
X0179520Y0053055D01*
X0179537Y0053002D01*
X0179550Y0052949D01*
X0179559Y0052895D01*
X0179565Y0052840D01*
X0179567Y0052785D01*
X0179566Y0052785D02*
X0179566Y0051979D01*
X0179566Y0052946D02*
X0180855Y0053590D01*
X0180855Y0055161D02*
X0180853Y0055231D01*
X0180847Y0055300D01*
X0180838Y0055370D01*
X0180825Y0055438D01*
X0180808Y0055506D01*
X0180788Y0055573D01*
X0180763Y0055638D01*
X0180736Y0055702D01*
X0180705Y0055765D01*
X0180670Y0055826D01*
X0180633Y0055884D01*
X0180592Y0055941D01*
X0180548Y0055995D01*
X0180502Y0056047D01*
X0180452Y0056097D01*
X0180400Y0056143D01*
X0180346Y0056187D01*
X0180289Y0056228D01*
X0180231Y0056265D01*
X0180170Y0056300D01*
X0180107Y0056331D01*
X0180043Y0056358D01*
X0179978Y0056383D01*
X0179911Y0056403D01*
X0179843Y0056420D01*
X0179775Y0056433D01*
X0179705Y0056442D01*
X0179636Y0056448D01*
X0179566Y0056450D01*
X0178761Y0056450D01*
X0179566Y0056450D02*
X0179566Y0055483D01*
X0179564Y0055435D01*
X0179559Y0055387D01*
X0179550Y0055340D01*
X0179537Y0055293D01*
X0179521Y0055248D01*
X0179502Y0055204D01*
X0179480Y0055161D01*
X0179454Y0055120D01*
X0179425Y0055081D01*
X0179394Y0055045D01*
X0179360Y0055011D01*
X0179324Y0054980D01*
X0179285Y0054951D01*
X0179244Y0054925D01*
X0179201Y0054903D01*
X0179157Y0054884D01*
X0179112Y0054868D01*
X0179065Y0054855D01*
X0179018Y0054846D01*
X0178970Y0054841D01*
X0178922Y0054839D01*
X0178761Y0054839D01*
X0178761Y0054838D02*
X0178706Y0054840D01*
X0178651Y0054846D01*
X0178597Y0054855D01*
X0178544Y0054868D01*
X0178491Y0054885D01*
X0178440Y0054905D01*
X0178390Y0054928D01*
X0178342Y0054955D01*
X0178296Y0054986D01*
X0178252Y0055019D01*
X0178211Y0055055D01*
X0178172Y0055094D01*
X0178136Y0055135D01*
X0178103Y0055179D01*
X0178072Y0055225D01*
X0178045Y0055273D01*
X0178022Y0055323D01*
X0178002Y0055374D01*
X0177985Y0055427D01*
X0177972Y0055480D01*
X0177963Y0055534D01*
X0177957Y0055589D01*
X0177955Y0055644D01*
X0177957Y0055699D01*
X0177963Y0055754D01*
X0177972Y0055808D01*
X0177985Y0055861D01*
X0178002Y0055914D01*
X0178022Y0055965D01*
X0178045Y0056015D01*
X0178072Y0056063D01*
X0178103Y0056109D01*
X0178136Y0056153D01*
X0178172Y0056194D01*
X0178211Y0056233D01*
X0178252Y0056269D01*
X0178296Y0056302D01*
X0178342Y0056333D01*
X0178390Y0056360D01*
X0178440Y0056383D01*
X0178491Y0056403D01*
X0178544Y0056420D01*
X0178597Y0056433D01*
X0178651Y0056442D01*
X0178706Y0056448D01*
X0178761Y0056450D01*
X0177955Y0051979D02*
X0180855Y0051979D01*
X0207001Y0060606D02*
X0207001Y0061894D01*
X0207000Y0061894D02*
X0207002Y0061949D01*
X0207008Y0062004D01*
X0207017Y0062058D01*
X0207030Y0062111D01*
X0207047Y0062164D01*
X0207067Y0062215D01*
X0207090Y0062265D01*
X0207117Y0062313D01*
X0207148Y0062359D01*
X0207181Y0062403D01*
X0207217Y0062444D01*
X0207256Y0062483D01*
X0207297Y0062519D01*
X0207341Y0062552D01*
X0207387Y0062583D01*
X0207435Y0062610D01*
X0207485Y0062633D01*
X0207536Y0062653D01*
X0207589Y0062670D01*
X0207642Y0062683D01*
X0207696Y0062692D01*
X0207751Y0062698D01*
X0207806Y0062700D01*
X0207861Y0062698D01*
X0207916Y0062692D01*
X0207970Y0062683D01*
X0208023Y0062670D01*
X0208076Y0062653D01*
X0208127Y0062633D01*
X0208177Y0062610D01*
X0208225Y0062583D01*
X0208271Y0062552D01*
X0208315Y0062519D01*
X0208356Y0062483D01*
X0208395Y0062444D01*
X0208431Y0062403D01*
X0208464Y0062359D01*
X0208495Y0062313D01*
X0208522Y0062265D01*
X0208545Y0062215D01*
X0208565Y0062164D01*
X0208582Y0062111D01*
X0208595Y0062058D01*
X0208604Y0062004D01*
X0208610Y0061949D01*
X0208612Y0061894D01*
X0208612Y0060606D01*
X0208289Y0060444D02*
X0208934Y0059800D01*
X0209794Y0059800D02*
X0210600Y0059800D01*
X0210655Y0059802D01*
X0210710Y0059808D01*
X0210764Y0059817D01*
X0210817Y0059830D01*
X0210870Y0059847D01*
X0210921Y0059867D01*
X0210971Y0059890D01*
X0211019Y0059917D01*
X0211065Y0059948D01*
X0211109Y0059981D01*
X0211150Y0060017D01*
X0211189Y0060056D01*
X0211225Y0060097D01*
X0211258Y0060141D01*
X0211289Y0060187D01*
X0211316Y0060235D01*
X0211339Y0060285D01*
X0211359Y0060336D01*
X0211376Y0060389D01*
X0211389Y0060442D01*
X0211398Y0060496D01*
X0211404Y0060551D01*
X0211406Y0060606D01*
X0211404Y0060661D01*
X0211398Y0060716D01*
X0211389Y0060770D01*
X0211376Y0060823D01*
X0211359Y0060876D01*
X0211339Y0060927D01*
X0211316Y0060977D01*
X0211289Y0061025D01*
X0211258Y0061071D01*
X0211225Y0061115D01*
X0211189Y0061156D01*
X0211150Y0061195D01*
X0211109Y0061231D01*
X0211065Y0061264D01*
X0211019Y0061295D01*
X0210971Y0061322D01*
X0210921Y0061345D01*
X0210870Y0061365D01*
X0210817Y0061382D01*
X0210764Y0061395D01*
X0210710Y0061404D01*
X0210655Y0061410D01*
X0210600Y0061412D01*
X0210761Y0061411D02*
X0210116Y0061411D01*
X0210761Y0061412D02*
X0210810Y0061414D01*
X0210859Y0061420D01*
X0210908Y0061429D01*
X0210955Y0061442D01*
X0211002Y0061459D01*
X0211047Y0061479D01*
X0211090Y0061502D01*
X0211132Y0061529D01*
X0211171Y0061559D01*
X0211208Y0061592D01*
X0211242Y0061628D01*
X0211273Y0061666D01*
X0211302Y0061706D01*
X0211327Y0061748D01*
X0211349Y0061793D01*
X0211367Y0061838D01*
X0211382Y0061885D01*
X0211393Y0061933D01*
X0211401Y0061982D01*
X0211405Y0062031D01*
X0211405Y0062081D01*
X0211401Y0062130D01*
X0211393Y0062179D01*
X0211382Y0062227D01*
X0211367Y0062274D01*
X0211349Y0062319D01*
X0211327Y0062364D01*
X0211302Y0062406D01*
X0211273Y0062446D01*
X0211242Y0062484D01*
X0211208Y0062520D01*
X0211171Y0062553D01*
X0211132Y0062583D01*
X0211090Y0062610D01*
X0211047Y0062633D01*
X0211002Y0062653D01*
X0210955Y0062670D01*
X0210908Y0062683D01*
X0210859Y0062692D01*
X0210810Y0062698D01*
X0210761Y0062700D01*
X0209794Y0062700D01*
X0208612Y0060606D02*
X0208610Y0060551D01*
X0208604Y0060496D01*
X0208595Y0060442D01*
X0208582Y0060389D01*
X0208565Y0060336D01*
X0208545Y0060285D01*
X0208522Y0060235D01*
X0208495Y0060187D01*
X0208464Y0060141D01*
X0208431Y0060097D01*
X0208395Y0060056D01*
X0208356Y0060017D01*
X0208315Y0059981D01*
X0208271Y0059948D01*
X0208225Y0059917D01*
X0208177Y0059890D01*
X0208127Y0059867D01*
X0208076Y0059847D01*
X0208023Y0059830D01*
X0207970Y0059817D01*
X0207916Y0059808D01*
X0207861Y0059802D01*
X0207806Y0059800D01*
X0207751Y0059802D01*
X0207696Y0059808D01*
X0207642Y0059817D01*
X0207589Y0059830D01*
X0207536Y0059847D01*
X0207485Y0059867D01*
X0207435Y0059890D01*
X0207387Y0059917D01*
X0207341Y0059948D01*
X0207297Y0059981D01*
X0207256Y0060017D01*
X0207217Y0060056D01*
X0207181Y0060097D01*
X0207148Y0060141D01*
X0207117Y0060187D01*
X0207090Y0060235D01*
X0207067Y0060285D01*
X0207047Y0060336D01*
X0207030Y0060389D01*
X0207017Y0060442D01*
X0207008Y0060496D01*
X0207002Y0060551D01*
X0207000Y0060606D01*
X0217955Y0061306D02*
X0217955Y0062594D01*
X0217957Y0062649D01*
X0217963Y0062704D01*
X0217972Y0062758D01*
X0217985Y0062811D01*
X0218002Y0062864D01*
X0218022Y0062915D01*
X0218045Y0062965D01*
X0218072Y0063013D01*
X0218103Y0063059D01*
X0218136Y0063103D01*
X0218172Y0063144D01*
X0218211Y0063183D01*
X0218252Y0063219D01*
X0218296Y0063252D01*
X0218342Y0063283D01*
X0218390Y0063310D01*
X0218440Y0063333D01*
X0218491Y0063353D01*
X0218544Y0063370D01*
X0218597Y0063383D01*
X0218651Y0063392D01*
X0218706Y0063398D01*
X0218761Y0063400D01*
X0218816Y0063398D01*
X0218871Y0063392D01*
X0218925Y0063383D01*
X0218978Y0063370D01*
X0219031Y0063353D01*
X0219082Y0063333D01*
X0219132Y0063310D01*
X0219180Y0063283D01*
X0219226Y0063252D01*
X0219270Y0063219D01*
X0219311Y0063183D01*
X0219350Y0063144D01*
X0219386Y0063103D01*
X0219419Y0063059D01*
X0219450Y0063013D01*
X0219477Y0062965D01*
X0219500Y0062915D01*
X0219520Y0062864D01*
X0219537Y0062811D01*
X0219550Y0062758D01*
X0219559Y0062704D01*
X0219565Y0062649D01*
X0219567Y0062594D01*
X0219566Y0062594D02*
X0219566Y0061306D01*
X0219244Y0061144D02*
X0219888Y0060500D01*
X0220749Y0061144D02*
X0222360Y0061144D01*
X0221876Y0060500D02*
X0221876Y0061789D01*
X0220749Y0061144D02*
X0221393Y0063400D01*
X0219567Y0061306D02*
X0219565Y0061251D01*
X0219559Y0061196D01*
X0219550Y0061142D01*
X0219537Y0061089D01*
X0219520Y0061036D01*
X0219500Y0060985D01*
X0219477Y0060935D01*
X0219450Y0060887D01*
X0219419Y0060841D01*
X0219386Y0060797D01*
X0219350Y0060756D01*
X0219311Y0060717D01*
X0219270Y0060681D01*
X0219226Y0060648D01*
X0219180Y0060617D01*
X0219132Y0060590D01*
X0219082Y0060567D01*
X0219031Y0060547D01*
X0218978Y0060530D01*
X0218925Y0060517D01*
X0218871Y0060508D01*
X0218816Y0060502D01*
X0218761Y0060500D01*
X0218706Y0060502D01*
X0218651Y0060508D01*
X0218597Y0060517D01*
X0218544Y0060530D01*
X0218491Y0060547D01*
X0218440Y0060567D01*
X0218390Y0060590D01*
X0218342Y0060617D01*
X0218296Y0060648D01*
X0218252Y0060681D01*
X0218211Y0060717D01*
X0218172Y0060756D01*
X0218136Y0060797D01*
X0218103Y0060841D01*
X0218072Y0060887D01*
X0218045Y0060935D01*
X0218022Y0060985D01*
X0218002Y0061036D01*
X0217985Y0061089D01*
X0217972Y0061142D01*
X0217963Y0061196D01*
X0217957Y0061251D01*
X0217955Y0061306D01*
X0193905Y0069250D02*
X0191005Y0069250D01*
X0191005Y0070056D01*
X0191007Y0070111D01*
X0191013Y0070166D01*
X0191022Y0070220D01*
X0191035Y0070273D01*
X0191052Y0070326D01*
X0191072Y0070377D01*
X0191095Y0070427D01*
X0191122Y0070475D01*
X0191153Y0070521D01*
X0191186Y0070565D01*
X0191222Y0070606D01*
X0191261Y0070645D01*
X0191302Y0070681D01*
X0191346Y0070714D01*
X0191392Y0070745D01*
X0191440Y0070772D01*
X0191490Y0070795D01*
X0191541Y0070815D01*
X0191594Y0070832D01*
X0191647Y0070845D01*
X0191701Y0070854D01*
X0191756Y0070860D01*
X0191811Y0070862D01*
X0191866Y0070860D01*
X0191921Y0070854D01*
X0191975Y0070845D01*
X0192028Y0070832D01*
X0192081Y0070815D01*
X0192132Y0070795D01*
X0192182Y0070772D01*
X0192230Y0070745D01*
X0192276Y0070714D01*
X0192320Y0070681D01*
X0192361Y0070645D01*
X0192400Y0070606D01*
X0192436Y0070565D01*
X0192469Y0070521D01*
X0192500Y0070475D01*
X0192527Y0070427D01*
X0192550Y0070377D01*
X0192570Y0070326D01*
X0192587Y0070273D01*
X0192600Y0070220D01*
X0192609Y0070166D01*
X0192615Y0070111D01*
X0192617Y0070056D01*
X0192616Y0070056D02*
X0192616Y0069250D01*
X0192616Y0070217D02*
X0193905Y0070861D01*
X0193100Y0072110D02*
X0192294Y0072110D01*
X0192294Y0073077D01*
X0192294Y0072110D02*
X0192224Y0072112D01*
X0192155Y0072118D01*
X0192085Y0072127D01*
X0192017Y0072140D01*
X0191949Y0072157D01*
X0191882Y0072177D01*
X0191817Y0072202D01*
X0191753Y0072229D01*
X0191690Y0072260D01*
X0191629Y0072295D01*
X0191571Y0072332D01*
X0191514Y0072373D01*
X0191460Y0072417D01*
X0191408Y0072463D01*
X0191358Y0072513D01*
X0191312Y0072565D01*
X0191268Y0072619D01*
X0191227Y0072676D01*
X0191190Y0072734D01*
X0191155Y0072795D01*
X0191124Y0072858D01*
X0191097Y0072922D01*
X0191072Y0072987D01*
X0191052Y0073054D01*
X0191035Y0073122D01*
X0191022Y0073190D01*
X0191013Y0073260D01*
X0191007Y0073329D01*
X0191005Y0073399D01*
X0192938Y0073721D02*
X0193100Y0073721D01*
X0192938Y0073721D02*
X0192890Y0073719D01*
X0192842Y0073714D01*
X0192795Y0073705D01*
X0192748Y0073692D01*
X0192703Y0073676D01*
X0192659Y0073657D01*
X0192616Y0073635D01*
X0192575Y0073609D01*
X0192536Y0073581D01*
X0192500Y0073549D01*
X0192466Y0073515D01*
X0192435Y0073479D01*
X0192406Y0073440D01*
X0192380Y0073399D01*
X0192358Y0073356D01*
X0192339Y0073312D01*
X0192323Y0073267D01*
X0192310Y0073220D01*
X0192301Y0073173D01*
X0192296Y0073125D01*
X0192294Y0073077D01*
X0193100Y0073721D02*
X0193155Y0073719D01*
X0193210Y0073713D01*
X0193264Y0073704D01*
X0193317Y0073691D01*
X0193370Y0073674D01*
X0193421Y0073654D01*
X0193471Y0073631D01*
X0193519Y0073604D01*
X0193565Y0073573D01*
X0193609Y0073540D01*
X0193650Y0073504D01*
X0193689Y0073465D01*
X0193725Y0073424D01*
X0193758Y0073380D01*
X0193789Y0073334D01*
X0193816Y0073286D01*
X0193839Y0073236D01*
X0193859Y0073185D01*
X0193876Y0073132D01*
X0193889Y0073079D01*
X0193898Y0073025D01*
X0193904Y0072970D01*
X0193906Y0072915D01*
X0193904Y0072860D01*
X0193898Y0072805D01*
X0193889Y0072751D01*
X0193876Y0072698D01*
X0193859Y0072645D01*
X0193839Y0072594D01*
X0193816Y0072544D01*
X0193789Y0072496D01*
X0193758Y0072450D01*
X0193725Y0072406D01*
X0193689Y0072365D01*
X0193650Y0072326D01*
X0193609Y0072290D01*
X0193565Y0072257D01*
X0193519Y0072226D01*
X0193471Y0072199D01*
X0193421Y0072176D01*
X0193370Y0072156D01*
X0193317Y0072139D01*
X0193264Y0072126D01*
X0193210Y0072117D01*
X0193155Y0072111D01*
X0193100Y0072109D01*
X0188964Y0070920D02*
X0187595Y0069309D01*
X0189206Y0069309D01*
X0186326Y0069309D02*
X0184715Y0069309D01*
X0185520Y0069309D02*
X0185520Y0072209D01*
X0184715Y0071565D01*
X0183594Y0072209D02*
X0182950Y0072209D01*
X0182899Y0072207D01*
X0182849Y0072201D01*
X0182800Y0072191D01*
X0182751Y0072177D01*
X0182704Y0072160D01*
X0182658Y0072139D01*
X0182614Y0072114D01*
X0182571Y0072086D01*
X0182532Y0072055D01*
X0182495Y0072020D01*
X0182460Y0071983D01*
X0182429Y0071944D01*
X0182401Y0071901D01*
X0182376Y0071857D01*
X0182355Y0071811D01*
X0182338Y0071764D01*
X0182324Y0071715D01*
X0182314Y0071666D01*
X0182308Y0071616D01*
X0182306Y0071565D01*
X0182306Y0069953D01*
X0182308Y0069905D01*
X0182313Y0069857D01*
X0182322Y0069810D01*
X0182335Y0069763D01*
X0182351Y0069718D01*
X0182370Y0069674D01*
X0182392Y0069631D01*
X0182418Y0069590D01*
X0182447Y0069551D01*
X0182478Y0069515D01*
X0182512Y0069481D01*
X0182548Y0069450D01*
X0182587Y0069421D01*
X0182628Y0069395D01*
X0182671Y0069373D01*
X0182715Y0069354D01*
X0182760Y0069338D01*
X0182807Y0069325D01*
X0182854Y0069316D01*
X0182902Y0069311D01*
X0182950Y0069309D01*
X0183594Y0069309D01*
X0187595Y0071565D02*
X0187615Y0071620D01*
X0187638Y0071674D01*
X0187665Y0071726D01*
X0187695Y0071776D01*
X0187727Y0071825D01*
X0187763Y0071871D01*
X0187802Y0071915D01*
X0187843Y0071956D01*
X0187887Y0071995D01*
X0187933Y0072031D01*
X0187982Y0072064D01*
X0188032Y0072094D01*
X0188084Y0072120D01*
X0188138Y0072144D01*
X0188193Y0072163D01*
X0188249Y0072180D01*
X0188306Y0072192D01*
X0188364Y0072202D01*
X0188422Y0072207D01*
X0188481Y0072209D01*
X0188533Y0072207D01*
X0188584Y0072202D01*
X0188635Y0072192D01*
X0188685Y0072180D01*
X0188734Y0072163D01*
X0188782Y0072143D01*
X0188828Y0072120D01*
X0188873Y0072094D01*
X0188915Y0072064D01*
X0188956Y0072032D01*
X0188994Y0071997D01*
X0189029Y0071959D01*
X0189061Y0071918D01*
X0189091Y0071876D01*
X0189117Y0071831D01*
X0189140Y0071785D01*
X0189160Y0071737D01*
X0189177Y0071688D01*
X0189189Y0071638D01*
X0189199Y0071587D01*
X0189204Y0071536D01*
X0189206Y0071484D01*
X0189204Y0071431D01*
X0189199Y0071379D01*
X0189190Y0071327D01*
X0189178Y0071276D01*
X0189162Y0071226D01*
X0189143Y0071177D01*
X0189121Y0071130D01*
X0189095Y0071084D01*
X0189067Y0071039D01*
X0189035Y0070997D01*
X0189001Y0070957D01*
X0188964Y0070920D01*
X0189382Y0088003D02*
X0189382Y0088808D01*
X0189382Y0088003D02*
X0192282Y0088003D01*
X0190993Y0088003D02*
X0190993Y0088808D01*
X0190993Y0088969D02*
X0192282Y0089614D01*
X0191638Y0090863D02*
X0191638Y0092474D01*
X0192282Y0091990D02*
X0190993Y0091990D01*
X0191638Y0090863D02*
X0189382Y0091507D01*
X0189382Y0088808D02*
X0189384Y0088863D01*
X0189390Y0088918D01*
X0189399Y0088972D01*
X0189412Y0089025D01*
X0189429Y0089078D01*
X0189449Y0089129D01*
X0189472Y0089179D01*
X0189499Y0089227D01*
X0189530Y0089273D01*
X0189563Y0089317D01*
X0189599Y0089358D01*
X0189638Y0089397D01*
X0189679Y0089433D01*
X0189723Y0089466D01*
X0189769Y0089497D01*
X0189817Y0089524D01*
X0189867Y0089547D01*
X0189918Y0089567D01*
X0189971Y0089584D01*
X0190024Y0089597D01*
X0190078Y0089606D01*
X0190133Y0089612D01*
X0190188Y0089614D01*
X0190243Y0089612D01*
X0190298Y0089606D01*
X0190352Y0089597D01*
X0190405Y0089584D01*
X0190458Y0089567D01*
X0190509Y0089547D01*
X0190559Y0089524D01*
X0190607Y0089497D01*
X0190653Y0089466D01*
X0190697Y0089433D01*
X0190738Y0089397D01*
X0190777Y0089358D01*
X0190813Y0089317D01*
X0190846Y0089273D01*
X0190877Y0089227D01*
X0190904Y0089179D01*
X0190927Y0089129D01*
X0190947Y0089078D01*
X0190964Y0089025D01*
X0190977Y0088972D01*
X0190986Y0088918D01*
X0190992Y0088863D01*
X0190994Y0088808D01*
X0207001Y0089394D02*
X0207001Y0088106D01*
X0207000Y0088106D02*
X0207002Y0088051D01*
X0207008Y0087996D01*
X0207017Y0087942D01*
X0207030Y0087889D01*
X0207047Y0087836D01*
X0207067Y0087785D01*
X0207090Y0087735D01*
X0207117Y0087687D01*
X0207148Y0087641D01*
X0207181Y0087597D01*
X0207217Y0087556D01*
X0207256Y0087517D01*
X0207297Y0087481D01*
X0207341Y0087448D01*
X0207387Y0087417D01*
X0207435Y0087390D01*
X0207485Y0087367D01*
X0207536Y0087347D01*
X0207589Y0087330D01*
X0207642Y0087317D01*
X0207696Y0087308D01*
X0207751Y0087302D01*
X0207806Y0087300D01*
X0207861Y0087302D01*
X0207916Y0087308D01*
X0207970Y0087317D01*
X0208023Y0087330D01*
X0208076Y0087347D01*
X0208127Y0087367D01*
X0208177Y0087390D01*
X0208225Y0087417D01*
X0208271Y0087448D01*
X0208315Y0087481D01*
X0208356Y0087517D01*
X0208395Y0087556D01*
X0208431Y0087597D01*
X0208464Y0087641D01*
X0208495Y0087687D01*
X0208522Y0087735D01*
X0208545Y0087785D01*
X0208565Y0087836D01*
X0208582Y0087889D01*
X0208595Y0087942D01*
X0208604Y0087996D01*
X0208610Y0088051D01*
X0208612Y0088106D01*
X0208612Y0089394D01*
X0208610Y0089449D01*
X0208604Y0089504D01*
X0208595Y0089558D01*
X0208582Y0089611D01*
X0208565Y0089664D01*
X0208545Y0089715D01*
X0208522Y0089765D01*
X0208495Y0089813D01*
X0208464Y0089859D01*
X0208431Y0089903D01*
X0208395Y0089944D01*
X0208356Y0089983D01*
X0208315Y0090019D01*
X0208271Y0090052D01*
X0208225Y0090083D01*
X0208177Y0090110D01*
X0208127Y0090133D01*
X0208076Y0090153D01*
X0208023Y0090170D01*
X0207970Y0090183D01*
X0207916Y0090192D01*
X0207861Y0090198D01*
X0207806Y0090200D01*
X0207751Y0090198D01*
X0207696Y0090192D01*
X0207642Y0090183D01*
X0207589Y0090170D01*
X0207536Y0090153D01*
X0207485Y0090133D01*
X0207435Y0090110D01*
X0207387Y0090083D01*
X0207341Y0090052D01*
X0207297Y0090019D01*
X0207256Y0089983D01*
X0207217Y0089944D01*
X0207181Y0089903D01*
X0207148Y0089859D01*
X0207117Y0089813D01*
X0207090Y0089765D01*
X0207067Y0089715D01*
X0207047Y0089664D01*
X0207030Y0089611D01*
X0207017Y0089558D01*
X0207008Y0089504D01*
X0207002Y0089449D01*
X0207000Y0089394D01*
X0209794Y0088911D02*
X0209794Y0090200D01*
X0211405Y0090200D01*
X0210761Y0088911D02*
X0209794Y0088911D01*
X0210761Y0088911D02*
X0210809Y0088909D01*
X0210857Y0088904D01*
X0210904Y0088895D01*
X0210951Y0088882D01*
X0210996Y0088866D01*
X0211040Y0088847D01*
X0211083Y0088825D01*
X0211124Y0088799D01*
X0211163Y0088770D01*
X0211199Y0088739D01*
X0211233Y0088705D01*
X0211264Y0088669D01*
X0211293Y0088630D01*
X0211319Y0088589D01*
X0211341Y0088546D01*
X0211360Y0088502D01*
X0211376Y0088457D01*
X0211389Y0088410D01*
X0211398Y0088363D01*
X0211403Y0088315D01*
X0211405Y0088267D01*
X0211405Y0087944D01*
X0211403Y0087896D01*
X0211398Y0087848D01*
X0211389Y0087801D01*
X0211376Y0087754D01*
X0211360Y0087709D01*
X0211341Y0087665D01*
X0211319Y0087622D01*
X0211293Y0087581D01*
X0211264Y0087542D01*
X0211233Y0087506D01*
X0211199Y0087472D01*
X0211163Y0087441D01*
X0211124Y0087412D01*
X0211083Y0087386D01*
X0211040Y0087364D01*
X0210996Y0087345D01*
X0210951Y0087329D01*
X0210904Y0087316D01*
X0210857Y0087307D01*
X0210809Y0087302D01*
X0210761Y0087300D01*
X0209794Y0087300D01*
X0208934Y0087300D02*
X0208289Y0087944D01*
X0217955Y0088806D02*
X0217955Y0090094D01*
X0217957Y0090149D01*
X0217963Y0090204D01*
X0217972Y0090258D01*
X0217985Y0090311D01*
X0218002Y0090364D01*
X0218022Y0090415D01*
X0218045Y0090465D01*
X0218072Y0090513D01*
X0218103Y0090559D01*
X0218136Y0090603D01*
X0218172Y0090644D01*
X0218211Y0090683D01*
X0218252Y0090719D01*
X0218296Y0090752D01*
X0218342Y0090783D01*
X0218390Y0090810D01*
X0218440Y0090833D01*
X0218491Y0090853D01*
X0218544Y0090870D01*
X0218597Y0090883D01*
X0218651Y0090892D01*
X0218706Y0090898D01*
X0218761Y0090900D01*
X0218816Y0090898D01*
X0218871Y0090892D01*
X0218925Y0090883D01*
X0218978Y0090870D01*
X0219031Y0090853D01*
X0219082Y0090833D01*
X0219132Y0090810D01*
X0219180Y0090783D01*
X0219226Y0090752D01*
X0219270Y0090719D01*
X0219311Y0090683D01*
X0219350Y0090644D01*
X0219386Y0090603D01*
X0219419Y0090559D01*
X0219450Y0090513D01*
X0219477Y0090465D01*
X0219500Y0090415D01*
X0219520Y0090364D01*
X0219537Y0090311D01*
X0219550Y0090258D01*
X0219559Y0090204D01*
X0219565Y0090149D01*
X0219567Y0090094D01*
X0219566Y0090094D02*
X0219566Y0088806D01*
X0219244Y0088644D02*
X0219888Y0088000D01*
X0220749Y0088806D02*
X0220749Y0089611D01*
X0221715Y0089611D01*
X0220748Y0089611D02*
X0220750Y0089681D01*
X0220756Y0089750D01*
X0220765Y0089820D01*
X0220778Y0089888D01*
X0220795Y0089956D01*
X0220815Y0090023D01*
X0220840Y0090088D01*
X0220867Y0090152D01*
X0220898Y0090215D01*
X0220933Y0090276D01*
X0220970Y0090334D01*
X0221011Y0090391D01*
X0221055Y0090445D01*
X0221101Y0090497D01*
X0221151Y0090547D01*
X0221203Y0090593D01*
X0221257Y0090637D01*
X0221314Y0090678D01*
X0221372Y0090715D01*
X0221433Y0090750D01*
X0221496Y0090781D01*
X0221560Y0090808D01*
X0221625Y0090833D01*
X0221692Y0090853D01*
X0221760Y0090870D01*
X0221828Y0090883D01*
X0221898Y0090892D01*
X0221967Y0090898D01*
X0222037Y0090900D01*
X0221715Y0089611D02*
X0221763Y0089609D01*
X0221811Y0089604D01*
X0221858Y0089595D01*
X0221905Y0089582D01*
X0221950Y0089566D01*
X0221994Y0089547D01*
X0222037Y0089525D01*
X0222078Y0089499D01*
X0222117Y0089470D01*
X0222153Y0089439D01*
X0222187Y0089405D01*
X0222218Y0089369D01*
X0222247Y0089330D01*
X0222273Y0089289D01*
X0222295Y0089246D01*
X0222314Y0089202D01*
X0222330Y0089157D01*
X0222343Y0089110D01*
X0222352Y0089063D01*
X0222357Y0089015D01*
X0222359Y0088967D01*
X0222360Y0088967D02*
X0222360Y0088806D01*
X0222358Y0088751D01*
X0222352Y0088696D01*
X0222343Y0088642D01*
X0222330Y0088589D01*
X0222313Y0088536D01*
X0222293Y0088485D01*
X0222270Y0088435D01*
X0222243Y0088387D01*
X0222212Y0088341D01*
X0222179Y0088297D01*
X0222143Y0088256D01*
X0222104Y0088217D01*
X0222063Y0088181D01*
X0222019Y0088148D01*
X0221973Y0088117D01*
X0221925Y0088090D01*
X0221875Y0088067D01*
X0221824Y0088047D01*
X0221771Y0088030D01*
X0221718Y0088017D01*
X0221664Y0088008D01*
X0221609Y0088002D01*
X0221554Y0088000D01*
X0221499Y0088002D01*
X0221444Y0088008D01*
X0221390Y0088017D01*
X0221337Y0088030D01*
X0221284Y0088047D01*
X0221233Y0088067D01*
X0221183Y0088090D01*
X0221135Y0088117D01*
X0221089Y0088148D01*
X0221045Y0088181D01*
X0221004Y0088217D01*
X0220965Y0088256D01*
X0220929Y0088297D01*
X0220896Y0088341D01*
X0220865Y0088387D01*
X0220838Y0088435D01*
X0220815Y0088485D01*
X0220795Y0088536D01*
X0220778Y0088589D01*
X0220765Y0088642D01*
X0220756Y0088696D01*
X0220750Y0088751D01*
X0220748Y0088806D01*
X0219567Y0088806D02*
X0219565Y0088751D01*
X0219559Y0088696D01*
X0219550Y0088642D01*
X0219537Y0088589D01*
X0219520Y0088536D01*
X0219500Y0088485D01*
X0219477Y0088435D01*
X0219450Y0088387D01*
X0219419Y0088341D01*
X0219386Y0088297D01*
X0219350Y0088256D01*
X0219311Y0088217D01*
X0219270Y0088181D01*
X0219226Y0088148D01*
X0219180Y0088117D01*
X0219132Y0088090D01*
X0219082Y0088067D01*
X0219031Y0088047D01*
X0218978Y0088030D01*
X0218925Y0088017D01*
X0218871Y0088008D01*
X0218816Y0088002D01*
X0218761Y0088000D01*
X0218706Y0088002D01*
X0218651Y0088008D01*
X0218597Y0088017D01*
X0218544Y0088030D01*
X0218491Y0088047D01*
X0218440Y0088067D01*
X0218390Y0088090D01*
X0218342Y0088117D01*
X0218296Y0088148D01*
X0218252Y0088181D01*
X0218211Y0088217D01*
X0218172Y0088256D01*
X0218136Y0088297D01*
X0218103Y0088341D01*
X0218072Y0088387D01*
X0218045Y0088435D01*
X0218022Y0088485D01*
X0218002Y0088536D01*
X0217985Y0088589D01*
X0217972Y0088642D01*
X0217963Y0088696D01*
X0217957Y0088751D01*
X0217955Y0088806D01*
X0132606Y0074565D02*
X0130995Y0074565D01*
X0131800Y0074565D02*
X0131800Y0077465D01*
X0130995Y0076821D01*
X0129874Y0077465D02*
X0129230Y0077465D01*
X0129179Y0077463D01*
X0129129Y0077457D01*
X0129080Y0077447D01*
X0129031Y0077433D01*
X0128984Y0077416D01*
X0128938Y0077395D01*
X0128894Y0077370D01*
X0128851Y0077342D01*
X0128812Y0077311D01*
X0128775Y0077276D01*
X0128740Y0077239D01*
X0128709Y0077200D01*
X0128681Y0077157D01*
X0128656Y0077113D01*
X0128635Y0077067D01*
X0128618Y0077020D01*
X0128604Y0076971D01*
X0128594Y0076922D01*
X0128588Y0076872D01*
X0128586Y0076821D01*
X0128586Y0075209D01*
X0128588Y0075161D01*
X0128593Y0075113D01*
X0128602Y0075066D01*
X0128615Y0075019D01*
X0128631Y0074974D01*
X0128650Y0074930D01*
X0128672Y0074887D01*
X0128698Y0074846D01*
X0128727Y0074807D01*
X0128758Y0074771D01*
X0128792Y0074737D01*
X0128828Y0074706D01*
X0128867Y0074677D01*
X0128908Y0074651D01*
X0128951Y0074629D01*
X0128995Y0074610D01*
X0129040Y0074594D01*
X0129087Y0074581D01*
X0129134Y0074572D01*
X0129182Y0074567D01*
X0129230Y0074565D01*
X0129874Y0074565D01*
X0127418Y0074565D02*
X0126774Y0074565D01*
X0127096Y0074565D02*
X0127096Y0077465D01*
X0126774Y0077465D02*
X0127418Y0077465D01*
X0120076Y0079953D02*
X0120076Y0080276D01*
X0120075Y0080276D02*
X0120073Y0080324D01*
X0120068Y0080372D01*
X0120059Y0080419D01*
X0120046Y0080466D01*
X0120030Y0080511D01*
X0120011Y0080555D01*
X0119989Y0080598D01*
X0119963Y0080639D01*
X0119934Y0080678D01*
X0119903Y0080714D01*
X0119869Y0080748D01*
X0119833Y0080779D01*
X0119794Y0080808D01*
X0119753Y0080834D01*
X0119710Y0080856D01*
X0119666Y0080875D01*
X0119621Y0080891D01*
X0119574Y0080904D01*
X0119527Y0080913D01*
X0119479Y0080918D01*
X0119431Y0080920D01*
X0118465Y0080920D01*
X0118465Y0082209D01*
X0120076Y0082209D01*
X0117344Y0082209D02*
X0116700Y0082209D01*
X0116649Y0082207D01*
X0116599Y0082201D01*
X0116550Y0082191D01*
X0116501Y0082177D01*
X0116454Y0082160D01*
X0116408Y0082139D01*
X0116364Y0082114D01*
X0116321Y0082086D01*
X0116282Y0082055D01*
X0116245Y0082020D01*
X0116210Y0081983D01*
X0116179Y0081944D01*
X0116151Y0081901D01*
X0116126Y0081857D01*
X0116105Y0081811D01*
X0116088Y0081764D01*
X0116074Y0081715D01*
X0116064Y0081666D01*
X0116058Y0081616D01*
X0116056Y0081565D01*
X0116056Y0079953D01*
X0116058Y0079905D01*
X0116063Y0079857D01*
X0116072Y0079810D01*
X0116085Y0079763D01*
X0116101Y0079718D01*
X0116120Y0079674D01*
X0116142Y0079631D01*
X0116168Y0079590D01*
X0116197Y0079551D01*
X0116228Y0079515D01*
X0116262Y0079481D01*
X0116298Y0079450D01*
X0116337Y0079421D01*
X0116378Y0079395D01*
X0116421Y0079373D01*
X0116465Y0079354D01*
X0116510Y0079338D01*
X0116557Y0079325D01*
X0116604Y0079316D01*
X0116652Y0079311D01*
X0116700Y0079309D01*
X0117344Y0079309D01*
X0118465Y0079309D02*
X0119431Y0079309D01*
X0119479Y0079311D01*
X0119527Y0079316D01*
X0119574Y0079325D01*
X0119621Y0079338D01*
X0119666Y0079354D01*
X0119710Y0079373D01*
X0119753Y0079395D01*
X0119794Y0079421D01*
X0119833Y0079450D01*
X0119869Y0079481D01*
X0119903Y0079515D01*
X0119934Y0079551D01*
X0119963Y0079590D01*
X0119989Y0079631D01*
X0120011Y0079674D01*
X0120030Y0079718D01*
X0120046Y0079763D01*
X0120059Y0079810D01*
X0120068Y0079857D01*
X0120073Y0079905D01*
X0120075Y0079953D01*
X0112919Y0083000D02*
X0110863Y0083000D01*
X0111891Y0083000D02*
X0111891Y0086700D01*
X0110863Y0085878D01*
X0107433Y0084644D02*
X0107433Y0084233D01*
X0105789Y0084233D01*
X0105789Y0084644D02*
X0105789Y0083617D01*
X0105791Y0083569D01*
X0105797Y0083520D01*
X0105806Y0083473D01*
X0105819Y0083426D01*
X0105836Y0083381D01*
X0105856Y0083337D01*
X0105880Y0083295D01*
X0105907Y0083254D01*
X0105937Y0083216D01*
X0105970Y0083181D01*
X0106005Y0083148D01*
X0106043Y0083118D01*
X0106084Y0083091D01*
X0106126Y0083067D01*
X0106170Y0083047D01*
X0106215Y0083030D01*
X0106262Y0083017D01*
X0106309Y0083008D01*
X0106358Y0083002D01*
X0106406Y0083000D01*
X0107433Y0083000D01*
X0104331Y0083617D02*
X0104331Y0084850D01*
X0104332Y0084850D02*
X0104330Y0084898D01*
X0104324Y0084947D01*
X0104315Y0084994D01*
X0104302Y0085041D01*
X0104285Y0085086D01*
X0104265Y0085130D01*
X0104241Y0085172D01*
X0104214Y0085213D01*
X0104184Y0085251D01*
X0104151Y0085286D01*
X0104116Y0085319D01*
X0104078Y0085349D01*
X0104037Y0085376D01*
X0103995Y0085400D01*
X0103951Y0085420D01*
X0103906Y0085437D01*
X0103859Y0085450D01*
X0103812Y0085459D01*
X0103763Y0085465D01*
X0103715Y0085467D01*
X0102687Y0085467D01*
X0102687Y0081767D01*
X0102687Y0083000D02*
X0103715Y0083000D01*
X0103763Y0083002D01*
X0103812Y0083008D01*
X0103859Y0083017D01*
X0103906Y0083030D01*
X0103951Y0083047D01*
X0103995Y0083067D01*
X0104037Y0083091D01*
X0104078Y0083118D01*
X0104116Y0083148D01*
X0104151Y0083181D01*
X0104184Y0083216D01*
X0104214Y0083254D01*
X0104241Y0083295D01*
X0104265Y0083337D01*
X0104285Y0083381D01*
X0104302Y0083426D01*
X0104315Y0083473D01*
X0104324Y0083520D01*
X0104330Y0083569D01*
X0104332Y0083617D01*
X0105789Y0084644D02*
X0105791Y0084700D01*
X0105797Y0084756D01*
X0105806Y0084811D01*
X0105819Y0084866D01*
X0105836Y0084919D01*
X0105857Y0084971D01*
X0105881Y0085022D01*
X0105909Y0085071D01*
X0105939Y0085118D01*
X0105973Y0085163D01*
X0106010Y0085205D01*
X0106050Y0085245D01*
X0106092Y0085282D01*
X0106137Y0085316D01*
X0106184Y0085346D01*
X0106233Y0085374D01*
X0106284Y0085398D01*
X0106336Y0085419D01*
X0106389Y0085436D01*
X0106444Y0085449D01*
X0106499Y0085458D01*
X0106555Y0085464D01*
X0106611Y0085466D01*
X0106667Y0085464D01*
X0106723Y0085458D01*
X0106778Y0085449D01*
X0106833Y0085436D01*
X0106886Y0085419D01*
X0106938Y0085398D01*
X0106989Y0085374D01*
X0107038Y0085346D01*
X0107085Y0085316D01*
X0107130Y0085282D01*
X0107172Y0085245D01*
X0107212Y0085205D01*
X0107249Y0085163D01*
X0107283Y0085118D01*
X0107313Y0085071D01*
X0107341Y0085022D01*
X0107365Y0084971D01*
X0107386Y0084919D01*
X0107403Y0084866D01*
X0107416Y0084811D01*
X0107425Y0084756D01*
X0107431Y0084700D01*
X0107433Y0084644D01*
X0101193Y0085467D02*
X0099960Y0081767D01*
X0099549Y0081767D01*
X0100371Y0083000D02*
X0099549Y0085467D01*
X0098320Y0085467D02*
X0097086Y0085467D01*
X0097497Y0086700D02*
X0097497Y0083617D01*
X0097499Y0083569D01*
X0097505Y0083520D01*
X0097514Y0083473D01*
X0097527Y0083426D01*
X0097544Y0083381D01*
X0097564Y0083337D01*
X0097588Y0083295D01*
X0097615Y0083254D01*
X0097645Y0083216D01*
X0097678Y0083181D01*
X0097713Y0083148D01*
X0097751Y0083118D01*
X0097792Y0083091D01*
X0097834Y0083067D01*
X0097878Y0083047D01*
X0097923Y0083030D01*
X0097970Y0083017D01*
X0098017Y0083008D01*
X0098066Y0083002D01*
X0098114Y0083000D01*
X0098320Y0083000D01*
X0095913Y0083822D02*
X0095913Y0084644D01*
X0095911Y0084700D01*
X0095905Y0084756D01*
X0095896Y0084811D01*
X0095883Y0084866D01*
X0095866Y0084919D01*
X0095845Y0084971D01*
X0095821Y0085022D01*
X0095793Y0085071D01*
X0095763Y0085118D01*
X0095729Y0085163D01*
X0095692Y0085205D01*
X0095652Y0085245D01*
X0095610Y0085282D01*
X0095565Y0085316D01*
X0095518Y0085346D01*
X0095469Y0085374D01*
X0095418Y0085398D01*
X0095366Y0085419D01*
X0095313Y0085436D01*
X0095258Y0085449D01*
X0095203Y0085458D01*
X0095147Y0085464D01*
X0095091Y0085466D01*
X0095035Y0085464D01*
X0094979Y0085458D01*
X0094924Y0085449D01*
X0094869Y0085436D01*
X0094816Y0085419D01*
X0094764Y0085398D01*
X0094713Y0085374D01*
X0094664Y0085346D01*
X0094617Y0085316D01*
X0094572Y0085282D01*
X0094530Y0085245D01*
X0094490Y0085205D01*
X0094453Y0085163D01*
X0094419Y0085118D01*
X0094389Y0085071D01*
X0094361Y0085022D01*
X0094337Y0084971D01*
X0094316Y0084919D01*
X0094299Y0084866D01*
X0094286Y0084811D01*
X0094277Y0084756D01*
X0094271Y0084700D01*
X0094269Y0084644D01*
X0094269Y0083822D01*
X0094271Y0083766D01*
X0094277Y0083710D01*
X0094286Y0083655D01*
X0094299Y0083600D01*
X0094316Y0083547D01*
X0094337Y0083495D01*
X0094361Y0083444D01*
X0094389Y0083395D01*
X0094419Y0083348D01*
X0094453Y0083303D01*
X0094490Y0083261D01*
X0094530Y0083221D01*
X0094572Y0083184D01*
X0094617Y0083150D01*
X0094664Y0083120D01*
X0094713Y0083092D01*
X0094764Y0083068D01*
X0094816Y0083047D01*
X0094869Y0083030D01*
X0094924Y0083017D01*
X0094979Y0083008D01*
X0095035Y0083002D01*
X0095091Y0083000D01*
X0095147Y0083002D01*
X0095203Y0083008D01*
X0095258Y0083017D01*
X0095313Y0083030D01*
X0095366Y0083047D01*
X0095418Y0083068D01*
X0095469Y0083092D01*
X0095518Y0083120D01*
X0095565Y0083150D01*
X0095610Y0083184D01*
X0095652Y0083221D01*
X0095692Y0083261D01*
X0095729Y0083303D01*
X0095763Y0083348D01*
X0095793Y0083395D01*
X0095821Y0083444D01*
X0095845Y0083495D01*
X0095866Y0083547D01*
X0095883Y0083600D01*
X0095896Y0083655D01*
X0095905Y0083710D01*
X0095911Y0083766D01*
X0095913Y0083822D01*
X0092920Y0083000D02*
X0092714Y0083000D01*
X0092666Y0083002D01*
X0092617Y0083008D01*
X0092570Y0083017D01*
X0092523Y0083030D01*
X0092478Y0083047D01*
X0092434Y0083067D01*
X0092392Y0083091D01*
X0092351Y0083118D01*
X0092313Y0083148D01*
X0092278Y0083181D01*
X0092245Y0083216D01*
X0092215Y0083254D01*
X0092188Y0083295D01*
X0092164Y0083337D01*
X0092144Y0083381D01*
X0092127Y0083426D01*
X0092114Y0083473D01*
X0092105Y0083520D01*
X0092099Y0083569D01*
X0092097Y0083617D01*
X0092097Y0086700D01*
X0091686Y0085467D02*
X0092920Y0085467D01*
X0090513Y0084644D02*
X0090513Y0083822D01*
X0090511Y0083766D01*
X0090505Y0083710D01*
X0090496Y0083655D01*
X0090483Y0083600D01*
X0090466Y0083547D01*
X0090445Y0083495D01*
X0090421Y0083444D01*
X0090393Y0083395D01*
X0090363Y0083348D01*
X0090329Y0083303D01*
X0090292Y0083261D01*
X0090252Y0083221D01*
X0090210Y0083184D01*
X0090165Y0083150D01*
X0090118Y0083120D01*
X0090069Y0083092D01*
X0090018Y0083068D01*
X0089966Y0083047D01*
X0089913Y0083030D01*
X0089858Y0083017D01*
X0089803Y0083008D01*
X0089747Y0083002D01*
X0089691Y0083000D01*
X0089635Y0083002D01*
X0089579Y0083008D01*
X0089524Y0083017D01*
X0089469Y0083030D01*
X0089416Y0083047D01*
X0089364Y0083068D01*
X0089313Y0083092D01*
X0089264Y0083120D01*
X0089217Y0083150D01*
X0089172Y0083184D01*
X0089130Y0083221D01*
X0089090Y0083261D01*
X0089053Y0083303D01*
X0089019Y0083348D01*
X0088989Y0083395D01*
X0088961Y0083444D01*
X0088937Y0083495D01*
X0088916Y0083547D01*
X0088899Y0083600D01*
X0088886Y0083655D01*
X0088877Y0083710D01*
X0088871Y0083766D01*
X0088869Y0083822D01*
X0088869Y0084644D01*
X0088871Y0084700D01*
X0088877Y0084756D01*
X0088886Y0084811D01*
X0088899Y0084866D01*
X0088916Y0084919D01*
X0088937Y0084971D01*
X0088961Y0085022D01*
X0088989Y0085071D01*
X0089019Y0085118D01*
X0089053Y0085163D01*
X0089090Y0085205D01*
X0089130Y0085245D01*
X0089172Y0085282D01*
X0089217Y0085316D01*
X0089264Y0085346D01*
X0089313Y0085374D01*
X0089364Y0085398D01*
X0089416Y0085419D01*
X0089469Y0085436D01*
X0089524Y0085449D01*
X0089579Y0085458D01*
X0089635Y0085464D01*
X0089691Y0085466D01*
X0089747Y0085464D01*
X0089803Y0085458D01*
X0089858Y0085449D01*
X0089913Y0085436D01*
X0089966Y0085419D01*
X0090018Y0085398D01*
X0090069Y0085374D01*
X0090118Y0085346D01*
X0090165Y0085316D01*
X0090210Y0085282D01*
X0090252Y0085245D01*
X0090292Y0085205D01*
X0090329Y0085163D01*
X0090363Y0085118D01*
X0090393Y0085071D01*
X0090421Y0085022D01*
X0090445Y0084971D01*
X0090466Y0084919D01*
X0090483Y0084866D01*
X0090496Y0084811D01*
X0090505Y0084756D01*
X0090511Y0084700D01*
X0090513Y0084644D01*
X0087723Y0085056D02*
X0087723Y0085467D01*
X0086489Y0085467D01*
X0086489Y0083000D01*
X0082955Y0083000D02*
X0082955Y0086700D01*
X0083983Y0086700D01*
X0084046Y0086698D01*
X0084109Y0086692D01*
X0084172Y0086682D01*
X0084234Y0086669D01*
X0084295Y0086652D01*
X0084354Y0086631D01*
X0084413Y0086606D01*
X0084469Y0086578D01*
X0084524Y0086546D01*
X0084577Y0086511D01*
X0084627Y0086473D01*
X0084676Y0086432D01*
X0084721Y0086388D01*
X0084764Y0086341D01*
X0084803Y0086292D01*
X0084840Y0086240D01*
X0084873Y0086186D01*
X0084903Y0086130D01*
X0084930Y0086073D01*
X0084953Y0086014D01*
X0084972Y0085953D01*
X0084987Y0085892D01*
X0084999Y0085830D01*
X0085007Y0085767D01*
X0085011Y0085704D01*
X0085011Y0085640D01*
X0085007Y0085577D01*
X0084999Y0085514D01*
X0084987Y0085452D01*
X0084972Y0085391D01*
X0084953Y0085330D01*
X0084930Y0085271D01*
X0084903Y0085214D01*
X0084873Y0085158D01*
X0084840Y0085104D01*
X0084803Y0085052D01*
X0084764Y0085003D01*
X0084721Y0084956D01*
X0084676Y0084912D01*
X0084627Y0084871D01*
X0084577Y0084833D01*
X0084524Y0084798D01*
X0084469Y0084766D01*
X0084413Y0084738D01*
X0084354Y0084713D01*
X0084295Y0084692D01*
X0084234Y0084675D01*
X0084172Y0084662D01*
X0084109Y0084652D01*
X0084046Y0084646D01*
X0083983Y0084644D01*
X0082955Y0084644D01*
X0094156Y0078336D02*
X0094156Y0076725D01*
X0094158Y0076677D01*
X0094163Y0076629D01*
X0094172Y0076582D01*
X0094185Y0076535D01*
X0094201Y0076490D01*
X0094220Y0076446D01*
X0094242Y0076403D01*
X0094268Y0076362D01*
X0094297Y0076323D01*
X0094328Y0076287D01*
X0094362Y0076253D01*
X0094398Y0076222D01*
X0094437Y0076193D01*
X0094478Y0076167D01*
X0094521Y0076145D01*
X0094565Y0076126D01*
X0094610Y0076110D01*
X0094657Y0076097D01*
X0094704Y0076088D01*
X0094752Y0076083D01*
X0094800Y0076081D01*
X0095445Y0076081D01*
X0096565Y0076081D02*
X0098176Y0076081D01*
X0097371Y0076081D02*
X0097371Y0078981D01*
X0096565Y0078336D01*
X0095445Y0078981D02*
X0094800Y0078981D01*
X0094800Y0078980D02*
X0094749Y0078978D01*
X0094699Y0078972D01*
X0094650Y0078962D01*
X0094601Y0078948D01*
X0094554Y0078931D01*
X0094508Y0078910D01*
X0094464Y0078885D01*
X0094421Y0078857D01*
X0094382Y0078826D01*
X0094345Y0078791D01*
X0094310Y0078754D01*
X0094279Y0078715D01*
X0094251Y0078672D01*
X0094226Y0078628D01*
X0094205Y0078582D01*
X0094188Y0078535D01*
X0094174Y0078486D01*
X0094164Y0078437D01*
X0094158Y0078387D01*
X0094156Y0078336D01*
X0100814Y0076484D02*
X0100852Y0076566D01*
X0100887Y0076649D01*
X0100919Y0076734D01*
X0100948Y0076819D01*
X0100973Y0076906D01*
X0100995Y0076994D01*
X0101013Y0077082D01*
X0101029Y0077171D01*
X0101041Y0077261D01*
X0101049Y0077350D01*
X0101054Y0077441D01*
X0101056Y0077531D01*
X0099445Y0077531D02*
X0099447Y0077621D01*
X0099452Y0077712D01*
X0099460Y0077801D01*
X0099472Y0077891D01*
X0099488Y0077980D01*
X0099506Y0078068D01*
X0099528Y0078156D01*
X0099553Y0078243D01*
X0099582Y0078328D01*
X0099614Y0078413D01*
X0099649Y0078496D01*
X0099687Y0078578D01*
X0100251Y0078981D02*
X0100297Y0078979D01*
X0100343Y0078974D01*
X0100388Y0078965D01*
X0100433Y0078953D01*
X0100476Y0078937D01*
X0100518Y0078918D01*
X0100559Y0078895D01*
X0100597Y0078870D01*
X0100634Y0078842D01*
X0100668Y0078811D01*
X0100700Y0078777D01*
X0100729Y0078741D01*
X0100755Y0078703D01*
X0100778Y0078663D01*
X0100798Y0078621D01*
X0100815Y0078578D01*
X0100895Y0078336D02*
X0099606Y0076725D01*
X0100251Y0076081D02*
X0100297Y0076083D01*
X0100343Y0076088D01*
X0100388Y0076097D01*
X0100433Y0076109D01*
X0100476Y0076125D01*
X0100518Y0076144D01*
X0100559Y0076167D01*
X0100597Y0076192D01*
X0100634Y0076220D01*
X0100668Y0076251D01*
X0100700Y0076285D01*
X0100729Y0076321D01*
X0100755Y0076359D01*
X0100778Y0076399D01*
X0100798Y0076441D01*
X0100815Y0076484D01*
X0100251Y0076081D02*
X0100205Y0076083D01*
X0100159Y0076088D01*
X0100114Y0076097D01*
X0100069Y0076109D01*
X0100026Y0076125D01*
X0099984Y0076144D01*
X0099943Y0076167D01*
X0099905Y0076192D01*
X0099868Y0076220D01*
X0099834Y0076251D01*
X0099802Y0076285D01*
X0099773Y0076321D01*
X0099747Y0076359D01*
X0099724Y0076399D01*
X0099704Y0076441D01*
X0099687Y0076484D01*
X0101056Y0077531D02*
X0101054Y0077621D01*
X0101049Y0077712D01*
X0101041Y0077801D01*
X0101029Y0077891D01*
X0101013Y0077980D01*
X0100995Y0078068D01*
X0100973Y0078156D01*
X0100948Y0078243D01*
X0100919Y0078328D01*
X0100887Y0078413D01*
X0100852Y0078496D01*
X0100814Y0078578D01*
X0100251Y0078981D02*
X0100205Y0078979D01*
X0100159Y0078974D01*
X0100114Y0078965D01*
X0100069Y0078953D01*
X0100026Y0078937D01*
X0099984Y0078918D01*
X0099943Y0078895D01*
X0099905Y0078870D01*
X0099868Y0078842D01*
X0099834Y0078811D01*
X0099802Y0078777D01*
X0099773Y0078741D01*
X0099747Y0078703D01*
X0099724Y0078663D01*
X0099704Y0078621D01*
X0099687Y0078578D01*
X0099445Y0077531D02*
X0099447Y0077441D01*
X0099452Y0077350D01*
X0099460Y0077261D01*
X0099472Y0077171D01*
X0099488Y0077082D01*
X0099506Y0076994D01*
X0099528Y0076906D01*
X0099553Y0076819D01*
X0099582Y0076734D01*
X0099614Y0076649D01*
X0099649Y0076566D01*
X0099687Y0076484D01*
X0102330Y0064650D02*
X0102975Y0064650D01*
X0102652Y0064650D02*
X0102652Y0061750D01*
X0102330Y0061750D02*
X0102975Y0061750D01*
X0104142Y0062394D02*
X0104142Y0064006D01*
X0104144Y0064057D01*
X0104150Y0064107D01*
X0104160Y0064156D01*
X0104174Y0064205D01*
X0104191Y0064252D01*
X0104212Y0064298D01*
X0104237Y0064342D01*
X0104265Y0064385D01*
X0104296Y0064424D01*
X0104331Y0064461D01*
X0104368Y0064496D01*
X0104407Y0064527D01*
X0104450Y0064555D01*
X0104494Y0064580D01*
X0104540Y0064601D01*
X0104587Y0064618D01*
X0104636Y0064632D01*
X0104685Y0064642D01*
X0104735Y0064648D01*
X0104786Y0064650D01*
X0105431Y0064650D01*
X0106551Y0064650D02*
X0107517Y0064650D01*
X0107566Y0064648D01*
X0107615Y0064642D01*
X0107664Y0064633D01*
X0107711Y0064620D01*
X0107758Y0064603D01*
X0107803Y0064583D01*
X0107846Y0064560D01*
X0107888Y0064533D01*
X0107927Y0064503D01*
X0107964Y0064470D01*
X0107998Y0064434D01*
X0108029Y0064396D01*
X0108058Y0064356D01*
X0108083Y0064314D01*
X0108105Y0064269D01*
X0108123Y0064224D01*
X0108138Y0064177D01*
X0108149Y0064129D01*
X0108157Y0064080D01*
X0108161Y0064031D01*
X0108161Y0063981D01*
X0108157Y0063932D01*
X0108149Y0063883D01*
X0108138Y0063835D01*
X0108123Y0063788D01*
X0108105Y0063743D01*
X0108083Y0063698D01*
X0108058Y0063656D01*
X0108029Y0063616D01*
X0107998Y0063578D01*
X0107964Y0063542D01*
X0107927Y0063509D01*
X0107888Y0063479D01*
X0107846Y0063452D01*
X0107803Y0063429D01*
X0107758Y0063409D01*
X0107711Y0063392D01*
X0107664Y0063379D01*
X0107615Y0063370D01*
X0107566Y0063364D01*
X0107517Y0063362D01*
X0107517Y0063361D02*
X0106873Y0063361D01*
X0107356Y0063362D02*
X0107411Y0063360D01*
X0107466Y0063354D01*
X0107520Y0063345D01*
X0107573Y0063332D01*
X0107626Y0063315D01*
X0107677Y0063295D01*
X0107727Y0063272D01*
X0107775Y0063245D01*
X0107821Y0063214D01*
X0107865Y0063181D01*
X0107906Y0063145D01*
X0107945Y0063106D01*
X0107981Y0063065D01*
X0108014Y0063021D01*
X0108045Y0062975D01*
X0108072Y0062927D01*
X0108095Y0062877D01*
X0108115Y0062826D01*
X0108132Y0062773D01*
X0108145Y0062720D01*
X0108154Y0062666D01*
X0108160Y0062611D01*
X0108162Y0062556D01*
X0108160Y0062501D01*
X0108154Y0062446D01*
X0108145Y0062392D01*
X0108132Y0062339D01*
X0108115Y0062286D01*
X0108095Y0062235D01*
X0108072Y0062185D01*
X0108045Y0062137D01*
X0108014Y0062091D01*
X0107981Y0062047D01*
X0107945Y0062006D01*
X0107906Y0061967D01*
X0107865Y0061931D01*
X0107821Y0061898D01*
X0107775Y0061867D01*
X0107727Y0061840D01*
X0107677Y0061817D01*
X0107626Y0061797D01*
X0107573Y0061780D01*
X0107520Y0061767D01*
X0107466Y0061758D01*
X0107411Y0061752D01*
X0107356Y0061750D01*
X0106551Y0061750D01*
X0105431Y0061750D02*
X0104786Y0061750D01*
X0104738Y0061752D01*
X0104690Y0061757D01*
X0104643Y0061766D01*
X0104596Y0061779D01*
X0104551Y0061795D01*
X0104507Y0061814D01*
X0104464Y0061836D01*
X0104423Y0061862D01*
X0104384Y0061891D01*
X0104348Y0061922D01*
X0104314Y0061956D01*
X0104283Y0061992D01*
X0104254Y0062031D01*
X0104228Y0062072D01*
X0104206Y0062115D01*
X0104187Y0062159D01*
X0104171Y0062204D01*
X0104158Y0062251D01*
X0104149Y0062298D01*
X0104144Y0062346D01*
X0104142Y0062394D01*
X0103594Y0051584D02*
X0102950Y0051584D01*
X0102899Y0051582D01*
X0102849Y0051576D01*
X0102800Y0051566D01*
X0102751Y0051552D01*
X0102704Y0051535D01*
X0102658Y0051514D01*
X0102614Y0051489D01*
X0102571Y0051461D01*
X0102532Y0051430D01*
X0102495Y0051395D01*
X0102460Y0051358D01*
X0102429Y0051319D01*
X0102401Y0051276D01*
X0102376Y0051232D01*
X0102355Y0051186D01*
X0102338Y0051139D01*
X0102324Y0051090D01*
X0102314Y0051041D01*
X0102308Y0050991D01*
X0102306Y0050940D01*
X0102306Y0049328D01*
X0102308Y0049280D01*
X0102313Y0049232D01*
X0102322Y0049185D01*
X0102335Y0049138D01*
X0102351Y0049093D01*
X0102370Y0049049D01*
X0102392Y0049006D01*
X0102418Y0048965D01*
X0102447Y0048926D01*
X0102478Y0048890D01*
X0102512Y0048856D01*
X0102548Y0048825D01*
X0102587Y0048796D01*
X0102628Y0048770D01*
X0102671Y0048748D01*
X0102715Y0048729D01*
X0102760Y0048713D01*
X0102807Y0048700D01*
X0102854Y0048691D01*
X0102902Y0048686D01*
X0102950Y0048684D01*
X0103594Y0048684D01*
X0104714Y0049490D02*
X0104716Y0049435D01*
X0104722Y0049380D01*
X0104731Y0049326D01*
X0104744Y0049273D01*
X0104761Y0049220D01*
X0104781Y0049169D01*
X0104804Y0049119D01*
X0104831Y0049071D01*
X0104862Y0049025D01*
X0104895Y0048981D01*
X0104931Y0048940D01*
X0104970Y0048901D01*
X0105011Y0048865D01*
X0105055Y0048832D01*
X0105101Y0048801D01*
X0105149Y0048774D01*
X0105199Y0048751D01*
X0105250Y0048731D01*
X0105303Y0048714D01*
X0105356Y0048701D01*
X0105410Y0048692D01*
X0105465Y0048686D01*
X0105520Y0048684D01*
X0105575Y0048686D01*
X0105630Y0048692D01*
X0105684Y0048701D01*
X0105737Y0048714D01*
X0105790Y0048731D01*
X0105841Y0048751D01*
X0105891Y0048774D01*
X0105939Y0048801D01*
X0105985Y0048832D01*
X0106029Y0048865D01*
X0106070Y0048901D01*
X0106109Y0048940D01*
X0106145Y0048981D01*
X0106178Y0049025D01*
X0106209Y0049071D01*
X0106236Y0049119D01*
X0106259Y0049169D01*
X0106279Y0049220D01*
X0106296Y0049273D01*
X0106309Y0049326D01*
X0106318Y0049380D01*
X0106324Y0049435D01*
X0106326Y0049490D01*
X0106324Y0049545D01*
X0106318Y0049600D01*
X0106309Y0049654D01*
X0106296Y0049707D01*
X0106279Y0049760D01*
X0106259Y0049811D01*
X0106236Y0049861D01*
X0106209Y0049909D01*
X0106178Y0049955D01*
X0106145Y0049999D01*
X0106109Y0050040D01*
X0106070Y0050079D01*
X0106029Y0050115D01*
X0105985Y0050148D01*
X0105939Y0050179D01*
X0105891Y0050206D01*
X0105841Y0050229D01*
X0105790Y0050249D01*
X0105737Y0050266D01*
X0105684Y0050279D01*
X0105630Y0050288D01*
X0105575Y0050294D01*
X0105520Y0050296D01*
X0105465Y0050294D01*
X0105410Y0050288D01*
X0105356Y0050279D01*
X0105303Y0050266D01*
X0105250Y0050249D01*
X0105199Y0050229D01*
X0105149Y0050206D01*
X0105101Y0050179D01*
X0105055Y0050148D01*
X0105011Y0050115D01*
X0104970Y0050079D01*
X0104931Y0050040D01*
X0104895Y0049999D01*
X0104862Y0049955D01*
X0104831Y0049909D01*
X0104804Y0049861D01*
X0104781Y0049811D01*
X0104761Y0049760D01*
X0104744Y0049707D01*
X0104731Y0049654D01*
X0104722Y0049600D01*
X0104716Y0049545D01*
X0104714Y0049490D01*
X0104876Y0050940D02*
X0104878Y0050891D01*
X0104884Y0050842D01*
X0104893Y0050793D01*
X0104906Y0050746D01*
X0104923Y0050699D01*
X0104943Y0050654D01*
X0104966Y0050611D01*
X0104993Y0050569D01*
X0105023Y0050530D01*
X0105056Y0050493D01*
X0105092Y0050459D01*
X0105130Y0050428D01*
X0105170Y0050399D01*
X0105212Y0050374D01*
X0105257Y0050352D01*
X0105302Y0050334D01*
X0105349Y0050319D01*
X0105397Y0050308D01*
X0105446Y0050300D01*
X0105495Y0050296D01*
X0105545Y0050296D01*
X0105594Y0050300D01*
X0105643Y0050308D01*
X0105691Y0050319D01*
X0105738Y0050334D01*
X0105783Y0050352D01*
X0105828Y0050374D01*
X0105870Y0050399D01*
X0105910Y0050428D01*
X0105948Y0050459D01*
X0105984Y0050493D01*
X0106017Y0050530D01*
X0106047Y0050569D01*
X0106074Y0050611D01*
X0106097Y0050654D01*
X0106117Y0050699D01*
X0106134Y0050746D01*
X0106147Y0050793D01*
X0106156Y0050842D01*
X0106162Y0050891D01*
X0106164Y0050940D01*
X0106162Y0050989D01*
X0106156Y0051038D01*
X0106147Y0051087D01*
X0106134Y0051134D01*
X0106117Y0051181D01*
X0106097Y0051226D01*
X0106074Y0051269D01*
X0106047Y0051311D01*
X0106017Y0051350D01*
X0105984Y0051387D01*
X0105948Y0051421D01*
X0105910Y0051452D01*
X0105870Y0051481D01*
X0105828Y0051506D01*
X0105783Y0051528D01*
X0105738Y0051546D01*
X0105691Y0051561D01*
X0105643Y0051572D01*
X0105594Y0051580D01*
X0105545Y0051584D01*
X0105495Y0051584D01*
X0105446Y0051580D01*
X0105397Y0051572D01*
X0105349Y0051561D01*
X0105302Y0051546D01*
X0105257Y0051528D01*
X0105212Y0051506D01*
X0105170Y0051481D01*
X0105130Y0051452D01*
X0105092Y0051421D01*
X0105056Y0051387D01*
X0105023Y0051350D01*
X0104993Y0051311D01*
X0104966Y0051269D01*
X0104943Y0051226D01*
X0104923Y0051181D01*
X0104906Y0051134D01*
X0104893Y0051087D01*
X0104884Y0051038D01*
X0104878Y0050989D01*
X0104876Y0050940D01*
X0109200Y0040334D02*
X0109844Y0040334D01*
X0109200Y0040334D02*
X0109149Y0040332D01*
X0109099Y0040326D01*
X0109050Y0040316D01*
X0109001Y0040302D01*
X0108954Y0040285D01*
X0108908Y0040264D01*
X0108864Y0040239D01*
X0108821Y0040211D01*
X0108782Y0040180D01*
X0108745Y0040145D01*
X0108710Y0040108D01*
X0108679Y0040069D01*
X0108651Y0040026D01*
X0108626Y0039982D01*
X0108605Y0039936D01*
X0108588Y0039889D01*
X0108574Y0039840D01*
X0108564Y0039791D01*
X0108558Y0039741D01*
X0108556Y0039690D01*
X0108556Y0038078D01*
X0108558Y0038030D01*
X0108563Y0037982D01*
X0108572Y0037935D01*
X0108585Y0037888D01*
X0108601Y0037843D01*
X0108620Y0037799D01*
X0108642Y0037756D01*
X0108668Y0037715D01*
X0108697Y0037676D01*
X0108728Y0037640D01*
X0108762Y0037606D01*
X0108798Y0037575D01*
X0108837Y0037546D01*
X0108878Y0037520D01*
X0108921Y0037498D01*
X0108965Y0037479D01*
X0109010Y0037463D01*
X0109057Y0037450D01*
X0109104Y0037441D01*
X0109152Y0037436D01*
X0109200Y0037434D01*
X0109844Y0037434D01*
X0108645Y0036584D02*
X0107840Y0035940D01*
X0108645Y0036584D02*
X0108645Y0033684D01*
X0107840Y0033684D02*
X0109451Y0033684D01*
X0106719Y0033684D02*
X0106075Y0033684D01*
X0106027Y0033686D01*
X0105979Y0033691D01*
X0105932Y0033700D01*
X0105885Y0033713D01*
X0105840Y0033729D01*
X0105796Y0033748D01*
X0105753Y0033770D01*
X0105712Y0033796D01*
X0105673Y0033825D01*
X0105637Y0033856D01*
X0105603Y0033890D01*
X0105572Y0033926D01*
X0105543Y0033965D01*
X0105517Y0034006D01*
X0105495Y0034049D01*
X0105476Y0034093D01*
X0105460Y0034138D01*
X0105447Y0034185D01*
X0105438Y0034232D01*
X0105433Y0034280D01*
X0105431Y0034328D01*
X0105431Y0035940D01*
X0105433Y0035991D01*
X0105439Y0036041D01*
X0105449Y0036090D01*
X0105463Y0036139D01*
X0105480Y0036186D01*
X0105501Y0036232D01*
X0105526Y0036276D01*
X0105554Y0036319D01*
X0105585Y0036358D01*
X0105620Y0036395D01*
X0105657Y0036430D01*
X0105696Y0036461D01*
X0105739Y0036489D01*
X0105783Y0036514D01*
X0105829Y0036535D01*
X0105876Y0036552D01*
X0105925Y0036566D01*
X0105974Y0036576D01*
X0106024Y0036582D01*
X0106075Y0036584D01*
X0106719Y0036584D01*
X0111770Y0037434D02*
X0112576Y0040334D01*
X0110965Y0040334D01*
X0110965Y0040012D01*
X0089973Y0027119D02*
X0089329Y0027119D01*
X0089278Y0027117D01*
X0089228Y0027111D01*
X0089179Y0027101D01*
X0089130Y0027087D01*
X0089083Y0027070D01*
X0089037Y0027049D01*
X0088993Y0027024D01*
X0088950Y0026996D01*
X0088911Y0026965D01*
X0088874Y0026930D01*
X0088839Y0026893D01*
X0088808Y0026854D01*
X0088780Y0026811D01*
X0088755Y0026767D01*
X0088734Y0026721D01*
X0088717Y0026674D01*
X0088703Y0026625D01*
X0088693Y0026576D01*
X0088687Y0026526D01*
X0088685Y0026475D01*
X0088684Y0026475D02*
X0088684Y0024864D01*
X0088685Y0024864D02*
X0088687Y0024816D01*
X0088692Y0024768D01*
X0088701Y0024721D01*
X0088714Y0024674D01*
X0088730Y0024629D01*
X0088749Y0024585D01*
X0088771Y0024542D01*
X0088797Y0024501D01*
X0088826Y0024462D01*
X0088857Y0024426D01*
X0088891Y0024392D01*
X0088927Y0024361D01*
X0088966Y0024332D01*
X0089007Y0024306D01*
X0089050Y0024284D01*
X0089094Y0024265D01*
X0089139Y0024249D01*
X0089186Y0024236D01*
X0089233Y0024227D01*
X0089281Y0024222D01*
X0089329Y0024220D01*
X0089329Y0024219D02*
X0089973Y0024219D01*
X0091415Y0024219D02*
X0091485Y0024221D01*
X0091554Y0024227D01*
X0091624Y0024236D01*
X0091692Y0024249D01*
X0091760Y0024266D01*
X0091827Y0024286D01*
X0091892Y0024311D01*
X0091956Y0024338D01*
X0092019Y0024369D01*
X0092080Y0024404D01*
X0092138Y0024441D01*
X0092195Y0024482D01*
X0092249Y0024526D01*
X0092301Y0024572D01*
X0092351Y0024622D01*
X0092397Y0024674D01*
X0092441Y0024728D01*
X0092482Y0024785D01*
X0092519Y0024843D01*
X0092554Y0024904D01*
X0092585Y0024967D01*
X0092612Y0025031D01*
X0092637Y0025096D01*
X0092657Y0025163D01*
X0092674Y0025231D01*
X0092687Y0025299D01*
X0092696Y0025369D01*
X0092702Y0025438D01*
X0092704Y0025508D01*
X0092704Y0026314D01*
X0092705Y0026314D02*
X0092703Y0026369D01*
X0092697Y0026424D01*
X0092688Y0026478D01*
X0092675Y0026531D01*
X0092658Y0026584D01*
X0092638Y0026635D01*
X0092615Y0026685D01*
X0092588Y0026733D01*
X0092557Y0026779D01*
X0092524Y0026823D01*
X0092488Y0026864D01*
X0092449Y0026903D01*
X0092408Y0026939D01*
X0092364Y0026972D01*
X0092318Y0027003D01*
X0092270Y0027030D01*
X0092220Y0027053D01*
X0092169Y0027073D01*
X0092116Y0027090D01*
X0092063Y0027103D01*
X0092009Y0027112D01*
X0091954Y0027118D01*
X0091899Y0027120D01*
X0091844Y0027118D01*
X0091789Y0027112D01*
X0091735Y0027103D01*
X0091682Y0027090D01*
X0091629Y0027073D01*
X0091578Y0027053D01*
X0091528Y0027030D01*
X0091480Y0027003D01*
X0091434Y0026972D01*
X0091390Y0026939D01*
X0091349Y0026903D01*
X0091310Y0026864D01*
X0091274Y0026823D01*
X0091241Y0026779D01*
X0091210Y0026733D01*
X0091183Y0026685D01*
X0091160Y0026635D01*
X0091140Y0026584D01*
X0091123Y0026531D01*
X0091110Y0026478D01*
X0091101Y0026424D01*
X0091095Y0026369D01*
X0091093Y0026314D01*
X0091093Y0026153D01*
X0091094Y0026153D02*
X0091096Y0026105D01*
X0091101Y0026057D01*
X0091110Y0026010D01*
X0091123Y0025963D01*
X0091139Y0025918D01*
X0091158Y0025874D01*
X0091180Y0025831D01*
X0091206Y0025790D01*
X0091234Y0025751D01*
X0091266Y0025715D01*
X0091300Y0025681D01*
X0091336Y0025650D01*
X0091375Y0025621D01*
X0091416Y0025595D01*
X0091459Y0025573D01*
X0091503Y0025554D01*
X0091548Y0025538D01*
X0091595Y0025525D01*
X0091642Y0025516D01*
X0091690Y0025511D01*
X0091738Y0025509D01*
X0091738Y0025508D02*
X0092704Y0025508D01*
X0085541Y0018871D02*
X0085379Y0018871D01*
X0085379Y0018870D02*
X0085331Y0018868D01*
X0085283Y0018863D01*
X0085236Y0018854D01*
X0085189Y0018841D01*
X0085144Y0018825D01*
X0085100Y0018806D01*
X0085057Y0018784D01*
X0085016Y0018758D01*
X0084977Y0018730D01*
X0084941Y0018698D01*
X0084907Y0018664D01*
X0084876Y0018628D01*
X0084847Y0018589D01*
X0084821Y0018548D01*
X0084799Y0018505D01*
X0084780Y0018461D01*
X0084764Y0018416D01*
X0084751Y0018369D01*
X0084742Y0018322D01*
X0084737Y0018274D01*
X0084735Y0018226D01*
X0084735Y0017259D01*
X0085541Y0017259D01*
X0085596Y0017261D01*
X0085651Y0017267D01*
X0085705Y0017276D01*
X0085758Y0017289D01*
X0085811Y0017306D01*
X0085862Y0017326D01*
X0085912Y0017349D01*
X0085960Y0017376D01*
X0086006Y0017407D01*
X0086050Y0017440D01*
X0086091Y0017476D01*
X0086130Y0017515D01*
X0086166Y0017556D01*
X0086199Y0017600D01*
X0086230Y0017646D01*
X0086257Y0017694D01*
X0086280Y0017744D01*
X0086300Y0017795D01*
X0086317Y0017848D01*
X0086330Y0017901D01*
X0086339Y0017955D01*
X0086345Y0018010D01*
X0086347Y0018065D01*
X0086345Y0018120D01*
X0086339Y0018175D01*
X0086330Y0018229D01*
X0086317Y0018282D01*
X0086300Y0018335D01*
X0086280Y0018386D01*
X0086257Y0018436D01*
X0086230Y0018484D01*
X0086199Y0018530D01*
X0086166Y0018574D01*
X0086130Y0018615D01*
X0086091Y0018654D01*
X0086050Y0018690D01*
X0086006Y0018723D01*
X0085960Y0018754D01*
X0085912Y0018781D01*
X0085862Y0018804D01*
X0085811Y0018824D01*
X0085758Y0018841D01*
X0085705Y0018854D01*
X0085651Y0018863D01*
X0085596Y0018869D01*
X0085541Y0018871D01*
X0084735Y0017259D02*
X0084665Y0017261D01*
X0084596Y0017267D01*
X0084526Y0017276D01*
X0084458Y0017289D01*
X0084390Y0017306D01*
X0084323Y0017326D01*
X0084258Y0017351D01*
X0084194Y0017378D01*
X0084131Y0017409D01*
X0084070Y0017444D01*
X0084012Y0017481D01*
X0083955Y0017522D01*
X0083901Y0017566D01*
X0083849Y0017612D01*
X0083799Y0017662D01*
X0083753Y0017714D01*
X0083709Y0017768D01*
X0083668Y0017825D01*
X0083631Y0017883D01*
X0083596Y0017944D01*
X0083565Y0018007D01*
X0083538Y0018071D01*
X0083513Y0018136D01*
X0083493Y0018203D01*
X0083476Y0018271D01*
X0083463Y0018339D01*
X0083454Y0018409D01*
X0083448Y0018478D01*
X0083446Y0018548D01*
X0083446Y0016139D02*
X0083446Y0015495D01*
X0083447Y0015495D02*
X0083449Y0015444D01*
X0083455Y0015394D01*
X0083465Y0015345D01*
X0083479Y0015296D01*
X0083496Y0015249D01*
X0083517Y0015203D01*
X0083542Y0015158D01*
X0083570Y0015116D01*
X0083601Y0015077D01*
X0083636Y0015040D01*
X0083673Y0015005D01*
X0083712Y0014974D01*
X0083755Y0014946D01*
X0083799Y0014921D01*
X0083845Y0014900D01*
X0083892Y0014883D01*
X0083941Y0014869D01*
X0083990Y0014859D01*
X0084040Y0014853D01*
X0084091Y0014851D01*
X0084091Y0014850D02*
X0085702Y0014850D01*
X0085702Y0014851D02*
X0085750Y0014853D01*
X0085798Y0014858D01*
X0085845Y0014867D01*
X0085892Y0014880D01*
X0085937Y0014896D01*
X0085981Y0014915D01*
X0086024Y0014937D01*
X0086065Y0014963D01*
X0086104Y0014992D01*
X0086140Y0015023D01*
X0086174Y0015057D01*
X0086205Y0015093D01*
X0086234Y0015132D01*
X0086260Y0015173D01*
X0086282Y0015216D01*
X0086301Y0015260D01*
X0086317Y0015305D01*
X0086330Y0015352D01*
X0086339Y0015399D01*
X0086344Y0015447D01*
X0086346Y0015495D01*
X0086346Y0016139D01*
X0110455Y0014025D02*
X0111100Y0014025D01*
X0110777Y0014025D02*
X0110777Y0011125D01*
X0110455Y0011125D02*
X0111100Y0011125D01*
X0112267Y0011769D02*
X0112267Y0013381D01*
X0112269Y0013432D01*
X0112275Y0013482D01*
X0112285Y0013531D01*
X0112299Y0013580D01*
X0112316Y0013627D01*
X0112337Y0013673D01*
X0112362Y0013717D01*
X0112390Y0013760D01*
X0112421Y0013799D01*
X0112456Y0013836D01*
X0112493Y0013871D01*
X0112532Y0013902D01*
X0112575Y0013930D01*
X0112619Y0013955D01*
X0112665Y0013976D01*
X0112712Y0013993D01*
X0112761Y0014007D01*
X0112810Y0014017D01*
X0112860Y0014023D01*
X0112911Y0014025D01*
X0113556Y0014025D01*
X0116045Y0012736D02*
X0116082Y0012773D01*
X0116116Y0012813D01*
X0116148Y0012855D01*
X0116176Y0012900D01*
X0116202Y0012946D01*
X0116224Y0012993D01*
X0116243Y0013042D01*
X0116259Y0013092D01*
X0116271Y0013143D01*
X0116280Y0013195D01*
X0116285Y0013247D01*
X0116287Y0013300D01*
X0116045Y0012736D02*
X0114676Y0011125D01*
X0116287Y0011125D01*
X0114676Y0013381D02*
X0114696Y0013436D01*
X0114719Y0013490D01*
X0114746Y0013542D01*
X0114776Y0013592D01*
X0114808Y0013641D01*
X0114844Y0013687D01*
X0114883Y0013731D01*
X0114924Y0013772D01*
X0114968Y0013811D01*
X0115014Y0013847D01*
X0115063Y0013880D01*
X0115113Y0013910D01*
X0115165Y0013936D01*
X0115219Y0013960D01*
X0115274Y0013979D01*
X0115330Y0013996D01*
X0115387Y0014008D01*
X0115445Y0014018D01*
X0115503Y0014023D01*
X0115562Y0014025D01*
X0115614Y0014023D01*
X0115665Y0014018D01*
X0115716Y0014008D01*
X0115766Y0013996D01*
X0115815Y0013979D01*
X0115863Y0013959D01*
X0115909Y0013936D01*
X0115954Y0013910D01*
X0115996Y0013880D01*
X0116037Y0013848D01*
X0116075Y0013813D01*
X0116110Y0013775D01*
X0116142Y0013734D01*
X0116172Y0013692D01*
X0116198Y0013647D01*
X0116221Y0013601D01*
X0116241Y0013553D01*
X0116258Y0013504D01*
X0116270Y0013454D01*
X0116280Y0013403D01*
X0116285Y0013352D01*
X0116287Y0013300D01*
X0113556Y0011125D02*
X0112911Y0011125D01*
X0112863Y0011127D01*
X0112815Y0011132D01*
X0112768Y0011141D01*
X0112721Y0011154D01*
X0112676Y0011170D01*
X0112632Y0011189D01*
X0112589Y0011211D01*
X0112548Y0011237D01*
X0112509Y0011266D01*
X0112473Y0011297D01*
X0112439Y0011331D01*
X0112408Y0011367D01*
X0112379Y0011406D01*
X0112353Y0011447D01*
X0112331Y0011490D01*
X0112312Y0011534D01*
X0112296Y0011579D01*
X0112283Y0011626D01*
X0112274Y0011673D01*
X0112269Y0011721D01*
X0112267Y0011769D01*
X0064279Y0027276D02*
X0064279Y0027921D01*
X0064279Y0027276D02*
X0064277Y0027228D01*
X0064272Y0027180D01*
X0064263Y0027133D01*
X0064250Y0027086D01*
X0064234Y0027041D01*
X0064215Y0026997D01*
X0064193Y0026954D01*
X0064167Y0026913D01*
X0064138Y0026874D01*
X0064107Y0026838D01*
X0064073Y0026804D01*
X0064037Y0026773D01*
X0063998Y0026744D01*
X0063957Y0026718D01*
X0063914Y0026696D01*
X0063870Y0026677D01*
X0063825Y0026661D01*
X0063778Y0026648D01*
X0063731Y0026639D01*
X0063683Y0026634D01*
X0063635Y0026632D01*
X0062024Y0026632D01*
X0061973Y0026634D01*
X0061923Y0026640D01*
X0061874Y0026650D01*
X0061825Y0026664D01*
X0061778Y0026681D01*
X0061732Y0026702D01*
X0061688Y0026727D01*
X0061645Y0026755D01*
X0061606Y0026786D01*
X0061569Y0026821D01*
X0061534Y0026858D01*
X0061503Y0026897D01*
X0061475Y0026939D01*
X0061450Y0026984D01*
X0061429Y0027030D01*
X0061412Y0027077D01*
X0061398Y0027126D01*
X0061388Y0027175D01*
X0061382Y0027225D01*
X0061380Y0027276D01*
X0061379Y0027276D02*
X0061379Y0027921D01*
X0061379Y0029685D02*
X0063635Y0029041D01*
X0063635Y0030652D01*
X0062990Y0030169D02*
X0064279Y0030169D01*
X0063950Y0076632D02*
X0062339Y0076632D01*
X0062288Y0076634D01*
X0062238Y0076640D01*
X0062189Y0076650D01*
X0062140Y0076664D01*
X0062093Y0076681D01*
X0062047Y0076702D01*
X0062003Y0076727D01*
X0061960Y0076755D01*
X0061921Y0076786D01*
X0061884Y0076821D01*
X0061849Y0076858D01*
X0061818Y0076897D01*
X0061790Y0076939D01*
X0061765Y0076984D01*
X0061744Y0077030D01*
X0061727Y0077077D01*
X0061713Y0077126D01*
X0061703Y0077175D01*
X0061697Y0077225D01*
X0061695Y0077276D01*
X0061694Y0077276D02*
X0061694Y0077921D01*
X0063950Y0076632D02*
X0063998Y0076634D01*
X0064046Y0076639D01*
X0064093Y0076648D01*
X0064140Y0076661D01*
X0064185Y0076677D01*
X0064229Y0076696D01*
X0064272Y0076718D01*
X0064313Y0076744D01*
X0064352Y0076773D01*
X0064388Y0076804D01*
X0064422Y0076838D01*
X0064453Y0076874D01*
X0064482Y0076913D01*
X0064508Y0076954D01*
X0064530Y0076997D01*
X0064549Y0077041D01*
X0064565Y0077086D01*
X0064578Y0077133D01*
X0064587Y0077180D01*
X0064592Y0077228D01*
X0064594Y0077276D01*
X0064594Y0077921D01*
X0064594Y0079041D02*
X0064594Y0080652D01*
X0064594Y0079041D02*
X0062983Y0080410D01*
X0061695Y0079927D02*
X0061697Y0079868D01*
X0061702Y0079810D01*
X0061712Y0079752D01*
X0061724Y0079695D01*
X0061741Y0079639D01*
X0061760Y0079584D01*
X0061784Y0079530D01*
X0061810Y0079478D01*
X0061840Y0079428D01*
X0061873Y0079379D01*
X0061909Y0079333D01*
X0061948Y0079289D01*
X0061989Y0079248D01*
X0062033Y0079209D01*
X0062079Y0079173D01*
X0062128Y0079141D01*
X0062178Y0079111D01*
X0062230Y0079084D01*
X0062284Y0079061D01*
X0062339Y0079041D01*
X0062983Y0080410D02*
X0062946Y0080447D01*
X0062906Y0080481D01*
X0062864Y0080513D01*
X0062819Y0080541D01*
X0062773Y0080567D01*
X0062726Y0080589D01*
X0062677Y0080608D01*
X0062627Y0080624D01*
X0062576Y0080636D01*
X0062524Y0080645D01*
X0062472Y0080650D01*
X0062419Y0080652D01*
X0062367Y0080650D01*
X0062316Y0080645D01*
X0062265Y0080635D01*
X0062215Y0080623D01*
X0062166Y0080606D01*
X0062118Y0080586D01*
X0062072Y0080563D01*
X0062027Y0080537D01*
X0061985Y0080507D01*
X0061944Y0080475D01*
X0061906Y0080440D01*
X0061871Y0080402D01*
X0061839Y0080361D01*
X0061809Y0080319D01*
X0061783Y0080274D01*
X0061760Y0080228D01*
X0061740Y0080180D01*
X0061723Y0080131D01*
X0061711Y0080081D01*
X0061701Y0080030D01*
X0061696Y0079979D01*
X0061694Y0079927D01*
X0187770Y0033950D02*
X0187818Y0033952D01*
X0187866Y0033957D01*
X0187913Y0033966D01*
X0187960Y0033979D01*
X0188005Y0033995D01*
X0188049Y0034014D01*
X0188092Y0034036D01*
X0188133Y0034062D01*
X0188172Y0034091D01*
X0188208Y0034122D01*
X0188242Y0034156D01*
X0188273Y0034192D01*
X0188302Y0034231D01*
X0188328Y0034272D01*
X0188350Y0034315D01*
X0188369Y0034359D01*
X0188385Y0034404D01*
X0188398Y0034451D01*
X0188407Y0034498D01*
X0188412Y0034546D01*
X0188414Y0034594D01*
X0188414Y0035238D01*
D14*
X0161455Y0030353D02*
X0161455Y0029131D01*
X0160233Y0030170D01*
X0159255Y0029803D02*
X0159257Y0029751D01*
X0159263Y0029699D01*
X0159272Y0029647D01*
X0159286Y0029597D01*
X0159303Y0029547D01*
X0159324Y0029499D01*
X0159348Y0029453D01*
X0159375Y0029409D01*
X0159406Y0029366D01*
X0159440Y0029326D01*
X0159476Y0029289D01*
X0159516Y0029255D01*
X0159558Y0029223D01*
X0159601Y0029195D01*
X0159647Y0029170D01*
X0159695Y0029148D01*
X0159744Y0029130D01*
X0160233Y0030170D02*
X0160199Y0030203D01*
X0160162Y0030233D01*
X0160122Y0030261D01*
X0160081Y0030285D01*
X0160038Y0030305D01*
X0159993Y0030322D01*
X0159947Y0030336D01*
X0159900Y0030345D01*
X0159853Y0030351D01*
X0159805Y0030353D01*
X0159760Y0030351D01*
X0159714Y0030345D01*
X0159670Y0030336D01*
X0159626Y0030323D01*
X0159584Y0030307D01*
X0159543Y0030287D01*
X0159504Y0030263D01*
X0159467Y0030237D01*
X0159432Y0030208D01*
X0159400Y0030176D01*
X0159371Y0030141D01*
X0159345Y0030104D01*
X0159321Y0030065D01*
X0159301Y0030024D01*
X0159285Y0029982D01*
X0159272Y0029938D01*
X0159263Y0029894D01*
X0159257Y0029848D01*
X0159255Y0029803D01*
X0161455Y0028193D02*
X0161455Y0026971D01*
X0161455Y0027582D02*
X0159255Y0027582D01*
X0159744Y0026971D01*
X0160477Y0025558D02*
X0161455Y0026047D01*
X0160477Y0025436D02*
X0160477Y0024825D01*
X0160477Y0025436D02*
X0160475Y0025484D01*
X0160469Y0025532D01*
X0160460Y0025579D01*
X0160447Y0025625D01*
X0160430Y0025670D01*
X0160410Y0025713D01*
X0160387Y0025755D01*
X0160360Y0025795D01*
X0160331Y0025833D01*
X0160298Y0025868D01*
X0160263Y0025901D01*
X0160225Y0025930D01*
X0160185Y0025957D01*
X0160143Y0025980D01*
X0160100Y0026000D01*
X0160055Y0026017D01*
X0160009Y0026030D01*
X0159962Y0026039D01*
X0159914Y0026045D01*
X0159866Y0026047D01*
X0159818Y0026045D01*
X0159770Y0026039D01*
X0159723Y0026030D01*
X0159677Y0026017D01*
X0159632Y0026000D01*
X0159589Y0025980D01*
X0159547Y0025957D01*
X0159507Y0025930D01*
X0159469Y0025901D01*
X0159434Y0025868D01*
X0159401Y0025833D01*
X0159372Y0025795D01*
X0159345Y0025755D01*
X0159322Y0025713D01*
X0159302Y0025670D01*
X0159285Y0025625D01*
X0159272Y0025579D01*
X0159263Y0025532D01*
X0159257Y0025484D01*
X0159255Y0025436D01*
X0159255Y0024825D01*
X0161455Y0024825D01*
X0145205Y0030550D02*
X0143983Y0030550D01*
X0144594Y0030550D02*
X0144594Y0032750D01*
X0143983Y0032261D01*
X0142434Y0032750D02*
X0142434Y0030550D01*
X0141823Y0030550D02*
X0143045Y0030550D01*
X0140899Y0030550D02*
X0140410Y0031528D01*
X0140288Y0031528D02*
X0139677Y0031528D01*
X0140288Y0031528D02*
X0140336Y0031530D01*
X0140384Y0031536D01*
X0140431Y0031545D01*
X0140477Y0031558D01*
X0140522Y0031575D01*
X0140565Y0031595D01*
X0140607Y0031618D01*
X0140647Y0031645D01*
X0140685Y0031674D01*
X0140720Y0031707D01*
X0140753Y0031742D01*
X0140782Y0031780D01*
X0140809Y0031820D01*
X0140832Y0031862D01*
X0140852Y0031905D01*
X0140869Y0031950D01*
X0140882Y0031996D01*
X0140891Y0032043D01*
X0140897Y0032091D01*
X0140899Y0032139D01*
X0140897Y0032187D01*
X0140891Y0032235D01*
X0140882Y0032282D01*
X0140869Y0032328D01*
X0140852Y0032373D01*
X0140832Y0032416D01*
X0140809Y0032458D01*
X0140782Y0032498D01*
X0140753Y0032536D01*
X0140720Y0032571D01*
X0140685Y0032604D01*
X0140647Y0032633D01*
X0140607Y0032660D01*
X0140565Y0032683D01*
X0140522Y0032703D01*
X0140477Y0032720D01*
X0140431Y0032733D01*
X0140384Y0032742D01*
X0140336Y0032748D01*
X0140288Y0032750D01*
X0139677Y0032750D01*
X0139677Y0030550D01*
X0141823Y0032261D02*
X0142434Y0032750D01*
X0133855Y0030889D02*
X0133853Y0030929D01*
X0133848Y0030969D01*
X0133839Y0031008D01*
X0133827Y0031046D01*
X0133811Y0031083D01*
X0133793Y0031118D01*
X0133771Y0031152D01*
X0133746Y0031183D01*
X0133719Y0031212D01*
X0133689Y0031239D01*
X0133657Y0031263D01*
X0133623Y0031284D01*
X0133587Y0031302D01*
X0133550Y0031317D01*
X0133855Y0030889D02*
X0133853Y0030849D01*
X0133848Y0030809D01*
X0133839Y0030770D01*
X0133827Y0030732D01*
X0133811Y0030695D01*
X0133793Y0030660D01*
X0133771Y0030626D01*
X0133746Y0030595D01*
X0133719Y0030566D01*
X0133689Y0030539D01*
X0133657Y0030515D01*
X0133623Y0030494D01*
X0133587Y0030476D01*
X0133550Y0030461D01*
X0133366Y0030400D02*
X0132144Y0031378D01*
X0131960Y0031317D02*
X0131923Y0031302D01*
X0131887Y0031284D01*
X0131853Y0031263D01*
X0131821Y0031239D01*
X0131791Y0031212D01*
X0131764Y0031183D01*
X0131739Y0031152D01*
X0131717Y0031118D01*
X0131699Y0031083D01*
X0131683Y0031046D01*
X0131671Y0031008D01*
X0131662Y0030969D01*
X0131657Y0030929D01*
X0131655Y0030889D01*
X0131657Y0030849D01*
X0131662Y0030809D01*
X0131671Y0030770D01*
X0131683Y0030732D01*
X0131699Y0030695D01*
X0131717Y0030660D01*
X0131739Y0030626D01*
X0131764Y0030595D01*
X0131791Y0030566D01*
X0131821Y0030539D01*
X0131853Y0030515D01*
X0131887Y0030494D01*
X0131923Y0030476D01*
X0131960Y0030461D01*
X0131961Y0031317D02*
X0132035Y0031351D01*
X0132111Y0031382D01*
X0132189Y0031409D01*
X0132268Y0031433D01*
X0132347Y0031454D01*
X0132428Y0031470D01*
X0132509Y0031483D01*
X0132591Y0031493D01*
X0132673Y0031498D01*
X0132755Y0031500D01*
X0132755Y0030278D02*
X0132673Y0030280D01*
X0132591Y0030285D01*
X0132509Y0030295D01*
X0132428Y0030308D01*
X0132347Y0030324D01*
X0132268Y0030345D01*
X0132189Y0030369D01*
X0132111Y0030396D01*
X0132035Y0030427D01*
X0131961Y0030461D01*
X0132755Y0031500D02*
X0132837Y0031498D01*
X0132919Y0031493D01*
X0133001Y0031483D01*
X0133082Y0031470D01*
X0133163Y0031454D01*
X0133242Y0031433D01*
X0133321Y0031409D01*
X0133399Y0031382D01*
X0133475Y0031351D01*
X0133549Y0031317D01*
X0133549Y0030461D02*
X0133475Y0030427D01*
X0133399Y0030396D01*
X0133321Y0030369D01*
X0133242Y0030345D01*
X0133163Y0030324D01*
X0133082Y0030308D01*
X0133001Y0030295D01*
X0132919Y0030285D01*
X0132837Y0030280D01*
X0132755Y0030278D01*
X0133855Y0029340D02*
X0133855Y0028118D01*
X0133855Y0028729D02*
X0131655Y0028729D01*
X0132144Y0028118D01*
X0132877Y0026705D02*
X0133855Y0027194D01*
X0132877Y0026583D02*
X0132877Y0025972D01*
X0132877Y0026583D02*
X0132875Y0026631D01*
X0132869Y0026679D01*
X0132860Y0026726D01*
X0132847Y0026772D01*
X0132830Y0026817D01*
X0132810Y0026860D01*
X0132787Y0026902D01*
X0132760Y0026942D01*
X0132731Y0026980D01*
X0132698Y0027015D01*
X0132663Y0027048D01*
X0132625Y0027077D01*
X0132585Y0027104D01*
X0132543Y0027127D01*
X0132500Y0027147D01*
X0132455Y0027164D01*
X0132409Y0027177D01*
X0132362Y0027186D01*
X0132314Y0027192D01*
X0132266Y0027194D01*
X0132218Y0027192D01*
X0132170Y0027186D01*
X0132123Y0027177D01*
X0132077Y0027164D01*
X0132032Y0027147D01*
X0131989Y0027127D01*
X0131947Y0027104D01*
X0131907Y0027077D01*
X0131869Y0027048D01*
X0131834Y0027015D01*
X0131801Y0026980D01*
X0131772Y0026942D01*
X0131745Y0026902D01*
X0131722Y0026860D01*
X0131702Y0026817D01*
X0131685Y0026772D01*
X0131672Y0026726D01*
X0131663Y0026679D01*
X0131657Y0026631D01*
X0131655Y0026583D01*
X0131655Y0025972D01*
X0133855Y0025972D01*
X0118955Y0020367D02*
X0118955Y0019756D01*
X0118955Y0020367D02*
X0118953Y0020415D01*
X0118947Y0020463D01*
X0118938Y0020510D01*
X0118925Y0020556D01*
X0118908Y0020601D01*
X0118888Y0020644D01*
X0118865Y0020686D01*
X0118838Y0020726D01*
X0118809Y0020764D01*
X0118776Y0020799D01*
X0118741Y0020832D01*
X0118703Y0020861D01*
X0118663Y0020888D01*
X0118621Y0020911D01*
X0118578Y0020931D01*
X0118533Y0020948D01*
X0118487Y0020961D01*
X0118440Y0020970D01*
X0118392Y0020976D01*
X0118344Y0020978D01*
X0118296Y0020976D01*
X0118248Y0020970D01*
X0118201Y0020961D01*
X0118155Y0020948D01*
X0118110Y0020931D01*
X0118067Y0020911D01*
X0118025Y0020888D01*
X0117985Y0020861D01*
X0117947Y0020832D01*
X0117912Y0020799D01*
X0117879Y0020764D01*
X0117850Y0020726D01*
X0117823Y0020686D01*
X0117800Y0020644D01*
X0117780Y0020601D01*
X0117763Y0020556D01*
X0117750Y0020510D01*
X0117741Y0020463D01*
X0117735Y0020415D01*
X0117733Y0020367D01*
X0117733Y0020489D02*
X0117733Y0020000D01*
X0117733Y0020489D02*
X0117731Y0020532D01*
X0117726Y0020574D01*
X0117716Y0020616D01*
X0117704Y0020656D01*
X0117687Y0020696D01*
X0117667Y0020734D01*
X0117645Y0020769D01*
X0117619Y0020803D01*
X0117590Y0020835D01*
X0117558Y0020864D01*
X0117524Y0020890D01*
X0117489Y0020912D01*
X0117451Y0020932D01*
X0117411Y0020949D01*
X0117371Y0020961D01*
X0117329Y0020971D01*
X0117287Y0020976D01*
X0117244Y0020978D01*
X0117201Y0020976D01*
X0117159Y0020971D01*
X0117117Y0020961D01*
X0117077Y0020949D01*
X0117037Y0020932D01*
X0117000Y0020912D01*
X0116964Y0020890D01*
X0116930Y0020864D01*
X0116898Y0020835D01*
X0116869Y0020803D01*
X0116843Y0020769D01*
X0116821Y0020734D01*
X0116801Y0020696D01*
X0116784Y0020656D01*
X0116772Y0020616D01*
X0116762Y0020574D01*
X0116757Y0020532D01*
X0116755Y0020489D01*
X0116755Y0019756D01*
X0118955Y0018818D02*
X0118955Y0017596D01*
X0118955Y0018207D02*
X0116755Y0018207D01*
X0117244Y0017596D01*
X0117977Y0016183D02*
X0118955Y0016672D01*
X0117977Y0016061D02*
X0117977Y0015450D01*
X0117977Y0016061D02*
X0117975Y0016109D01*
X0117969Y0016157D01*
X0117960Y0016204D01*
X0117947Y0016250D01*
X0117930Y0016295D01*
X0117910Y0016338D01*
X0117887Y0016380D01*
X0117860Y0016420D01*
X0117831Y0016458D01*
X0117798Y0016493D01*
X0117763Y0016526D01*
X0117725Y0016555D01*
X0117685Y0016582D01*
X0117643Y0016605D01*
X0117600Y0016625D01*
X0117555Y0016642D01*
X0117509Y0016655D01*
X0117462Y0016664D01*
X0117414Y0016670D01*
X0117366Y0016672D01*
X0117318Y0016670D01*
X0117270Y0016664D01*
X0117223Y0016655D01*
X0117177Y0016642D01*
X0117132Y0016625D01*
X0117089Y0016605D01*
X0117047Y0016582D01*
X0117007Y0016555D01*
X0116969Y0016526D01*
X0116934Y0016493D01*
X0116901Y0016458D01*
X0116872Y0016420D01*
X0116845Y0016380D01*
X0116822Y0016338D01*
X0116802Y0016295D01*
X0116785Y0016250D01*
X0116772Y0016204D01*
X0116763Y0016157D01*
X0116757Y0016109D01*
X0116755Y0016061D01*
X0116755Y0015450D01*
X0118955Y0015450D01*
X0125381Y0011595D02*
X0125381Y0010373D01*
X0125380Y0010373D02*
X0125382Y0010330D01*
X0125387Y0010288D01*
X0125397Y0010246D01*
X0125409Y0010206D01*
X0125426Y0010166D01*
X0125446Y0010129D01*
X0125468Y0010093D01*
X0125494Y0010059D01*
X0125523Y0010027D01*
X0125555Y0009998D01*
X0125589Y0009972D01*
X0125625Y0009950D01*
X0125662Y0009930D01*
X0125702Y0009913D01*
X0125742Y0009901D01*
X0125784Y0009891D01*
X0125826Y0009886D01*
X0125869Y0009884D01*
X0126358Y0009884D01*
X0127187Y0009884D02*
X0128409Y0009884D01*
X0127798Y0009884D02*
X0127798Y0012084D01*
X0127187Y0011595D01*
X0126358Y0012084D02*
X0125869Y0012084D01*
X0125826Y0012082D01*
X0125784Y0012077D01*
X0125742Y0012067D01*
X0125702Y0012055D01*
X0125662Y0012038D01*
X0125624Y0012018D01*
X0125589Y0011996D01*
X0125555Y0011970D01*
X0125523Y0011941D01*
X0125494Y0011909D01*
X0125468Y0011875D01*
X0125446Y0011839D01*
X0125426Y0011802D01*
X0125409Y0011762D01*
X0125397Y0011722D01*
X0125387Y0011680D01*
X0125382Y0011638D01*
X0125380Y0011595D01*
X0129347Y0011106D02*
X0129347Y0010495D01*
X0129349Y0010447D01*
X0129355Y0010399D01*
X0129364Y0010352D01*
X0129377Y0010306D01*
X0129394Y0010261D01*
X0129414Y0010218D01*
X0129437Y0010176D01*
X0129464Y0010136D01*
X0129493Y0010098D01*
X0129526Y0010063D01*
X0129561Y0010030D01*
X0129599Y0010001D01*
X0129639Y0009974D01*
X0129681Y0009951D01*
X0129724Y0009931D01*
X0129769Y0009914D01*
X0129815Y0009901D01*
X0129862Y0009892D01*
X0129910Y0009886D01*
X0129958Y0009884D01*
X0130006Y0009886D01*
X0130054Y0009892D01*
X0130101Y0009901D01*
X0130147Y0009914D01*
X0130192Y0009931D01*
X0130235Y0009951D01*
X0130277Y0009974D01*
X0130317Y0010001D01*
X0130355Y0010030D01*
X0130390Y0010063D01*
X0130423Y0010098D01*
X0130452Y0010136D01*
X0130479Y0010176D01*
X0130502Y0010218D01*
X0130522Y0010261D01*
X0130539Y0010306D01*
X0130552Y0010352D01*
X0130561Y0010399D01*
X0130567Y0010447D01*
X0130569Y0010495D01*
X0130569Y0010617D01*
X0130567Y0010660D01*
X0130562Y0010702D01*
X0130552Y0010744D01*
X0130540Y0010784D01*
X0130523Y0010824D01*
X0130503Y0010862D01*
X0130481Y0010897D01*
X0130455Y0010931D01*
X0130426Y0010963D01*
X0130394Y0010992D01*
X0130360Y0011018D01*
X0130325Y0011040D01*
X0130287Y0011060D01*
X0130247Y0011077D01*
X0130207Y0011089D01*
X0130165Y0011099D01*
X0130123Y0011104D01*
X0130080Y0011106D01*
X0129347Y0011106D01*
X0129349Y0011167D01*
X0129355Y0011229D01*
X0129364Y0011289D01*
X0129378Y0011349D01*
X0129395Y0011408D01*
X0129416Y0011466D01*
X0129440Y0011522D01*
X0129468Y0011577D01*
X0129499Y0011630D01*
X0129534Y0011681D01*
X0129571Y0011729D01*
X0129612Y0011775D01*
X0129656Y0011819D01*
X0129702Y0011860D01*
X0129750Y0011897D01*
X0129801Y0011932D01*
X0129854Y0011963D01*
X0129909Y0011991D01*
X0129965Y0012015D01*
X0130023Y0012036D01*
X0130082Y0012053D01*
X0130142Y0012067D01*
X0130202Y0012076D01*
X0130264Y0012082D01*
X0130325Y0012084D01*
X0132280Y0012025D02*
X0132891Y0012025D01*
X0132280Y0012025D02*
X0132280Y0009825D01*
X0132280Y0010803D02*
X0132891Y0010803D01*
X0133013Y0010803D02*
X0133502Y0009825D01*
X0134426Y0009825D02*
X0135648Y0009825D01*
X0135037Y0009825D02*
X0135037Y0012025D01*
X0134426Y0011536D01*
X0132891Y0012025D02*
X0132939Y0012023D01*
X0132987Y0012017D01*
X0133034Y0012008D01*
X0133080Y0011995D01*
X0133125Y0011978D01*
X0133168Y0011958D01*
X0133210Y0011935D01*
X0133250Y0011908D01*
X0133288Y0011879D01*
X0133323Y0011846D01*
X0133356Y0011811D01*
X0133385Y0011773D01*
X0133412Y0011733D01*
X0133435Y0011691D01*
X0133455Y0011648D01*
X0133472Y0011603D01*
X0133485Y0011557D01*
X0133494Y0011510D01*
X0133500Y0011462D01*
X0133502Y0011414D01*
X0133500Y0011366D01*
X0133494Y0011318D01*
X0133485Y0011271D01*
X0133472Y0011225D01*
X0133455Y0011180D01*
X0133435Y0011137D01*
X0133412Y0011095D01*
X0133385Y0011055D01*
X0133356Y0011017D01*
X0133323Y0010982D01*
X0133288Y0010949D01*
X0133250Y0010920D01*
X0133210Y0010893D01*
X0133168Y0010870D01*
X0133125Y0010850D01*
X0133080Y0010833D01*
X0133034Y0010820D01*
X0132987Y0010811D01*
X0132939Y0010805D01*
X0132891Y0010803D01*
X0136586Y0010314D02*
X0137808Y0010314D01*
X0137441Y0010803D02*
X0137441Y0009825D01*
X0136586Y0010314D02*
X0137075Y0012025D01*
X0139131Y0011595D02*
X0139131Y0010373D01*
X0139130Y0010373D02*
X0139132Y0010330D01*
X0139137Y0010288D01*
X0139147Y0010246D01*
X0139159Y0010206D01*
X0139176Y0010166D01*
X0139196Y0010129D01*
X0139218Y0010093D01*
X0139244Y0010059D01*
X0139273Y0010027D01*
X0139305Y0009998D01*
X0139339Y0009972D01*
X0139375Y0009950D01*
X0139412Y0009930D01*
X0139452Y0009913D01*
X0139492Y0009901D01*
X0139534Y0009891D01*
X0139576Y0009886D01*
X0139619Y0009884D01*
X0140108Y0009884D01*
X0140937Y0009884D02*
X0142159Y0009884D01*
X0141548Y0009884D02*
X0141548Y0012084D01*
X0140937Y0011595D01*
X0140108Y0012084D02*
X0139619Y0012084D01*
X0139576Y0012082D01*
X0139534Y0012077D01*
X0139492Y0012067D01*
X0139452Y0012055D01*
X0139412Y0012038D01*
X0139374Y0012018D01*
X0139339Y0011996D01*
X0139305Y0011970D01*
X0139273Y0011941D01*
X0139244Y0011909D01*
X0139218Y0011875D01*
X0139196Y0011839D01*
X0139176Y0011802D01*
X0139159Y0011762D01*
X0139147Y0011722D01*
X0139137Y0011680D01*
X0139132Y0011638D01*
X0139130Y0011595D01*
X0143097Y0011840D02*
X0143097Y0012084D01*
X0144319Y0012084D01*
X0143708Y0009884D01*
X0146655Y0009825D02*
X0146655Y0012025D01*
X0147266Y0012025D01*
X0147314Y0012023D01*
X0147362Y0012017D01*
X0147409Y0012008D01*
X0147455Y0011995D01*
X0147500Y0011978D01*
X0147543Y0011958D01*
X0147585Y0011935D01*
X0147625Y0011908D01*
X0147663Y0011879D01*
X0147698Y0011846D01*
X0147731Y0011811D01*
X0147760Y0011773D01*
X0147787Y0011733D01*
X0147810Y0011691D01*
X0147830Y0011648D01*
X0147847Y0011603D01*
X0147860Y0011557D01*
X0147869Y0011510D01*
X0147875Y0011462D01*
X0147877Y0011414D01*
X0147875Y0011366D01*
X0147869Y0011318D01*
X0147860Y0011271D01*
X0147847Y0011225D01*
X0147830Y0011180D01*
X0147810Y0011137D01*
X0147787Y0011095D01*
X0147760Y0011055D01*
X0147731Y0011017D01*
X0147698Y0010982D01*
X0147663Y0010949D01*
X0147625Y0010920D01*
X0147585Y0010893D01*
X0147543Y0010870D01*
X0147500Y0010850D01*
X0147455Y0010833D01*
X0147409Y0010820D01*
X0147362Y0010811D01*
X0147314Y0010805D01*
X0147266Y0010803D01*
X0146655Y0010803D01*
X0147388Y0010803D02*
X0147877Y0009825D01*
X0148801Y0009825D02*
X0150023Y0009825D01*
X0149412Y0009825D02*
X0149412Y0012025D01*
X0148801Y0011536D01*
X0150961Y0011047D02*
X0150961Y0012025D01*
X0152183Y0012025D01*
X0151694Y0011047D02*
X0150961Y0011047D01*
X0151694Y0011047D02*
X0151737Y0011045D01*
X0151779Y0011040D01*
X0151821Y0011030D01*
X0151861Y0011018D01*
X0151901Y0011001D01*
X0151939Y0010981D01*
X0151974Y0010959D01*
X0152008Y0010933D01*
X0152040Y0010904D01*
X0152069Y0010872D01*
X0152095Y0010838D01*
X0152117Y0010803D01*
X0152137Y0010765D01*
X0152154Y0010725D01*
X0152166Y0010685D01*
X0152176Y0010643D01*
X0152181Y0010601D01*
X0152183Y0010558D01*
X0152183Y0010314D01*
X0152181Y0010271D01*
X0152176Y0010229D01*
X0152166Y0010187D01*
X0152154Y0010147D01*
X0152137Y0010107D01*
X0152117Y0010069D01*
X0152095Y0010034D01*
X0152069Y0010000D01*
X0152040Y0009968D01*
X0152008Y0009939D01*
X0151974Y0009913D01*
X0151938Y0009891D01*
X0151901Y0009871D01*
X0151861Y0009854D01*
X0151821Y0009842D01*
X0151779Y0009832D01*
X0151737Y0009827D01*
X0151694Y0009825D01*
X0150961Y0009825D01*
X0159214Y0012450D02*
X0159214Y0012939D01*
X0159214Y0012450D02*
X0159216Y0012407D01*
X0159221Y0012365D01*
X0159231Y0012323D01*
X0159243Y0012283D01*
X0159260Y0012243D01*
X0159280Y0012205D01*
X0159302Y0012170D01*
X0159328Y0012136D01*
X0159357Y0012104D01*
X0159389Y0012075D01*
X0159423Y0012049D01*
X0159459Y0012027D01*
X0159496Y0012007D01*
X0159536Y0011990D01*
X0159576Y0011978D01*
X0159618Y0011968D01*
X0159660Y0011963D01*
X0159703Y0011961D01*
X0160925Y0011961D01*
X0160968Y0011963D01*
X0161010Y0011968D01*
X0161052Y0011978D01*
X0161092Y0011990D01*
X0161132Y0012007D01*
X0161170Y0012027D01*
X0161205Y0012049D01*
X0161239Y0012075D01*
X0161271Y0012104D01*
X0161300Y0012136D01*
X0161326Y0012170D01*
X0161348Y0012206D01*
X0161368Y0012243D01*
X0161385Y0012283D01*
X0161397Y0012323D01*
X0161407Y0012365D01*
X0161412Y0012407D01*
X0161414Y0012450D01*
X0161414Y0012939D01*
X0161414Y0013767D02*
X0161414Y0014990D01*
X0161414Y0014379D02*
X0159214Y0014379D01*
X0159703Y0013767D01*
X0159703Y0016049D02*
X0159746Y0016051D01*
X0159788Y0016056D01*
X0159830Y0016066D01*
X0159870Y0016078D01*
X0159910Y0016095D01*
X0159948Y0016115D01*
X0159983Y0016137D01*
X0160017Y0016163D01*
X0160049Y0016192D01*
X0160078Y0016224D01*
X0160104Y0016258D01*
X0160126Y0016294D01*
X0160146Y0016331D01*
X0160163Y0016371D01*
X0160175Y0016411D01*
X0160185Y0016453D01*
X0160190Y0016495D01*
X0160192Y0016538D01*
X0160190Y0016581D01*
X0160185Y0016623D01*
X0160175Y0016665D01*
X0160163Y0016705D01*
X0160146Y0016745D01*
X0160126Y0016783D01*
X0160104Y0016818D01*
X0160078Y0016852D01*
X0160049Y0016884D01*
X0160017Y0016913D01*
X0159983Y0016939D01*
X0159948Y0016961D01*
X0159910Y0016981D01*
X0159870Y0016998D01*
X0159830Y0017010D01*
X0159788Y0017020D01*
X0159746Y0017025D01*
X0159703Y0017027D01*
X0159660Y0017025D01*
X0159618Y0017020D01*
X0159576Y0017010D01*
X0159536Y0016998D01*
X0159496Y0016981D01*
X0159459Y0016961D01*
X0159423Y0016939D01*
X0159389Y0016913D01*
X0159357Y0016884D01*
X0159328Y0016852D01*
X0159302Y0016818D01*
X0159280Y0016783D01*
X0159260Y0016745D01*
X0159243Y0016705D01*
X0159231Y0016665D01*
X0159221Y0016623D01*
X0159216Y0016581D01*
X0159214Y0016538D01*
X0159216Y0016495D01*
X0159221Y0016453D01*
X0159231Y0016411D01*
X0159243Y0016371D01*
X0159260Y0016331D01*
X0159280Y0016294D01*
X0159302Y0016258D01*
X0159328Y0016224D01*
X0159357Y0016192D01*
X0159389Y0016163D01*
X0159423Y0016137D01*
X0159459Y0016115D01*
X0159496Y0016095D01*
X0159536Y0016078D01*
X0159576Y0016066D01*
X0159618Y0016056D01*
X0159660Y0016051D01*
X0159703Y0016049D01*
X0160803Y0015927D02*
X0160851Y0015929D01*
X0160899Y0015935D01*
X0160946Y0015944D01*
X0160992Y0015957D01*
X0161037Y0015974D01*
X0161080Y0015994D01*
X0161122Y0016017D01*
X0161162Y0016044D01*
X0161200Y0016073D01*
X0161235Y0016106D01*
X0161268Y0016141D01*
X0161297Y0016179D01*
X0161324Y0016219D01*
X0161347Y0016261D01*
X0161367Y0016304D01*
X0161384Y0016349D01*
X0161397Y0016395D01*
X0161406Y0016442D01*
X0161412Y0016490D01*
X0161414Y0016538D01*
X0161412Y0016586D01*
X0161406Y0016634D01*
X0161397Y0016681D01*
X0161384Y0016727D01*
X0161367Y0016772D01*
X0161347Y0016815D01*
X0161324Y0016857D01*
X0161297Y0016897D01*
X0161268Y0016935D01*
X0161235Y0016970D01*
X0161200Y0017003D01*
X0161162Y0017032D01*
X0161122Y0017059D01*
X0161080Y0017082D01*
X0161037Y0017102D01*
X0160992Y0017119D01*
X0160946Y0017132D01*
X0160899Y0017141D01*
X0160851Y0017147D01*
X0160803Y0017149D01*
X0160755Y0017147D01*
X0160707Y0017141D01*
X0160660Y0017132D01*
X0160614Y0017119D01*
X0160569Y0017102D01*
X0160526Y0017082D01*
X0160484Y0017059D01*
X0160444Y0017032D01*
X0160406Y0017003D01*
X0160371Y0016970D01*
X0160338Y0016935D01*
X0160309Y0016897D01*
X0160282Y0016857D01*
X0160259Y0016815D01*
X0160239Y0016772D01*
X0160222Y0016727D01*
X0160209Y0016681D01*
X0160200Y0016634D01*
X0160194Y0016586D01*
X0160192Y0016538D01*
X0160194Y0016490D01*
X0160200Y0016442D01*
X0160209Y0016395D01*
X0160222Y0016349D01*
X0160239Y0016304D01*
X0160259Y0016261D01*
X0160282Y0016219D01*
X0160309Y0016179D01*
X0160338Y0016141D01*
X0160371Y0016106D01*
X0160406Y0016073D01*
X0160444Y0016044D01*
X0160484Y0016017D01*
X0160526Y0015994D01*
X0160569Y0015974D01*
X0160614Y0015957D01*
X0160660Y0015944D01*
X0160707Y0015935D01*
X0160755Y0015929D01*
X0160803Y0015927D01*
X0117705Y0029200D02*
X0115505Y0029200D01*
X0115505Y0029811D01*
X0115507Y0029859D01*
X0115513Y0029907D01*
X0115522Y0029954D01*
X0115535Y0030000D01*
X0115552Y0030045D01*
X0115572Y0030088D01*
X0115595Y0030130D01*
X0115622Y0030170D01*
X0115651Y0030208D01*
X0115684Y0030243D01*
X0115719Y0030276D01*
X0115757Y0030305D01*
X0115797Y0030332D01*
X0115839Y0030355D01*
X0115882Y0030375D01*
X0115927Y0030392D01*
X0115973Y0030405D01*
X0116020Y0030414D01*
X0116068Y0030420D01*
X0116116Y0030422D01*
X0116164Y0030420D01*
X0116212Y0030414D01*
X0116259Y0030405D01*
X0116305Y0030392D01*
X0116350Y0030375D01*
X0116393Y0030355D01*
X0116435Y0030332D01*
X0116475Y0030305D01*
X0116513Y0030276D01*
X0116548Y0030243D01*
X0116581Y0030208D01*
X0116610Y0030170D01*
X0116637Y0030130D01*
X0116660Y0030088D01*
X0116680Y0030045D01*
X0116697Y0030000D01*
X0116710Y0029954D01*
X0116719Y0029907D01*
X0116725Y0029859D01*
X0116727Y0029811D01*
X0116727Y0029200D01*
X0116727Y0029933D02*
X0117705Y0030422D01*
X0117705Y0031346D02*
X0117705Y0032568D01*
X0117705Y0031957D02*
X0115505Y0031957D01*
X0115994Y0031346D01*
X0087391Y0031079D02*
X0087391Y0030101D01*
X0087389Y0030053D01*
X0087383Y0030005D01*
X0087374Y0029958D01*
X0087361Y0029912D01*
X0087344Y0029867D01*
X0087324Y0029824D01*
X0087301Y0029782D01*
X0087274Y0029742D01*
X0087245Y0029704D01*
X0087212Y0029669D01*
X0087177Y0029636D01*
X0087139Y0029607D01*
X0087099Y0029580D01*
X0087057Y0029557D01*
X0087014Y0029537D01*
X0086969Y0029520D01*
X0086923Y0029507D01*
X0086876Y0029498D01*
X0086828Y0029492D01*
X0086780Y0029490D01*
X0086169Y0029490D01*
X0086169Y0031690D01*
X0086780Y0031690D01*
X0086828Y0031688D01*
X0086876Y0031682D01*
X0086923Y0031673D01*
X0086969Y0031660D01*
X0087014Y0031643D01*
X0087057Y0031623D01*
X0087099Y0031600D01*
X0087139Y0031573D01*
X0087177Y0031544D01*
X0087212Y0031511D01*
X0087245Y0031476D01*
X0087274Y0031438D01*
X0087301Y0031398D01*
X0087324Y0031356D01*
X0087344Y0031313D01*
X0087361Y0031268D01*
X0087374Y0031222D01*
X0087383Y0031175D01*
X0087389Y0031127D01*
X0087391Y0031079D01*
X0085087Y0031690D02*
X0085087Y0029490D01*
X0083865Y0031690D01*
X0083865Y0029490D01*
X0082783Y0029490D02*
X0082050Y0029490D01*
X0082007Y0029492D01*
X0081965Y0029497D01*
X0081923Y0029507D01*
X0081883Y0029519D01*
X0081843Y0029536D01*
X0081806Y0029556D01*
X0081770Y0029578D01*
X0081736Y0029604D01*
X0081704Y0029633D01*
X0081675Y0029665D01*
X0081649Y0029699D01*
X0081627Y0029735D01*
X0081607Y0029772D01*
X0081590Y0029812D01*
X0081578Y0029852D01*
X0081568Y0029894D01*
X0081563Y0029936D01*
X0081561Y0029979D01*
X0081561Y0031201D01*
X0081563Y0031244D01*
X0081568Y0031286D01*
X0081578Y0031328D01*
X0081590Y0031368D01*
X0081607Y0031408D01*
X0081627Y0031445D01*
X0081649Y0031481D01*
X0081675Y0031515D01*
X0081704Y0031547D01*
X0081736Y0031576D01*
X0081770Y0031602D01*
X0081805Y0031624D01*
X0081843Y0031644D01*
X0081883Y0031661D01*
X0081923Y0031673D01*
X0081965Y0031683D01*
X0082007Y0031688D01*
X0082050Y0031690D01*
X0082783Y0031690D01*
X0082783Y0030712D02*
X0082417Y0030712D01*
X0082783Y0030712D02*
X0082783Y0029490D01*
X0083721Y0034490D02*
X0084332Y0034490D01*
X0083721Y0034490D02*
X0083721Y0036690D01*
X0084332Y0036690D01*
X0084380Y0036688D01*
X0084428Y0036682D01*
X0084475Y0036673D01*
X0084521Y0036660D01*
X0084566Y0036643D01*
X0084609Y0036623D01*
X0084651Y0036600D01*
X0084691Y0036573D01*
X0084729Y0036544D01*
X0084764Y0036511D01*
X0084797Y0036476D01*
X0084826Y0036438D01*
X0084853Y0036398D01*
X0084876Y0036356D01*
X0084896Y0036313D01*
X0084913Y0036268D01*
X0084926Y0036222D01*
X0084935Y0036175D01*
X0084941Y0036127D01*
X0084943Y0036079D01*
X0084943Y0035101D01*
X0084941Y0035053D01*
X0084935Y0035005D01*
X0084926Y0034958D01*
X0084913Y0034912D01*
X0084896Y0034867D01*
X0084876Y0034824D01*
X0084853Y0034782D01*
X0084826Y0034742D01*
X0084797Y0034704D01*
X0084764Y0034669D01*
X0084729Y0034636D01*
X0084691Y0034607D01*
X0084651Y0034580D01*
X0084609Y0034557D01*
X0084566Y0034537D01*
X0084521Y0034520D01*
X0084475Y0034507D01*
X0084428Y0034498D01*
X0084380Y0034492D01*
X0084332Y0034490D01*
X0085831Y0034490D02*
X0086564Y0036690D01*
X0087298Y0034490D01*
X0087114Y0035040D02*
X0086014Y0035040D01*
X0082539Y0035407D02*
X0081867Y0035773D01*
X0082111Y0036690D02*
X0082170Y0036688D01*
X0082229Y0036682D01*
X0082287Y0036673D01*
X0082344Y0036660D01*
X0082401Y0036643D01*
X0082456Y0036622D01*
X0082510Y0036599D01*
X0082562Y0036571D01*
X0082613Y0036540D01*
X0082661Y0036507D01*
X0081867Y0035773D02*
X0081831Y0035796D01*
X0081797Y0035823D01*
X0081765Y0035852D01*
X0081736Y0035884D01*
X0081710Y0035918D01*
X0081687Y0035954D01*
X0081668Y0035993D01*
X0081651Y0036032D01*
X0081639Y0036073D01*
X0081629Y0036115D01*
X0081624Y0036158D01*
X0081622Y0036201D01*
X0081624Y0036244D01*
X0081629Y0036286D01*
X0081639Y0036328D01*
X0081651Y0036368D01*
X0081668Y0036408D01*
X0081688Y0036446D01*
X0081710Y0036481D01*
X0081736Y0036515D01*
X0081765Y0036547D01*
X0081797Y0036576D01*
X0081831Y0036602D01*
X0081867Y0036624D01*
X0081904Y0036644D01*
X0081944Y0036661D01*
X0081984Y0036673D01*
X0082026Y0036683D01*
X0082068Y0036688D01*
X0082111Y0036690D01*
X0081562Y0034796D02*
X0081607Y0034752D01*
X0081655Y0034712D01*
X0081705Y0034675D01*
X0081758Y0034641D01*
X0081813Y0034610D01*
X0081869Y0034582D01*
X0081927Y0034558D01*
X0081986Y0034537D01*
X0082047Y0034520D01*
X0082108Y0034507D01*
X0082170Y0034498D01*
X0082232Y0034492D01*
X0082295Y0034490D01*
X0082338Y0034492D01*
X0082380Y0034497D01*
X0082422Y0034507D01*
X0082462Y0034519D01*
X0082502Y0034536D01*
X0082540Y0034556D01*
X0082575Y0034578D01*
X0082609Y0034604D01*
X0082641Y0034633D01*
X0082670Y0034665D01*
X0082696Y0034699D01*
X0082718Y0034735D01*
X0082738Y0034772D01*
X0082755Y0034812D01*
X0082767Y0034852D01*
X0082777Y0034894D01*
X0082782Y0034936D01*
X0082784Y0034979D01*
X0082782Y0035022D01*
X0082777Y0035065D01*
X0082767Y0035107D01*
X0082755Y0035148D01*
X0082738Y0035187D01*
X0082719Y0035226D01*
X0082696Y0035262D01*
X0082670Y0035296D01*
X0082641Y0035328D01*
X0082609Y0035357D01*
X0082575Y0035384D01*
X0082539Y0035407D01*
X0084132Y0039490D02*
X0084621Y0039490D01*
X0084132Y0039490D02*
X0084089Y0039492D01*
X0084047Y0039497D01*
X0084005Y0039507D01*
X0083965Y0039519D01*
X0083925Y0039536D01*
X0083888Y0039556D01*
X0083852Y0039578D01*
X0083818Y0039604D01*
X0083786Y0039633D01*
X0083757Y0039665D01*
X0083731Y0039699D01*
X0083709Y0039735D01*
X0083689Y0039772D01*
X0083672Y0039812D01*
X0083660Y0039852D01*
X0083650Y0039894D01*
X0083645Y0039936D01*
X0083643Y0039979D01*
X0083643Y0041201D01*
X0083645Y0041244D01*
X0083650Y0041286D01*
X0083660Y0041328D01*
X0083672Y0041368D01*
X0083689Y0041408D01*
X0083709Y0041445D01*
X0083731Y0041481D01*
X0083757Y0041515D01*
X0083786Y0041547D01*
X0083818Y0041576D01*
X0083852Y0041602D01*
X0083887Y0041624D01*
X0083925Y0041644D01*
X0083965Y0041661D01*
X0084005Y0041673D01*
X0084047Y0041683D01*
X0084089Y0041688D01*
X0084132Y0041690D01*
X0084621Y0041690D01*
X0085526Y0041690D02*
X0085526Y0039490D01*
X0086503Y0039490D01*
X0082539Y0040407D02*
X0081867Y0040773D01*
X0082111Y0041690D02*
X0082170Y0041688D01*
X0082229Y0041682D01*
X0082287Y0041673D01*
X0082344Y0041660D01*
X0082401Y0041643D01*
X0082456Y0041622D01*
X0082510Y0041599D01*
X0082562Y0041571D01*
X0082613Y0041540D01*
X0082661Y0041507D01*
X0081867Y0040773D02*
X0081831Y0040796D01*
X0081797Y0040823D01*
X0081765Y0040852D01*
X0081736Y0040884D01*
X0081710Y0040918D01*
X0081687Y0040954D01*
X0081668Y0040993D01*
X0081651Y0041032D01*
X0081639Y0041073D01*
X0081629Y0041115D01*
X0081624Y0041158D01*
X0081622Y0041201D01*
X0081624Y0041244D01*
X0081629Y0041286D01*
X0081639Y0041328D01*
X0081651Y0041368D01*
X0081668Y0041408D01*
X0081688Y0041446D01*
X0081710Y0041481D01*
X0081736Y0041515D01*
X0081765Y0041547D01*
X0081797Y0041576D01*
X0081831Y0041602D01*
X0081867Y0041624D01*
X0081904Y0041644D01*
X0081944Y0041661D01*
X0081984Y0041673D01*
X0082026Y0041683D01*
X0082068Y0041688D01*
X0082111Y0041690D01*
X0081562Y0039796D02*
X0081607Y0039752D01*
X0081655Y0039712D01*
X0081705Y0039675D01*
X0081758Y0039641D01*
X0081813Y0039610D01*
X0081869Y0039582D01*
X0081927Y0039558D01*
X0081986Y0039537D01*
X0082047Y0039520D01*
X0082108Y0039507D01*
X0082170Y0039498D01*
X0082232Y0039492D01*
X0082295Y0039490D01*
X0082338Y0039492D01*
X0082380Y0039497D01*
X0082422Y0039507D01*
X0082462Y0039519D01*
X0082502Y0039536D01*
X0082540Y0039556D01*
X0082575Y0039578D01*
X0082609Y0039604D01*
X0082641Y0039633D01*
X0082670Y0039665D01*
X0082696Y0039699D01*
X0082718Y0039735D01*
X0082738Y0039772D01*
X0082755Y0039812D01*
X0082767Y0039852D01*
X0082777Y0039894D01*
X0082782Y0039936D01*
X0082784Y0039979D01*
X0082782Y0040022D01*
X0082777Y0040065D01*
X0082767Y0040107D01*
X0082755Y0040148D01*
X0082738Y0040187D01*
X0082719Y0040226D01*
X0082696Y0040262D01*
X0082670Y0040296D01*
X0082641Y0040328D01*
X0082609Y0040357D01*
X0082575Y0040384D01*
X0082539Y0040407D01*
X0075924Y0044635D02*
X0075435Y0044635D01*
X0075680Y0044635D02*
X0075680Y0046835D01*
X0075924Y0046835D02*
X0075435Y0046835D01*
X0073718Y0045918D02*
X0073682Y0045941D01*
X0073648Y0045968D01*
X0073616Y0045997D01*
X0073587Y0046029D01*
X0073561Y0046063D01*
X0073538Y0046099D01*
X0073519Y0046138D01*
X0073502Y0046177D01*
X0073490Y0046218D01*
X0073480Y0046260D01*
X0073475Y0046303D01*
X0073473Y0046346D01*
X0073475Y0046389D01*
X0073480Y0046431D01*
X0073490Y0046473D01*
X0073502Y0046513D01*
X0073519Y0046553D01*
X0073539Y0046591D01*
X0073561Y0046626D01*
X0073587Y0046660D01*
X0073616Y0046692D01*
X0073648Y0046721D01*
X0073682Y0046747D01*
X0073718Y0046769D01*
X0073755Y0046789D01*
X0073795Y0046806D01*
X0073835Y0046818D01*
X0073877Y0046828D01*
X0073919Y0046833D01*
X0073962Y0046835D01*
X0074021Y0046833D01*
X0074080Y0046827D01*
X0074138Y0046818D01*
X0074195Y0046805D01*
X0074252Y0046788D01*
X0074307Y0046767D01*
X0074361Y0046744D01*
X0074413Y0046716D01*
X0074464Y0046685D01*
X0074512Y0046652D01*
X0073413Y0044941D02*
X0073458Y0044897D01*
X0073506Y0044857D01*
X0073556Y0044820D01*
X0073609Y0044786D01*
X0073664Y0044755D01*
X0073720Y0044727D01*
X0073778Y0044703D01*
X0073837Y0044682D01*
X0073898Y0044665D01*
X0073959Y0044652D01*
X0074021Y0044643D01*
X0074083Y0044637D01*
X0074146Y0044635D01*
X0074189Y0044637D01*
X0074231Y0044642D01*
X0074273Y0044652D01*
X0074313Y0044664D01*
X0074353Y0044681D01*
X0074391Y0044701D01*
X0074426Y0044723D01*
X0074460Y0044749D01*
X0074492Y0044778D01*
X0074521Y0044810D01*
X0074547Y0044844D01*
X0074569Y0044880D01*
X0074589Y0044917D01*
X0074606Y0044957D01*
X0074618Y0044997D01*
X0074628Y0045039D01*
X0074633Y0045081D01*
X0074635Y0045124D01*
X0074390Y0045552D02*
X0073718Y0045918D01*
X0074390Y0045552D02*
X0074426Y0045529D01*
X0074460Y0045502D01*
X0074492Y0045473D01*
X0074521Y0045441D01*
X0074547Y0045407D01*
X0074570Y0045371D01*
X0074589Y0045332D01*
X0074606Y0045293D01*
X0074618Y0045252D01*
X0074628Y0045210D01*
X0074633Y0045167D01*
X0074635Y0045124D01*
X0072547Y0045246D02*
X0072547Y0046224D01*
X0072545Y0046272D01*
X0072539Y0046320D01*
X0072530Y0046367D01*
X0072517Y0046413D01*
X0072500Y0046458D01*
X0072480Y0046501D01*
X0072457Y0046543D01*
X0072430Y0046583D01*
X0072401Y0046621D01*
X0072368Y0046656D01*
X0072333Y0046689D01*
X0072295Y0046718D01*
X0072255Y0046745D01*
X0072213Y0046768D01*
X0072170Y0046788D01*
X0072125Y0046805D01*
X0072079Y0046818D01*
X0072032Y0046827D01*
X0071984Y0046833D01*
X0071936Y0046835D01*
X0071888Y0046833D01*
X0071840Y0046827D01*
X0071793Y0046818D01*
X0071747Y0046805D01*
X0071702Y0046788D01*
X0071659Y0046768D01*
X0071617Y0046745D01*
X0071577Y0046718D01*
X0071539Y0046689D01*
X0071504Y0046656D01*
X0071471Y0046621D01*
X0071442Y0046583D01*
X0071415Y0046543D01*
X0071392Y0046501D01*
X0071372Y0046458D01*
X0071355Y0046413D01*
X0071342Y0046367D01*
X0071333Y0046320D01*
X0071327Y0046272D01*
X0071325Y0046224D01*
X0071324Y0046224D02*
X0071324Y0045246D01*
X0071325Y0045246D02*
X0071327Y0045198D01*
X0071333Y0045150D01*
X0071342Y0045103D01*
X0071355Y0045057D01*
X0071372Y0045012D01*
X0071392Y0044969D01*
X0071415Y0044927D01*
X0071442Y0044887D01*
X0071471Y0044849D01*
X0071504Y0044814D01*
X0071539Y0044781D01*
X0071577Y0044752D01*
X0071617Y0044725D01*
X0071659Y0044702D01*
X0071702Y0044682D01*
X0071747Y0044665D01*
X0071793Y0044652D01*
X0071840Y0044643D01*
X0071888Y0044637D01*
X0071936Y0044635D01*
X0071984Y0044637D01*
X0072032Y0044643D01*
X0072079Y0044652D01*
X0072125Y0044665D01*
X0072170Y0044682D01*
X0072213Y0044702D01*
X0072255Y0044725D01*
X0072295Y0044752D01*
X0072333Y0044781D01*
X0072368Y0044814D01*
X0072401Y0044849D01*
X0072430Y0044887D01*
X0072457Y0044927D01*
X0072480Y0044969D01*
X0072500Y0045012D01*
X0072517Y0045057D01*
X0072530Y0045103D01*
X0072539Y0045150D01*
X0072545Y0045198D01*
X0072547Y0045246D01*
X0070293Y0044635D02*
X0070293Y0046835D01*
X0069560Y0045613D01*
X0068826Y0046835D01*
X0068826Y0044635D01*
X0068892Y0049635D02*
X0068892Y0051835D01*
X0069625Y0050613D01*
X0070358Y0051835D01*
X0070358Y0049635D01*
X0071324Y0049635D02*
X0071813Y0049635D01*
X0071569Y0049635D02*
X0071569Y0051835D01*
X0071813Y0051835D02*
X0071324Y0051835D01*
X0072919Y0050918D02*
X0073592Y0050552D01*
X0073347Y0049635D02*
X0073284Y0049637D01*
X0073222Y0049643D01*
X0073160Y0049652D01*
X0073099Y0049665D01*
X0073038Y0049682D01*
X0072979Y0049703D01*
X0072921Y0049727D01*
X0072865Y0049755D01*
X0072810Y0049786D01*
X0072757Y0049820D01*
X0072707Y0049857D01*
X0072659Y0049897D01*
X0072614Y0049941D01*
X0073591Y0050552D02*
X0073627Y0050529D01*
X0073661Y0050502D01*
X0073693Y0050473D01*
X0073722Y0050441D01*
X0073748Y0050407D01*
X0073771Y0050371D01*
X0073790Y0050332D01*
X0073807Y0050293D01*
X0073819Y0050252D01*
X0073829Y0050210D01*
X0073834Y0050167D01*
X0073836Y0050124D01*
X0073834Y0050081D01*
X0073829Y0050039D01*
X0073819Y0049997D01*
X0073807Y0049957D01*
X0073790Y0049917D01*
X0073770Y0049880D01*
X0073748Y0049844D01*
X0073722Y0049810D01*
X0073693Y0049778D01*
X0073661Y0049749D01*
X0073627Y0049723D01*
X0073592Y0049701D01*
X0073554Y0049681D01*
X0073514Y0049664D01*
X0073474Y0049652D01*
X0073432Y0049642D01*
X0073390Y0049637D01*
X0073347Y0049635D01*
X0073714Y0051652D02*
X0073666Y0051685D01*
X0073615Y0051716D01*
X0073563Y0051744D01*
X0073509Y0051767D01*
X0073454Y0051788D01*
X0073397Y0051805D01*
X0073340Y0051818D01*
X0073282Y0051827D01*
X0073223Y0051833D01*
X0073164Y0051835D01*
X0073121Y0051833D01*
X0073079Y0051828D01*
X0073037Y0051818D01*
X0072997Y0051806D01*
X0072957Y0051789D01*
X0072920Y0051769D01*
X0072884Y0051747D01*
X0072850Y0051721D01*
X0072818Y0051692D01*
X0072789Y0051660D01*
X0072763Y0051626D01*
X0072741Y0051591D01*
X0072721Y0051553D01*
X0072704Y0051513D01*
X0072692Y0051473D01*
X0072682Y0051431D01*
X0072677Y0051389D01*
X0072675Y0051346D01*
X0072674Y0051346D02*
X0072676Y0051303D01*
X0072681Y0051260D01*
X0072691Y0051218D01*
X0072703Y0051177D01*
X0072720Y0051138D01*
X0072739Y0051099D01*
X0072762Y0051063D01*
X0072788Y0051029D01*
X0072817Y0050997D01*
X0072849Y0050968D01*
X0072883Y0050941D01*
X0072919Y0050918D01*
X0074702Y0051224D02*
X0074702Y0050246D01*
X0074704Y0050198D01*
X0074710Y0050150D01*
X0074719Y0050103D01*
X0074732Y0050057D01*
X0074749Y0050012D01*
X0074769Y0049969D01*
X0074792Y0049927D01*
X0074819Y0049887D01*
X0074848Y0049849D01*
X0074881Y0049814D01*
X0074916Y0049781D01*
X0074954Y0049752D01*
X0074994Y0049725D01*
X0075036Y0049702D01*
X0075079Y0049682D01*
X0075124Y0049665D01*
X0075170Y0049652D01*
X0075217Y0049643D01*
X0075265Y0049637D01*
X0075313Y0049635D01*
X0075361Y0049637D01*
X0075409Y0049643D01*
X0075456Y0049652D01*
X0075502Y0049665D01*
X0075547Y0049682D01*
X0075590Y0049702D01*
X0075632Y0049725D01*
X0075672Y0049752D01*
X0075710Y0049781D01*
X0075745Y0049814D01*
X0075778Y0049849D01*
X0075807Y0049887D01*
X0075834Y0049927D01*
X0075857Y0049969D01*
X0075877Y0050012D01*
X0075894Y0050057D01*
X0075907Y0050103D01*
X0075916Y0050150D01*
X0075922Y0050198D01*
X0075924Y0050246D01*
X0075924Y0051224D01*
X0075922Y0051272D01*
X0075916Y0051320D01*
X0075907Y0051367D01*
X0075894Y0051413D01*
X0075877Y0051458D01*
X0075857Y0051501D01*
X0075834Y0051543D01*
X0075807Y0051583D01*
X0075778Y0051621D01*
X0075745Y0051656D01*
X0075710Y0051689D01*
X0075672Y0051718D01*
X0075632Y0051745D01*
X0075590Y0051768D01*
X0075547Y0051788D01*
X0075502Y0051805D01*
X0075456Y0051818D01*
X0075409Y0051827D01*
X0075361Y0051833D01*
X0075313Y0051835D01*
X0075265Y0051833D01*
X0075217Y0051827D01*
X0075170Y0051818D01*
X0075124Y0051805D01*
X0075079Y0051788D01*
X0075036Y0051768D01*
X0074994Y0051745D01*
X0074954Y0051718D01*
X0074916Y0051689D01*
X0074881Y0051656D01*
X0074848Y0051621D01*
X0074819Y0051583D01*
X0074792Y0051543D01*
X0074769Y0051501D01*
X0074749Y0051458D01*
X0074732Y0051413D01*
X0074719Y0051367D01*
X0074710Y0051320D01*
X0074704Y0051272D01*
X0074702Y0051224D01*
X0074702Y0054635D02*
X0074702Y0056835D01*
X0073769Y0056835D02*
X0073280Y0056835D01*
X0073237Y0056833D01*
X0073195Y0056828D01*
X0073153Y0056818D01*
X0073113Y0056806D01*
X0073073Y0056789D01*
X0073035Y0056769D01*
X0073000Y0056747D01*
X0072966Y0056721D01*
X0072934Y0056692D01*
X0072905Y0056660D01*
X0072879Y0056626D01*
X0072857Y0056590D01*
X0072837Y0056553D01*
X0072820Y0056513D01*
X0072808Y0056473D01*
X0072798Y0056431D01*
X0072793Y0056389D01*
X0072791Y0056346D01*
X0072791Y0055124D01*
X0072793Y0055081D01*
X0072798Y0055039D01*
X0072808Y0054997D01*
X0072820Y0054957D01*
X0072837Y0054917D01*
X0072857Y0054880D01*
X0072879Y0054844D01*
X0072905Y0054810D01*
X0072934Y0054778D01*
X0072966Y0054749D01*
X0073000Y0054723D01*
X0073036Y0054701D01*
X0073073Y0054681D01*
X0073113Y0054664D01*
X0073153Y0054652D01*
X0073195Y0054642D01*
X0073237Y0054637D01*
X0073280Y0054635D01*
X0073769Y0054635D01*
X0074702Y0055491D02*
X0075924Y0056835D01*
X0075191Y0055979D02*
X0075924Y0054635D01*
X0071687Y0055552D02*
X0071015Y0055918D01*
X0071259Y0056835D02*
X0071318Y0056833D01*
X0071377Y0056827D01*
X0071435Y0056818D01*
X0071492Y0056805D01*
X0071549Y0056788D01*
X0071604Y0056767D01*
X0071658Y0056744D01*
X0071710Y0056716D01*
X0071761Y0056685D01*
X0071809Y0056652D01*
X0071015Y0055918D02*
X0070979Y0055941D01*
X0070945Y0055968D01*
X0070913Y0055997D01*
X0070884Y0056029D01*
X0070858Y0056063D01*
X0070835Y0056099D01*
X0070816Y0056138D01*
X0070799Y0056177D01*
X0070787Y0056218D01*
X0070777Y0056260D01*
X0070772Y0056303D01*
X0070770Y0056346D01*
X0070772Y0056389D01*
X0070777Y0056431D01*
X0070787Y0056473D01*
X0070799Y0056513D01*
X0070816Y0056553D01*
X0070836Y0056591D01*
X0070858Y0056626D01*
X0070884Y0056660D01*
X0070913Y0056692D01*
X0070945Y0056721D01*
X0070979Y0056747D01*
X0071015Y0056769D01*
X0071052Y0056789D01*
X0071092Y0056806D01*
X0071132Y0056818D01*
X0071174Y0056828D01*
X0071216Y0056833D01*
X0071259Y0056835D01*
X0070709Y0054941D02*
X0070754Y0054897D01*
X0070802Y0054857D01*
X0070852Y0054820D01*
X0070905Y0054786D01*
X0070960Y0054755D01*
X0071016Y0054727D01*
X0071074Y0054703D01*
X0071133Y0054682D01*
X0071194Y0054665D01*
X0071255Y0054652D01*
X0071317Y0054643D01*
X0071379Y0054637D01*
X0071442Y0054635D01*
X0071485Y0054637D01*
X0071527Y0054642D01*
X0071569Y0054652D01*
X0071609Y0054664D01*
X0071649Y0054681D01*
X0071687Y0054701D01*
X0071722Y0054723D01*
X0071756Y0054749D01*
X0071788Y0054778D01*
X0071817Y0054810D01*
X0071843Y0054844D01*
X0071865Y0054880D01*
X0071885Y0054917D01*
X0071902Y0054957D01*
X0071914Y0054997D01*
X0071924Y0055039D01*
X0071929Y0055081D01*
X0071931Y0055124D01*
X0071932Y0055124D02*
X0071930Y0055167D01*
X0071925Y0055210D01*
X0071915Y0055252D01*
X0071903Y0055293D01*
X0071886Y0055332D01*
X0071867Y0055371D01*
X0071844Y0055407D01*
X0071818Y0055441D01*
X0071789Y0055473D01*
X0071757Y0055502D01*
X0071723Y0055529D01*
X0071687Y0055552D01*
X0073456Y0058385D02*
X0073945Y0058385D01*
X0073456Y0058385D02*
X0073413Y0058387D01*
X0073371Y0058392D01*
X0073329Y0058402D01*
X0073289Y0058414D01*
X0073249Y0058431D01*
X0073212Y0058451D01*
X0073176Y0058473D01*
X0073142Y0058499D01*
X0073110Y0058528D01*
X0073081Y0058560D01*
X0073055Y0058594D01*
X0073033Y0058630D01*
X0073013Y0058667D01*
X0072996Y0058707D01*
X0072984Y0058747D01*
X0072974Y0058789D01*
X0072969Y0058831D01*
X0072967Y0058874D01*
X0072967Y0060096D01*
X0072969Y0060139D01*
X0072974Y0060181D01*
X0072984Y0060223D01*
X0072996Y0060263D01*
X0073013Y0060303D01*
X0073033Y0060340D01*
X0073055Y0060376D01*
X0073081Y0060410D01*
X0073110Y0060442D01*
X0073142Y0060471D01*
X0073176Y0060497D01*
X0073211Y0060519D01*
X0073249Y0060539D01*
X0073289Y0060556D01*
X0073329Y0060568D01*
X0073371Y0060578D01*
X0073413Y0060583D01*
X0073456Y0060585D01*
X0073945Y0060585D01*
X0074763Y0060096D02*
X0074765Y0060139D01*
X0074770Y0060181D01*
X0074780Y0060223D01*
X0074792Y0060263D01*
X0074809Y0060303D01*
X0074829Y0060341D01*
X0074851Y0060376D01*
X0074877Y0060410D01*
X0074906Y0060442D01*
X0074938Y0060471D01*
X0074972Y0060497D01*
X0075008Y0060519D01*
X0075045Y0060539D01*
X0075085Y0060556D01*
X0075125Y0060568D01*
X0075167Y0060578D01*
X0075209Y0060583D01*
X0075252Y0060585D01*
X0074762Y0060096D02*
X0074764Y0060053D01*
X0074769Y0060010D01*
X0074779Y0059968D01*
X0074791Y0059927D01*
X0074808Y0059888D01*
X0074827Y0059849D01*
X0074850Y0059813D01*
X0074876Y0059779D01*
X0074905Y0059747D01*
X0074937Y0059718D01*
X0074971Y0059691D01*
X0075007Y0059668D01*
X0075680Y0059302D01*
X0075435Y0058385D02*
X0075372Y0058387D01*
X0075310Y0058393D01*
X0075248Y0058402D01*
X0075187Y0058415D01*
X0075126Y0058432D01*
X0075067Y0058453D01*
X0075009Y0058477D01*
X0074953Y0058505D01*
X0074898Y0058536D01*
X0074845Y0058570D01*
X0074795Y0058607D01*
X0074747Y0058647D01*
X0074702Y0058691D01*
X0075679Y0059302D02*
X0075715Y0059279D01*
X0075749Y0059252D01*
X0075781Y0059223D01*
X0075810Y0059191D01*
X0075836Y0059157D01*
X0075859Y0059121D01*
X0075878Y0059082D01*
X0075895Y0059043D01*
X0075907Y0059002D01*
X0075917Y0058960D01*
X0075922Y0058917D01*
X0075924Y0058874D01*
X0075922Y0058831D01*
X0075917Y0058789D01*
X0075907Y0058747D01*
X0075895Y0058707D01*
X0075878Y0058667D01*
X0075858Y0058630D01*
X0075836Y0058594D01*
X0075810Y0058560D01*
X0075781Y0058528D01*
X0075749Y0058499D01*
X0075715Y0058473D01*
X0075680Y0058451D01*
X0075642Y0058431D01*
X0075602Y0058414D01*
X0075562Y0058402D01*
X0075520Y0058392D01*
X0075478Y0058387D01*
X0075435Y0058385D01*
X0075802Y0060402D02*
X0075754Y0060435D01*
X0075703Y0060466D01*
X0075651Y0060494D01*
X0075597Y0060517D01*
X0075542Y0060538D01*
X0075485Y0060555D01*
X0075428Y0060568D01*
X0075370Y0060577D01*
X0075311Y0060583D01*
X0075252Y0060585D01*
X0082090Y0063481D02*
X0082090Y0064214D01*
X0082092Y0064257D01*
X0082097Y0064299D01*
X0082107Y0064341D01*
X0082119Y0064381D01*
X0082136Y0064421D01*
X0082156Y0064459D01*
X0082178Y0064494D01*
X0082204Y0064528D01*
X0082233Y0064560D01*
X0082265Y0064589D01*
X0082299Y0064615D01*
X0082335Y0064637D01*
X0082372Y0064657D01*
X0082412Y0064674D01*
X0082452Y0064686D01*
X0082494Y0064696D01*
X0082536Y0064701D01*
X0082579Y0064703D01*
X0082622Y0064701D01*
X0082664Y0064696D01*
X0082706Y0064686D01*
X0082746Y0064674D01*
X0082786Y0064657D01*
X0082824Y0064637D01*
X0082859Y0064615D01*
X0082893Y0064589D01*
X0082925Y0064560D01*
X0082954Y0064528D01*
X0082980Y0064494D01*
X0083002Y0064459D01*
X0083022Y0064421D01*
X0083039Y0064381D01*
X0083051Y0064341D01*
X0083061Y0064299D01*
X0083066Y0064257D01*
X0083068Y0064214D01*
X0083068Y0063726D01*
X0083068Y0064092D02*
X0083070Y0064140D01*
X0083076Y0064188D01*
X0083085Y0064235D01*
X0083098Y0064281D01*
X0083115Y0064326D01*
X0083135Y0064369D01*
X0083158Y0064411D01*
X0083185Y0064451D01*
X0083214Y0064489D01*
X0083247Y0064524D01*
X0083282Y0064557D01*
X0083320Y0064586D01*
X0083360Y0064613D01*
X0083402Y0064636D01*
X0083445Y0064656D01*
X0083490Y0064673D01*
X0083536Y0064686D01*
X0083583Y0064695D01*
X0083631Y0064701D01*
X0083679Y0064703D01*
X0083727Y0064701D01*
X0083775Y0064695D01*
X0083822Y0064686D01*
X0083868Y0064673D01*
X0083913Y0064656D01*
X0083956Y0064636D01*
X0083998Y0064613D01*
X0084038Y0064586D01*
X0084076Y0064557D01*
X0084111Y0064524D01*
X0084144Y0064489D01*
X0084173Y0064451D01*
X0084200Y0064411D01*
X0084223Y0064369D01*
X0084243Y0064326D01*
X0084260Y0064281D01*
X0084273Y0064235D01*
X0084282Y0064188D01*
X0084288Y0064140D01*
X0084290Y0064092D01*
X0084290Y0063481D01*
X0084290Y0066252D02*
X0082090Y0065519D01*
X0082090Y0066986D02*
X0084290Y0066252D01*
X0084290Y0067801D02*
X0084290Y0068412D01*
X0084288Y0068460D01*
X0084282Y0068508D01*
X0084273Y0068555D01*
X0084260Y0068601D01*
X0084243Y0068646D01*
X0084223Y0068689D01*
X0084200Y0068731D01*
X0084173Y0068771D01*
X0084144Y0068809D01*
X0084111Y0068844D01*
X0084076Y0068877D01*
X0084038Y0068906D01*
X0083998Y0068933D01*
X0083956Y0068956D01*
X0083913Y0068976D01*
X0083868Y0068993D01*
X0083822Y0069006D01*
X0083775Y0069015D01*
X0083727Y0069021D01*
X0083679Y0069023D01*
X0083631Y0069021D01*
X0083583Y0069015D01*
X0083536Y0069006D01*
X0083490Y0068993D01*
X0083445Y0068976D01*
X0083402Y0068956D01*
X0083360Y0068933D01*
X0083320Y0068906D01*
X0083282Y0068877D01*
X0083247Y0068844D01*
X0083214Y0068809D01*
X0083185Y0068771D01*
X0083158Y0068731D01*
X0083135Y0068689D01*
X0083115Y0068646D01*
X0083098Y0068601D01*
X0083085Y0068555D01*
X0083076Y0068508D01*
X0083070Y0068460D01*
X0083068Y0068412D01*
X0083068Y0068534D02*
X0083068Y0068046D01*
X0083068Y0068534D02*
X0083066Y0068577D01*
X0083061Y0068619D01*
X0083051Y0068661D01*
X0083039Y0068701D01*
X0083022Y0068741D01*
X0083002Y0068779D01*
X0082980Y0068814D01*
X0082954Y0068848D01*
X0082925Y0068880D01*
X0082893Y0068909D01*
X0082859Y0068935D01*
X0082824Y0068957D01*
X0082786Y0068977D01*
X0082746Y0068994D01*
X0082706Y0069006D01*
X0082664Y0069016D01*
X0082622Y0069021D01*
X0082579Y0069023D01*
X0082536Y0069021D01*
X0082494Y0069016D01*
X0082452Y0069006D01*
X0082412Y0068994D01*
X0082372Y0068977D01*
X0082335Y0068957D01*
X0082299Y0068935D01*
X0082265Y0068909D01*
X0082233Y0068880D01*
X0082204Y0068848D01*
X0082178Y0068814D01*
X0082156Y0068779D01*
X0082136Y0068741D01*
X0082119Y0068701D01*
X0082107Y0068661D01*
X0082097Y0068619D01*
X0082092Y0068577D01*
X0082090Y0068534D01*
X0082090Y0067801D01*
D15*
X0060305Y0009415D02*
X0001250Y0009415D01*
X0001250Y0048785D01*
X0060305Y0048785D01*
X0060305Y0009415D01*
X0099779Y0010301D02*
X0109479Y0010301D01*
X0109479Y0027899D02*
X0099779Y0027899D01*
X0114026Y0039070D02*
X0141585Y0039070D01*
X0141585Y0066630D01*
X0114026Y0066630D01*
X0114026Y0039937D01*
X0114026Y0039897D02*
X0114026Y0039070D01*
X0115065Y0041275D02*
X0115067Y0041344D01*
X0115073Y0041412D01*
X0115083Y0041480D01*
X0115096Y0041548D01*
X0115114Y0041614D01*
X0115135Y0041680D01*
X0115160Y0041744D01*
X0115189Y0041807D01*
X0115221Y0041868D01*
X0115256Y0041926D01*
X0115295Y0041983D01*
X0115337Y0042038D01*
X0115382Y0042090D01*
X0115430Y0042139D01*
X0115481Y0042186D01*
X0115534Y0042229D01*
X0115590Y0042270D01*
X0115648Y0042307D01*
X0115708Y0042341D01*
X0115769Y0042371D01*
X0115833Y0042398D01*
X0115898Y0042421D01*
X0115964Y0042440D01*
X0116031Y0042456D01*
X0116099Y0042468D01*
X0116167Y0042476D01*
X0116236Y0042480D01*
X0116304Y0042480D01*
X0116373Y0042476D01*
X0116441Y0042468D01*
X0116509Y0042456D01*
X0116576Y0042440D01*
X0116642Y0042421D01*
X0116707Y0042398D01*
X0116771Y0042371D01*
X0116832Y0042341D01*
X0116892Y0042307D01*
X0116950Y0042270D01*
X0117006Y0042229D01*
X0117059Y0042186D01*
X0117110Y0042139D01*
X0117158Y0042090D01*
X0117203Y0042038D01*
X0117245Y0041983D01*
X0117284Y0041926D01*
X0117319Y0041868D01*
X0117351Y0041807D01*
X0117380Y0041744D01*
X0117405Y0041680D01*
X0117426Y0041614D01*
X0117444Y0041548D01*
X0117457Y0041480D01*
X0117467Y0041412D01*
X0117473Y0041344D01*
X0117475Y0041275D01*
X0117473Y0041206D01*
X0117467Y0041138D01*
X0117457Y0041070D01*
X0117444Y0041002D01*
X0117426Y0040936D01*
X0117405Y0040870D01*
X0117380Y0040806D01*
X0117351Y0040743D01*
X0117319Y0040682D01*
X0117284Y0040624D01*
X0117245Y0040567D01*
X0117203Y0040512D01*
X0117158Y0040460D01*
X0117110Y0040411D01*
X0117059Y0040364D01*
X0117006Y0040321D01*
X0116950Y0040280D01*
X0116892Y0040243D01*
X0116832Y0040209D01*
X0116771Y0040179D01*
X0116707Y0040152D01*
X0116642Y0040129D01*
X0116576Y0040110D01*
X0116509Y0040094D01*
X0116441Y0040082D01*
X0116373Y0040074D01*
X0116304Y0040070D01*
X0116236Y0040070D01*
X0116167Y0040074D01*
X0116099Y0040082D01*
X0116031Y0040094D01*
X0115964Y0040110D01*
X0115898Y0040129D01*
X0115833Y0040152D01*
X0115769Y0040179D01*
X0115708Y0040209D01*
X0115648Y0040243D01*
X0115590Y0040280D01*
X0115534Y0040321D01*
X0115481Y0040364D01*
X0115430Y0040411D01*
X0115382Y0040460D01*
X0115337Y0040512D01*
X0115295Y0040567D01*
X0115256Y0040624D01*
X0115221Y0040682D01*
X0115189Y0040743D01*
X0115160Y0040806D01*
X0115135Y0040870D01*
X0115114Y0040936D01*
X0115096Y0041002D01*
X0115083Y0041070D01*
X0115073Y0041138D01*
X0115067Y0041206D01*
X0115065Y0041275D01*
X0101354Y0047801D02*
X0091654Y0047801D01*
X0060305Y0058165D02*
X0060305Y0097535D01*
X0001250Y0097535D01*
X0001250Y0058165D01*
X0060305Y0058165D01*
X0091654Y0065399D02*
X0101354Y0065399D01*
X0174862Y0076876D02*
X0174862Y0093411D01*
X0178406Y0093411D01*
X0184705Y0093411D02*
X0188248Y0093411D01*
X0188248Y0076876D01*
X0174862Y0076876D01*
X0178405Y0093411D02*
X0178519Y0093327D01*
X0178634Y0093246D01*
X0178752Y0093169D01*
X0178872Y0093094D01*
X0178993Y0093023D01*
X0179117Y0092955D01*
X0179242Y0092891D01*
X0179369Y0092830D01*
X0179498Y0092772D01*
X0179628Y0092718D01*
X0179760Y0092668D01*
X0179893Y0092621D01*
X0180027Y0092578D01*
X0180162Y0092538D01*
X0180299Y0092502D01*
X0180436Y0092470D01*
X0180574Y0092441D01*
X0180713Y0092417D01*
X0180852Y0092396D01*
X0180992Y0092379D01*
X0181133Y0092365D01*
X0181273Y0092356D01*
X0181414Y0092350D01*
X0181555Y0092348D01*
X0181696Y0092350D01*
X0181837Y0092356D01*
X0181977Y0092365D01*
X0182118Y0092379D01*
X0182258Y0092396D01*
X0182397Y0092417D01*
X0182536Y0092441D01*
X0182674Y0092470D01*
X0182811Y0092502D01*
X0182948Y0092538D01*
X0183083Y0092578D01*
X0183217Y0092621D01*
X0183350Y0092668D01*
X0183482Y0092718D01*
X0183612Y0092772D01*
X0183741Y0092830D01*
X0183868Y0092891D01*
X0183993Y0092955D01*
X0184117Y0093023D01*
X0184238Y0093094D01*
X0184358Y0093169D01*
X0184476Y0093246D01*
X0184591Y0093327D01*
X0184705Y0093411D01*
X0183898Y0035193D02*
X0164213Y0035193D01*
X0164213Y0015507D01*
X0183898Y0015507D01*
X0183898Y0035193D01*
X0165394Y0033224D02*
X0165396Y0033280D01*
X0165402Y0033335D01*
X0165412Y0033389D01*
X0165425Y0033443D01*
X0165443Y0033496D01*
X0165464Y0033547D01*
X0165488Y0033597D01*
X0165516Y0033645D01*
X0165548Y0033691D01*
X0165582Y0033735D01*
X0165620Y0033776D01*
X0165660Y0033814D01*
X0165703Y0033849D01*
X0165748Y0033881D01*
X0165796Y0033910D01*
X0165845Y0033936D01*
X0165896Y0033958D01*
X0165948Y0033976D01*
X0166002Y0033990D01*
X0166057Y0034001D01*
X0166112Y0034008D01*
X0166167Y0034011D01*
X0166223Y0034010D01*
X0166278Y0034005D01*
X0166333Y0033996D01*
X0166387Y0033984D01*
X0166440Y0033967D01*
X0166492Y0033947D01*
X0166542Y0033923D01*
X0166590Y0033896D01*
X0166637Y0033866D01*
X0166681Y0033832D01*
X0166723Y0033795D01*
X0166761Y0033755D01*
X0166798Y0033713D01*
X0166831Y0033668D01*
X0166860Y0033622D01*
X0166887Y0033573D01*
X0166909Y0033522D01*
X0166929Y0033470D01*
X0166944Y0033416D01*
X0166956Y0033362D01*
X0166964Y0033307D01*
X0166968Y0033252D01*
X0166968Y0033196D01*
X0166964Y0033141D01*
X0166956Y0033086D01*
X0166944Y0033032D01*
X0166929Y0032978D01*
X0166909Y0032926D01*
X0166887Y0032875D01*
X0166860Y0032826D01*
X0166831Y0032780D01*
X0166798Y0032735D01*
X0166761Y0032693D01*
X0166723Y0032653D01*
X0166681Y0032616D01*
X0166637Y0032582D01*
X0166590Y0032552D01*
X0166542Y0032525D01*
X0166492Y0032501D01*
X0166440Y0032481D01*
X0166387Y0032464D01*
X0166333Y0032452D01*
X0166278Y0032443D01*
X0166223Y0032438D01*
X0166167Y0032437D01*
X0166112Y0032440D01*
X0166057Y0032447D01*
X0166002Y0032458D01*
X0165948Y0032472D01*
X0165896Y0032490D01*
X0165845Y0032512D01*
X0165796Y0032538D01*
X0165748Y0032567D01*
X0165703Y0032599D01*
X0165660Y0032634D01*
X0165620Y0032672D01*
X0165582Y0032713D01*
X0165548Y0032757D01*
X0165516Y0032803D01*
X0165488Y0032851D01*
X0165464Y0032901D01*
X0165443Y0032952D01*
X0165425Y0033005D01*
X0165412Y0033059D01*
X0165402Y0033113D01*
X0165396Y0033168D01*
X0165394Y0033224D01*
D16*
X0030778Y0044848D03*
X0030778Y0062102D03*
D17*
X0212628Y0058549D02*
X0215482Y0058549D01*
X0223356Y0059277D02*
X0223356Y0056423D01*
X0242254Y0056423D02*
X0242254Y0059277D01*
X0215482Y0067151D02*
X0212628Y0067151D01*
X0223356Y0083923D02*
X0223356Y0086777D01*
X0215482Y0086049D02*
X0212628Y0086049D01*
X0242254Y0086777D02*
X0242254Y0083923D01*
X0215482Y0039651D02*
X0212628Y0039651D01*
X0212628Y0031049D02*
X0215482Y0031049D01*
X0223356Y0031777D02*
X0223356Y0028923D01*
X0242254Y0028923D02*
X0242254Y0031777D01*
X0215482Y0012151D02*
X0212628Y0012151D01*
M02*
